<?xml version="1.0" encoding="UTF-8"?>
<svg id="Layer_1" data-name="Layer 1" xmlns="http://www.w3.org/2000/svg" xmlns:xlink="http://www.w3.org/1999/xlink" viewBox="0 0 78.31 27.64">
  <defs>
    <style>
      .cls-1 {
        fill: url(#linear-gradient);
      }
    </style>
    <linearGradient id="linear-gradient" x1="-3.67" y1="903.61" x2="78.2" y2="904.35" gradientTransform="translate(0 917.8) scale(1 -1)" gradientUnits="userSpaceOnUse">
      <stop offset=".25" stop-color="#2f3641"/>
      <stop offset=".61" stop-color="#5882c2"/>
      <stop offset=".86" stop-color="#e9a226"/>
    </linearGradient>
  </defs>
  <path class="cls-1" d="M4.71,27.64H.58c-.52,0-.69-.3-.52-.9L6.85.9c.2-.6.63-.9,1.29-.9h5.72c.72,0,1.15.3,1.29.9l6.79,25.84c.17.6,0,.9-.52.9h-4.13c-.32,0-.53-.06-.65-.17-.11-.14-.2-.39-.26-.73l-1.2-4.73H6.79l-1.2,4.73c-.06.34-.16.59-.3.73-.11.11-.32.17-.6.17h.02ZM10.95,5.19l-3.1,12.43h6.36l-3.1-12.43h-.17.01ZM26.37,27.64h-3.57c-.6,0-.9-.3-.9-.9V.9c0-.6.3-.9.9-.9h3.22c.6,0,1,.2,1.2.6l8.69,16.3h.17V.9c0-.6.3-.9.9-.9h3.57c.6,0,.9.3.9.9v25.84c0,.6-.3.9-.9.9h-3.14c-.63,0-1.09-.29-1.38-.86l-8.6-16h-.17v15.95c0,.6-.3.9-.9.9h.01ZM47.74,27.64h-3.65c-.6,0-.9-.3-.9-.9V.9c0-.6.3-.9.9-.9h10.23c2.24,0,3.98.62,5.25,1.85,1.26,1.23,1.89,2.97,1.89,5.2v3.35c0,3.24-1.28,5.39-3.83,6.45v.17l4.6,9.59c.26.69.02,1.03-.73,1.03h-3.48c-.52,0-.89-.06-1.12-.17-.23-.11-.41-.36-.56-.73l-4.3-9.29h-2.88c-.34,0-.52.16-.52.47v8.82c0,.6-.3.9-.9.9h0ZM49.11,13.06h4.21c.92,0,1.59-.19,2.02-.56.43-.4.65-1.03.65-1.89v-3.35c0-.89-.22-1.53-.65-1.93s-1.1-.6-2.02-.6h-4.21c-.32,0-.47.16-.47.47v7.4c0,.32.16.47.47.47h0ZM67.38,27.64h-3.65c-.6,0-.9-.3-.9-.9V.9c0-.6.3-.9.9-.9h13.72c.57,0,.86.3.86.9v2.92c0,.6-.29.9-.86.9h-8.64c-.34,0-.52.16-.52.47v6.66c0,.34.17.52.52.52h7.35c.6,0,.9.3.9.9v2.88c0,.63-.3.95-.9.95h-7.35c-.34,0-.52.16-.52.47v9.16c0,.6-.3.9-.9.9h-.01Z"/>
</svg>