<?xml version="1.0" encoding="UTF-8"?>
<svg id="Layer_1" data-name="Layer 1" xmlns="http://www.w3.org/2000/svg" viewBox="0 0 245.4 34.62">
  <defs>
    <style>
      .cls-1 {
        fill: #005067;
      }

      .cls-2 {
        fill: #3cd8ff;
      }

      .cls-3 {
        fill: #fff;
      }
    </style>
  </defs>
  <path class="cls-3" d="M43.96,28.31l2.4-7.15h1.47l2.4,7.15h-1.13l-.59-1.8h-2.9l-.6,1.8h-1.05ZM45.89,25.66h2.35l-1.17-3.58-1.18,3.58ZM51.29,28.31v-5.23h1.04v.83c.31-.65,1.01-.93,1.71-.93,1.27,0,1.87.9,1.87,2.11v3.22h-1.04v-3.19c0-.81-.38-1.26-1.18-1.26-.84,0-1.36.51-1.36,1.33v3.12h-1.04ZM60.93,28.31v-.83c-.31.64-.96.93-1.69.93-1.21,0-1.86-.79-1.86-2v-3.33h1.03v3.24c0,.8.4,1.23,1.17,1.23.85,0,1.36-.53,1.36-1.33v-3.14h1.03v5.23h-1.03ZM63.09,27.1l.79-.35c.2.54.72.86,1.29.86.51,0,1.05-.16,1.05-.72s-.59-.72-1.27-.88c-.78-.18-1.69-.39-1.69-1.51,0-.99.98-1.52,1.86-1.52s1.6.38,1.96,1.16l-.78.34c-.22-.48-.67-.71-1.15-.71-.44,0-.93.19-.93.67,0,.53.57.65,1.21.78.83.17,1.78.37,1.78,1.52s-.99,1.66-2.01,1.66c-.93,0-1.8-.4-2.11-1.31ZM71.32,28.31v-.65c-.39.52-.98.75-1.61.75-.96,0-1.75-.53-1.75-1.55,0-1.4,1.5-1.64,2.7-1.64h.65c0-.84-.13-1.43-1.11-1.43-.53,0-1.05.32-1.23.83l-.85-.37c.38-.89,1.24-1.27,2.16-1.27,1.21,0,2.06.65,2.06,1.91v3.42h-1.02ZM71.31,25.9h-.66c-.63,0-1.66.09-1.66.97,0,.53.37.76.91.76.68,0,1.41-.38,1.41-1.15v-.58ZM73.8,28.31v-5.23h1.04v.83c.31-.65,1.01-.93,1.71-.93,1.27,0,1.87.9,1.87,2.11v3.22h-1.04v-3.19c0-.81-.38-1.26-1.18-1.26-.84,0-1.36.51-1.36,1.33v3.12h-1.04ZM83.74,28.31v-.89c-.34.62-1.15.99-1.83.99-1.59,0-2.35-1.23-2.35-2.7s.86-2.74,2.39-2.74c.73,0,1.42.29,1.79.93v-3.29h1.04v7.7h-1.04ZM82.13,27.57c1.15,0,1.65-.86,1.65-1.92s-.47-1.84-1.58-1.84c-1.18,0-1.57.91-1.57,1.94,0,.94.46,1.82,1.5,1.82ZM86.33,28.31v-7.69h1.04v3.29c.31-.65.99-.93,1.7-.93,1.27,0,1.89.89,1.89,2.11v3.22h-1.04v-3.19c0-.82-.41-1.27-1.2-1.27-.86,0-1.36.53-1.36,1.34v3.12h-1.04ZM95.43,28.31v-.65c-.39.52-.98.75-1.61.75-.96,0-1.75-.53-1.75-1.55,0-1.4,1.5-1.64,2.7-1.64h.65c0-.84-.13-1.43-1.11-1.43-.53,0-1.05.32-1.23.83l-.85-.37c.38-.89,1.24-1.27,2.16-1.27,1.21,0,2.06.65,2.06,1.91v3.42h-1.02ZM95.42,25.9h-.66c-.63,0-1.66.09-1.66.97,0,.53.37.76.91.76.68,0,1.41-.38,1.41-1.15v-.58ZM97.91,28.31v-5.23h1.04v.83c.31-.65,1.01-.93,1.71-.93,1.27,0,1.87.9,1.87,2.11v3.22h-1.04v-3.19c0-.81-.38-1.26-1.18-1.26-.84,0-1.36.51-1.36,1.33v3.12h-1.04ZM106.06,28.31v-7.15h1.39l3.31,5.51v-5.51h1.04v7.15h-1.21l-3.49-5.78v5.78h-1.04ZM116.36,28.31v-.65c-.39.52-.98.75-1.61.75-.96,0-1.75-.53-1.75-1.55,0-1.4,1.5-1.64,2.7-1.64h.65c0-.84-.13-1.43-1.11-1.43-.53,0-1.05.32-1.23.83l-.85-.37c.38-.89,1.24-1.27,2.16-1.27,1.21,0,2.06.65,2.06,1.91v3.42h-1.02ZM116.35,25.9h-.66c-.63,0-1.66.09-1.66.97,0,.53.37.76.91.76.68,0,1.41-.38,1.41-1.15v-.58ZM121.36,27.43v.84c-.25.08-.5.12-.78.12-.97,0-1.49-.48-1.49-1.47v-3.03h-.73v-.81h.73v-1.03l1.03-.45v1.48h1.18v.81h-1.18v2.93c0,.42.17.72.66.72.17,0,.38-.04.59-.11ZM122.4,21.57c0-.35.29-.63.64-.63s.65.27.65.63-.29.63-.65.63-.64-.28-.64-.63ZM122.54,28.31v-5.22h1.03v5.22h-1.03ZM127.41,28.41c-1.59,0-2.62-1.18-2.62-2.75s1.11-2.68,2.68-2.68,2.62,1.18,2.62,2.71-1.11,2.72-2.68,2.72ZM127.45,27.58c1.13,0,1.59-.9,1.59-1.88s-.5-1.89-1.61-1.89-1.57.9-1.57,1.89c0,1.05.5,1.88,1.59,1.88ZM131.28,28.31v-5.23h1.04v.83c.31-.65,1-.93,1.71-.93,1.27,0,1.87.9,1.87,2.11v3.22h-1.04v-3.19c0-.81-.38-1.26-1.18-1.26-.85,0-1.36.51-1.36,1.33v3.12h-1.04ZM140.36,28.31v-.65c-.39.52-.98.75-1.61.75-.96,0-1.75-.53-1.75-1.55,0-1.4,1.5-1.64,2.7-1.64h.65c0-.84-.13-1.43-1.11-1.43-.53,0-1.05.32-1.23.83l-.85-.37c.38-.89,1.24-1.27,2.16-1.27,1.21,0,2.06.65,2.06,1.91v3.42h-1.02ZM140.35,25.9h-.66c-.63,0-1.66.09-1.66.97,0,.53.37.76.91.76.68,0,1.41-.38,1.41-1.15v-.58ZM142.91,28.31v-7.23l1.04-.46v7.69h-1.04ZM147.56,28.31v-7.15h2.45c1.38,0,2.59.53,2.59,2.09,0,1.05-.67,1.71-1.67,1.93l2.09,3.13h-1.22l-1.99-2.99h-1.14v2.99h-1.11ZM148.67,24.49h1.35c.85,0,1.47-.32,1.47-1.25s-.63-1.2-1.47-1.2h-1.35v2.45ZM157.34,26.77l.86.37c-.46.89-1.28,1.27-2.22,1.27-1.65,0-2.62-1.17-2.62-2.7s.99-2.73,2.53-2.73c1.83,0,2.41,1.3,2.41,2.93h-3.88c0,.96.51,1.69,1.51,1.69.64,0,1.13-.3,1.41-.83ZM154.45,25.17h2.82c-.05-.84-.49-1.4-1.34-1.4s-1.36.61-1.48,1.4ZM159.09,27.1l.79-.35c.19.54.72.86,1.29.86.51,0,1.05-.16,1.05-.72s-.59-.72-1.28-.88c-.78-.18-1.69-.39-1.69-1.51,0-.99.98-1.52,1.86-1.52s1.6.38,1.96,1.16l-.78.34c-.22-.48-.67-.71-1.15-.71-.44,0-.93.19-.93.67,0,.53.57.65,1.21.78.83.17,1.78.37,1.78,1.52s-.99,1.66-2.01,1.66c-.93,0-1.8-.4-2.11-1.31ZM167.99,26.77l.86.37c-.46.89-1.28,1.27-2.22,1.27-1.65,0-2.62-1.17-2.62-2.7s.99-2.73,2.53-2.73c1.83,0,2.41,1.3,2.41,2.93h-3.88c0,.96.51,1.69,1.51,1.69.64,0,1.13-.3,1.41-.83ZM165.1,25.17h2.82c-.05-.84-.49-1.4-1.34-1.4s-1.36.61-1.48,1.4ZM173.11,28.31v-.65c-.39.52-.98.75-1.61.75-.96,0-1.75-.53-1.75-1.55,0-1.4,1.5-1.64,2.7-1.64h.65c0-.84-.13-1.43-1.11-1.43-.53,0-1.05.32-1.23.83l-.85-.37c.38-.89,1.24-1.27,2.16-1.27,1.21,0,2.06.65,2.06,1.91v3.42h-1.02ZM173.1,25.9h-.66c-.63,0-1.66.09-1.66.97,0,.53.37.76.91.76.68,0,1.41-.38,1.41-1.15v-.58ZM175.59,28.31v-5.23h1.04v.96c.37-.72.91-1.05,1.71-1.05v.97c-1.07.04-1.71.41-1.71,1.56v2.79h-1.04ZM182.94,26.45l.84.36c-.36,1.06-1.29,1.61-2.4,1.61-1.63,0-2.55-1.17-2.55-2.75s1.06-2.68,2.64-2.68c1.01,0,1.87.47,2.28,1.45l-.88.38c-.21-.61-.8-.99-1.47-.99-1.06,0-1.51.97-1.51,1.92s.49,1.83,1.57,1.83c.72,0,1.26-.46,1.48-1.12ZM184.91,28.31v-7.69h1.04v3.29c.31-.65.99-.93,1.7-.93,1.27,0,1.9.89,1.9,2.11v3.22h-1.04v-3.19c0-.82-.4-1.27-1.2-1.27-.86,0-1.36.53-1.36,1.34v3.12h-1.04ZM193.08,28.31v-7.15h4.51v.9h-3.39v2.31h2.7v.88h-2.7v3.06h-1.12ZM200.42,28.41c-1.59,0-2.62-1.18-2.62-2.75s1.11-2.68,2.68-2.68,2.62,1.18,2.62,2.71-1.11,2.72-2.68,2.72ZM200.46,27.58c1.13,0,1.59-.9,1.59-1.88s-.5-1.89-1.61-1.89-1.57.9-1.57,1.89c0,1.05.5,1.88,1.59,1.88ZM207.8,28.31v-.83c-.31.64-.96.93-1.69.93-1.21,0-1.86-.79-1.86-2v-3.33h1.03v3.24c0,.8.4,1.23,1.17,1.23.85,0,1.36-.53,1.36-1.33v-3.14h1.03v5.23h-1.03ZM210.37,28.31v-5.23h1.04v.83c.31-.65,1.01-.93,1.71-.93,1.27,0,1.86.9,1.86,2.11v3.22h-1.04v-3.19c0-.81-.38-1.26-1.18-1.26-.85,0-1.36.51-1.36,1.33v3.12h-1.04ZM220.32,28.31v-.89c-.34.62-1.15.99-1.83.99-1.59,0-2.35-1.23-2.35-2.7s.86-2.74,2.39-2.74c.73,0,1.42.29,1.79.93v-3.29h1.04v7.7h-1.04ZM218.7,27.57c1.15,0,1.65-.86,1.65-1.92s-.47-1.84-1.58-1.84c-1.18,0-1.57.91-1.57,1.94,0,.94.46,1.82,1.5,1.82ZM225.86,28.31v-.65c-.39.52-.98.75-1.61.75-.96,0-1.75-.53-1.75-1.55,0-1.4,1.5-1.64,2.7-1.64h.65c0-.84-.13-1.43-1.11-1.43-.53,0-1.05.32-1.23.83l-.85-.37c.38-.89,1.24-1.27,2.16-1.27,1.21,0,2.06.65,2.06,1.91v3.42h-1.02ZM225.85,25.9h-.66c-.63,0-1.66.09-1.66.97,0,.53.37.76.91.76.68,0,1.41-.38,1.41-1.15v-.58ZM230.86,27.43v.84c-.25.08-.5.12-.78.12-.97,0-1.49-.48-1.49-1.47v-3.03h-.73v-.81h.73v-1.03l1.03-.45v1.48h1.18v.81h-1.18v2.93c0,.42.17.72.65.72.18,0,.38-.04.59-.11ZM231.9,21.57c0-.35.29-.63.64-.63s.65.27.65.63-.29.63-.65.63-.64-.28-.64-.63ZM232.04,28.31v-5.22h1.03v5.22h-1.03ZM236.92,28.41c-1.59,0-2.62-1.18-2.62-2.75s1.11-2.68,2.68-2.68,2.62,1.18,2.62,2.71-1.11,2.72-2.68,2.72ZM236.95,27.58c1.13,0,1.59-.9,1.59-1.88s-.5-1.89-1.61-1.89-1.57.9-1.57,1.89c0,1.05.5,1.88,1.59,1.88ZM240.78,28.31v-5.23h1.04v.83c.31-.65,1.01-.93,1.71-.93,1.27,0,1.87.9,1.87,2.11v3.22h-1.04v-3.19c0-.81-.38-1.26-1.18-1.26-.84,0-1.36.51-1.36,1.33v3.12h-1.04Z"/>
  <path class="cls-3" d="M49.38,12.87c0,1.18-.86,1.85-2.04,1.85-1.43,0-2.39-.84-3.31-3.38l.85-.35c.65,1.87,1.33,2.86,2.38,2.86.71,0,1.18-.4,1.18-1.08,0-.55-.37-.98-.84-1.32-.3.08-.66.14-1.07.18l-.19-.85c1.5-.19,1.9-.52,1.9-1.18,0-.53-.35-.86-1-.86-.54,0-1.06.17-1.57.48l-.31-.84c.55-.31,1.18-.49,1.92-.49,1.37,0,1.92.8,1.92,1.73,0,.62-.23,1.13-.77,1.48l.02.02c.38.1.8.13,1.18.13s.77-.04,1.19-.14v-2.24h-.88v-.85h3.1v.85h-1.25v6.61h-.97v-3.48c-.32.08-.66.11-1,.11-.19,0-.42-.01-.65-.05.14.25.22.54.22.83ZM52.85,7.99h6.83v.85h-1.24v6.61h-.97v-3.58h-2.17v.65c0,.44-.24.67-.61.67-.59,0-1.39-.89-1.39-1.56,0-.36.19-.61.73-.61h3.44v-2.18h-4.62v-.85ZM57.56,18.67c-1.4,0-2.47-.68-3.53-1.9l.71-.64c.95,1.16,1.75,1.67,2.78,1.67.85,0,1.27-.32,1.27-.89,0-.46-.26-.78-.83-.78-.46,0-.84.2-1.21.55l-.54-.66c.46-.46,1-.71,1.76-.71,1.1,0,1.72.71,1.72,1.68,0,1.04-.76,1.67-2.14,1.67ZM62.95,15.63c-1.2-1.18-2.17-2.39-2.6-3.18-.23-.41-.34-.77-.34-1.07,0-.42.24-.65.65-.65.35,0,.67.22.98.58.43-.3.58-.84.58-1.37,0-.44-.1-.84-.2-1.09h-2.51v-.85h8.28v.85h-1.24v6.61h-.97v-3.07c-.41.1-.83.14-1.27.14-.64,0-1.39-.12-2.06-.47-.24.18-.55.34-.91.46.58.78,1.39,1.57,2.35,2.46l-.73.65ZM64.29,11.67c.46,0,.86-.05,1.28-.17v-2.65h-2.58c.13.35.19.73.19,1.21,0,.53-.12.98-.37,1.37.49.18.94.24,1.48.24ZM65.39,6.19c0-.38.3-.7.66-.7s.66.31.66.7-.3.7-.66.7-.66-.31-.66-.7ZM75.16,8.85h-1.24v6.61h-.97v-1.73c-.41.3-1.01.5-1.79.5-1.44,0-2.38-.73-2.38-1.81,0-.41.14-.83.52-1.14-.64-.4-1.09-.97-1.09-1.78,0-1.02.68-1.63,1.79-1.63s1.56.6,1.56,1.33c0,.42-.17.78-.53,1.12l-.72-.43c.22-.22.32-.44.32-.67,0-.36-.22-.58-.64-.58-.52,0-.85.36-.85.94s.32.97.92,1.27c.28-.08.59-.11.91-.11.23,0,.47.02.65.06l-.1.84c-.16-.02-.31-.04-.53-.04-.83,0-1.26.3-1.26.86,0,.61.59.92,1.4.92.74,0,1.38-.32,1.8-.83v-3.72h-.74v-.85h2.95v.85ZM77.04,8.85v6.61h-.97v-6.61h-1.07v-.85h3.28v.85h-1.24ZM78.1,7.99h6.83v.85h-1.24v6.61h-.97v-3.58h-2.17v.65c0,.44-.24.67-.61.67-.59,0-1.39-.89-1.39-1.56,0-.36.19-.61.73-.61h3.44v-2.18h-4.62v-.85ZM87.08,7.99h6.83v.85h-1.24v6.61h-.97v-3.58h-2.17v.65c0,.44-.24.67-.61.67-.59,0-1.39-.89-1.39-1.56,0-.36.19-.61.73-.61h3.44v-2.18h-4.62v-.85ZM91.71,8.08c-.66-2.14-.9-2.5-1.72-2.5-.34,0-.71.08-1,.19l-.26-.85c.34-.13.79-.22,1.2-.22,1.4,0,1.84.68,2.66,3.37h-.89ZM95.28,13.38c-.72,0-1.21-.36-1.21-.91,0-.46.32-.72.79-.72.4,0,.7.17,1.04.55.96-.31,1.61-1.08,1.61-2.26,0-.9-.41-1.38-1.13-1.38-.55,0-.86.31-.86.73,0,.56.5.8,1.33.86l-.14.78c-1.26-.1-2.08-.65-2.08-1.69,0-.9.62-1.48,1.73-1.48,1.28,0,2.1.84,2.1,2.24s-.79,2.42-1.96,2.92c.64.61,1.2,1.3,1.69,1.97l-.83.53c-.68-.96-1.24-1.66-1.7-2.18-.13.02-.24.04-.38.04ZM100.83,8.85v6.61h-.97v-6.61h-1.07v-.85h3.28v.85h-1.24ZM101.89,7.99h6.83v.85h-1.24v6.61h-.97v-3.58h-2.17v.65c0,.44-.24.67-.61.67-.59,0-1.39-.89-1.39-1.56,0-.36.19-.61.73-.61h3.44v-2.18h-4.62v-.85ZM108.55,8.85v-.85h8.3v.85h-1.24v6.61h-.97v-4.3h-.14c-.82,0-1.38.5-1.63,1.98l-.96-.29c.07-.52.2-.95.4-1.31-.26-.24-.6-.38-1.03-.38-.76,0-1.21.49-1.21,1.25,0,.91.64,1.63,2.11,2.47l-.56.74c-1.57-.92-2.52-1.94-2.52-3.31s.86-2.02,2.09-2.02c.68,0,1.21.24,1.62.61.43-.4,1-.59,1.7-.59h.14v-1.48h-6.1ZM121.04,8.85v6.61h-.97v-6.61h-1.07v-.85h.98c-.22-.43-.35-.86-.35-1.36,0-1.15.85-1.93,2.16-1.93,1.75,0,2.98,1.15,3.89,3.37h-1c-.74-1.7-1.67-2.52-2.76-2.52-.82,0-1.32.47-1.32,1.22,0,.49.18.86.36,1.21h1.31v.85h-1.24ZM126.63,14.95l-.7.65c-1.26-1.14-2.15-2.06-2.77-2.95-.4-.56-.55-.95-.55-1.31s.23-.61.64-.61c.35,0,.67.2.98.56.66-.31.95-.8.95-1.45,0-.36-.08-.76-.2-1h-2.87v-.85h5.09v.85h-1.22c.12.34.17.68.17,1.12,0,1.3-.83,1.99-2.06,2.52.66.78,1.61,1.67,2.56,2.47ZM130.46,15.63c-1.2-1.18-2.17-2.39-2.6-3.18-.23-.41-.34-.77-.34-1.07,0-.42.24-.65.65-.65.35,0,.67.22.98.58.43-.3.58-.84.58-1.37,0-.44-.1-.84-.2-1.09h-2.51v-.85h8.28v.85h-1.24v6.61h-.97v-3.07c-.41.1-.83.14-1.27.14-.64,0-1.39-.12-2.06-.47-.24.18-.55.34-.91.46.58.78,1.39,1.57,2.35,2.46l-.73.65ZM131.8,11.67c.46,0,.86-.05,1.28-.17v-2.65h-2.58c.13.35.19.73.19,1.21,0,.53-.12.98-.37,1.37.49.18.94.24,1.48.24ZM142.91,8.85h-1.25v6.61h-.96v-1.86c-.43.35-1.06.55-1.72.55-1.32,0-2.22-.76-2.22-1.92,0-.61.26-1.04.6-1.31l-1.79.02v-.86h4.21l-.08.85h-.38c-.94,0-1.6.4-1.6,1.25,0,.71.5,1.1,1.19,1.1.74,0,1.37-.37,1.79-.88v-3.56h-5.58v-.85h7.79v.85ZM140.56,8.08c-.38-.43-.72-1.08-.72-1.74,0-1.1.76-1.63,1.8-1.63.5,0,.92.11,1.24.29l-.25.73c-.29-.11-.54-.19-.86-.19-.62,0-.96.36-.96.95,0,.54.28,1.06.74,1.6h-.98ZM150.58,8.85v2.32c.4-.32.84-.49,1.38-.49,1.13,0,1.84.68,1.84,1.92,0,.85-.32,1.6-1.02,2.38l-.83-.53c.53-.55.89-1.18.89-1.85,0-.72-.35-1.09-.92-1.09s-1,.3-1.33.77v3.19h-.97v-2.4c-.38.3-.92.48-1.51.48-1.49,0-2.09-.89-2.09-2.4v-2.29h-.95v-.85h9.43v.85h-3.91ZM146.98,8.85v2.27c0,1.2.41,1.57,1.15,1.57.53,0,1.07-.29,1.48-.67v-3.17h-2.63ZM156.36,8.85v6.61h-.97v-6.61h-1.07v-.85h3.28v.85h-1.24ZM157.43,7.99h6.76v.85h-1.58c.32.31.48.72.48,1.19,0,.58-.24,1.04-.7,1.39.72.64,1.03,1.27,1.03,2.02,0,1.27-.9,2.02-2.17,2.02-1.6,0-2.57-.94-3.47-3.7l.88-.36c.74,2.33,1.39,3.17,2.47,3.17.74,0,1.27-.4,1.27-1.19,0-.65-.29-1.14-.84-1.55-.36.12-.78.19-1.27.23l-.19-.88c1.43-.13,2.02-.42,2.02-1.22,0-.47-.25-.86-.65-1.12h-4.03v-.85ZM160.88,6.19c0-.38.3-.7.66-.7s.66.31.66.7-.3.7-.66.7-.66-.31-.66-.7ZM167.78,12.79c-.48,0-.98.11-1.37.28-.67-.43-1.31-1-1.31-1.79,0-.92.6-1.39,1.86-1.39h1.42v-1.04h-4.5v-.85h6.66v.85h-1.19v1.88h-2.38c-.65,0-.91.22-.91.62,0,.3.23.6.5.79.38-.13.84-.22,1.31-.22,1.3,0,1.99.65,1.99,1.68s-.72,1.85-2.34,1.85c-1.38,0-2.44-.59-3.29-1.43l.6-.79c.84.89,1.69,1.33,2.66,1.33s1.39-.34,1.39-.92c0-.53-.31-.85-1.12-.85ZM168.39,8.08c-.66-2.14-.9-2.5-1.72-2.5-.34,0-.71.08-1,.19l-.26-.85c.34-.13.79-.22,1.2-.22,1.4,0,1.84.68,2.66,3.37h-.89ZM171.97,13.38c-.72,0-1.21-.36-1.21-.91,0-.46.32-.72.79-.72.4,0,.7.17,1.04.55.96-.31,1.61-1.08,1.61-2.26,0-.9-.41-1.38-1.13-1.38-.55,0-.86.31-.86.73,0,.56.5.8,1.33.86l-.14.78c-1.26-.1-2.08-.65-2.08-1.69,0-.9.62-1.48,1.73-1.48,1.28,0,2.1.84,2.1,2.24s-.79,2.42-1.96,2.92c.64.61,1.2,1.3,1.69,1.97l-.83.53c-.68-.96-1.24-1.66-1.7-2.18-.13.02-.24.04-.38.04ZM177.51,8.85v6.61h-.97v-6.61h-1.07v-.85h3.28v.85h-1.24ZM178.58,7.99h6.83v.85h-1.24v6.61h-.97v-3.58h-2.17v.65c0,.44-.24.67-.61.67-.59,0-1.39-.89-1.39-1.56,0-.36.19-.61.73-.61h3.44v-2.18h-4.62v-.85Z"/>
  <g id="Layer_3" data-name="Layer 3">
    <g>
      <polygon class="cls-2" points="0 28.46 19.51 0 19.51 34.6 0 28.46"/>
      <polygon class="cls-1" points="39.01 28.49 19.5 .02 19.5 34.62 39.01 28.49"/>
      <polygon class="cls-3" points="4.68 29.96 19.51 8.11 34.15 30.03 30.65 31.12 26.83 25.49 19.51 28.88 12.04 25.54 8.33 31.09 4.68 29.96"/>
      <polygon class="cls-2" points="14.01 22.67 19.5 14.66 19.5 25.33 14.01 22.67"/>
      <polygon class="cls-1" points="24.98 22.74 19.51 14.66 19.5 25.33 24.98 22.74"/>
    </g>
  </g>
</svg>