<?xml version="1.0" encoding="UTF-8"?>
<svg id="Layer_1" xmlns="http://www.w3.org/2000/svg" version="1.1" viewBox="0 0 229.8 39.3">
  <!-- Generator: Adobe Illustrator 29.6.1, SVG Export Plug-In . SVG Version: 2.1.1 Build 9)  -->
  <defs>
    <style>
      .st0 {
        fill-rule: evenodd;
      }

      .st0, .st1 {
        fill: #fff;
      }
    </style>
  </defs>
  <path class="st0" d="M11.7,28.9c.2,0,.3.1.3.3s-.1.3-.3.3-.3-.1-.3-.3.1-.3.3-.3Z"/>
  <path class="st0" d="M13.4,29.4c-.5,0-.9,0-1.1,0h0c.2-.1.6-.2,1.1-.2.5,0,1-.2,1.1-.2,0,0,0,0,0,.1,0,0-.1.1-.1.2s0,.2.2.2h0c-.1,0-.6,0-1.1,0M14.5,29.7c0,0-.2,0-.2.2,0,.1,0,.2,0,.3,0,0,0,0,0,0-.1,0-.5-.3-1-.5-.4-.2-.8-.3-1-.4,0,0,0,0,0-.1.2,0,.6.1,1.1.2.5,0,1,0,1.1,0,0,0,0,0,0,.1h0ZM14.3,30.4c0,0-.2,0-.3.1,0,.1,0,.2,0,.3,0,0,0,0,0,0-.1-.1-.4-.4-.9-.7-.4-.3-.7-.5-.9-.6,0,0,0,0,0-.1.2,0,.5.2,1,.4.5.2.9.3,1.1.4,0,0,0,0,0,.1h0ZM13.9,31c0,0-.2,0-.3,0s-.1.2,0,.3c0,0,0,0,0,0,0-.1-.3-.5-.6-.9-.3-.4-.6-.7-.7-.8,0,0,0,0,0,0,.1.1.4.4.8.7.4.3.8.6.9.6,0,0,0,0,0,0h0ZM13.4,31.5c0,0-.2,0-.3,0s-.2.2-.1.3c0,0,0,0-.1,0,0-.1-.2-.6-.4-1-.2-.4-.4-.8-.4-1,0,0,0,0,0,0,0,.2.3.5.6.9.3.4.6.8.7.9,0,0,0,0,0,0h0ZM12.7,31.9c0,0-.1-.1-.3,0-.1,0-.2.1-.2.2,0,0,0,0-.1,0,0-.1,0-.6-.1-1.1,0-.5-.1-.9-.2-1.1,0,0,0,0,.1,0,0,.2.2.6.4,1,.2.5.4.9.5,1,0,0,0,0,0,0h0ZM12,32c0,0-.1-.1-.2-.1s-.2,0-.2.2c0,0,0,0-.1,0,0-.1.1-.6.2-1.1,0-.5,0-.9,0-1.1h.1c0,.2,0,.6.1,1.1,0,.5.1,1,.2,1.1,0,0,0,0,0,0h0ZM11.3,32c0,0,0-.2-.2-.2-.1,0-.2,0-.3,0,0,0,0,0-.1,0,0-.1.3-.5.5-1,.2-.5.3-.8.4-1,0,0,0,0,.1,0,0,.2-.1.6-.2,1.1,0,.5-.1,1,0,1.1,0,0,0,0,0,0h0ZM10.6,31.8c0,0,0-.2-.1-.3-.1,0-.2,0-.3,0,0,0,0,0,0,0,.1-.1.4-.5.7-.9.3-.4.5-.7.6-.9,0,0,0,0,.1,0,0,.2-.3.5-.4,1-.2.5-.4.9-.4,1.1,0,0,0,0,0,0h0ZM10,31.4c0,0,0-.2,0-.3s-.2-.1-.3,0c0,0,0,0,0,0,.1,0,.5-.3.9-.7.4-.3.7-.6.8-.7,0,0,0,0,0,0-.1.1-.4.5-.7.8-.3.4-.6.8-.6.9,0,0,0,0,0,0h0ZM9.5,31s0,0,0,0c0,0,0-.2,0-.3s-.2-.2-.3-.1c0,0,0,0,0-.1.1,0,.6-.2,1.1-.4.4-.2.8-.4,1-.5,0,0,0,0,0,0-.2,0-.5.3-.9.6-.4.3-.8.6-.9.7h0ZM9.1,30.2c0,0,.1-.1,0-.3,0-.1-.1-.2-.2-.2,0,0,0,0,0-.1.1,0,.6,0,1.1-.1.5,0,.9-.1,1.1-.2,0,0,0,0,0,.1-.2,0-.6.2-1,.4-.5.2-.9.4-1,.5,0,0,0,0,0,0h0ZM8.9,29.5c0,0,.1-.1.1-.2s0-.2-.2-.2h0c.1,0,.6,0,1.1,0,.5,0,.9,0,1.1,0h0c-.2.1-.6.2-1.1.2-.5,0-1,.2-1.1.2,0,0,0,0,0-.1h0ZM9,28.8c0,0,.2,0,.2-.2s0-.2,0-.3c0,0,0,0,0-.1.1,0,.5.3,1,.5.4.2.8.3,1,.4,0,0,0,0,0,.1-.2,0-.6-.1-1.1-.2-.5,0-1-.1-1.1,0,0,0,0,0,0-.1h0ZM9.2,28.1c0,0,.2,0,.3-.1,0-.1,0-.2,0-.3,0,0,0,0,0,0,.1.1.4.4.9.7.4.3.7.5.9.6,0,0,0,0,0,.1-.2,0-.5-.2-1-.4-.5-.2-.9-.4-1.1-.4,0,0,0,0,0-.1h0ZM9.6,27.5c0,0,.2,0,.3,0s.1-.2,0-.3c0,0,0,0,0,0,0,.1.3.5.7.9.3.4.6.7.7.8,0,0,0,0,0,0-.1-.1-.4-.4-.8-.7-.4-.3-.8-.6-.9-.6,0,0,0,0,0,0h0ZM10.1,27c0,0,.2,0,.3,0s.2-.2.1-.3c0,0,0,0,0,0,0,.1.2.6.4,1,.2.4.4.8.5,1,0,0,0,0,0,0-.1-.2-.3-.5-.6-.9-.3-.4-.6-.8-.7-.9,0,0,0,0,0,0h0ZM10.8,26.6c0,0,.1.1.3,0,.1,0,.2-.1.2-.2,0,0,0,0,0,0,0,.1,0,.6.1,1.1,0,.5.1.9.2,1.1,0,0,0,0-.1,0,0-.2-.2-.6-.4-1-.2-.5-.4-.9-.5-1,0,0,0,0,.1,0h0ZM11.5,26.4c0,0,.1.1.2.1s.2,0,.2-.2h.1c0,.1-.1.6-.2,1.1,0,.5,0,.9,0,1.1h-.1c0-.2,0-.6-.1-1.1,0-.5-.2-1-.2-1.1,0,0,0,0,.1,0h0ZM12.2,26.5c0,0,0,.2.2.2.1,0,.2,0,.3,0,0,0,0,0,0,0,0,.1-.3.5-.4,1-.2.5-.3.8-.4,1,0,0,0,0-.1,0,0-.2.1-.6.2-1.1,0-.5,0-1,0-1.1,0,0,0,0,.1,0h0ZM12.9,26.7c0,0,0,.2.1.2.1,0,.2,0,.3,0,0,0,0,0,0,0-.1.1-.4.5-.7.9-.3.4-.5.7-.6.9,0,0,0,0-.1,0,0-.2.2-.5.4-1,.2-.5.3-.9.4-1.1,0,0,0,0,.1,0h0ZM12.2,29.2c0,.2-.2.5-.4.5s-.5-.2-.5-.5.2-.5.4-.5.5.2.5.5ZM13.5,27c0,0,0,.2,0,.3s.2.1.3,0c0,0,0,0,0,0-.1,0-.5.3-.9.7-.4.3-.7.6-.8.7,0,0,0,0,0,0,.1-.1.4-.5.7-.8.3-.4.6-.8.6-.9,0,0,0,0,0,0h0ZM14,27.6c0,0,0,.2,0,.3s.2.2.3.1c0,0,0,0,0,0-.1,0-.6.2-1.1.4-.4.2-.8.4-1,.5,0,0,0,0,0,0,.2-.1.5-.3.9-.6.4-.3.8-.6.9-.7,0,0,0,0,0,0h0ZM14.4,28.2c0,0-.1.1,0,.3,0,.1.1.2.2.2,0,0,0,0,0,0-.1,0-.6,0-1.1.1-.5,0-.9.1-1.1.2,0,0,0,0,0-.1.2,0,.6-.2,1-.4.5-.2.9-.4,1-.5,0,0,0,0,0,.1h0ZM11.7,26.2c-1.7,0-3,1.4-3,3,0,1.7,1.4,3,3.1,3s3-1.4,3-3c0-1.7-1.4-3-3.1-3"/>
  <path class="st0" d="M13.8,3c-.1,0-.3-.4-.6-.4s-.5.4-.6.5,0,.2.1.1c.2,0,.2-.4.5-.4.2,0,.3.2.5.3.2,0,.1,0,0-.1Z"/>
  <path class="st0" d="M9.6,3.2c.1,0,.3-.3.5-.4s.4,0,.4.2c0,0,.1.2.2.2.1,0,.1,0,0,0-.1,0,0-.3-.3-.4-.1,0-.3-.1-.5,0s-.4.2-.5.3c-.1.1-.2.2-.2.2,0,0,.1,0,.3,0"/>
  <path class="st0" d="M11.6,6.3c-.1,0,0,.2-.2.2-.1,0,0-.2-.1-.2-.1,0,0,.2,0,.3,0,0,.2.2.3,0,0,0,0-.4,0-.4h0Z"/>
  <path class="st0" d="M10.6,6.8s-.1.3,0,.4c0,.1.2.2.2.1,0,0,0-.2-.2-.2s0-.3,0-.3"/>
  <path class="st0" d="M12.8,7.4c.1,0,.2-.2.3-.4,0-.2,0-.4,0-.4,0,0,0,.3-.1.4-.1.1-.3.4-.1.3Z"/>
  <path class="st0" d="M17.7,31.3h.2v-.2h-.2v.2Z"/>
  <path class="st0" d="M17.6,31.6h.2c0-.1-.2-.1-.2-.1h0Z"/>
  <path class="st0" d="M17.6,31.9h.2c0-.1-.2-.1-.2-.1h0Z"/>
  <path class="st0" d="M17.5,27.4h.2v-.2h-.2"/>
  <path class="st0" d="M17.7,27.4h.2v-.2h-.2"/>
  <path class="st0" d="M17.8,27.8h.2v-.2h-.2v.2Z"/>
  <path class="st0" d="M17.2,27h.2v-.2h-.2v.2Z"/>
  <path class="st0" d="M18.1,27.8h.2v-.2h-.2v.2Z"/>
  <path class="st0" d="M18.5,28.8h.2v-.2h-.2v.2Z"/>
  <path class="st0" d="M18.8,28.2h.2v-.2h-.2v.2Z"/>
  <path class="st0" d="M18.5,28.5h.2v-.2h-.2v.2Z"/>
  <path class="st0" d="M18.8,27.9h.2v-.2h-.2v.2Z"/>
  <path class="st0" d="M18.4,27.8h.2v-.2h-.2v.2Z"/>
  <path class="st0" d="M18.1,27.4h.2v-.2h-.2v.2Z"/>
  <path class="st0" d="M18.5,28.2h.2v-.2h-.2v.2Z"/>
  <path class="st0" d="M14.4,31.9h.2c0-.1-.2-.1-.2-.1h0Z"/>
  <path class="st0" d="M14.4,32.2h.2c0-.1-.2-.1-.2-.1h0Z"/>
  <path class="st0" d="M14.8,31.9h.2c0-.1-.2-.1-.2-.1"/>
  <path class="st0" d="M14.1,32.2h.2c0-.1-.2-.1-.2-.1h0Z"/>
  <path class="st0" d="M14.7,32.2h.2c0-.1-.2-.1-.2-.1h0Z"/>
  <path class="st0" d="M15.1,32.2h.2c0-.1-.2-.1-.2-.1h0Z"/>
  <path class="st0" d="M15.3,31.8h.2c0-.1-.2-.1-.2-.1h0Z"/>
  <path class="st0" d="M15.1,31h.2c0-.1-.2-.1-.2-.1h0Z"/>
  <path class="st0" d="M14.8,31.4h.2c0-.1-.2-.1-.2-.1h0Z"/>
  <path class="st0" d="M15.1,31.4h.2c0-.1-.2-.1-.2-.1h0Z"/>
  <path class="st0" d="M15,31.8h.2c0-.1-.2-.1-.2-.1h0Z"/>
  <path class="st0" d="M15.5,30.2h.2c0-.1-.2-.1-.2-.1h0Z"/>
  <path class="st0" d="M15.7,31h.2c0-.1-.2-.1-.2-.1h0Z"/>
  <path class="st0" d="M15.4,31.4h.2c0-.1-.2-.1-.2-.1h0Z"/>
  <path class="st0" d="M15.4,31h.2c0-.1-.2-.1-.2-.1h0Z"/>
  <path class="st0" d="M15.4,30.7h.2c0-.1-.2-.1-.2-.1h0Z"/>
  <path class="st0" d="M15.2,27.3h.2v-.2h-.2v.2Z"/>
  <path class="st0" d="M15.2,28h.2v-.2h-.2v.2Z"/>
  <path class="st0" d="M15.2,26.9h.2v-.2h-.2v.2Z"/>
  <path class="st0" d="M14.9,26.9h.2v-.2h-.2v.2Z"/>
  <path class="st0" d="M15.2,27.6h.2v-.2h-.2v.2Z"/>
  <path class="st0" d="M6.9,28.8h.2c0-.1-.2-.1-.2-.1h0Z"/>
  <path class="st0" d="M6.9,28.6h.2c0-.1-.2-.1-.2-.1h0Z"/>
  <path class="st0" d="M7.2,27.7h.2c0-.1-.2-.1-.2-.1h0Z"/>
  <path class="st0" d="M7.2,27.2h.2c0-.1-.2-.1-.2-.1h0Z"/>
  <path class="st0" d="M6.6,27.7h.2c0-.1-.2-.1-.2-.1h0Z"/>
  <path class="st0" d="M7.2,26.9h.2c0-.1-.2-.1-.2-.1h0Z"/>
  <path class="st0" d="M7.7,26.9h.2c0-.1-.2-.1-.2-.1h0Z"/>
  <path class="st0" d="M6.6,28.2h.2c0-.1-.2-.1-.2-.1h0Z"/>
  <path class="st0" d="M7.2,28.9h.2c0-.1-.2-.1-.2-.1h0Z"/>
  <path class="st0" d="M6.9,26.9h.2c0-.1-.2-.1-.2-.1h0Z"/>
  <path class="st0" d="M8.1,26.9h.2c0-.1-.2-.1-.2-.1h0Z"/>
  <path class="st0" d="M7.4,26.9h.2c0-.1-.2-.1-.2-.1h0Z"/>
  <path class="st0" d="M7.4,27.2h.2c0-.1-.2-.1-.2-.1h0Z"/>
  <path class="st0" d="M6.6,28.6h.2c0-.1-.2-.1-.2-.1h0Z"/>
  <path class="st0" d="M5.7,27.7h.2c0-.1-.2-.1-.2-.1h0Z"/>
  <path class="st0" d="M5.7,28.6h.2c0-.1-.2-.1-.2-.1h0Z"/>
  <path class="st0" d="M6.9,27.2h.2c0-.1-.2-.1-.2-.1h0Z"/>
  <path class="st0" d="M6,27.3h.2c0-.1-.2-.1-.2-.1h0Z"/>
  <path class="st0" d="M6,28.2h.2c0-.1-.2-.1-.2-.1h0Z"/>
  <path class="st0" d="M6,27.7h.2c0-.1-.2-.1-.2-.1h0Z"/>
  <path class="st0" d="M5.7,27h.2c0-.1-.2-.1-.2-.1h0Z"/>
  <path class="st0" d="M5.4,27.7h.2c0-.1-.2-.1-.2-.1h0Z"/>
  <path class="st0" d="M5.4,27.3h.2c0-.1-.2-.1-.2-.1h0Z"/>
  <path class="st0" d="M5.4,27h.2c0-.1-.2-.1-.2-.1h0Z"/>
  <path class="st0" d="M5.7,28.2h.2c0-.1-.2-.1-.2-.1h0Z"/>
  <path class="st0" d="M5.7,27.3h.2c0-.1-.2-.1-.2-.1h0Z"/>
  <path class="st0" d="M6.6,26.9h.2c0-.1-.2-.1-.2-.1h0Z"/>
  <path class="st0" d="M6.6,27.3h.2c0-.1-.2-.1-.2-.1h0Z"/>
  <path class="st0" d="M6.7,28.9h.2c0-.1-.2-.1-.2-.1h0Z"/>
  <path class="st0" d="M6.9,27.7h.2c0-.1-.2-.1-.2-.1h0Z"/>
  <path class="st0" d="M6.9,28.2h.2c0-.1-.2-.1-.2-.1h0Z"/>
  <path class="st0" d="M6.3,28.6h.2c0-.1-.2-.1-.2-.1h0Z"/>
  <path class="st0" d="M6,28.6h.2c0-.1-.2-.1-.2-.1h0Z"/>
  <path class="st0" d="M6.2,26.9h.2c0-.1-.2-.1-.2-.1h0Z"/>
  <path class="st0" d="M6.3,28.2h.2c0-.1-.2-.1-.2-.1h0Z"/>
  <path class="st0" d="M6,27h.2c0-.1-.2-.1-.2-.1h0Z"/>
  <path class="st0" d="M6.3,27.7h.2c0-.1-.2-.1-.2-.1h0Z"/>
  <path class="st0" d="M6.3,27.3h.2c0-.1-.2-.1-.2-.1h0Z"/>
  <path class="st0" d="M5.1,31.4h.2c0-.1-.2-.1-.2-.1h0Z"/>
  <path class="st0" d="M4.2,31.7h.2c0-.1-.2-.1-.2-.1h0Z"/>
  <path class="st0" d="M4.2,31.4h.2c0-.1-.2-.1-.2-.1h0Z"/>
  <path class="st0" d="M3.9,31.4h.2c0-.1-.2-.1-.2-.1h0Z"/>
  <path class="st0" d="M4.2,32.1h.2c0-.1-.2-.1-.2-.1h0Z"/>
  <path class="st0" d="M6.6,32.2h.2c0-.1-.2-.1-.2-.1h0Z"/>
  <path class="st0" d="M6,32.2h.2c0-.1-.2-.1-.2-.1h0Z"/>
  <path class="st0" d="M6.2,32.2h.2c0-.1-.2-.1-.2-.1h0Z"/>
  <path class="st0" d="M6.2,31.4h.2c0-.1-.2-.1-.2-.1h0Z"/>
  <path class="st0" d="M6,31.8h.2c0-.1-.2-.1-.2-.1h0Z"/>
  <path class="st0" d="M6,31.4h.2c0-.1-.2-.1-.2-.1h0Z"/>
  <path class="st0" d="M5.7,31.8h.2c0-.1-.2-.1-.2-.1h0Z"/>
  <path class="st0" d="M6.2,31.8h.2c0-.1-.2-.1-.2-.1h0Z"/>
  <path class="st0" d="M4.5,31h.2c0-.1-.2-.1-.2-.1h0Z"/>
  <path class="st0" d="M6.9,32.2h.2c0-.1-.2-.1-.2-.1h0Z"/>
  <path class="st0" d="M5.7,32.2h.2c0-.1-.2-.1-.2-.1h0Z"/>
  <path class="st0" d="M6.6,31.8h.2c0-.1-.2-.1-.2-.1h0Z"/>
  <path class="st0" d="M6.9,31.8h.2c0-.1-.2-.1-.2-.1h0Z"/>
  <path class="st0" d="M4.8,31.4h.2c0-.1-.2-.1-.2-.1h0Z"/>
  <path class="st0" d="M4.8,32.2h.2c0-.1-.2-.1-.2-.1h0Z"/>
  <path class="st0" d="M4.6,32.2h.2c0-.1-.2-.1-.2-.1h0Z"/>
  <path class="st0" d="M4.5,31.4h.2c0-.1-.2-.1-.2-.1h0Z"/>
  <path class="st0" d="M4.5,31.8h.2c0-.1-.2-.1-.2-.1h0Z"/>
  <path class="st0" d="M5.1,32.2h.2c0-.1-.2-.1-.2-.1h0Z"/>
  <path class="st0" d="M5.4,31.8h.2c0-.1-.2-.1-.2-.1h0Z"/>
  <path class="st0" d="M5.1,31.8h.2c0-.1-.2-.1-.2-.1h0Z"/>
  <path class="st0" d="M5.4,31.4h.2c0-.1-.2-.1-.2-.1h0Z"/>
  <path class="st0" d="M5.7,31.4h.2c0-.1-.2-.1-.2-.1h0Z"/>
  <path class="st0" d="M5.4,32.2h.2c0-.1-.2-.1-.2-.1h0Z"/>
  <path class="st0" d="M8.5,31.4h.2c0-.1-.2-.1-.2-.1h0Z"/>
  <path class="st0" d="M7.8,30.2h.2c0-.1-.2-.1-.2-.1h0Z"/>
  <path class="st0" d="M7.4,29.9h.2c0-.1-.2-.1-.2-.1h0Z"/>
  <path class="st0" d="M7.5,30.3h.2c0-.1-.2-.1-.2-.1h0Z"/>
  <path class="st0" d="M7.8,30.6h.2c0-.1-.2-.1-.2-.1h0Z"/>
  <path class="st0" d="M8.1,30.2h.2c0-.1-.2-.1-.2-.1h0Z"/>
  <path class="st0" d="M7.8,29.9h.2c0-.1-.2-.1-.2-.1h0Z"/>
  <path class="st0" d="M8.1,30.6h.2c0-.1-.2-.1-.2-.1h0Z"/>
  <path class="st0" d="M4.5,28.5c0,0,0,0,.2-.2,0-.1,0-.3,0-.2,0,.1-.2.1-.2.2,0,0,0,.3,0,.2"/>
  <path class="st0" d="M5.1,29.3c0,0,0-.4,0-.4,0,0,0,.3,0,.4,0,.1.2.1.1,0Z"/>
  <path class="st0" d="M4.2,27.8c0,0,0,.1.1.1,0,0,0,0,0-.2,0,0,0-.3,0-.2,0,.1-.1.1-.1.3"/>
  <path class="st0" d="M4,27.5s0,0,0-.1c0,0,0,0,0-.1,0,0,0,0-.1,0-.1,0,0,.2,0,.2"/>
  <path class="st0" d="M9.5,4.6h0Z"/>
  <path class="st0" d="M4.4,28.1c0-.1.1-.1.1-.2s0-.2,0-.1c0,0-.2.1-.2.2,0,.1,0,.2,0,.1"/>
  <path class="st0" d="M3.9,27.1s-.2,0-.1.2c0,.1.1.1,0,0,0,0,0-.1,0-.1"/>
  <path class="st0" d="M4.6,28.5c-.1,0-.1.2,0,.3,0,.1,0,.1,0,0,0,0,0-.1.1-.2.1,0,0-.3,0-.3,0,0,0,0-.2.2"/>
  <path class="st0" d="M4.7,28.9c0,.1,0,.3,0,.3s0-.2,0-.2c0,0,0-.2,0-.2,0,0-.1,0-.2.2h0Z"/>
  <path class="st0" d="M3.8,27c0,0-.1.2,0,.2,0,.1,0,0,0,0s.1-.1,0-.1"/>
  <path class="st0" d="M5.3,29.3c0,0,0,0,0,0,0,0-.2-.1-.2,0,0,0,0,.1.1.2h0Z"/>
  <path class="st0" d="M9.6,4.6s0,0,0,0c0,0,0,0,0,0,0,0,0,0,0,0h0Z"/>
  <path class="st0" d="M17.5,28.6c0,0-.1,0-.1.1,0,0,.1,0,.2,0,0,0,0-.1,0-.1h0Z"/>
  <path class="st0" d="M16.5,28.1c.1,0,.2-.2.2-.3s-.1,0-.2-.1c0,0,0-.1.1-.2,0,0-.2,0-.4,0-.2,0-.3.4-.2.4,0,0,.1-.1.2,0,0,0,0,0,0,0s0,.1.1.1c0,0,0,0,0-.1,0,0,0,0,.1,0,0,0,0,.1,0,.2,0,0,0,.1.1,0"/>
  <path class="st0" d="M5.4,7.3h0Z"/>
  <path class="st0" d="M21.2,6.1c-.2,0-.3,0-.3,0,0,0,.3-.3.5-.5.1-.2.3,0,.3.2,0,.2-.2.4-.5.4ZM22.8,7c0,.1-.1.4-.3.3-.2,0,0-.4-.4-.5s-.4,0-.5,0c0,0,0-.1,0-.2,0,0,0-.1-.1-.2-.1,0-.1-.2,0-.2.1,0,.3.3.4.2,0,0-.1-.1,0-.3,0-.1.1-.2.2-.3,0,0,0,0,0,0,0,0,0-.4,0-.5,0,0,0-.1-.1-.2,0,0-.2-.1-.3,0-.1,0-.4.6-.6.8-.2.2-.2.2.3.4.3.2.2.4.2.5s0,.2.1.2.3,0,.4,0c.2,0,.4.2.5.4.1.2,0,.3,0,.3-.1,0-.4-.3-.4-.4,0,0-.2-.2-.3-.1,0,0,0,.1.1.2.1,0,.4.4.3.5-.1,0-.3-.2-.4-.3,0,0-.1-.2-.2-.3,0,0,.1.2.1.2,0,.1.1.3.1.4,0,.2,0,.3,0,.3-.2,0-.1-.1-.2-.2,0,0-.5-.6-.5-.7,0,0,0-.1,0,0,0,0,.3.5.4.6.2.2,0,0,0-.2,0,0-.1-.3-.1-.4,0,0-.2-.2-.3-.4-.2-.2-.5,0-.6-.2,0,0,0,.2-.1.2,0,.1-.2.4-.2.6,0,.4-.2.2-.3.3-.1,0-.2.3,0,.6.2.2.6.1.8.1.2,0,0,.1.1.3,0,.2.1.3.2.4,0,0,0,.2-.2.2-.2,0-.4,0-.4-.1,0,0,0-.3-.2-.4-.1-.1-.5-.2-.6-.4,0-.1,0-.8,0-.9,0,0-.1-.4,0-.5,0-.1.4.1.5,0,0,0,.2-.2.3-.2.2-.2.3-.2.3-.2,0,0-.2,0-.4,0-.1,0-.5.1-.6,0,0,0,0-.2,0-.4,0-.2-.1-.3-.1-.4,0-.2,0-.3.4-.3.4,0,.5,0,.7.1.1,0,.2,0,.2,0s-.3-.3-.5-.4c-.1,0-.2,0-.3,0s-.3,0-.3,0c0-.1,0-.1-.1-.3,0,0,0-.4.2-.4s.3-.4.5-.5c0,0,.2,0,.5,0,.9.5,1.1.2,1.3.5,0,0,.1.2.2.3,0,.2,0,.4,0,.5.1,0,0,.3.2.4.2.2.2.2.4.3.1,0,.2.4.2.5h0ZM20.9,7.7c0,0,.2.3.1.3,0,0-.2-.1-.2-.2,0,0-.2,0-.2,0,0,0,0,0,0-.1,0,0,.1,0,.2,0ZM21.6,8.6s-.3.3-.4.3c0,0,.1.2,0,.2-.1,0-.2,0-.3-.2,0-.1-.2-.4-.3-.3-.3,0-.3,0-.5,0,0,0-.1,0-.2-.2,0,0,0-.1.2-.2,0,0,.1-.1.2-.2,0,0,.2-.4.2-.5,0,0,.2-.2.2-.2,0,0,.1,0,0,0,0,0-.3.6-.4.6,0,.1-.2.4-.2.4,0,.1.1.1.2,0s0-.3.2-.3c.1,0,.1.1.1.2,0,.2.1,0,.2,0,0,0-.1.4.1.2,0,0,.1-.4.3-.3,0,0,.1.1,0,.2,0,.1-.3.2-.4.3,0,0,0,.2,0,.2.1,0,.2-.2.4-.3,0,0,.2,0,.2.1h0ZM19.3,10.4c0,.2,0,.3.2.4s0,0-.1,0c0,0-.3-.3-.4-.4,0,0,.2-.2.2-.2s0-.2-.1-.1c-.1,0-.4,0-.5-.1-.2-.2-.2-.6-.1-.7,0-.1.1-.2.3-.3,0,0,.2,0,.2,0,0,.3-.1.3-.2.5,0,.1,0,.5.2.5.2,0,.1-.1.2-.1.2,0,.1.3.1.5h0ZM19.6,12c0,.1-.4.4-.4.6,0,.1,0,.3.1.2,0,0,.3-.5.5-.5.1,0,.2.1.2.3,0,.3-.4.3-.5.5,0,.1,0,.2,0,.3s-.1,0-.2,0c0,0,0-.2,0-.3-.4-.2-.5-.5-.5-.6,0-.1.3-.6.4-.7.1-.1.2-.3.3-.3s.1.4,0,.6h0ZM19,14.7c0,.1.1.2.2.3s0,.1-.2.1c0,0-.2-.1-.2-.3s0-.5.3-.7c.2-.1.2-.2.1-.3,0-.1.2,0,.2.3,0,.4-.5.5-.5.7h0ZM18.6,14.1c0,.2,0,.6,0,.6,0,0-.3-.4-.2-.7,0-.3.2-.4.2-.5,0-.1.1-.3.2-.2,0,0,.1.2.1.4,0,.2-.3.4-.3.5h0ZM18.5,15.4c0,.1-.1.3-.3.4,0,0-.3.2,0,.5.1,0,0,.2-.2,0,0,0-.1-.4,0-.6,0-.1.2-.2.4-.4.2-.1,0-.3.2-.3,0,0,0,.1,0,.3ZM17.9,16.8c0,.1-.2.3-.3.4,0,.1,0,.1,0,.2,0,.1,0,.2,0,.2-.1,0-.4-.1-.4-.3,0-.2.2-.3.1-.3,0,0-.4,0-.5,0-.1,0-.2-.1-.2-.3,0-.2,0-.4.3-.6,0,0,.2,0,.2.1,0,.1-.3.2-.3.4,0,.1.1.3.3.3s.2-.1.5-.1c.2,0,.4,0,.3.1h0ZM17.6,20c0,.3-.3,1.7-.3,2s.4,1,.3,1.2c0,.2.3.7.3.8,0,.1-.1,0-.2-.2,0-.2-.2-.4-.3-.4,0,0,0,.4.1.5,0,.1.4.4.3.4,0,0-.5-.3-.6-.6,0-.1-.2-.6-.3-.9,0,0,0-.5,0-1,0-1,.2-2,.2-2.2,0-.2.1-1.3,0-1.4,0,0-.1-.4,0-.5,0,0,.2,0,.3.1.2.4.1,1.8.1,2.1h0ZM16.9,17.3s.1,0,.2,0,0,.2,0,.2c-.1,0-.2,0,0-.2h0ZM18,24.8c0,.2,0,.4.1.5s.3.2.4.3c.1,0,0,.2,0,.3,0,.2-.2.3-.2,0,0-.1-.2-.2-.3-.1-.1,0,0,.2-.1.3-.1,0-.1-.3,0-.3,0,0,0-.6-.3-.7-.1,0,0,.3,0,.5,0,.2,0,.5-.2.4-.4,0-.7-.8-.8-.9,0,0,0-.4-.4-.8,0,0,0-.6-.1-.7-.1,0,0-.6-.1-.6-.2,0,0-.4-.3-.6,0,0-.1-.2-.2-.4,0-.1,0-.4-.1-.5-.3-.4-.2-1-.2-1,0,0,.1-.2,0-.5,0-.3,0-.7,0-.8,0-.1,0-1.1.1-1.5,0,0,0-.2,0-.2.1,0,0-.2,0-.2-.1,0,0-.3-.1-.4,0-.1-.1-.3,0-.4.2,0,.1.2.2.3.2,0,.4.3.5.4s0,.2.3.3c.2.2.3.2.4.5.2.5.1,1.1.2,1.5s.1.6,0,.7c-.1,0,0,.6,0,.8,0,.1-.1,1.8,0,2,.1.2.1.9.2,1.1,0,.1.1.5.4.6.1,0,.2.1.4,0,.1,0,.2.2.2.3h0ZM18.2,24.5c.1,0,.3,0,.4,0,.2,0,.3.1.3.2,0,0,0,.5,0,.6,0,.1,0,.2,0,.3,0,0,0,.2,0,.3s-.1,0-.2,0c0,0,0-.3,0-.5,0,0-.1-.2-.2-.2-.2-.1-.4-.4-.4-.5,0,0-.1-.2,0-.2h0ZM19.1,24.3c0,0,.2,0,.2.1,0,0,0,.5,0,.5,0,0,.1.2.7.4,0,0,.1.2,0,.3,0,0,0,.3-.1.3s0,0,0-.2c0-.1,0-.2,0-.3,0,0-.1,0-.2,0,0,0,0,.2,0,.3,0,.1.1.1,0,.3,0,0-.2,0-.2,0,0,0,0-.1,0-.2,0-.2,0-.4,0-.4,0,0-.4-.3-.4-.4s0-.3-.1-.3c0,0,0-.3-.2-.4,0,0,.2,0,.3,0h0ZM20.1,26.7c0,.1-.2,0-.2,0s-.1-.3,0-.3.1,0,.2,0c0,0,.1.2,0,.3h0ZM20.2,30.7c0,.4-.1,1.1-.1,1.3,0,0-.1-2.6-.1-2.8s0-2.1,0-2.1c.2.1.2,1,.2,1.5s0,1.6,0,2.1h0ZM19.8,25.6s.1,0,.1.2,0,.2,0,.2c0,0,0-.1,0-.2s0-.2,0-.2h0ZM19.7,32c0,.2-.2-2.8-.2-3s0-1.8,0-2c0,0,.2.5.2,1.3,0,.7,0,3.2,0,3.6ZM19.5,32.6c0,0-.1,0-.1,0,0,0,0,0,0-.2,0,0-.1-.1,0-.2,0,0,.1,0,.2.1,0,0,.1,0,0,.1h0ZM19.2,32.7s0,0-.1,0c0,0,0,0,0,0,0,0-.2-.2-.1-.2,0,0,0,0,0,0,0,0,.2.2.2.2s0,0,0,0h0ZM18.8,32.8s0,0,0,0c0,0-.2-.3-.1-.3,0,0,.1,0,.2,0,0,0,.2.2.2.2,0,0,0,0-.1,0h0ZM18.8,32c0,0,0,.2,0,.3,0,0,0,0,0,0,0,0,0-.3,0-.4,0,0,0-.1.2-.1s.1,0,0,.1c0,0-.1.1-.1.2h0ZM15.7,28.5c0,0,0,0,0,0s-.1,0-.1,0c0,0,0,0,0,0h0ZM18.3,32.2c0,0-.2,0-.4,0,0,0,0-.3,0-.3.2-.2,0-.3.2-.4,0,0,.2-.4.5-.6,0,0,0,0,0,0,0,0,0-.3,0-.3,0,0,.2-.2.1-.3s0,.1-.3.3c-.2.2-.9.3-1.1,0,0,0,0,0,.2-.3.1-.2.1-.4.1-.5,0-.2,0-.4-.1-.4s0,.4-.1.7c-.1.2-.2.3-.3.4,0,0,0,.2,0,.2.1,0,0,.5,0,.5,0,0-.1.2-.1.3,0,.1,0,.2,0,.3,0,.1,0,.2,0,.3,0,0,0,.2,0,.2,0,0-.4,0-.5,0,0,0,0-.1.1-.2s0-.4,0-.4c0,0,0-.1,0-.1.1,0,.1.1.1.1,0,0,0,0,.1,0,0,0,0-.2,0-.3,0-.2-.3-.4-.3-.5,0,0,0-.2,0-.2,0,0,0,.2-.2.2,0,0,0,.2,0,.3,0,0-.1.1,0,.2,0,0-.1.4-.2.4,0,0-.2.5-.4.5-.1,0-.4,0-.4,0,0,0,.3-.3.3-.4,0,0,.3-.6.3-.6s0-.2,0-.3c0-.1.2,0,.4-.2,0,0,.3-.3.4-.6,0-.1.1-.5.1-.6,0-.2-.1.1-.2.2,0,.1,0,.2-.1.4,0,.1-.2.3-.2.4-.1.1-.3.1-.3,0s0,0,0-.1c0,0,.2-.3.3-.6.1-.2.4-.6.4-.6,0,0-.3.4-.4.5-.1.2-.3.5-.3.5,0,0-.1,0-.2,0,0,0-.2-.1-.1-.2,0,0,.1-.1.2-.2,0,0,.2-.2.4-.4,0,0,.4-.6.3-.6,0,0-.4.5-.4.6-.1.1-.3.3-.4.3,0,0-.2,0-.2,0,0,0,0,0,.1-.1,0,0,.3-.3.3-.3l.2-.2c.1-.1.3-.4.2-.4,0,0-.1.2-.2.2,0,0-.2.2-.4.4,0,0-.2.2-.2.2s-.1,0-.1,0c0,0,0,0,0-.1,0,0,.3-.2.3-.2,0,0-.2,0-.3,0,0,0-.1,0,0-.1,0,0,.2-.1.3-.2,0-.1,0-.2,0-.1,0,0,0,0-.2,0,0,0-.1,0,0-.1,0,0,.2-.1.3-.1,0,0,.3,0,.3,0s-.1-.1-.3-.1,0,0-.1.1c-.1.2-.4,0-.4,0s.4.1.4,0c0-.1,0-.2-.1-.2,0,0-.2,0-.2,0-.1,0,0,0,.1-.1,0,0,.2,0,.1-.1,0,0,0,0-.1,0,0,0-.1-.5.1-.6.1,0,.1,0,.1-.1,0-.1-.1-.2-.1-.2,0,0,0-.1,0-.2,0,0,.1,0,0,0,0,0,0-.2,0-.2,0,0,.2-.1.2-.1s0,.2,0,.3c0,0,0,.2,0,.2,0,0,0,0,.2.1,0,0,.2,0,.2,0,0,0,.1,0,.1-.1.1-.2,0-.3,0-.4,0,0,.1,0,.2,0s.1.1,0,.3c0,.2,0,.1,0,.1,0,0,0,0,0,.1s0,0,0,0c0,0,0,.2,0,.2-.1,0,0,.2,0,.1,0,0,0,0,0,0,0,0,0,.3,0,.4,0,0-.1.2-.2.2-.1,0-.3,0-.3,0,0,0,0,0,0,0s.1,0,.1,0c0,0,0,.1,0,.2,0,0,0,.1,0,0,.1,0,.1-.1.2-.2,0,0,.1,0,.2-.1,0,0,0,0,.2-.1.1,0,0-.2.3-.3.2,0,.3,0,.4,0,0,0,.3.2.2.4,0,.2-.2.2-.2.3,0,0,0,.2,0,.3,0,0,0,.1.1.2.1,0,.1,0,.3,0,.1,0,.2-.1.3-.1.2,0,.4,0,.5.1,0,0,.2.1.3.3,0,0,0,.1,0,.2,0,0,0,.2,0,.3,0,.2,0,.3,0,.3,0,.1,0,.4,0,.4,0,0-.2,0-.2.1,0,0,0,.2,0,.2,0,0-.2.1-.3.3,0,0,0,.2-.1.2,0,0-.1.2-.1.3s-.1.2-.2.2h0ZM18.4,32.9c0,0-.1-.3-.1-.3,0,0,0,0,0,0,.1,0,.2.2.2.3s-.1.1-.2,0h0ZM18.1,33.4s0,0,0,0c0,0,0,0,.1,0s0,0,0,0c0,0,0,0,0,0ZM18,33c0,0-.2-.4-.1-.4,0,0,.1,0,.1,0,0,0,.1.2,0,.3s0,.2-.1.1h0ZM17.9,33.4c0,0,0,0,0,0,0,0,0,0,.1,0s0,0,0,0c0,0,0,0-.1,0ZM17.8,34c-.1.2-.3.2-.3.1,0,0,.1-.2.2-.3,0-.1,0-.2,0-.2.2,0,.2.2.1.3ZM17.6,33.5c0,0-.1,0,0,0,0,0,.1,0,.2,0s0,0,0,0c0,0,0,0-.1,0h0ZM17.4,32.6s.2,0,.3,0c0,0,.1.3,0,.3,0,0-.1,0-.2,0,0,0-.2-.4-.1-.4ZM17.3,33.4c0,0-.1,0,0,0,0,0,.1,0,.2,0,0,0,0,0,0,0,0,0,0,0-.1,0h0ZM17.5,31.6v-.2h-.2c0-.2,0-.3.1-.5,0,0,.5.2,1.1,0,0,0,.1,0,0,0,0,0-.2,0-.4.2h0c0,0-.2,0-.2,0h0c0,.1.1.1.1.1,0,0-.1.2-.2.4,0,.2-.2.4-.3.5h-.2s0,.1,0,.1h0c0,0-.1.1-.1.1,0,0,0,0-.2-.1h0v-.2h-.1s0,0,0,0h0s.1,0,.1,0v-.2h-.1c0,0,0-.2,0-.3h0c0,.1.2.1.2.1h0ZM17.1,32.9c0,0-.2-.3-.1-.3,0,0,.2,0,.2,0,0,0,.1.2.1.3s0,.2-.1.2,0-.1,0-.2h0ZM16.9,33.4s.1,0,.2,0,0,0,0,0c0,0,0,0-.1,0s-.1,0,0,0h0ZM17,34.1s-.2,0-.2,0c0,0,0-.3,0-.4,0,0,.2,0,.3,0,.2,0,0,.3,0,.3ZM16.6,33.5c-.1,0-.1,0-.1,0s.1,0,.2,0,0,0,0,0c0,0,0,0-.1,0ZM16.6,32.6c0,0,.2.3.1.4,0,0-.1,0-.2,0,0,0,0,0,0-.2,0-.2-.2-.2-.2-.3,0,0,0,0,0,0,0,0,.1,0,.2,0h0ZM16.5,31.8s0,0,0,0c0,0,0-.2,0-.2,0,0,0-.1,0-.1,0,0,0,.2,0,.2s0,0,0,.1h0ZM16.4,32.9c0,0-.1.2-.2.2s-.2,0-.2,0c0,0,0-.2,0-.2,0,0-.3-.2-.2-.2,0,0,.1,0,.3,0s.3.2.3.3ZM16.2,33.5c-.1,0-.1,0-.1-.1s.1,0,.2,0,0,0,0,0c0,0,0,0-.2,0h0ZM15.9,34.2c-.1,0,0,0,0-.2,0-.1,0-.2,0-.3,0,0,.2,0,.3,0,0,0,.1.3.1.4,0,0,0,0-.3,0h0ZM15.7,33.4c0,0,.1,0,.2,0s0,0,0,0c0,0,0,0-.2,0s-.1,0-.1-.1h0ZM15.5,34.2c-.1,0-.3,0-.3,0,0,0-.1-.4,0-.5,0,0,.4,0,.4,0,.1,0,0,.4,0,.5h0ZM14.9,33.3s.1,0,.2,0,0,0,0,0c0,0,0,0-.2,0s-.1-.1-.1-.2h0ZM14.9,34.2c-.1,0-.4,0-.3,0,0-.1-.2-.4-.1-.4,0,0,.5,0,.5,0,0,0,0,.4,0,.5ZM14.2,33.5c-.1,0,0-.1,0-.2,0,0,.1,0,.2,0s0,0,0,0c0,0-.1.1-.2.1ZM14,34.2s-.1-.5,0-.5c0,0,.2,0,.3,0,.1,0,0,.2.1.4.1.2-.2.2-.4.1h0ZM13.8,34.2c0,0-.2,0-.3,0,0,0-.2-.5-.1-.5.2,0,.3,0,.4,0,0,0,0,.4,0,.5h0ZM13.1,33.3c0,0,.2,0,.3,0s.1,0,.1.1c0,.1-.1,0-.2,0s-.2,0-.2-.2h0ZM13.2,34.2s-.3,0-.4,0-.2-.4-.1-.5c0,0,.3,0,.4,0,.1,0,.2.4.1.5h0ZM12.6,33.3c0,0,.2,0,.3,0s.1,0,.1.1c0,.1-.1,0-.3,0-.2,0-.2-.1-.1-.2h0ZM12.6,34.2s-.2,0-.4,0c-.1,0-.2-.4-.1-.4.1,0,.4,0,.5,0,.1,0,0,.4,0,.4h0ZM12.1,33.2h.4s0,.2-.1.3c0,0-.3,0-.4,0s0-.3,0-.3h0ZM12,34.2s-.2,0-.3,0c-.1,0-.1-.3-.1-.4s.4,0,.4,0c0,0,0,.3,0,.4h0ZM11.4,34.2c-.1,0-.2,0-.3,0,0,0,0-.3,0-.4,0,0,.4,0,.4,0s0,.4-.1.4h0ZM10.9,34.2c-.1,0-.3,0-.4,0s0-.4,0-.4c0,0,.3,0,.4,0,0,0,.1.4,0,.4h0ZM10.2,34.2c0,0-.3,0-.4,0s0-.5.1-.5c.1,0,.3,0,.4,0,0,0,0,.4-.1.5h0ZM9.8,33.4s0-.1.2-.1.3,0,.3,0,0,.2-.2.2-.3,0-.2,0h0ZM9.5,33.5c-.1,0-.3,0-.2,0,0,0,0-.1.2-.1s.3,0,.3,0,0,.2-.2.2h0ZM9.6,34.2c-.1,0-.4,0-.4,0,0,0-.2-.5,0-.5.1,0,.2,0,.4,0,.1,0,.1.5,0,.5h0ZM8.9,33.4s0-.1.1-.1.2,0,.2,0,0,.2-.2.2-.2,0-.2,0h0ZM8.9,34.2c-.1,0-.4,0-.4-.2,0-.2,0-.3,0-.3,0,0,.2,0,.3,0,0,0,.2.5,0,.5h0ZM8.4,33.4s0-.1.1-.1.2,0,.2,0,0,.2-.2.2-.2,0-.2,0h0ZM8.2,33.5c0,0-.2,0-.2,0,0,0,0-.1.1-.1s.2,0,.2,0,0,.2-.2.2h0ZM8,34.1c-.1,0-.2-.4-.1-.4,0,0,.1,0,.2,0,0,0,.1.3.2.4,0,0-.2.1-.3,0h0ZM7.6,33.4s0-.1.1-.1.2,0,.2,0,0,.2-.2.2-.2,0-.2,0h0ZM7.3,34.1c-.1,0-.2-.5,0-.5,0,0,.2,0,.2,0,0,0,0,.4.1.5,0,0-.2,0-.3,0h0ZM7.2,33.4s0,0,.1,0,.2,0,.2,0,0,.1-.2.1-.2,0-.2,0h0ZM7.5,32.4c0,0,.2,0,.2,0s-.2,0-.2.2,0,.2.1.3-.1,0-.2,0c0,0-.2-.2-.2-.3s.2-.2.3-.3h0ZM7.1,32.4c0,0-.2,0-.2.2,0,.1.2.3.2.3s-.2,0-.3,0c0,0-.2-.2-.2-.3s.1-.3.3-.3c0,0,.2,0,.2,0h0ZM6.9,33.5c0,0-.2,0-.2,0,0,0,0,0,.1,0s.2,0,.2,0,0,.1-.2.1h0ZM6.8,34.1c-.2.1-.3-.1-.3-.3s0-.2,0-.2c0,0,.2,0,.2,0,0,0,.2.3,0,.4ZM6.4,33.4s0,0,0,0,.2,0,.2,0,0,.1-.2.1-.2,0-.1,0ZM6.2,32.6c0,0,.2-.2.3-.3,0,0,.2,0,.1,0,0,0-.2.1-.2.2s.1.3,0,.3-.2,0-.2,0-.2-.2-.1-.2h0ZM6,32.5c0,0,.1.2.1.2,0,0-.2,0-.2,0,0,0-.2-.2-.2-.2s.3-.2.4-.3c0,0,.2,0,.1,0s-.2.1-.2.2h0ZM6.1,33.4c0,0-.2,0-.1,0,0,0,0,0,0,0s.2,0,.2,0,0,.1-.1.1h0ZM6.2,34.1s0,0-.1,0c0,0-.2-.4,0-.5,0,0,.2,0,.2,0,0,.1,0,.3,0,.4h0ZM5.8,33.4c0,0-.2,0-.1,0,0,0,0,0,0,0s.2,0,.2,0,0,.1-.1.1h0ZM5.4,32.8c0,0-.4-.2-.3-.3,0,0,.4-.2.5-.2s.2,0,.2,0c0,0-.2.1-.3.2s.2.2.1.2,0,0-.2,0h0ZM5.4,33.4c0,0-.2,0-.1,0,0,0,0,0,0,0s.2,0,.2,0,0,0-.1,0h0ZM5.5,33.8c0,.1,0,.3,0,.3,0,0-.1,0-.2,0,0-.1,0-.3,0-.3s.2,0,.2.1h0ZM5.1,33.4c0,0-.2,0-.1,0,0,0,0,0,0,0s.2,0,.2,0,0,0-.1,0h0ZM4.9,32.6s0,0,0,0-.2-.1-.2-.2.2-.1.3-.1.2,0,.2,0c0,0-.2,0-.2,0,0,0,0,.1,0,.1h0ZM4.8,33.4s0,0,0,0c0,0,0,0,0,0s0,0,0,0,0,0,0,0h0ZM4.5,32.4s-.2,0-.1.1c0,0,.1,0,0,.1,0,0,0,0-.1,0s-.1-.2,0-.2c0,0,.1-.1.2-.1,0,0,.2,0,0,0h0ZM4.1,32.4c0,0,0,.1,0,.2,0,0,0,0-.1,0s-.2-.2-.1-.2c0,0,.1-.2.2-.2,0,0,.1,0,0,.1h0ZM3.6,32.1c-.2,0-.4-.2-.4-.4,0-.1,0-.2,0-.4h0s0-.1,0-.2c0,0,0-.2,0-.3,0,0,.2-.2.3-.2s.2,0,.3-.1c0,0,0,0,0-.1,0,0,0-.1-.2-.2,0,0,0-.5,0-.6,0,0,.2-.2.2-.2h0c0-.1,0-.2,0-.2s-.2,0-.2-.2c0,0,0-.2,0-.3,0,0,0-.2,0-.3,0-.1,0-.3,0-.4,0,0,0-.4,0-.5s-.1-.2-.2-.2c0,0,0,.1,0,.1,0,0,0,0,0,0,0,0,.2.2.2.4,0,.3,0,.2-.1.3,0,.1,0,.2,0,.3,0,0-.3-.2-.3-.3,0,0,0-.2,0-.3,0,0,0-.1,0-.2,0-.2,0-.3,0-.3h0s0-.3,0-.3,0-.1,0-.2,0-.1,0-.2.2,0,.2-.1c0,0,0-.1.2-.1s.1,0,.2,0c0,0,.2,0,.3,0,0,0,0,.1,0,.2,0,0,0,.3,0,.3,0,0,0-.1.1-.2,0,0,0,0,.1,0,0,0,0,.2,0,.3,0,0,0-.1.1-.1,0,0,0,.2,0,.2s0,.1,0,.2c0,.1,0,.2,0,0,0,0,.1,0,.1,0,0,0,0,.1,0,.2,0,0,0,0,0,.1,0,0,0,.2,0,.1,0,0,0-.1,0-.2,0,0,0,0,.1,0,0,0,0,0,0,.1,0,0-.2.2,0,.2,0,0,.2,0,.2,0,0,0,0,.1,0,.2,0,0,0,0-.2.1,0,0,0,0,0,0,.2,0,.2-.1.3,0,0,0,0,.2,0,.2,0,0-.3.2-.2.2,0,0,.2,0,.3-.1,0,0,0,.1,0,.2,0,0-.2,0-.3,0,0,0,0,.1.3,0,0,0,.1,0,.2,0,0,0,.2,0,.2,0s.2,0,.2,0c0,0,.2,0,.3,0s.3,0,.5.2c0,0,.3.1.4,0,0,0,.3,0,.4-.2,0-.1,0-.4,0-.5,0-.2-.2-.4,0-.6.2-.1.1-.2.1-.4,0-.1.3-.3.4-.4,0,0,.1-.1.1-.2,0,0,.1-.1.2-.1,0,0,.1.1,0,.2s-.1.2-.2.2c0,0-.2,0-.2.2,0,0,.1,0,.2.2,0,.1,0,.2,0,.2,0,0-.1,0-.2,0s0,0,0,0c0,0,.1,0,.1.1,0,0,0,.1-.1.1s0,0,0,.1c.1,0,0,.2,0,.2,0,0,0,0,0,.1,0,0,0,0,0,0,0,0,0,.1,0,.1,0,0,0,0,0,.1,0,.1,0,.2,0,.2s-.1.1-.3.1c-.1,0-.2,0-.3,0-.2,0-.4,0-.5,0-.1,0,0,0,0,.1.2.2,0,.5.2.6.2.3.4.6.6.6.1,0,.4.1.4.1,0,0,0,.2,0,.2,0,0,0,.1,0,.2.1,0,.2,0,.2,0,0,0,.1.3.2.3s0,.4,0,.4c0,0-.2.1-.3,0-.1,0,0-.2,0-.3,0,0-.1-.2-.2-.4s-.3-.4-.4-.4c-.2,0-.6-.4-.7-.4-.3,0-.8-.2-1.2-.5-.1-.1,0,0,0,.2,0,.1-.1.2-.3.2-.2,0-.3-.2-.4-.3,0,0-.2-.1-.2-.1-.1,0-.2-.4-.3-.4,0,0,0,.5,0,.6,0,0-.3.4-.5.5-.1,0-.3,0-.5,0-.1,0-.2.2,0,.3,0,0,0,.5,0,.5s.2,0,.2,0c0,0,0,.1,0,.2,0,0,0,.1,0,.1,0,0,0,0-.3,0h0ZM3.7,32.3s-.1.2-.2.2c0,0,.2.2.1.2,0,0-.1,0-.2,0s-.2-.2-.2-.2.2-.2.3-.2c0,0,.1,0,.1,0h0ZM3.1,30.9c0,.1,0,.7,0,1,0,.3-.3.4-.3.3.1-.1.1-.3.2-.6s0-1,0-1.1c0,0,.2,0,.3,0,.2,0,.3,0,.3.1s-.3.1-.4.3h0ZM2.4,32.2s0-.3,0-.3c0-.2,0-.8,0-1,0-.3,0-1.2,0-1.6,0-.2,0-1.2,0-1.5,0-.1,0-.5,0-.6,0-.1.2.4.2.8,0,.2,0,1.2,0,1.4,0,.4.1,2.1-.1,2.7,0,.1-.2.3-.2.2h0ZM2.2,31.6c0,.1,0,0,0,0,0,0,.2-.6.2-1.2,0-.5,0-1.8,0-2,0-.2,0-.7-.2-1,0,0-.2-.3-.2-.3,0-.2.1-.1.2,0,.2.2.3,1,.3,1.4,0,.3,0,1.4,0,2,0,.5-.2,1.1-.3,1.2h0ZM1.9,30.9s0-1.1,0-1.5,0-1.6,0-1.7c0,0,.1,1,.1,1.3s0,1.8-.2,1.8h0ZM1.6,29.8c0-.1,0-.4,0-.6,0,0,.2,0,.2.3s-.2.4-.2.3h0ZM2.8,27.3c0-.1.5,2.4.4,2.5-.1.1-.3.4-.3.4,0,0-.2-2.6-.1-2.9h0ZM3.3,29.7c-.1,0-.2-1.3-.1-1.3,0,0,.4.4.4.5s-.1.8-.3.8h0ZM3.3,30.3c-.2,0-.2,0-.3,0,0,0,.1-.4.2-.4,0,0,.4,0,.4,0h0c0,.1,0,.1-.1.1,0,0,0,0,0,.1,0,.1,0,.3-.1.2h0ZM3,26.5c0-.2,0-.2.2-.3,0,0,0,0,0,.2s0,.2,0,.2c-.2,0-.2,0-.2-.1h0ZM3,25.4s.2,0,.2,0,0,0,0,.1c0,0,0,.2,0,0,0,0,0-.2,0-.3h0ZM3,25.1c.1-.1.3,0,.4,0,0,0,.2-.2.2-.6,0-.4.2-.4.3-.3s0,.2,0,.4c0,.1,0,.2,0,.2,0,0-.1.2-.2.3,0,0,0,.3-.2.4-.2,0-.5-.2-.4-.3h0ZM3.3,25.5c0,0,.2.1.2.2,0,.1-.1,0,0,.1s0,.2,0,.2c0,0-.3,0-.3,0,0-.1,0-.1.1-.2,0,0,0-.2,0-.2,0,0,0-.2,0-.2h0ZM3.7,26.4c0,.1,0,.1-.1.1s-.2-.1-.1-.3c0,0,.1-.2.4-.2s.1.1,0,.1c-.1,0-.2.1-.2.2h0ZM4.2,25.7c0,.2-.2.3-.4.3-.1,0,0-.2.1-.3,0-.2-.2-.4-.2-.1,0,.3-.2,0,0-.1,0-.1.2-.2.3-.1s.3.2.3.4h0ZM4.1,24.5c.1-.2.2-.3.3-.3.2,0,.2,0,.3.2,0,0,0,0-.2.1-.1.1,0,.4,0,.5,0,0-.4.4-.4.2,0-.1,0-.3-.1-.5,0,0,0,0,0-.2h0ZM4.3,26.4c0,.1-.3.1-.3,0,0-.1.2-.4.2-.4,0,0,.2,0,.2,0,0,0-.1.2,0,.4h0ZM5.1,24.6c.3,0,.5,0,.6-.1.1-.1.2-.2.3-.5,0-.3,0-.6,0-.6s0,0-.1.3c0,.2,0,.3-.2.5,0,0-.1.2-.2,0-.1-.2,0-.4.1-.7,0-.2,0-.6-.2-.2,0,.3,0,.8-.2.9,0,0-.3,0-.2-.3,0-.2.1-.4.2-.5,0-.2.1-.4.1-.5,0,0,0-.2,0-.2s0,.2,0,.3c0,.3,0,.6-.2.5,0,0,0-.4,0-.8,0-.1,0-.3.1-.5,0-.2,0-.4,0-.6,0-.1.2-.3.2-.5,0-.2.1-.3.2-.5.1-.5.2-.9,0-1.6,0-.4-.2-1.8-.1-2,0,0,.3-.1.4-.2,0,0,.1-.3.2-.3.1-.1.3-.2.5-.4,0,0,0-.5.2-.5.2,0,.3.3.2.5,0,0,.3.4.3.6,0,.2,0,.1,0,.5,0,.4,0,1.3.2,2,0,.2.1.5.2.7,0,.3-.1.4,0,.8,0,.2,0,.3,0,.4-.2.2-.3.3-.4.7,0,.5-.3,1-.3.6,0-.1,0-.5,0-.4s0,.6-.2.9,0,.4,0,.7c0,.2-.3.3-.3.6,0,.2-.3.6-.6.9,0,.1,0,.1.2,0,.1,0,.3-.2.3-.2,0,0-.1.4-.4.5,0,0-.3,0-.4,0-.1,0-.2.1-.3.2,0,0-.1.1-.3.1,0,0-.2.2-.2,0,0,0,0-.3,0-.4,0-.1-.1-.2-.1-.1s0,.3-.1.3-.2-.3,0-.4c.1-.1.2-.1.3,0,0,0,.2,0,0-.2-.2-.1-.2-.4,0-.4.1-.1.1,0,.4,0h0ZM5.1,19.2c0-.1,0-.2,0-.6,0-.4,0-1.5,0-1.6.1,0,.4.7.4.9,0,.3,0,.4,0,.5s0,1.1,0,1.2c0,.2,0,.3-.2.3s-.1-.5-.2-.8h0ZM5,14.2c0-.1.2-.4,0-.5,0,0-.2-.2-.4-.2-.1,0-.2-.2-.3-.3,0-.2,0-.5.2-.4.2,0,.2.4.4.4.2,0,.2-.3.2-.4,0-.2-.5-.3-.5-.7,0-.2.1-.2.2-.2.2,0,.3.2.4.2.2,0,.2-.2.2-.3,0-.1-.6-.5-.6-.6,0-.1.2-.4.3-.4.1,0,.2.2.4.3.2,0,.2,0,.2,0,.1-.2-.4-.4-.6-.8,0-.2.2-.4.4-.4.1,0,.3.2.4.2,0,0,.1-.2,0-.2-.2-.2-.4-.2-.5-.3-.1-.2-.3-.8,0-.8s.3.4.6.4c.1,0,.2,0,.2.2s.1.2.2.4,0,.4-.2.6c-.2.1-.4,0-.6,0,0,0,0,.1.2.2.3.1.5.6.2.8-.3.2-.6.1-.6.2,0,0,0,0,.1.1,0,0,0,.1.1.2,0,.1.3,0,.2.4-.1.4-.6.4-.6.4.2.2.3.3.3.4,0,.1-.1.4-.4.5-.2,0-.3,0,0,.2.1,0,.5.1.3.5-.2.4-.4.4-.4.3h0ZM4.7,17c-.2,0-.3-.1-.2-.2s.2,0,.2-.2c0-.2-.1-.2-.1-.4,0-.1.2-.1.2-.1.2,0,.2.3.2.6s-.1.3-.2.3h0ZM4.4,15.2s0,.3,0,.4c0,0-.2.2-.4.2-.1,0,.2-.1.2-.3,0-.1,0-.3-.2-.4-.2,0-.3-.3-.3-.4,0-.1,0-.1.2,0,0,.1.3.2.4.2.2,0,.3,0,.3-.1,0-.2-.2-.3-.3-.4s-.2-.3-.2-.4c0-.1,0-.3,0-.3.1-.1.3,0,.3.1,0,0,0,.2,0,.2.2.1.3.3.5.5.2.2,0,.4,0,.5,0,0-.3,0-.3,0h0ZM3.3,14.3c0,0,0-.1,0-.3,0-.1-.3-.3-.3-.5,0-.1,0-.3,0-.3.2,0,.2.3.4.4s.4.4.3.6c-.2.3-.6.2-.4,0h0ZM3.1,12.2c0,0,.2.1.2.2s0,.3.2.3c.1,0,.4-.3.1-.5-.2-.2,0-.2-.4-.5-.1-.1-.2-.6,0-.6s.4.3.4.4c0,0,0,.2.3.1,0,0,0-.2,0-.4-.2-.1-.4-.4-.4-.6,0-.2,0-.3.2-.2,0,0,.3.4.5.4s.1-.1.2-.2c0-.1-.3-.3-.5-.4-.1-.1-.2-.2-.2-.4,0-.2.2-.5.2-.5,0,0,.3,0,.3.1,0,0,.2.2.2.2,0,0,0,.1,0,.1-.2,0-.2,0-.2,0,0,0,0,.2.2.3s.3.2.4.3c0,0,0,.5,0,.5-.1,0,0,.1-.2.2,0,0-.3,0-.5,0,0,0,.2.2.3.2.2,0,.3.3.2.5,0,.2,0,0-.1.2,0,.1-.5.1-.6,0,0,0-.2,0,0,.2.2.2.4.3.4.4,0,.2-.1.3-.2.4,0,0-.3,0-.3.2,0,.1.2.2.2.3s-.3.3-.3.3,0,0,0-.2c.2-.1,0-.2,0-.4,0-.1-.3-.2-.4-.3,0-.1,0-.4,0-.4h0ZM1.6,5.3c0,0,.3,0,.4,0,0,0,0,.1,0,.2-.2,0-.2,0-.2,0,0,0-.1,0-.1,0h0ZM3.1,9.1c-.2.4,0,0-.1,0-.1,0-.2.3-.2.4s-.3.1-.4,0c0,0,0-.3,0-.4.1-.3.2-.4.3-.4.2,0,.3,0,.5,0,0,0,0-.1.2-.2.1-.1,0-.2,0-.2.1,0,.1-.2.2-.3,0-.2,0-.3-.2-.4-.1,0-.4-.3-.4-.5,0-.1-.4-.5-.2-.4.2,0,.5.3.8,0,.2-.1.2-.2.3-.3,0-.1,0-.2-.1-.1,0,.1-.2.3-.6.2-.2,0-.2,0,0,0,.1,0,.2,0,0-.1,0,0-.7,0-.9,0-.1,0-.4.3-.5.3-.1,0-.3,0-.1,0s.3-.2.4-.3,0-.4,0-.5c0,0,.1-.3.7-.3s0-.3-.3-.3c0,0-.1-.3-.4-.3-.1,0-.3.1-.4.2,0,.2-.1.5,0,.5.2,0,.2.1.2.3,0,.2-.1.4-.3.4-.2,0-.3.2-.3.4,0,.2,0,.3-.1.3-.2.2-.5,0-.6-.2,0-.2.2-.6.5-.7.1,0,.2,0,.2-.2,0-.1,0-.3.2-.4,0,0,0-.5,0-.6.1-.2.5-.4.6-.5.1,0,.4,0,.5-.2.1-.1.2-.4.2-.4.2,0,.3.3.5.4.2,0,.5.2.6.3.2.3-.2.4-.2.4-.3.3-.8.1-.8.2,0,.1,0,0,0,.1.2,0,.5,0,.7,0,.2,0,.3.2.4.5,0,.1.3,0,0,.3,0,0,0,.3,0,.3,0,.3,0,.5,0,.8.2.3,0,.3,0,.5-.2.3,0,.8,0,.8-.5,0-.5.3-.6.5h0ZM1.9,9.1c-.1,0,.6-.6.6-.7.1,0,.3,0,.3,0s.2,0,.2,0c0,0,0,.1-.2.1-.1,0-.3,0-.3.1-.2,0-.5.5-.6.4h0ZM2.4,7.6s.2,0,.2.1c0,0,0,.2,0,.2,0,0-.2-.2-.2-.2,0,0,0-.1,0-.1ZM1.6,8.7c0,0,.2-.1,0-.2-.2,0-.3-.4-.2-.4,0,0,.2.4.3.2,0,0-.2-.2-.2-.4,0,0,0-.2.1-.2.1,0,.3.3.2.5,0,.3.1,0,0,.1,0,0,0-.4,0-.3,0,0,.1.3.1.3s.2-.1.2-.2c.2,0,.3-.1.4-.2,0-.1,0-.3,0-.4,0,0-.3-.2-.3-.3,0,0,0-.2,0-.2s-.1-.2,0-.2c.1,0,.4.4.5.5,0,.1.3.5.3.6,0,.1-.5.1-.6.2-.1,0,0,.1-.2.2,0,0-.2.1-.2.1,0,0,0,.1-.2.1,0,0,0,0,0,0,0,0-.2.1-.3,0h0ZM1.2,7.9c0,0,0-.4.1-.4,0,0,.1,0,.1,0,0,0,0,.1,0,.2,0,0-.2.4-.2.2h0ZM1.8,7.6c0,.1-.2,0-.1,0,0,0,.3-.3.4-.3,0,0,0,0,0,0,0,0-.2.1-.3.3ZM2.3,8s0,.1-.1,0c0,0-.2,0-.2-.1s0,0,0-.1c0,0,.2,0,.2.1h0ZM2.3,7.5c0,0-.3.2-.4.3,0,0-.1,0,0,0,0,0,.3-.2.4-.2,0,0,0,0,0,0h0ZM1,7.8s0-.2,0-.4c0-.1.2-.3.1-.2s-.3.1-.3.2c-.1.3-.2.1-.1,0s.2-.4.4-.4c.1,0,.3,0,.5-.2.2,0,.4-.3.5-.3s.1,0,0,.1c0,0,0,.1-.2.2-.1.1-.3.4-.4.5,0,0-.2,0-.3,0s-.1,0-.2.2c-.1.1-.1.2-.2.2h0ZM3.4,3.2c.2,0,.3.4.3,0,0-.1-.2-.2-.2-.3,0,0,0-.1,0-.1.2,0,.3.2.4.2.4-.1.5-.5.9-.4s.4.3.4.5c0,0,.2,0,.2.5,0,.4.1.1,0,.4,0,0-.1,0,0,0,.1.3,0,.3-.2.4-.1,0-.1.1,0,.2.2.1.3.3.2.4,0,0-.5,0-.3,0,.3.2.4.8.2.9-.2.1-.3-.2-.6-.3,0,0,0,0,0,.2.1.1.5.3.5.6,0,.3-.2.6-.3.6-.2,0-.2-.1,0-.2,0,0,.1-.1,0-.2,0,0,0-.1,0-.2-.2,0-.4,0-.6-.2,0,0-.1-.3,0-.3,0,0,.2.1.3.1.1,0,.2-.4,0-.4-.2-.2-.3-.1-.5-.1,0,0-.2-.2,0-.2.2,0,.7-.1.8-.5,0-.2,0-.7-.2-.9,0-.2-.2-.2-.3-.3-.1,0-.3,0-.2,0,.7.1.8,1,.4,1.2-.5.4-.7.2-.6,0,.3-.2.4-.4.4-.6,0-.1-.3-.3-.6-.4-.3,0-.6-.1-.6-.5,0-.3.2-.5.4-.5h0ZM5.7,4.6c.2.1.1.4.4.5,0,0,.2,0,.3,0s.4,0,.5,0c0,0,0-.3-.3-.3s-.5,0-.8-.1c-.2-.2-.2-.4-.1-.5,0,0-.1-.2,0-.4.3-.2.7,0,.9,0,.2,0,.6.4.7.5.1.2,0,.4,0,.5,0,.1-.2,0-.3-.2,0-.2-.2-.4-.4-.5,0,0-.2,0-.2,0s.2.2.3.3c.2.3.4.8.1.9,0,0-.5,0-.4,0,.1,0,0,.2.1.3.2.2.3.3.3.5,0,.2-.2.3-.4.3s0-.5-.1-.5c-.2,0-.5,0-.6-.3,0-.2-.2-.1-.2-.2s0-.1,0-.2c0-.1.1-.4,0-.5-.1-.1,0-.3,0-.2h0ZM5.7,3.2c.2,0,.9.3.8.3-.1,0-.6.1-.8,0,0,0-.1-.3,0-.3h0ZM6.7,3.3c.2,0,.4,0,.5.2.2.3.3.6.2.5,0-.2-.3-.2-.5-.3,0,0,0-.2,0-.2,0,0-.2-.1-.1-.2ZM7.5,6.2c0,0-.2.2-.2,0s0-.2,0-.3c0,0,0-.2-.2-.3-.2,0-.2-.2-.2-.2,0,0,.3,0,.4-.1.2-.1,0-.3.1-.4,0,0,0,0,0,0,0,.1,0,.3,0,.4,0,.1-.2.2,0,.3,0,.1.1.4,0,.5h0ZM7.5,7.3c0,0-.2,0-.2-.2,0-.3-.3-.1-.3-.4,0-.2,0-.3.2-.4,0,0,.3.2.3.5,0,.3,0,.4,0,.5h0ZM7.6,7.7c.1,0,.2,1.1,0,1.2,0,0,0,.2,0,.4s-.1.1-.2.3c0,.2,0,.4-.2.3s0-.2,0-.4,0-.3-.2-.6c-.1-.2,0-.3.2-.2.2,0,.2.5.3.4,0,0,0-.2,0-.4,0,0,0,0-.2-.2,0,0,0-.3,0-.4,0-.2,0,0-.2-.4,0-.1.1-.2.2-.2s0,.2.1.2c.1,0,.2.1.2.2,0,.2,0,.2,0,.2,0,0,0-.4,0-.4h0ZM7.6,4.2c0-.2,0-.2.2-.2.1,0,.2.3.2.4,0,.2,0,.3.2.3.1,0,.2,0,.2-.2,0,0,0-.3-.2-.5-.1-.2-.3-.2-.4-.4-.1-.5,0-.5,0-.7,0-.2,0-.4.2-.4.1,0,.3,0,.2.3,0,.5,0,.2,0,0,0-.1.1-.2.1-.3,0-.1,0-.3-.1-.4-.1,0-.1-.2,0-.3,0-.1,0-.1.2-.2.1,0,.1-.1,0-.2,0,0-.1,0-.2,0-.1,0-.1-.3-.1-.4,0-.2.1-.3.2-.4.2,0,.2,0,.4,0,.1,0,.2,0,.3,0,0,0,.1-.2.2-.2.1,0,.2,0,.4.2.2.1.3.3.3.5,0,.1,0,.2,0,.3,0,0-.1,0-.2,0,0,0-.1-.2-.2-.3,0,0-.1-.2-.3-.2-.2,0-.2,0,0,0,0,0,.2.2.3.4,0,.1,0,.1,0,.1s-.2-.1-.2-.2c0-.1-.2-.2-.3-.2-.1,0-.2.1-.3.2-.1,0-.2,0-.2,0s.2.1.2.2c0,0,0,0-.1.2-.1.1.1.1.2,0s.2-.2.2-.2c0,0,0-.2,0-.3,0,0,.2.1.2.2s0,.3,0,.3c0,0-.5.5-.6.7s0,.5,0,.6-.2.3-.2.5c0,.1,0,.5,0,.6,0,.2.2.4.3.5,0,.1,0,.3,0,.3-.2.2-.1-.2-.2,0,0,.2-.3.4-.5.4-.2,0-.3,0-.3-.1s0-.2.2-.2c0,0,0-.2,0-.3,0,0-.1-.2-.2-.3,0,0,0-.4,0-.5h0ZM10,.6c0-.2.3-.2.5,0,.1.2,0,.4,0,.5,0,.1,0,.2-.1.3,0,0,0,0,0,0,0,0-.2-.3-.3-.4s-.1-.3,0-.4h0ZM10.9,1.5s0-.1,0-.2c0,0,0-.2-.2-.3-.1-.1-.1-.3-.1-.4,0,0,0-.2.2-.2s.2,0,.3,0c.1.1.1.3.1.4,0,.2,0,.3-.1.4,0,.1,0,.2,0,.2h0c.1,0,.3,0,.5,0,0,0,0,0,0-.2,0,0,0-.1,0-.2-.1-.2,0-.4,0-.5,0,0,.2-.1.3,0,.1,0,.1.3.1.3,0,.2,0,.4,0,.5,0,.2-.1.2-.1.2h0,.1c.1,0,.2,0,.3,0h0s0,0,0-.2c0-.1-.1-.2-.1-.3,0-.1,0-.3,0-.4,0-.1.1-.2.2-.2.1,0,.2,0,.2.4,0,.3-.1.3-.1.5,0,.1,0,.2,0,.3,0,0,0,0,0,0,0,0,.2,0,.3,0,1.2.3,1.4.7,1.5.9.2.3.1.7.2.8.1.1.2.3.2.5,0,.3-.4.4-.5.6,0,.2-.1.2-.2.2-.3,0-.4-.7-.6-.8-.1,0,.6-.2.7-.5.2-.2,0-.1-.3,0-.3.1-.9.3-1.2.1-.3-.2,0-.8.3-1,.2-.2.5-.2.9.1.3.3.4.4.4.3s-.3-.7-.6-.8c-.4-.2-.8,0-1.3.6-.3.4.1.5.2.8,0,.4-.1.3-.2.4,0,0,0,0-.3,0-.2,0-.2,0-.3,0,0,0-.4,0-.3-.3,0-.3.3-.4.1-.8-.2-.6-.8-.8-1.3-.6-.3.1-.8.7-.8.7s.3-.1.6-.4c.3-.2.6-.2.8,0,.2.1.3.6,0,.8-.3.2-.6,0-.9,0-.3,0-.5-.2-.7-.2-.2,0,0,0,0,0s.2,0,.3,0,.2.2.4.2c.2,0,.5,0,.5,0-.1.1-.3,0-.5.6,0,.1-.1.1-.2.2,0,0,0,0,0,.1,0,.2,0,0,0,.2s.2,0,.1.3c0,.2,0,.3-.1.2-.1,0-.1-.3-.3-.2,0,0,0,.1.1.2.1,0,.1.2.1.2,0,.3,0,.4,0,.6,0,.2,0,.2.2.3.2,0,.4,0,.5.2.1.2,0,.3,0,.4,0,.1-.1,0-.2,0-.1-.1,0-.2-.3-.3-.3,0-.3,0-.4-.1-.1,0,0-.3,0-.4,0-.3.1-.1.1-.3,0-.2-.1-.1-.2-.3,0-.2,0-.2.2-.4.1-.1.1-.2.1-.2v-.4c-.3-.3-.7-.4-.7-.8,0-.2.1-.3.3-.5.1,0,0-.5,0-.8.1-.3.9-.6,1.8-.8h0,0ZM12.6,1c0,0,0-.3.1-.4.1-.2.3-.3.4-.3.2,0,.1.2,0,.3,0,0-.1.2-.2.6,0,.1-.2.3-.3.2,0,0-.1-.1-.1-.4h0ZM13.4.7c.2-.1.4-.2.7-.1.3,0,.4.2.4.4,0,.2-.3.3-.6.5-.2,0-.2.2-.1.2,0,0,.2,0,.3,0,.3.1.3.4.4.4.1,0,.1,0,0-.2-.1-.2-.3-.3-.3-.4,0-.1.1-.2.3-.1.2,0,0,.3.1.4,0,.1.2.3.2.4,0,.2,0,.4-.3.5s0,.2,0,.2c0,0,.1-.1.2,0,0,0,.1.2.2.3.1.2.2.2.3.5,0,.2,0,.3,0,.5-.2.4,0,.3.1.4,0,0,0,.1,0,.2,0,.2-.2.3,0,.6,0,0,0,.2,0,.2-.1,0,0,.4,0,.5s-.2-.2-.2,0,.2.2.1.3c0,.1-.2.2-.2,0,0,0,0-.2-.1-.3,0,0-.1-.1,0,0,0,0,0,.1,0,.2,0,0,0,0,0,.3,0,.2,0,.2,0,.3-.1,0-.4-.2-.4-.3,0,0,0-.2,0-.3s-.2-.4,0-.6c.1-.2.2,0,.2,0,.1.2.1,0,0-.1,0,0-.1,0-.1-.2s0-.5.2-.7c.2-.2.2-.7.2-.8,0-.1-.3-.5-.4-.6,0,0-.2-.2-.1-.4,0-.3.1-.6,0-.6,0,0-.3-.3-.4-.3s-.6-.1-.7-.3c0-.1-.1-.3.2-.5s.4.1.4,0c0-.1,0-.2-.2-.2s-.2,0-.3.2c0,.1-.1.3-.2.3-.1,0-.1-.1-.1-.2,0-.2.2-.4.3-.5h0ZM15.8,5.7s.1,0,0,.2c0,.2,0,.6,0,.8s0,0,0,0,0,0,0,0c-.2.2-.2.4-.2.4,0,0,.2-.3.3-.3,0,0,0,0,0,.1,0,.1,0,.3,0,.4,0,.2-.2.3-.3.5,0,0,0,.4,0,.5.1.2.1.2,0,0,0,0,0-.2,0-.3,0,0,.1-.2.2-.3,0-.1.1-.2.3-.2.2,0,.1.4.1.5,0,.1,0,.2,0,.4,0,.3-.2.2-.3.5,0,.2,0,.4,0,.4s0-.3.4-.6c0,0,.2,0,.1.2,0,0-.1,0,0,.1,0,0-.1.2-.2.4,0,.2-.2.2-.2.3.2.1,0,.6.2.5.1-.3.3-.6.5-.6s.1.2-.1.6c-.3.4-.3.5-.4.5-.2,0-.2-.2-.2-.5,0-.2-.2-.3-.3-.5,0-.1,0-.5-.1-.9-.1-.4-.3-.4-.3-.7,0-.3.2-.6.2-.8,0,0,0-.2,0-.3.1-.2.2-.3.2-.4,0-.3.2-.9.3-.9h0ZM18.4,8.5c-.2,0-.3.2-.3.3,0,.2.1.2.2.2,0,0,0,.1-.2.1s-.2-.2-.2-.3c0-.1,0-.2.1-.4.2-.2.6-.6.6-.7s-.1-.1,0-.2.4-.4.5-.3c0,0,0,.3,0,.3,0,.2-.1.4-.2.6-.1.1-.4.2-.6.3h0ZM16.4,11.4c.1,0,.1.2,0,.4,0,.2,0,.4,0,.5s-.2,0-.2-.2c0-.3.1-.6.2-.6h0ZM17,12.4c.3.2.3-.3.4-.5,0-.2.2-.2.3,0,.1.3,0,.4-.1.6-.1.6-.3.2-.3.5,0,.3.1.5,0,.5-.1,0-.3-.3-.3-.4s.1-.3,0-.4c-.1-.1-.4-.2-.4-.6,0-.3.2-.9.4-.9s.2.1.2.2-.3.4-.3.6c0,.1,0,.3.1.4h0ZM16.8,10.5c0,0,.1.2.1.3,0,.1-.3.4-.4.6,0,0-.2-.2-.1-.3,0,0,.2-.5.4-.5h0ZM16.6,8.9c0-.1.3-.2.4-.3,0,0,0-.1,0-.2,0,0,.2-.1.3-.2,0,0,.2,0,.3,0,.2,0,.1.3-.1.5-.2.2-.5.3-.5.4,0,0,0,.2,0,.3s-.2.1-.2,0c0-.1-.1-.3,0-.4h0ZM16.6,7.5c.3-.3.5-.3.6-.3.1,0,0,.4.2.5,0,0,0,.2-.2.3-.1,0-.3.1-.4.1-.1.2.1.3,0,.4-.2,0-.3,0-.4,0,0-.1,0-.6.2-.9ZM15.9,6c0-.2.3-.3.3-.3s0-.3,0-.2c0,0,.4,0,.6,0,.2,0,.4-.3.4-.2,0,.2-.1.7-.3.8-.1.1-.3,0-.5,0-.2,0-.3,0-.3.2,0,.1,0,.2-.1.2-.1,0-.3-.2-.2-.4h0ZM16.1,7.2c0,0-.3-.2-.1-.3,0,0,.2-.2.3-.2.2-.1,0-.2.3-.3.3,0,.4-.2.5-.2.3,0,.4.2.5.3,0,0-.2.3-.4.4-.4.1-.6,0-.7.1,0,0-.3.2,0,.3,0,0,0,0-.1,0-.2,0,0-.2-.1-.2h0ZM16.5,14.2c0,.1,0,.3,0,.4.1.2,0,0,0,0,0,0-.2,0-.2-.4,0-.3.1-.6.2-.8.2-.2.3-.5,0-.5,0,0,0,.4-.2.4-.2,0-.3-.2-.3-.4s0-.3,0-.4c0,0-.2,0-.2-.1s0-.2.2,0c0,0,.1,0,.2,0,.1-.1.3,0,.3,0,0,.1-.3.4-.3.6,0,.2.2-.4.4-.3.2,0,0,.4.1.4.1,0,.2.4,0,.6-.1.3-.3.3-.4.4h0ZM16.4,16.9s-.3-.2-.1-.4c.1-.1.3,0,.3.1s0,.2-.1.3ZM15.1,16c0,0-.2,0-.2-.2s.1-.4.2-.4.1.2.1.3c0,.1-.2.2-.1.2h0ZM15,20.2c0,.2-.4,1.2-.5,1.2,0,0-.1-.3,0-1.4,0,0,0-.3,0-.4,0-.4,0-.3.1-.5,0-.2-.1-.2,0-.4.1-.1,0-1.8.3-1.8.1,0,.3.6.1,1.7,0,.4-.2,1.3-.2,1.5h0ZM15.4,24c0,.1-.4,0-.5-.1s-.1-1.5,0-1.6c0,0,0-.5.2-.5.1,0,.2.3.2.4,0,.2.1,1.8.1,1.9h0ZM15.5,24.4c0,.1,0,.4.2.6,0,0,0,.1,0,.1,0,0,0,0,0,0,0,0,.2,0,.2,0,0,0-.1,0-.2,0,0,0-.1.2,0,.2,0,0,.2.2.1.2s-.2,0-.2-.1c0-.1,0-.2,0-.4,0-.1-.1-.2-.2-.4,0-.2-.2-.3,0-.4,0,0,.2,0,.2,0h0ZM15.9,24.6s0,.1,0,0,0-.3,0-.4c0,0,0-.1,0-.1s0,.3,0,.4h0ZM16.1,24.8c0,0,0,0-.1,0,0,0,0-.2,0-.3,0-.1-.1-.3,0-.3,0,0,.2.3.2.4s0,.2,0,.3ZM15.9,25.4c0,0,0-.1,0-.1,0,0,0,0,0,.1,0,0,0,.2,0,.3,0,0,0,0-.2-.1,0,0,0-.1,0-.2h0ZM15.4,28.6s0,0,0,0,.1,0,0,0c0,0,0,0-.1,0h0ZM13.8,33.1c0,0,0-.1,0-.2,0,0-.3-.3-.2-.3s.1,0,.2,0c0,0,.2.2.3.3,0,0,0,.2,0,.3,0,0-.3,0-.2,0h0ZM13.6,33.3s.2,0,.3,0c.1,0,.1,0,.1,0,0,.1-.1,0-.2,0s-.2,0-.2-.2h0ZM12.3,33.1c0,0,0-.1,0-.2,0,0-.1-.2,0-.2,0,0,.1,0,.2,0,0,0,.2.3.1.4,0,0-.4,0-.4,0h0ZM8.3,26.4s0-.2.1-.4c0,0,.1-.2.2-.2h.3c.2,0,0,.1-.2.2-.1.1,0,.3-.1.4,0,0-.1,0-.3,0h0ZM6.8,25.9c-.3.2-.2.5-.3.5h-.3c0,0,0-.2,0-.2s.2-.3.4-.3c0,0,.2,0,.2,0ZM7.1,24.6c.1,0,.2-.5.3-.5.1,0,0,.6-.2.7-.3,0-.4.5-.5.4,0-.1-.1-.7,0-.7.1,0,.1.2.3.1h0ZM7.2,24c0,.1,0,.2,0,.3,0,.1-.1,0-.1-.2s0-.3.1-.3c0,0,0,.1,0,.2h0ZM7.3,22.6c0,.2-.1.9-.2.9,0,0,0-.7,0-.9,0-.1.2-.4.3-.4,0,0,0,.3-.1.5h0ZM7.8,17.1c0-.1,0-.4.2-.4s.1,1.2,0,1.3,0,1.2,0,1.2c-.2-.1-.3-1.2-.3-1.3s0-.3,0-.5c0,0,0-.2.1-.3ZM7.6,15.7c0,0,.1.2.1.3s.1.3,0,.3-.2,0-.2-.2,0-.3,0-.3h0ZM7.3,14.8c0,0,.2.1.2.2s.1.2,0,.3-.2.1-.3,0c0-.1-.2-.3,0-.4h0ZM6.9,13.9c0-.2.1-.2.2-.2s.1,0,.1.2-.1.4-.2.4c0,0-.2-.2-.2-.4h0ZM7.1,12.8c0,0,.2.2.2.4,0,.1-.3,0-.3-.2s.1-.2.2-.2h0ZM7.2,12.5c0,.2-.1,0-.2-.1,0-.1,0-.4,0-.4.1,0,.3.2,0,.6h0ZM7.1,11.6c0,0,0-.3,0-.3,0,0,.2,0,.2.1,0,0-.1.3-.2.2h0ZM7.4,10.6c0,.1,0,.3-.2.4,0,0-.1,0-.1-.2,0-.1,0-.3,0-.3.1,0,.2,0,.2.2h0ZM7.8,12.5c.2,0,.2.2.2.4s-.3.4-.4.5c0,.1-.2-.2,0-.4s.2-.4.3-.5h0ZM7.8,9.8c0,.1,0,.3-.2.3,0,0-.2-.4,0-.5,0,0,.2.1.2.2h0ZM7.8,11.9c-.1.1-.2.4-.3.3,0,0,0-.2,0-.4,0-.3.2-.4.3-.4,0,0,0,.5,0,.5h0ZM8,10.3c.1,0,.3.2.2.3-.1.1-.5.3-.4.4,0,.1-.3-.1,0-.4.2-.3.2-.3.4-.3h0ZM10.4,8.4c0,0,0,.3,0,.3,0,0,.1-.1.1-.1,0,0,.1-.2.2-.2s0,0,0,.2c0,0-.2.3-.2.4s.1.3,0,.4c-.2.1-.2,0-.4,0-.2-.1-.2-.4-.2-.5s0-.1-.2-.1c-.1,0,0-.3,0-.4,0-.1.1-.1.1-.1.1,0,.2.1.2.2,0,.1.1,0,.2-.1.1-.1,0,.4.1.4s.1-.2.3-.2h0ZM15,9.6c-.2,0-.1-.1-.2-.3,0-.2,0-.3,0-.3.1,0,.1.2.2.3,0,.1.1.3,0,.3h0ZM15.3,10.6c-.2,0-.2-.1-.3-.2,0-.1-.2-.1-.3-.3,0,0,0-.2,0-.2,0,0,.2,0,.3,0,.1,0,.3.2.4.3,0,.1,0,.4-.2.4h0ZM14.9,13c0,0,.1,0,0-.2,0-.1-.4-.2-.5-.4,0-.1,0-.2.2-.2s.2,0,.3.2c0,0,.2.2,0,.5-.1.2-.3.2-.2.2h0ZM14.9,14.1c0-.2-.2-.3-.3-.4-.1-.1-.2,0-.2-.1,0,0,.1-.4.3-.4,0,0,0,0,.1,0s0,.2,0,.3c0,0,.1,0,.2.2.1.1.1.3,0,.4,0,0-.2.3-.2,0h0ZM14.7,14.7c0-.1-.2,0-.3,0s0-.2,0-.3c.2,0,.4.2.5.3s0,.3-.1.3c0,0-.2,0-.2-.2h0ZM14.5,16.1c-.2,0,0,0,0,0,0,0,.1,0,.1-.3,0-.2,0-.2-.1-.3,0-.1,0-.2,0-.3.2,0,.3.2.3.3,0,.2,0,.5-.3.6h0ZM10.3,21.3c-.1.1-.1-.5-.1-.6,0-.4-.1-1.6-.1-1.8,0-.2-.1-.9,0-1.1,0-.1,0-.6.4-.6.1,0,.3.3.4.4s-.1.5-.1.6c0,0,0,.1,0,.2,0,.1,0,.2,0,.4,0,.2,0,2.1-.4,2.6h0ZM10.5,23.5c0,.2.1,1,0,1.2,0,.1-.3-1-.3-1.5s0-.9.1-1v.5c0,.2,0,.7,0,.8h0ZM8,15.6c0,0,0-.4.1-.3,0,0,0,.1.1.2,0,.1,0,.1,0,.3,0,0,0,.3,0,.3,0,0-.2-.2-.2-.4,0-.1,0,0,.1-.2h0ZM8.2,9.7c0,.1-.4-.2-.2-.4.2-.2.2-.4.3-.4,0,0,.2,0,.2.3s-.4.4-.4.6h0ZM9.3,9.7c-.1.4-.4.3-.7.5-.2,0-.1-.2,0-.3,0-.2.3-.3.4-.4.1,0,.2-.3.3-.2,0,0,.1.2.1.4h0ZM9.6,11.2c.2,0,.4,0,.4.3,0,.2-.3.3-.4.4,0,.1,0,.3,0,.4s-.2,0-.3,0-.2-.3-.1-.5c0-.2.2-.4.4-.5h0ZM9.9,10.6c-.2.2-.1.3-.1.3,0,0-.3,0-.3-.1,0-.2.2-.9.6-1.1.1,0,.4,0,.4,0,0,.3-.4.6-.6.8h0ZM10.7,10.1c.2-.1.2-.2.3-.2,0,0,.3,0,.4,0,.1,0,.1.5-.1.7-.3.2-.5.2-.6.4-.1.1,0,.4,0,.4,0,0-.4,0-.4-.3,0-.2,0-.3.2-.5,0,0,0-.1,0-.2,0-.1.2-.3.2-.4h0ZM10.9,8.5s0,.2,0,.3c0,0,.1-.2.2-.2,0,0,0,.2,0,.3,0,0,.3-.3.4-.3,0,0-.2.3-.2.4,0,.1,0,.2,0,.2.1.1.2,0,.2.1s0,0-.2.1c0,0-.1.1-.2.1-.1,0-.2,0-.3-.1,0,0-.2-.1-.2-.4s0-.5.2-.5h0ZM14.3,10.8c0,.1-.2.3-.4.3,0,0,0-.1,0-.3,0-.2-.3-.2-.4-.2-.1,0-.4-.2-.5-.4-.1-.3.2-.2.2-.2.2,0,.3.1.3.2,0,0,.1.2.4.3.3.1.4.3.4.5h0ZM14.6,10.9c-.2,0-.1-.1,0-.2s.2-.2,0-.4-.3-.2-.1-.3c0,0,.3,0,.5.2.3.3,0,.6-.3.6ZM13.9,12.2c0,0,0-.2,0-.3s-.3-.3-.5-.4c-.1,0,0-.2,0-.3,0,0,0-.4,0-.4.1,0,.3.2.4.3,0,0,.2.1.4.4.2.2.3.3.2.5-.1.3-.4.3-.6.2h0ZM13.4,11.6c.2.1.2.3.4.6s.4.2.5.4c0,.1,0,.2,0,.3,0,.2-.2.3-.3.3,0,0,0-.2,0-.4,0-.2-.4-.2-.4-.3,0,0-.1-1,0-.9h0ZM13.9,14.3s-.1,0,0-.1c0,0,0-.2,0-.4,0-.1-.4-.4-.4-.4,0,0,0-.2,0-.3,0,0,.1,0,0,0,0,0-.1-.2-.2-.4,0-.1,0-.2,0-.2,0,0,.2.1.2.2s.3.2.3.3c0,0,0,.2,0,.2.1,0,0,.2.3.2.2,0,.2.3.2.5,0,.1-.3.4-.4.4h0ZM14.1,15.9c0,0,0-.1,0-.1.1,0,.1.2.2.2,0,0,0,.1-.1,0s-.1-.1,0-.2h0ZM12.6,13.5c-.2,0,0-.2,0-.3s0-.4-.3-.4c-.2,0-.3,0-.5-.1s-.2-.2-.3-.4c0-.2.1-.3.2-.3,0,0,0,.2.2.2.2,0,.2.1.3.2.1.2.1.4.4.4.3,0,.4.4.3.5s-.4.3-.5.2h0ZM11.7,10.9c0,0,0-.3.1-.3s.5.4.6.5c.1.1.2.5.4.6.4,0,.4.3.3.4,0,.1-.2.4-.4.4-.1,0-.2,0-.2-.1,0-.1,0-.2,0-.3,0-.2-.7-.5-.9-.5-.1,0-.3-.4-.2-.5s.2,0,.2-.1h0ZM11.7,9.1s0,0,0-.1,0-.1,0-.1,0,0,0,.1,0,.1,0,.1ZM12.9,11.1c0-.2-.3-.2-.5-.3-.2-.1-.4-.3-.4-.6,0-.2-.4-.3.2-.3s.4.2.4.3c0,0,.2.4.4.5.2.1.4.4.2.7,0,.2-.3.2-.4.1-.1-.1.1,0,.1-.4h0ZM11.9,8.5c.1,0,.3,0,.4.1s.2.2.2.2c0,0,0-.4.1-.4s.2.4.2.6c0,.2,0,.3-.2.3-.2,0-.4.2-.8,0-.1,0,.1-.1.2-.4.1-.2-.4-.5-.2-.5h0ZM10.3,12.5c-.1-.3-.1-.4,0-.6.1-.1.2,0,.4-.2.2-.1.1-.3.2-.4,0-.1.1-.2.2-.2.2,0,.4,0,.4.3,0,.2-.1.3-.2.4,0,0-.1,0-.3.1-.1,0-.4.4-.4.5s.1.3.1.4c0,0-.4,0-.4-.2h0ZM9.4,15.5c0-.2.3-.2.4-.4.1-.2,0-.3.1-.3.1,0,.1,0,.2,0,0,0,.1.1,0,.2s0,.2,0,.3c0,.1-.4.2-.4.3s-.1.2,0,.3c0,.1,0,.3,0,.2,0,0-.3-.3-.2-.5h0ZM9.4,14.4c.4-.4.4-.8.6-.7.1.1.2.4.2.6,0,.2-.6.4-.7.5,0,0-.2-.3,0-.4h0ZM9.3,13.1c.1,0,0-.3.2-.4.2,0,.3-.3.4-.4,0,0,.3.4.2.6,0,.2-.4.3-.5.5,0,.1,0,.2,0,.3,0,.1-.1.2-.3,0-.2-.2-.3-.4,0-.6h0ZM8.6,11.4c0,0-.2,0-.1.3,0,.1-.4,0-.2-.6s.6-.6.6-.6c.1,0,.2.2.3.3,0,.1-.4.4-.6.5h0ZM8.6,13.1c0,.1-.3.2-.3-.4,0-.1.1-.4.2-.4.2,0,.3-.3.3-.3,0,0,.2.2.2.3-.2.4-.4.4-.4.5,0,.1,0,.2,0,.3h0ZM8.7,14.5c-.1,0-.3,0-.3-.1,0-.1,0-.4,0-.7.1-.3.2-.3.2-.3,0,0,.3,0,.1.4,0,.2-.3.3-.3.4,0,.1.3,0,.3.1,0,.1,0,.4,0,.6-.1.2-.4.4-.4.2s-.1-.3,0-.4c.1-.1.4-.3.2-.4h0ZM8.8,16.3c-.1,0-.3-.3-.2-.5,0-.2.2-.1.2-.2s0-.1,0-.2c.1-.1.2,0,.2,0,0,.2-.2.3-.3.6,0,.1.2.2,0,.2h0ZM9.9,16.7c0,.1.2.2,0,.2-.2,0-.3-.2-.4-.4,0-.1.2-.4.3-.4,0,0,0-.1,0-.2,0,0,.3-.3.4-.3.1,0,.1.5,0,.5-.2.1-.4.4-.3.6h0ZM13,14.3s0,.1-.2.1c-.2,0,0-.1,0-.2,0-.1-.2-.4-.5-.5-.1,0-.2,0-.5-.2-.1-.1,0-.3-.2-.4-.1,0,0-.2-.2-.4h0c0,.4-.1.5-.2.6s-.3.2-.3.6c0,.2-.1.3-.3,0-.2-.2,0-.6,0-.7,0-.2,0-.2.2-.2.1,0,.2-.2.1-.3,0,0,0,0,0-.1,0,0,.4-.2.5,0,0,0,.2-.1.2,0,0,0,0,.2,0,.4,0,.1.1.3.3.4s.3,0,.5.2c0,0,0,.2.1.3.2.2.3.2.5.2.2,0,.1.4,0,.5h0ZM12.3,17.8c0-.2.5-.4.6-.3,0,0,0,.5,0,.6,0,.5.2.5.2.6,0,.2-.2,2-.3,2.2-.1.2-.1-.1-.2-.5-.1-.4-.2-1.1-.2-1.5s-.1-.7,0-1h0ZM11.4,17.1c.1,0,0-.2.1-.3,0,0,.1,0,.2,0,0,0,.1.1,0,.3,0,.2-.1.4-.3.5-.1,0-.2-.3,0-.4h0ZM11.3,16.1c0,0,.2-.5.3-.4.1.3,0,.3-.1.5,0,.2-.4.4-.4.5,0,.2,0,.3,0,.3,0,0-.3,0-.3-.4s.5-.5.6-.6ZM11.5,14.2c0,.2-.5.5-.6.6s0,.3-.1.3c0,0-.2,0-.2-.2s.1-.5.3-.5c.2,0,.2-.1.2-.3,0-.1.1-.3.2-.2.1,0,.2.2.2.4h0ZM12.6,16.8c0,0,0,.1,0,.2,0,.2-.3.2-.3.1,0,0,0,0,0-.1,0-.2,0-.3.1-.2h0ZM13,15c.1.1,0,.4,0,.4-.1,0-.2-.1-.2-.2s-.1-.1-.1-.2c0-.1.2,0,.3,0h0ZM12.9,15.9c.1,0,.2.3.2.4,0,.1,0,.2-.3.3,0,0-.2,0-.1-.1,0-.1,0-.4,0-.6,0-.2.2,0,.3,0h0ZM11.7,14.7s0,0,0,0c0,0,.6.4.7.5,0,0,0,.5,0,.5,0,0-.4-.2-.4-.3s0-.1,0-.2-.4-.2-.3-.3,0,0,0,0c0,0,0,.2,0,.2,0,0,0,0-.2,0-.2,0-.3.4-.4.6,0,.2,0,.4,0,.3-.1,0-.4-.3-.3-.4,0-.1.3-.1.3-.3s0-.4.1-.4c.2,0,.4-.2.5-.2h0ZM11.7,14c-.2-.1-.1-.3-.1-.3.2.2.8.5.9.6,0,.1,0,.4,0,.4-.2.2-.6-.3-.7-.4s0-.3,0-.3h0ZM12.1,17.7c0,0-.2,0-.2,0,0,0,0-.4.1-.3,0,0,.3,0,0,.3h0ZM11.9,16.5c0-.3-.1-.5,0-.6,0,0,.2,0,.3.1,0,0,.2.1.3.3,0,.2-.2.1-.2.2,0,0,.1,0,.2.1,0,0,0,.2-.1.2-.2,0-.5-.4-.4-.4h0ZM13.3,15.7c0-.1,0-.6,0-.6,0-.1-.1-.2-.2-.3,0,0,.1-.1.3,0,0,0,.2.1.2.3,0,.2,0,.3,0,.3,0,0,.3.4.3.6,0,.2-.1.3-.2.1-.1-.1-.2-.3-.3-.4h0ZM13.2,16.1c0-.1.2,0,.2,0,0,0,0,.2,0,.2,0,0-.3-.1-.2-.3h0ZM13.3,16.6c0,0,.2,0,.2,0,0,0,0,.2,0,.2-.1,0-.2-.1-.2-.2ZM13.3,14.4c0,0,0-.6,0-.7.1-.1.3.6.6.8.2.2.3.3.2.4-.1.2-.3.3-.2,0,0-.2-.5-.4-.6-.5h0ZM14.5,11.4c0-.1,0-.3.3-.3.2,0,.3.1.3.2,0,.2,0,.4,0,.5,0,.1-.2.4-.2,0,0-.4-.2-.1-.4-.5h0ZM13.9,9.7c0-.1,0-.3.1-.3s.3.2.2.4c0,.1-.1.3-.4.2s0,0,0-.3h0ZM13.4,8.6c0-.1,0-.6,0-.6s.2.1.2.3c.1.4-.2,0-.1.2.1.3,0,.5,0,.6-.1.1-.4.3-.6.3-.2,0-.1,0,0-.1,0,0,.1-.2,0-.4,0-.1-.1-.3-.1-.4,0-.1.3.2.4.2,0,0,0-.4,0-.4s.2.3.2.2h0ZM13.8,5.9c0,0,.1-.1.2-.2,0,0,0-.2.1-.3,0,0,.1,0,.1,0,0,0,0,.3,0,.4,0,.1,0,.2,0,.3,0,.2-.2.2-.4.2-.1,0-.2.1-.3.3,0,.2-.2,0-.2,0s0-.3,0-.3c0,0,.2,0,.4-.3.1,0,0,0,0-.2h0ZM11,6.8c0,0,.1.2.6.3.1,0,.5,0,.7,0,.2-.2.5-.8.7-.9.1,0,.2.9.2,1.1,0,.2-.4.4-.6.5-.1,0-.4,0-.3,0,0,0,.2,0,.2-.2,0,0-.1,0-.2,0-.1,0-.3,0-.2,0,0,0,.1.2,0,.2,0,0-.5,0-.6,0,0,0,.1-.2,0-.3s-.1,0-.2.1c-.2,0-.4,0-.4,0,0,0,.2,0,.2,0,0,0,.1,0,0,0-.2,0-.5,0-.6,0s-.3-.4-.2-.6,0-.8.2-.8c.2,0,.4.4.5.6h0ZM11.8,6.7s.1,0,.2,0c.1,0,0,0,.3-.3.1-.2.3-.1.2,0,0,.1-.2.5-.5.5,0,0-.2,0-.3,0s-.2.1-.4,0c-.2-.2-.4-.4-.4-.6,0-.1.3-.3.4-.3.1,0,.1-.2.2-.1.2.2.3.2.6.2.2,0,0,.4-.2.4-.3,0-.2,0-.2.2h0ZM7.7,14.3c-.1,0-.2-.2,0-.4,0-.2.2-.3.3-.4,0,0,.3,0,.2.1,0,.1-.3.6-.5.6h0ZM8.1,14.4c0,0,.2.2.1.3,0,0,0,0-.1.3-.1.2-.3.1-.4,0,0-.1.2-.5.3-.6h0ZM7.4,25.8c.2,0,.2,0,.2,0s-.2.1-.2.2c0,0,0,.2,0,.3,0,0-.2,0-.3,0-.2,0,0-.2,0-.3,0-.3.3-.3.5-.3h0ZM7.4,25.4c0,0,0,.2,0,.1,0,0,0-.3,0-.3.1,0,0,0,0,.2ZM8,24.4c0,.2-.4.5-.3.6,0,0,0,.1,0,.2,0,.3,0,.5-.1.4,0,0,0-.2,0-.4,0-.2-.3-.1-.3-.1-.1.1,0,.6,0,.5,0,0-.2-.3-.1-.5,0-.2.2-.3.4-.3.2,0,.2-.1.2-.3s0-.5.3-.5c.2,0,.1.2,0,.3h0ZM8.1,25.5s-.1,0-.1-.1c0,0,0-.1,0-.1,0,0,0,0,0,0s0,.2,0,.2h0ZM8,25c0,0-.1.3,0,.4,0,0,0,.2,0,.2,0,0-.2,0-.3,0,0,0,0-.5,0-.6,0-.1.2-.1.3-.1s.1,0,.2.1c.2.2,0,.4,0,.4,0,0,0-.2-.2-.3,0,0-.1,0-.2,0h0ZM8,26.3c0,.1,0,.2-.2.2s-.2,0-.2-.1,0-.3.2-.3c0-.1.1-.2.3-.2.1,0,.3,0,.3,0s0,.1-.2.2-.2.2-.1.3h0ZM8.7,24.6c0,0,0,.2,0,.3,0,0,0,.2,0,.3,0,.1-.1.2,0,.3,0,.2-.3.2-.3,0,0,0,0-.3.2-.2,0,0,.1,0,0-.3,0,0,0-.2.1-.3,0,0,0-.1,0-.1-.1,0-.3,0-.3,0s0-.3,0-.4c0,0,0-.1.2,0s.2,0,.3-.1c.1-.2.3-1.3.2-1.2,0,0,0,.5-.1.7,0,0,0,.2-.1.2-.2.2-.3.2-.4.2-.1,0,0-.5.1-.5.2,0,.1.2.2.2,0,0,0-.3,0-.5,0,0,0-.2,0-.3,0-.4,0-1.2,0-1.2,0,0,0-1.6,0-1.7s-.3-1.5-.3-1.7c0-.2,0-.3-.1-.5,0-.4,0-.8.2-1,0,0,.6,0,.9.1.1.1.5.5.5.6s.1.6,0,1c0,0,0,.2,0,.3,0,.3,0,.9,0,1.4,0,.1,0,.2,0,.3,0,.2.2.8.3.9.2.2.2.6.1.6,0,0-.1-.3-.2-.3,0,0-.1,0-.1,0,0,.1.2.3.2.7,0,.1,0,.3.1.5,0,.2,0,.6-.1.7,0,0-.1-.3-.2-.5,0,0,0-.1,0-.2,0,0,0-.2,0-.2,0,0,.1.7,0,.8,0,0-.2.2-.2.1,0-.1-.1-.8-.2-1-.1-.1,0,.9,0,1.1,0,.1-.5.7-.5.9h0ZM9.9,25c0,0,0,0,0,.1s0,.5,0,.5c-.1,0,0-.1,0-.3,0-.2,0-.3-.1-.4,0,0,0-.3,0-.4,0-.1-.1-.2-.1-.2,0,0,0,.2-.2.3s-.1.1-.2.1c0,0,0,.1,0,.1s.2,0,.2,0c.1,0,.1.2.1.3,0,.2-.1.3-.2.3-.1,0,0-.3,0-.4,0,0,0-.1-.1-.2,0,0-.1,0-.2,0,0,0,0,.1,0,.2,0,.1,0,.3,0,.3,0,.1-.3.2-.3-.2s0-.3.1-.3c0,0,0-.4,0-.6,0-.1,0-.4.3-.4,0,0,.2.1.2,0,0,0,0-.3,0-.3,0,0,.1-.2.2-.3s0,.1.1.2,0,.5,0,.5c0,0,0,.1,0,.1s.2,0,.1,0,0,.1,0,.2c0,0,0,.1,0,.1,0,0,.1-.2.2-.2,0,0,.2,0,.2,0,0,.1,0,.1-.1.2,0,0-.2,0-.2,0,0,0,0,.1-.1.1h0ZM9.8,25.7c0,0,.3,0,0,.2-.2.1-.3.3-.3.4,0,0-.2,0-.2-.1,0-.2.3-.4.4-.4h0ZM9.1,25.2c.1,0,.1.1.1.2,0,0,0,.1,0,.1s0,0,0-.1c0,0,0-.2,0-.2h0ZM9.2,25.8c.1,0,.4,0,.3,0,0,0-.2.1-.3.2,0,0,0,.2,0,.2,0,0-.2,0-.3,0s.2-.5.3-.5h0ZM10.4,25.4c0,0-.1,0-.1,0s0-.2,0-.2c0,0,.1.1,0,.2h0ZM10.5,25.2c0,0-.2-.2-.3,0,0,.1,0,.2,0,.3,0,0,.1.1.2.2,0,0-.2,0-.2,0,0,0,0-.2,0-.2,0-.2,0-.4,0-.4,0-.1.2-.1.2-.1.1,0,.2.1.2.1,0,0,0,.2,0,.3,0,0,0,.1,0,.2,0,0-.1,0-.1,0,0,0-.1,0,0-.1,0,0,0-.1,0-.2,0,0,0-.1,0-.2h0ZM12.4,24.9c.2.2.1.6,0,.7-.1,0-1,0-1.3,0-.2,0,0-.2,0-.4,0,0-.2-.3-.1-.3s.2-.3,0-.5c0,0,0-.6,0-.7,0,0,0-.5,0-.6,0-.1,0-1.3.2-1.9.1-.3-.2-2.5,0-2.8,0,0,0-.2,0-.3.1,0,.2.1.3,0,.1-.1.3-.1.4,0,.1,0,.2.1.3.2,0,0,.2-.1.2,0,0,0,0,2.1,0,2.2,0,.1.2,1.5.4,1.8.1.2,0,.6,0,.6,0,0,0,.1,0,.3s0,.4,0,.6c0,.1-.2.4-.3.6,0,.1,0,.4.2.6h0ZM15.1,25.4c0,0,0-.1,0-.1,0,0,0,.1,0,.1,0,0-.1,0,0,0h0ZM15,25.9c.1,0,.2,0,.3,0,.1,0,.3.4.4.4,0,.1-.2,0-.3,0-.2,0,0-.3-.3-.5,0,0-.2-.1,0-.1h0ZM13.3,25.9c.1,0,.2,0,.3,0,.2.2.2.3.1.2-.1-.1-.3-.2-.4-.2s0-.1,0-.1h0ZM13.2,25.2s0,.1,0,.2c0,.1,0,.1,0,0,0-.1,0-.2,0-.2ZM14.2,25.5s0,0-.1-.1,0-.2,0-.2,0,0,0,.1c0,0,0,.2,0,.2h0ZM13.1,25.5c0,.1,0,.2-.2.2,0,0-.1-.6,0-.7.1-.1,0-.3,0-.3s0-.3,0-.3.2.5.3.3c0-.1,0-.4-.1-.5,0-.2,0-.5,0-.4,0,0,0-.3,0-.4,0,0,0-.7,0-.7s0-.5.1-.5.1.5.1.6c0,0,0,.1,0,.2,0,0,0,.3,0,.4.1.2,0,.4,0,.6,0,.2-.2.2,0,.5,0,0,0,.2,0,.3,0,0,.1,0,.1-.1s0-.2.1-.3c0,0,.1,0,.2,0,0,0,0,.2,0,.3,0,0-.1.1-.2.2,0,0,.2,0,.4,0,0,0,.2,0,.2.2,0,0,0,.2,0,.2,0,.1,0,.3-.1.3,0,0-.2,0-.2,0,0-.1.1-.2.1-.4s0-.1,0-.2-.2,0-.3,0c0,0,0,.2,0,.2,0,0,.1.1.1.2,0,.1,0,.2-.2.1,0,0-.1-.2-.1-.4,0-.2-.1-.1-.2-.3,0,0-.1,0,0,0,0,0,.1.2.1.4s0,.2-.2.2c0,0,0-.2,0-.3,0-.1-.2-.2-.2-.1-.1.1,0,.3,0,.4h0ZM14,26.1c-.1-.1-.3-.3-.2-.3,0,0,.2,0,.3,0,0,0,.2.2.3.3,0,0,.2.3,0,.3-.2,0-.3,0-.4,0s0-.2,0-.3h0ZM14.6,26.2s-.3-.3-.3-.3c.2,0,.3,0,.5.1,0,0,.2.2.2.4,0,0,0,0-.2,0s-.2,0-.2,0c0,0,0-.2,0-.2h0ZM14.6,23.8c0,0,0,.1.1.2,0,0,.2.2.1.2,0,0-.2,0-.2,0,0,0-.1-.3,0-.3h0ZM14,21.1c0,.4.2.8.4,1.5,0,.2,0,.6,0,.8,0,.2-.1.1-.1.3,0,.2,0,.5,0,.6.1,0,.4.1.5.4,0,.1,0,.2,0,.3,0,0,0,.3,0,.3,0,.1,0,0,.1-.1,0-.1.2,0,.3.1,0,0,0,.3,0,.4s0,.1-.1,0c0,0,0-.3,0-.4,0,0-.1,0-.2,0-.1,0,.1.4,0,.4s-.1,0-.2,0c0,0,0-.2,0-.3,0,0-.1,0-.1.1,0,.2,0,0,0-.1s.1-.3,0-.5c0,0-.1-.1-.2-.3,0-.1,0-.3-.2-.3,0,0-.4,0-.3-.2,0,0,0-.2,0-.3,0,0,.1-.3,0-.5-.1-.2-.3-.6-.3-1.1,0-.6,0-1.5,0-1.5,0,0-.1.5-.2,1-.1.8-.3,1.5-.3,1.7,0,0,0,.2,0,.3,0,.1-.1.4-.2.4,0,.1-.1.5,0,.6,0,0-.2.1-.2-.1,0-.1,0-.4.1-.5,0,0,.2-.2.2-.3,0-.1-.1-.4-.1-.4,0-.1,0-.4,0-.5.1-.5.4-2.3.4-2.5,0-.2,0-2.2,0-2.5,0-.2-.2-.7,0-.8.4,0,.4,0,.5-.2.1,0,.4-.5.5-.5.2,0,.4,0,.4.2,0,.4.3.7.1,1.5-.2.6-.1.8-.3,1.5-.2.7-.4,1-.3,1.4h0ZM15.4,11.5c-.3,0,0,0,0-.2,0-.2,0,0-.1-.2-.1-.1-.1-.4.1-.4.2,0,.3.1.4.4,0,.1,0,.4-.4.4ZM15.6,12.4c-.1,0,0-.1-.1-.2,0,0-.2-.1-.2-.2,0,0,0-.2,0-.2s.1-.1.3,0c.2,0,.2.2.2.3,0,.1-.1.3-.3.3h0ZM15.3,13.6s.2,0,.3.1c.1.2.1.5,0,.5-.1,0-.2,0-.1-.2,0-.2-.2-.4-.2-.4h0ZM15.8,13.4c0-.3-.2,0-.2-.3s-.3-.1,0-.3c0,0,.3,0,.4.2,0,.2.2.7,0,1-.2.3,0-.2,0-.5h0ZM14.4,8.1c.2-.2.1-.8,0-.9-.1-.2.2,0,.3,0s0-.1-.2-.2c0,0,0-.1,0-.2,0,0,.2,0,.5.3.1.2,0,.5,0,.7-.1.2,0,.3-.3.4-.2,0-.2.2-.3.4,0,.1-.2.2-.4.2-.1,0-.1-.1,0-.1s.1,0,.1,0c0,0,0-.2,0-.3,0-.1-.2-.3-.2-.4-.1-.2,0-.3,0-.3.1,0,.2.3.3.3,0,0-.2-.4,0-.5,0,0,.1.3.1.3.1,0,0-.6,0-.5,0,0,.1.3.2.5,0,.2,0,.4,0,.4h0ZM12.7,3.8c0,0,.3,0,.3.2s0,.4-.3.6c-.3.2-.4-.1-.4-.1,0,0,.2,0,.3-.2.1-.1,0-.4,0-.5h0ZM10.3,4.3c.1.1,0,.2.2.4.2.2.5.2.5.2,0,0-.2,0-.5,0-.2,0-.5-.3-.5-.4s.1-.4.3-.2h0ZM10.4,5.7c-.2,0-.3,0-.6-.2,0,0,0-.1.1,0,.2,0,.2,0,.6,0,.4,0,.6-.1.8-.2.2,0,.3-.1.3-.2,0-.1,0-.1-.2,0-.2.2-.8.2-1.1.2-.3,0-.4-.2-.5-.4,0,0,0-.2,0-.2s.2.3.4.4c.2,0,.5.1.8,0,.2,0,.3-.1.4-.2,0,0,0-.1,0-.2-.3-.2-.3,0-.5-.2-.2-.1-.1-.3-.2-.6,0-.2.1-.3.1-.3,0,0,.1,0,.1.2,0,.2,0,.4,0,.5.1.2.2,0,.5.2.1,0,.4.2.5.2.1,0,.2-.2.4-.2.2,0,.1,0,.3.2s.3,0,.5-.1c.1-.1.2,0,.2-.2s0-.2,0-.3c0-.2.4,0,.2.5,0,.2-.2.3-.4.4-.2,0-.6,0-.9-.2-.2-.2,0,.1.2.2.5.2.7.1.8,0,.3-.1.3-.3.5-.4.2,0,.1.2,0,.3s-.3.3-.6.3c-.3,0-.4,0-.6,0-.3,0-.4-.2-.6-.3-.1,0,0,0,0,.2.1.2.4.4.7.4.2,0,.5,0,.9,0,.4-.1.3-.4.5-.6.1,0,.2,0,.2.2,0,.1,0,.3,0,.3,0,0-.1,0-.1,0,0-.2-.1-.2-.2,0-.1.3-.6.7-1.2.6-.5,0-.7-.2-.9-.4-.1-.1-.1-.3-.2-.3s0,0-.1.2c-.1.2-.3.3-.5.4-.2.1-.3,0-.6.2-.2,0-.4,0-.4,0,0-.2.3,0,.4-.2s0,0,0,0h0ZM9.8,7.6c0,0,0,.3,0,.4-.1.1-.4.1-.4.3,0,.2,0,.2,0,.3,0,0-.1.1-.2,0-.1,0-.2,0-.2-.2,0-.1,0-.5-.2-.6-.2-.1-.5-.6-.5-.7,0,0,0-.1,0,0,.2,0,.3.2.5.4.1.1.1-.5.4-.4.2,0,.1.4.1.6.1.5,0-.2.2-.2.2,0,.1.2.1.4,0,.1.2-.3.3-.2h0ZM8.8,6.1c0-.2,0-.4,0-.3.1,0,.1.1,0,.3,0,.2,0,.3,0,.4,0,.3-.2.5-.4.5-.3,0-.1,0-.3-.3,0,0-.3-.2-.3-.3,0-.1,0-.3,0-.4,0-.2.2,0,.4-.1.2-.1.1-.2.3-.2s.2.3.2.4,0,.3,0,.3c0,0,.1,0,.1-.2h0ZM5.7,5.8c0,0,0,.2.2.3s.3,0,.3.2c0,0,0,.2.2.3.1,0,.4.2.4.4,0,.2-.2.3-.3.4-.1.1,0-.2-.3-.3-.2-.1-.6-.2-.7-.4,0-.2-.1-.6.1-.8h0ZM4.4,8.7c-.3-.3-.4-.5-.4-.7s.1-.3.2-.2c.1,0,.3.3.4.4s0,.3,0,.3c0,0,0,0,0,0,0,0,0-.1,0-.2,0,0,0,0,0,0,0,0,0-.1,0-.2,0-.1-.1,0-.3-.4,0-.1-.2-.2-.3-.3-.1,0-.1-.2-.1-.2,0-.1-.3-.3-.2-.4.2,0,.2.2.4.2s.2,0,.3,0c.1,0,0,.3.2.4.2.2.3.2.3.3,0,0,0,0,0,.1,0,.2,0,.4,0,.6-.2.2-.5.2-.4.3,0,0,.3,0,.4.3.1.3,0,.7-.2.8-.2.1-.6,0-.5,0,.1,0,.2-.2.3-.4,0-.2,0-.3-.3-.5h0ZM6.2,8.9c0-.2-.7-.1-.9-.5,0-.2,0-.3,0-.5,0-.2-.2-.3-.2-.4,0-.1.2-.3.2-.3,0,0,0,0,0,0,0,0,0-.4,0-.4.2,0,.2.1.4.3.2.2.3,0,.3.1,0,0,0,.1.2.2.2,0,.3,0,.3,0,.1,0,.2.2.2.5,0,.1,0,.2-.2.3-.2.1-.3-.1-.3-.2,0-.1-.1-.3-.2-.3-.1,0-.3,0-.5,0-.2,0,0-.4-.2-.5,0,0,0,.2,0,.3,0,.2.2.5.3.6.2.1.5.1.7.2.2.1.4.4.2.6-.1.2-.4.2-.5.2,0,0,.2-.2,0-.3h0ZM6.5,15c0-.1,0-.3,0-.4s-.2-.2,0-.3c0,0,0,0,.2.1.1.1.2.5,0,.6,0,.1-.2,0-.2,0h0ZM6.5,12.7c0,0,.1,0,.1.1,0,0,0,.2,0,.2,0,0,0,0-.1,0-.1,0-.1-.3,0-.3ZM5.7,14.1s0-.1,0-.2c0,0,0,0,.2,0s.2.1.3,0c.1,0,.2-.2.3-.3,0,0,.2,0,.3.3,0,.1,0,.2-.2.2s0-.1-.1,0c-.1,0,0,.2,0,.4-.1.2-.2.3-.2.1,0-.1,0-.3,0-.4,0,0-.2-.1-.3-.2h0ZM6,13.1c0,0-.2-.2-.2-.3,0,0,0-.2.1-.3,0,0,.2.1.2.3,0,.2.2.2.2.4,0,.2-.1.4-.3.4s-.5,0-.6,0c0-.1,0-.2,0-.2.1,0,.2.2.3.2.1,0,0,0,.2-.1,0,0,0-.2,0-.3h0ZM5.9,16.6c0,.1-.2,0-.4,0-.1,0,.1,0,.2-.4,0-.2.3.2.2.4h0ZM5.9,15.6c-.1.3-.3.3-.4.4,0,.1.2.2-.2.4-.1,0-.3,0-.2,0,0,0,0-.4,0-.5-.1,0-.2-.4,0-.4.1,0,.2.3.4.3s.2-.2.2-.4c0-.1-.1-.1-.2-.3,0,0,0-.2-.2-.2-.2-.1-.1-.3,0-.3.3,0,.4.3.5.4.1.1.2.3.1.6h0ZM6.5,16c0,.1-.2.2-.3.2-.3,0,0-.1,0-.3s-.1-.5,0-.6c.2,0,.3.1.4.2,0,0,0,.2,0,.3s0,.1,0,.2h0ZM6.8,11.2c-.1.1-.2.3-.2.5s0,.5-.1.6c0,0,0,.3,0,.4,0,0-.3,0-.3-.2,0,0,.2-.1.2-.3,0-.1-.1-.3-.3-.5-.2-.2.1-.3.3-.3s.3,0,.2-.1c0-.2-.4-.4-.4-.7,0-.3.2-.2.3-.2,0,0,0,.3.1.3s0,0,.2,0c0-.1-.2,0-.2-.4s0-.6,0-.7c0-.1.2-.3.2-.3,0,0,0,.3,0,.4.1.2.2.2.3.3,0,.1,0,.2,0,.3-.1,0,0,.1-.2.3,0,0,0,.4,0,.5h0ZM7.8,22.9c0-.2,0-.5.1-.6,0-.1,0-.3.1-.4,0-.1,0-1.3.1-1.2.1,0,0,.6,0,.7,0,.1,0,.3,0,.5,0,.2,0,.6.2,1,0,0,0,.3,0,.5,0,0-.1.1-.2.3,0,.1,0,.2-.1.3-.1.1-.3,0-.4,0,0,0-.2.1-.2,0,0,0,0-.1.2-.3,0,0,0-.2,0-.3,0-.1.1-.2.1-.5h0ZM5.7,26c0-.1.2-.1.3-.2.1,0,0,.1,0,.2,0,0-.2.2-.2.4,0,0-.3,0-.3,0s0-.3.2-.4ZM4.9,26c0,0-.2.3-.2.4,0,.1-.2.1-.2.1,0,0,0-.2,0-.3,0-.1,0-.2.2-.2.1,0,.3,0,.2,0h0ZM5,26.1c.2-.2.4-.2.5-.2,0,0,0,.1,0,.1-.1,0-.2.2-.2.2,0,.1,0,.2,0,.2h-.2c-.1,0-.1-.3,0-.4h0ZM7.8,27.1h0c0,.1.1.1.1.1-.2.1-.3.2-.3.3h-.1c0,.1.1.1.1.1,0,.1,0,.2-.2.4,0,0,0,0,0,0h-.2c0,.1.1.1.1.1,0,0,0,.2,0,.3h-.1c0,.1.2.1.2.1,0,0,0,0,0,0,0,.2,0,.4-.2.4-.1,0-.5-.1-.9-.2h0c0-.1-.2-.1-.2-.1h0c0,0,0,0,0,0h0c0,0-.2,0-.2,0h0c0,0,0,0-.1,0,0,0,0,0,0,0h0c0-.1-.2-.1-.2-.1h0c-.2-.1-.1-.6-.3-.8-.2-.2-.3-.7-.3-1h.1c0-.1-.2-.1-.2-.1,0,0,0,0,0,0,0-.1,3-.3,3.1-.2.2.1.1.3,0,.4,0,0-.1.1-.2.2h0c0,0-.2,0-.2,0h0ZM11.8,32.5c-1.8,0-3.3-1.4-3.3-3.2,0-1.8,1.4-3.3,3.2-3.3,1.8,0,3.3,1.4,3.3,3.2,0,1.8-1.4,3.3-3.2,3.3h0ZM11.8,33.1c0,0,0-.3,0-.3.1,0,.3,0,.4,0,0,0,.1.3,0,.4s-.3,0-.4,0h0ZM11.6,33.2h.4s0,.3-.1.3c0,0-.5,0-.4,0,0,0,0-.2.1-.3ZM11.6,33.1c0,0-.4,0-.5,0s-.2-.4-.1-.3c.2,0,.4,0,.5,0s0,.2,0,.3h0ZM11,33.3c.1,0,.5,0,.5,0s0,.3-.2.3-.4,0-.4,0,0-.2.1-.2h0ZM10.7,33.1c0,0-.2-.2-.2-.3,0,0,0-.1,0-.2,0,0,.2,0,.4,0,.1,0,0,0,0,.1,0,0,0,.2,0,.2s-.2,0-.3,0h0ZM10.4,33.4c0,0,0-.2.2-.2s.3,0,.3,0,0,.2-.2.2-.3,0-.2,0h0ZM10.1,32.8c0,0,.3-.3.3-.3,0,0,.2,0,.2,0,0,0-.2.1,0,.3s-.1.2-.2.2-.2-.2-.1-.3h0ZM8.1,30.9h0c0,0-.2-.1-.3-.1s-.2,0-.3-.2h0c0-.1-.1-.1-.1-.1-.2-.3-.2-.8-.1-.8,0,0,.6-.1.7,0,0,0,0,0,0,.1h-.2c0,.1.2.1.2.1h0c0,.2,0,.5.3.8,0,0,0,0,0,.1h-.1c0,.1.2.1.2.1h0c.3.4.7,1.1.8,1.1.1,0,0,.1,0,.1,0,0-.6,0-.6,0,0,0,0,0,0-.3h.1c0-.1-.2-.1-.2-.1h0c0,0,0,0,0,0-.1-.3-.3-.5-.4-.6,0,0,0-.1,0-.2h0c0-.1-.2-.1-.2-.1h0ZM7.4,32.2c0,0,.2-.2.2-.3,0,0,0-.3,0-.4,0,0-.2-.3-.3-.4s-.2-.1-.3-.1c-.2,0,0,0,0,0,0,0,.1,0,.2,0,0,0,.3.2.4.2,0,0,.3.3.3.4,0,.2,0,.3,0,.4,0,.1,0,.2-.1.2-.1,0-.3,0-.3,0h0ZM3.9,31.8s0,0,0,0h.1c0-.1-.2-.1-.2-.1h0c0,0,0,0,0,0,0,0,0-.4,0-.4h0c0,0,.6-.1.8-.5s.4,0,.7.2h0c0,.1.2.1.2.1h0c.2.1,1-.1,1.2.2,0,0,0,0,0,0h0c0,.1.2.1.2.1h0c.2,0,.6,0,.7.4,0,.4-.2.4-.2.5,0,0-2.7,0-2.8,0s-.3,0-.4-.2c0,0,0,0,0,0h0c0-.1-.2-.1-.1-.1ZM8.1,33c0,0-.2,0-.3,0-.1,0-.2-.3-.1-.4,0,0,.3-.2.4-.2s.2,0,.2,0-.3.1-.3.2.2.2,0,.3h0ZM8.6,32.9c0,0,0,.1-.1.1-.2,0-.4-.4-.3-.4.1,0,.6-.3.7-.3,0,0,.2,0,.1.1s-.4.2-.4.2c0,0,0,.2,0,.2h0ZM9.3,33.1s-.2,0-.3,0c-.1,0-.2-.3-.2-.3.1,0,.8-.4.9-.4,0,0,.1,0,.1,0,0,0-.5.2-.6.3,0,.1,0,.2,0,.3h0ZM9.9,33s-.3,0-.3,0c0,0-.2-.3-.1-.3,0,0,.4-.3.4-.3s.1,0,.2,0c0,0-.3,0-.3.2s0,.3,0,.3h0ZM12.8,32.9s-.2-.2-.1-.2c0,0,.2,0,.2,0,0,0,.2.2.3.3,0,0,0,.2,0,.2,0,0-.4,0-.3,0,0,0,0-.1,0-.2h0ZM13.3,32.8c0,0-.2-.2-.2-.2,0,0,.1,0,.2,0,0,0,.4.3.4.4s0,.2-.2.2-.2,0-.2,0c0,0,0-.2,0-.2h0ZM15.4,33c0,0,0-.1,0-.2,0,0-.2-.2-.1-.2s.1,0,.2,0,.2.3.2.4c0,0,0,0-.1,0s-.1,0-.1-.1ZM15.3,33.3s.1,0,.2,0,0,0,0,0c0,0-.1,0-.2,0s-.1-.1-.1-.2h0ZM14.5,33.3c0,0,.1,0,.2,0s0,0,0,.1c0,0,0,0-.2,0-.1,0-.1-.1-.1-.2h0ZM14.3,32.8c0,0-.2-.2-.1-.2,0,0,.2,0,.3,0s.2.2.2.2c0,0,0,.2-.1.3-.1,0-.3,0-.3,0,0,0,0-.2,0-.2ZM14.9,32.8c0,0-.2-.2-.2-.2.1,0,.1,0,.2,0,.1,0,.3.2.3.3,0,.1,0,.2-.1.2s-.3,0-.2,0c0,0,.1-.1,0-.2h0ZM15.6,29.4v.2h0s-.1,0-.1,0h0c0,.1.1.1.1.1,0,0,0,.1,0,.2h-.1c0,.1.1.1.1.1,0,.2.1.5.2.6h0c0,.1.1.1.1.1.1.2.1.3.1.3,0,0,0,.2-.2.4h0s-.2,0-.2,0h0c0,.1.1.1.1.1,0,0,0,.2,0,.2h-.1c0,.1,0,.1,0,.1,0,0,0,0,0,0,0,.1-.3,0-.4.2,0,.1,0,.3,0,.3-.1,0-2,0-2,0,0,0,.2,0,.5-.2h0c0,0,.2,0,.2,0h0c0-.1-.1-.1-.1-.1,0,0,0,0,0,0,.2-.2.7-.6.9-1h0c0-.1,0-.1,0-.1,0,0,0,0,0,0,0,0,0-.1,0-.2h0c0,0,.2,0,.2,0h0c0-.1-.1-.1-.1-.1,0,0,0-.2,0-.3h.1c0-.1,0-.1,0-.1.1-.4.2-.9.2-1.3,0,0,.1,0,.2.4h-.1c0,.1.1.1.1.1h0ZM15.6,27.3s0,.1,0,.2h-.1v.2h0c0,.2,0,.5,0,.5,0,0-.2.2-.3.2s-.1-.4-.2-.7c0,0,0,0,0,0h0v-.2h-.1v-.2c0,0,0,0,0,0v-.2h-.2v-.2h-.1v-.2h-.1s0,0-.1-.1h1.1s0,0,0,.1h0v.2h.1c0,0,0,.1,0,.2h-.1v.2h.1ZM16.3,26.4c0,.1,0,.1-.2.1s-.2,0-.2-.1-.2-.3-.2-.4.1,0,.2,0c.1,0,.1,0,.1.1.1.1.3.3.3.4h0ZM16.5,25.6c0,0-.2.1-.3,0,0,0,0-.2,0-.4,0-.2-.1-.4-.1-.4,0,0,.4.5.4.7ZM16.5,26.9c0,0,0,.1-.2.1-.1,0-.2-.1-.2-.2,0-.1,0-.2.2-.2.1,0,.2.1.2.2h0ZM17,26.4s0,.2,0,.2h-.2c0,0,0-.2-.2-.4-.2-.1-.3-.3-.2-.3h.3s.3.2.4.4h0ZM17.5,26.6c-.1,0-.3,0-.3-.1,0-.2-.2-.3-.2-.4s.2,0,.3,0c.1,0,.4.6.2.6h0ZM18.2,26.6c-.1,0-.3,0-.4,0,0,0-.2-.3-.2-.4-.1-.2,0-.2,0-.2.2,0,.2,0,.3.1,0,0,.3.5.3.5h0ZM19,27.6v.8h-.2v.2h.2v.2h-.2v.2h.1c0,.1-.8.2-.8,0h0c0,0,.1,0,.1,0v-.2h0v-.2h0v-.2h-.1c0,0,0-.1,0-.1h.1v-.2h-.2c0-.1-.2-.1-.4-.2,0,0-.1,0-.2,0h0v-.2h-.2c-.1,0-.2,0-.2,0,0,0,0-.1,0-.3h.1v-.2h-.1c0-.2-.1-.4-.1-.4.1,0,.3,0,.5,0h-.1v.2h.2c0-.1.1-.1.2,0h0v.2h.2c.2,0,.5.1.6.2h-.1v.2h.2c.2,0,.4.1.4.1h0ZM19.1,26.2c.1,0,.2.4.2.4,0,0-.2,0-.2-.1,0-.1-.1-.2-.2-.2,0,0-.1-.1,0-.1,0,0,.2,0,.3,0h0ZM19.3,25.8c0,0,0,.2-.1.2s0-.2,0-.3c0,0,0-.1,0-.1,0,0,0,.1,0,.2h0ZM19.4,25.9c0,.2,0,0,0-.1,0,0,0-.2-.2-.4,0,0,0,0,0,.1s0-.1,0-.2,0,0,.1,0c0,0,.2.1.2.2,0,0,.2.3.1.4h0ZM19.5,26.4s0,0,0-.1c0,0,.1,0,.1,0,.1,0,.3.4,0,.4,0,0,0-.2-.2-.3h0ZM19.3,32.2s-.3,0-.3,0h0s0-.2,0-.2c.2,0,.1-.3.1-.4s-.1-.1-.1-.2.1-.3.1-.3c0,0,.2.2.3.3s.1.2,0,.2c0,0-.1.4-.2.4,0,0,0,.2,0,.2h0ZM18.2,25.8s.1,0,.1.1c0,0,0,.1-.1,0,0,0,0-.2,0-.2h0ZM18.5,26.1c.1,0,.3.3.2.4,0,0-.1.2-.2.1,0-.1,0-.3-.1-.3,0,0-.2,0-.3-.2,0,0,.2,0,.4,0h0ZM15.7,23.9c0,0,.4,0,.4,0,0,.1-.4.3-.5.2,0,0,0-.1.1-.2ZM15.6,22.5c0,0,.2.6.3.7,0,0,0,.5.1.5,0,.1-.3-.2-.3-.3.1-.5-.2-.9,0-1h0ZM15.4,14.8c0,0-.2-.1-.1-.2,0-.1.2,0,.3,0,.1.1.1.4,0,.5-.1,0-.2,0-.1,0,0-.1,0-.2,0-.3h0ZM16.1,16.4c-.1,0-.2-.1-.2-.2,0,0,0-.2.1-.2.1,0,.1.2.2.2.1,0,0,.2,0,.2h0ZM16.1,15.4c0,.2,0,.5-.2.4s-.2.3-.3.3-.1-.2-.1-.3c0-.1.4-.4.4-.5,0,0,0-.3,0-.4,0-.1.3-.4.3-.4,0,0,.2.4.1.5,0,.1-.2.2-.2.4h0ZM16.5,16c0,.2.1.2.1.2,0,0,0,.1-.3-.1,0,0-.1-.2,0-.4,0-.2.1-.3.2-.5.1-.2.1-.1.1-.1,0,0,.2.4,0,.5-.1,0,0,.2,0,.4h0ZM17.2,15.3c0,0-.2.1-.4-.2,0-.2,0-.3,0-.5,0-.2.4-.6.5-.7,0,0,.2.3.2.4s-.4.4-.4.6c0,.2.1.3.2.4h0ZM17.6,16.1c-.2-.1-.4-.3-.3-.7,0-.2.2-.4.4-.5.1,0,0-.3.1-.3.1,0,.1.2.1.4,0,.2-.2.2-.3.5-.1.2.2.8,0,.6h0ZM17.9,13.6s0,.1,0,.5c0,.2,0,.4,0,.2,0-.2-.1-.2-.1-.5,0-.1-.2-.2-.2-.4s.2-.3.2-.5.1-.3.3-.5c0,0,.2,0,.3.2,0,.2,0,.4-.1.6-.1.2-.4.3-.4.4h0ZM18.3,11.7c.2,0,.2-.1.2-.2,0-.2.3-.5.5-.5s.3.2.2.4c-.1.2-.3.2-.5.4-.2.2-.1.3-.2.4,0,0-.1.1-.1-.2s-.3,0-.4,0c-.2,0-.2-.4-.4-.7-.1-.2-.4-.1-.5-.5,0-.2,0-.2-.1-.5s-.2-.3-.2-.4c0,0-.1-.3.2-.6.3-.2.5-.2.5,0s.1.2.1.3c0,.2-.3.1-.5.3,0,.1-.2.2,0,.3.1,0,.3-.2.4-.1.1,0,.3,0,.5-.1.1,0,.2,0,.2.1,0,.2-.2.4-.4.5-.3.1-.4.5-.3.6,0,.1.2.2.2,0,0-.2,0-.4.3-.4.3,0,.2-.2.4-.2s.2.2.1.4c0,.1-.5.4-.5.7,0,.3.1.3.2.3h0ZM18.6,6.4c.2,0,0,0,.1-.3,0,0,.2-.2.4-.2,0,0,.1.1,0,.3,0,.1,0,.4-.1.5,0,.2-.4.3-.7.4-.3,0-.5.1-.5.2s.2.2.3.2,0,.2-.2.2c-.1,0-.4-.1-.5-.3,0-.2.1-.7.2-.8.1,0,.2.1.3.2s.4,0,.6,0c0,0,0-.2,0-.2-.2,0-.3,0-.4,0-.1,0-.3-.4-.3-.6,0,0,0-.3,0-.3s.5-.2.6-.2.2-.3.4-.3c0,0,.2,0,.2.2,0,.1,0,.3-.2.3,0,0,0,0-.2.1-.2.2-.3.3-.4.5,0,.2,0,.2.1.3h0ZM15.8,4.5c0-.2.2-.3.6-.6.1-.1.4-.3.6-.2.2.1.4,0,.5,0,.2.1.1.1.2,0,0-.2,0-.3.2-.6.2-.2.5-.4.8-.4s.8.1.9.5c0,.2-.3.4-.2.4s.1,0,.2,0c0,0,.1,0,.1-.1,0,0,0-.2.1-.2,0,0,0,.2,0,.2,0,0,0,0,0,.1,0,0-.1,0,0,0,.2,0,.1-.2.2-.1.1,0,0,.4,0,.5,0,.1-.1.4-.4.3-.2,0-.5-.1-.5,0,0,.2,0,.3,0,.4,0,.2-.1.2-.2,0,0,0,0-.1,0,0,0,.1,0,.2-.1.3-.1,0-.7,0-.8.4,0,.2,0,.4,0,.5-.1,0-.4,0-.4-.1s0-.5.2-.7c.2-.2.1-.3.3-.4,0,0,0-.3,0-.2-.2,0,0,.3-.2.3-.1,0-.3-.3-.2-.3.2-.1,0-.4-.1-.4-.1,0,0,.3,0,.5,0,.2-.1.5-.3.6-.3.2-.5,0-.6.1-.1,0-.2,0-.2.2,0,0,0,.2,0,.3-.1,0-.6-.3-.4-.5,0,0,.2,0,.3,0,.1-.1.1-.3.3-.3.2,0,.5,0,.6-.2.2-.2.2-.4.1-.5-.1,0,0,.2-.1.3-.1,0-.2,0-.4,0s-.6.5-.7.5-.1-.2,0-.4h0ZM20.4,27.1c0,0,.3.6.3,1.1,0,.6,0,1.6,0,2.1,0,.4-.2,1.2-.3,1.3,0,0,0-1.4,0-1.6,0-.3,0-1.4,0-1.8,0-.3,0-1.1,0-1.1h0ZM21,28.9c0-.4,0-1.3,0-1.4s.2,1.6.1,2.2c0,.2-.1.8-.2,1.1,0,.1,0-1.5,0-2h0ZM21.4,28.9s.2.1.2.3-.1.3-.2.4c0,0,0-.6,0-.7h0ZM1.4,29.6s0,0,0-.1,0-.1,0-.1,0,0,0,.1,0,.1,0,.1ZM22.7,6.3c-.1-.2-.3-.3-.4-.5-.1-.2,0-.2,0-.5,0-.8-.7-1-1.2-1.1-.4,0-.5,0-.5-.2,0-.2-.2-.5-.3-.7-.2-.3-.6-.6-.8-.7-.3-.2-.7-.3-1-.2-.3,0-.6.2-.8.4-.4.3-.4.6-.5.6s-.6,0-.9.2c-.3,0-.3,0-.4,0s0-.3-.2-.5c-.2-.2-.4-.3-.4-.6,0-.3,0-.6,0-.9-.1-.2-.2-.1-.2-.3s0-.5-.2-.6c-.2-.2-.6-.2-.9-.2-.3,0-.3,0-.4,0,0-.2-.3-.2-.5-.2-.1,0-.2.2-.4.2-.2,0-.1-.2-.4-.2-.1,0-.2.2-.3.1-.1,0-.2-.2-.3-.2,0,0-.1.2-.2.2s-.3-.2-.6-.2c-.1,0-.2,0-.3,0-.2,0,0-.2-.5,0-.1,0-.2.4-.3.3,0,0-.2-.2-.5,0-.2,0-.1.2-.4.2s-.4-.1-.8,0c-.4.2-.4.5-.4.6,0,.2,0,.7.1.8,0,.1,0,.3-.2.5-.2.2-.3.6-.4.7-.1.2-.3,0-.4,0-.2,0-.4-.2-.7-.2-.3,0-.5,0-.7-.3-.2-.3-.5-.3-.7-.4-.1,0-.5,0-.7.2,0,0-.2.3-.4.2-.1,0-.3,0-.5,0-.2,0-.3.3-.5.5-.2.2-.2.4-.3.5,0,0-.2.3-.3.3-.1,0-.5.4-.7.4,0,0-.3.1-.4.3-.2.2-.2.5-.2.8,0,.2-.3.5-.5.6s-.4.6-.4.9C0,7.2,0,7.4.1,7.4c0,0,.2,0,.3,0,0,0,0,.2,0,.2,0,0,.3.4.4.4s.2,0,.3.1c0,.1.2.4.3.5.1.1,0,.2.2.4.2.2.3.3.4.4.1.2.2.3.2.3,0,0,.3,0,.6,0s.4-.4.5-.5c0-.1.1-.3.1-.1s0,.4,0,.6c0,.2-.1.2-.2.3,0,.2,0,.3,0,.4,0,.2-.5.4-.5.9,0,.1.2.2,0,.4s-.1.3-.1.8c0,.3.1.2,0,.4-.2.3,0,.7.1.9.2.2.2.1.1.3s.2.7.3.9c.2.2.5.3.5.7s.5.6.6.7c0,0,0,.5.1.7s.5.2.4.5c-.1.4,0,.6,0,1.1s.3,1.8.4,2.2-.3.9-.3,1.7-.2,1.5-.4,1.5c-.2,0-.6-.1-.9,0-.3.1-.3.6-.4.7s-.5.2-.6.5c0,.3,0,.7.1.8,0,0-.2.2-.3.2-.2,0-.2.2-.3.4,0,.1-.2,0-.2,0,0,0-.3.2-.3.3,0,.1,0,.3,0,.4,0,.1,0,.2-.1.2,0,0,0,.5,0,.6,0,0,0,.8,0,.8,0,0-.2.1-.3.3s0,.6,0,.7c0,.1.4.1.4.2,0,.1,0,1.2.1,1.3.1.2.3.7.4.9,0,.2.3.2.3.3,0,.1.3.2.4.2.3,0,.9.2,1.2.2.1,0,.3,0,.2,0-.4.3-.2.8,0,1,.1.2.6.4.8.4.2,0,6.7.2,6.7.2,0,0,5.4,0,5.7,0s.6,0,.8-.2c.2-.2.5-.5.5-.9,0-.3,0-.5,0-.5s.5-.2.9-.3c.4-.1.9-.5.9-.7,0,0,0-.4.3-.5.1,0,0-.3.1-.4s.2-.1.2-.3,0-.8.1-1c0-.1.2-.2.3-.3.1,0,0-.7,0-.7,0-.1-.3-.1-.4-.4,0-.1,0-.3,0-.5,0-.2-.2-.2-.1-.3,0,0,0-.3-.1-.4-.1,0-.2,0-.2-.1s0-.3-.2-.4c-.1,0,0-.1,0-.3,0-.1-.6-.3-.4-.6.2-.3,0-.8-.3-.9-.1,0,0-.3-.1-.4-.1-.1-.4-.4-.8-.4-.2,0-.6,0-.7,0-.1-.1-.3-.4-.3-.8s-.2-.9-.4-1.2c0-.2-.2-.4,0-.8.2-.4.3-1.3.3-1.6s0-1.7,0-1.7c.5,0,.1-.4.4-.5.2-.1,0-.3.2-.4s.3-.3.3-.5.2-.4.3-.6,0-.3,0-.4c.2-.1.5-.4.5-.6s-.2-.3,0-.4c.2-.1.4-.5.4-.7,0-.3-.3-.1,0-.5.3-.3.3-.7.2-.9,0-.2-.2-.2-.1-.4,0-.1,0-.3,0-.4,0-.2,0-.3-.2-.5-.2-.2.1,0,0-.3,0-.2-.2-.5-.3-.6,0,0,0-.2,0-.3,0,0-.2-.3-.3-.4,0,0-.2-.4,0-.4.3,0,.2.4.3.5,0,.2.3.3.4.3s.3,0,.5,0c.1,0,.4-.4.5-.5.1-.1.3-.2.4-.4,0-.2.2-.4.3-.4.1-.1.4-.3.5-.4.2-.2.2-.2.5-.4.2-.2.4-.5.4-.7,0-.3-.1-.5-.4-.8"/>
  <path class="st0" d="M5.4,7.3h0,0,0Z"/>
  <path class="st0" d="M5.4,7.3h0,0Z"/>
  <path class="st0" d="M9.5,4.6s0,0-.1-.2c0,0,.1.2.1.2Z"/>
  <path class="st0" d="M11.6,37.7h0c.1,0,.3,0,.4,0v.3c-.1,0-.2.1-.3.2,0,0-.2,0-.3,0,0,0-.1,0-.1,0-.2,0-.2,0-.2-.2,0-.3.2-.4.5-.4M17.1,37h.7v.7c0,.2,0,.3-.2.4-.1,0-.3.1-.5.1s-.2,0-.3,0c-.1,0-.2-.1-.2-.2s0,0,0,0h.2c.2,0,.2-.2.2-.3v-.2s0-.2,0-.2c0,0,0-.2,0-.2h0ZM9.2,37h.9v.9h-.9v-.9ZM7.1,37h.7v.7c0,.2,0,.3-.2.4-.1,0-.3.1-.4.1s-.2,0-.3,0c-.1,0-.2-.1-.2-.2s0,0,0,0h.2c.2,0,.2-.2.2-.3v-.2s0-.2,0-.2c0,0,0-.2,0-.2h0ZM3.5,37h.9v.7c-.1,0-.3.1-.5,0h-.3c0,0-.1,0-.2,0,0,0,0-.8,0-.8ZM13.7,36.8v.3h2.1v.6h-1.1s0,0,0,0c0,0,0,0,0,0h0s0,0,0,0c.2.2.4.4.4.5,0,.2-.1.3-.3.3s-.2,0-.2,0c0,0-.1,0-.2-.2,0,0-.1-.2-.2-.3v-.2c-.1,0-.2,0-.2,0s0,0,0,0h0s.1.3.1.3c0,.1.1.3.2.4.2.2.3.4.4.4.1,0,.2,0,.4,0,.2,0,.3-.1.3-.3s0-.2,0-.3v-.2c-.1,0-.1,0-.1,0,0,0,0,0,0,0,0,0,.1,0,.1,0h.5v1s0,0,0,.1c.2.1.2.2.3.2,0,0,0,0,0,0v-2.1h.9s0,.1,0,.2,0,.2-.1.3c0,0-.2,0-.3,0h-.1s0,0,0,0,0,0,.1.2v.2c.4.3.6.5.9.5s.3,0,.4,0c0,0,0,0,0,0s0,0,0,0h0c0,.1,0,.3,0,.3h0c0,.1,0,.2,0,.2l.2.2s0,0,0,0,0,0,0,0v-2.2h1.8v.6h-.8c-.1,0-.3,0-.4.1-.1,0-.2.2-.2.4s0,.4.2.5l.2.3c0,0,.2.2.3.3,0,0,.1,0,.1,0s0,0,0,0,0,0,0,0,0,0-.2-.2h-.2c-.1-.2-.2-.4-.2-.6,0-.3.2-.4.5-.5h.6v1s0,0,0,.1h.1c.1.2.2.2.2.2,0,0,0,0,0-.1v-2.1h.2v-.3h-6.9ZM2.5,36.8v.3h.6v.5s0,0,0,.1c0,0,0,0-.1,0s0,0-.1,0c0,0,0,0-.1,0,0,0-.1,0-.1.2s.1.4.3.7l.3.4c0,0,.2.2.3.3,0,0,.1,0,.2,0s0,0,0,0c0,0,0-.2-.2-.3l-.2-.2c-.1-.1-.2-.2-.2-.3h0c0,0,0-.2,0-.2v-.2c.1,0,.2,0,.2-.2h0s0,0,0,0c0,0,.1.1.2.1,0,0,.1,0,.3,0h.1c0,0,.2,0,.3,0v.6c0,.1,0,.2,0,.3,0,0,0,0,0,0,0,0,0,0,.1,0s0,0,0,0h0v-2.2h2.1s0,.1,0,.2,0,.2-.1.3c0,0-.2,0-.3,0h-.9c-.1,0-.2,0-.4.1-.1,0-.2.2-.2.4s0,.3.2.5l.2.3c0,0,.2.2.3.3,0,0,0,0,.1,0s0,0,0,0,0,0,0,0c0,0,0,0-.2-.2h-.2c-.1-.2-.2-.4-.2-.6,0-.3.2-.4.5-.5h.6v.2c.3.3.6.5.9.5s.3,0,.4,0c0,0,0,0,0,0,0,0,0,0,0,0h0c0,.1,0,.3,0,.3h0c0,.1,0,.2,0,.2l.2.2s0,0,0,0,0,0,0,0v-2.2h.7v.8h0s0,0,0,0h0c-.1,0-.2,0-.2.2s0,.2.2.3l.2.2c0,0,.1.1.2.1s0,0,.1,0c0,0,0,0,0,0h0v-.2s0,0,0,0h.8v.7s0,.1.1.2c0,0,.1.1.2.1,0,0,0,0,0-.1v-2.1h1.6v.7l-.3-.2c0,0-.2,0-.3,0s-.2,0-.3,0c-.2,0-.4.2-.4.4s0,.3.2.5c.1.2.3.2.5.2s.2,0,.4,0h0s0,0,0,0h0v.2c0,.2,0,.3.1.4,0,0,.1.1.2.1s0,0,0,0v-2.1h.3v-.3M18.7,35.7c0,0-.1,0-.1,0s0,0,0,0h0c0,.2.2.3.2.3h0s0,0,0,0h0s0,0,.1,0c0,0,.1,0,.2.1l.3.3c0,0,.1,0,.1,0s0,0,0,0c0,0,0,0,0-.2l-.3-.4c-.2-.3-.5-.4-.8-.4h0ZM8.8,35.7c0,0-.1,0-.1,0s0,0,0,0h0c0,.2.2.3.2.3h.1s0,0,0,0h0s0,0,.1,0c0,0,.1,0,.2.1l.3.3c0,0,.1,0,.1,0s0,0,0,0c0,0,0,0,0-.2l-.3-.4c-.2-.3-.5-.4-.8-.4"/>
  <path class="st1" d="M30,20.7h1.5l2.4,7.1h-1.1l-.6-1.8h-2.9l-.6,1.8h-1s2.4-7.1,2.4-7.1ZM31.9,25.2l-1.2-3.6-1.2,3.6h2.4ZM34.9,22.6h1v.8c0,0,0-.1,0-.2,0,0,0-.1.1-.2s0-.1.1-.1c0,0,.1,0,.2-.1,0,0,.1,0,.2-.1s.1,0,.2,0c0,0,.1,0,.2,0,0,0,.1,0,.2,0s.1,0,.2,0h.2c.1,0,.2,0,.4,0,.1,0,.2,0,.3,0,0,0,.2,0,.3.1,0,0,.2.1.2.2,0,0,.1.1.2.2,0,0,.1.2.2.2s0,.2.1.3c0,.1,0,.2,0,.3,0,.1,0,.2,0,.3,0,.1,0,.2,0,.4v3.2h-1v-3.2c0,0,0-.2,0-.2,0,0,0-.1,0-.2s0-.1,0-.2c0,0,0-.1,0-.2,0,0,0-.1-.1-.1,0,0,0,0-.1-.1s0,0-.2,0c0,0-.1,0-.2,0,0,0-.1,0-.2,0,0,0-.2,0-.2,0-.2,0-.4,0-.6,0s-.3.1-.4.3c-.1.1-.2.2-.3.4,0,.2,0,.4,0,.5v3.1h-1v-5.2h0ZM44.6,27c0,0,0,.1-.1.2,0,0,0,.1-.1.2,0,0,0,.1-.1.1,0,0,0,0-.2.1,0,0-.1,0-.2.1,0,0-.1,0-.2,0s-.1,0-.2,0c0,0-.1,0-.2,0h-.2c0,0-.1,0-.2,0-.1,0-.2,0-.3,0-.1,0-.2,0-.3,0,0,0-.2,0-.3-.1,0,0-.2-.1-.2-.1,0,0-.1-.1-.2-.2,0,0-.1-.1-.2-.2s0-.2-.1-.3,0-.2,0-.3c0-.1,0-.2,0-.3,0-.1,0-.2,0-.4v-3.3h1v3.5c0,0,0,.1,0,.2s0,.1,0,.2c0,0,0,.1,0,.2,0,0,0,0,.1.1,0,0,0,0,.1.1s0,0,.2,0c0,0,.1,0,.2,0,0,0,.1,0,.2,0h.2c0,0,.2,0,.2,0,0,0,.2,0,.2,0s.1,0,.2,0c0,0,.1,0,.2-.1s.1,0,.2-.1c0,0,0,0,.1-.1s0-.1,0-.2c0,0,0-.1,0-.2,0,0,0-.1,0-.2,0,0,0-.1,0-.2v-3.1h1v5.2h-1v-.8h0ZM47.5,26.3c0,0,0,.1,0,.2s0,.1,0,.1c0,0,0,0,0,.1,0,0,0,0,.1.1,0,0,0,0,.1.1s0,0,.1,0,0,0,.2,0c0,0,0,0,.2,0,0,0,.1,0,.2,0h.3s0,0,.2,0c0,0,0,0,.2,0,0,0,0,0,.1,0,0,0,0,0,.1,0,0,0,0,0,.1,0,0,0,0,0,0,0,0,0,0,0,0-.1s0,0,0-.1c0,0,0-.1,0-.2s0-.1,0-.2c0,0,0-.1,0-.1,0,0,0,0,0-.1,0,0,0,0-.1-.1s0,0-.1,0c0,0,0,0-.2,0,0,0-.1,0-.2,0,0,0-.1,0-.2,0,0,0-.1,0-.2,0,0,0-.1,0-.2,0,0,0-.2,0-.2,0,0,0-.2,0-.2,0,0,0-.2,0-.2,0,0,0-.2,0-.2,0,0,0-.1,0-.2-.1,0,0-.1,0-.2-.1,0,0-.1-.1-.2-.2s0-.1-.1-.2c0,0,0-.2,0-.3s0-.2,0-.3,0-.2,0-.3c0,0,0-.2,0-.2,0,0,0-.2.1-.2s0-.1.2-.2c0,0,.1-.1.2-.2s.2-.1.2-.1c0,0,.2,0,.2-.1s.2,0,.3,0,.2,0,.3,0c0,0,.2,0,.3,0s.2,0,.2,0c0,0,.2,0,.2,0s.2,0,.2,0c0,0,.2,0,.2,0s.1,0,.2.1.1,0,.2.1.1.1.2.1c0,0,.1.1.2.2,0,0,0,.1.1.2,0,0,0,.1.1.2l-.8.3s0,0,0-.1c0,0,0,0,0-.1s0,0,0-.1c0,0,0,0,0,0,0,0,0,0-.1,0,0,0,0,0-.1,0,0,0,0,0-.1,0,0,0,0,0-.1,0s0,0-.1,0h-.3s0,0-.1,0c0,0,0,0-.1,0,0,0,0,0-.1,0,0,0,0,0-.1,0,0,0,0,0,0,0,0,0,0,0,0,0,0,0,0,0,0,.1,0,0,0,0,0,.1,0,0,0,0,0,.1s0,.1,0,.1,0,0,0,.1c0,0,0,0,0,.1,0,0,0,0,0,0,0,0,0,0,.1,0s0,0,.1,0c0,0,.1,0,.2,0,0,0,.1,0,.2,0,0,0,.1,0,.2,0s.1,0,.2,0c0,0,.2,0,.2,0,0,0,.2,0,.2,0,0,0,.2,0,.2,0,0,0,.2,0,.2,0s.2,0,.2.1c0,0,.1,0,.2.1,0,0,.1.1.2.2,0,0,0,.1.1.2,0,0,0,.2,0,.3s0,.2,0,.3,0,.2,0,.3c0,.1,0,.2,0,.3,0,0,0,.2-.1.2s-.1.1-.2.2c0,0-.1.1-.2.2,0,0-.2.1-.2.1,0,0-.2,0-.3.1s-.2,0-.3,0c0,0-.2,0-.3,0,0,0-.2,0-.3,0s-.2,0-.3,0c0,0-.2,0-.3,0,0,0-.2,0-.3,0,0,0-.2,0-.2,0,0,0-.2,0-.2-.1,0,0-.2,0-.2-.1,0,0-.1-.1-.2-.2,0,0-.1-.1-.2-.2,0,0,0-.1-.1-.2s0-.2-.1-.3l.8-.4h0ZM55,27.2s0,.1-.1.1c0,0,0,0-.1.1,0,0,0,0-.2.1,0,0,0,0-.2.1,0,0-.1,0-.2,0,0,0-.1,0-.2,0,0,0-.1,0-.2,0,0,0-.1,0-.2,0s-.1,0-.2,0h-.2c0,0-.2,0-.3,0,0,0-.2,0-.3,0,0,0-.2,0-.2,0s-.2,0-.2-.1c0,0-.1,0-.2-.1,0,0-.1-.1-.2-.2,0,0,0-.1-.1-.2,0,0,0-.1-.1-.2s0-.2,0-.3c0,0,0-.2,0-.3s0-.3,0-.4c0-.1,0-.2.1-.3s.1-.2.2-.3c0,0,.2-.1.2-.2s.2-.1.3-.2c.1,0,.2,0,.3-.1.1,0,.2,0,.4,0s.2,0,.4,0c.1,0,.2,0,.4,0h1v-.2c0,0,0-.1,0-.2,0,0,0-.1,0-.2s0-.1,0-.2c0,0,0-.1,0-.2,0,0,0-.1-.1-.1,0,0,0,0-.1-.1s-.1,0-.2,0-.1,0-.2,0c0,0-.2,0-.3,0h-.2s0,0-.2,0c0,0,0,0-.2,0,0,0,0,0-.2,0,0,0,0,0-.1,0,0,0,0,0-.1,0,0,0,0,0-.1.1,0,0,0,0,0,.1s0,0,0,.1c0,0,0,0,0,.1l-.8-.4c0,0,0-.2.1-.2s0-.2.2-.2c0,0,.1-.1.2-.2,0,0,.1-.1.2-.2s.1-.1.2-.1c0,0,.2,0,.2-.1,0,0,.2,0,.2,0,0,0,.2,0,.3,0,0,0,.2,0,.3,0s.2,0,.3,0,.2,0,.3,0,.2,0,.3,0c0,0,.2,0,.3.1s.2,0,.3.1c0,0,.2.1.2.2,0,0,.1.1.2.2s.1.2.2.2c0,0,0,.2.1.3s0,.2,0,.3c0,.1,0,.2,0,.4v3.4h-1v-.6h0ZM54.3,25.4h-.4c0,0-.1,0-.2,0,0,0-.2,0-.2,0s-.1,0-.2,0c0,0-.1,0-.2,0,0,0-.1,0-.2.1s0,.1-.1.2,0,.1,0,.2c0,0,0,.1,0,.2h0c0,.2,0,.2,0,.3,0,0,0,0,0,.1s0,0,0,.1c0,0,0,0,0,0s0,0,0,0c0,0,0,0,.1,0,0,0,0,0,.1,0,0,0,0,0,.2,0h.4c0,0,.1,0,.2,0,0,0,.1,0,.2,0,0,0,.1,0,.2,0,0,0,.1,0,.2-.1,0,0,.1,0,.2-.1,0,0,0,0,.1-.1,0,0,0-.1,0-.2,0,0,0-.1,0-.2,0,0,0-.1,0-.2v-.6h-.7,0ZM57.4,22.6h1v.8c0,0,0-.1,0-.2,0,0,0-.1.1-.2s0-.1.1-.1c0,0,.1,0,.2-.1,0,0,.1,0,.2-.1s.1,0,.2,0c0,0,.1,0,.2,0,0,0,.1,0,.2,0,0,0,.1,0,.2,0h.2c.1,0,.2,0,.4,0,.1,0,.2,0,.3,0,0,0,.2,0,.3.1,0,0,.2.1.2.2,0,0,.1.1.2.2,0,0,.1.2.2.2s0,.2.1.3c0,.1,0,.2,0,.3,0,.1,0,.2,0,.3,0,.1,0,.2,0,.4v3.2h-1v-3.2c0,0,0-.2,0-.2,0,0,0-.1,0-.2s0-.1,0-.2c0,0,0-.1,0-.2,0,0,0-.1-.1-.1,0,0,0,0-.1-.1s0,0-.2,0c0,0-.1,0-.2,0,0,0-.1,0-.2,0,0,0-.2,0-.2,0-.2,0-.4,0-.6,0s-.3.1-.4.3c-.1.1-.2.2-.3.4,0,.2,0,.4,0,.5v3.1h-1v-5.2h0ZM67.4,26.9c0,0,0,.1-.1.2,0,0,0,.1-.1.2s0,.1-.2.1c0,0-.1,0-.2.1,0,0-.1,0-.2.1,0,0-.1,0-.2,0,0,0-.1,0-.2,0s-.1,0-.2,0h-.2c0,0-.1,0-.2,0-.2,0-.3,0-.4,0-.1,0-.3,0-.4-.1-.1,0-.2-.1-.4-.2s-.2-.1-.3-.2c0,0-.2-.2-.2-.3,0-.1-.2-.2-.2-.3,0-.1-.1-.2-.2-.4,0-.1,0-.2-.1-.4,0-.1,0-.3,0-.4,0-.1,0-.3,0-.4s0-.3,0-.4,0-.3,0-.4c0-.1,0-.3.1-.4s.1-.2.2-.4.1-.2.2-.3.2-.2.3-.3c0,0,.2-.2.3-.2s.2-.1.3-.2c.1,0,.3,0,.4-.1s.3,0,.4,0h.2c0,0,.2,0,.2,0,0,0,.1,0,.2,0s.1,0,.2,0c0,0,.1,0,.2,0,0,0,.1,0,.2.1s.1,0,.2.1c0,0,.1,0,.2.1,0,0,0,.1.1.2s0,.1.1.2v-3.3h1v7.7h-1v-.9h0ZM65.8,27.1c.1,0,.2,0,.3,0s.2,0,.3,0c0,0,.2,0,.2-.1,0,0,.2-.1.2-.2,0,0,.1-.1.2-.2s0-.1.2-.2c0,0,0-.2.1-.2s0-.2,0-.3c0,0,0-.2,0-.3,0-.1,0-.2,0-.3s0-.2,0-.3c0-.1,0-.2,0-.3,0,0,0-.2,0-.3s0-.2-.1-.2c0,0,0-.1-.1-.2,0,0,0-.1-.2-.2,0,0-.1-.1-.2-.1,0,0-.2,0-.2-.1,0,0-.2,0-.3,0,0,0-.2,0-.3,0s-.2,0-.3,0c0,0-.2,0-.3,0,0,0-.2,0-.2.1,0,0-.1.1-.2.2,0,0-.1.1-.2.2,0,0,0,.1-.1.2s0,.2,0,.2,0,.2,0,.3,0,.2,0,.3v.3c0,0,0,.2,0,.3,0,0,0,.2,0,.3,0,0,0,.2,0,.3,0,0,0,.2,0,.2,0,0,0,.1.1.2,0,0,0,.1.2.2,0,0,.1.1.2.1,0,0,.2,0,.2.1,0,0,.2,0,.3,0,0,0,.2,0,.3,0h0ZM70,20.1h1v3.3c0,0,0-.1,0-.2,0,0,0-.1.1-.2,0,0,0-.1.1-.1,0,0,0,0,.2-.1,0,0,.1,0,.2-.1s.1,0,.2,0,.1,0,.2,0c0,0,.1,0,.2,0s.1,0,.2,0h.2c.1,0,.2,0,.4,0,.1,0,.2,0,.3,0,0,0,.2,0,.3.1,0,0,.2.1.2.2,0,0,.1.1.2.2,0,0,.1.2.2.2,0,0,0,.2.1.3,0,.1,0,.2,0,.3,0,.1,0,.2,0,.3,0,.1,0,.2,0,.4v3.2h-1v-3.2c0,0,0-.2,0-.2,0,0,0-.1,0-.2,0,0,0-.1,0-.2,0,0,0-.1,0-.2,0,0,0-.1-.1-.1,0,0,0,0-.1-.1,0,0,0,0-.2,0,0,0-.1,0-.2,0,0,0-.1,0-.2,0,0,0-.2,0-.2,0-.1,0-.3,0-.4,0s-.2,0-.3.1c0,0-.2.1-.3.2,0,0-.1.2-.2.3,0,.1,0,.2-.1.3,0,.1,0,.2,0,.4v3.1h-1v-7.7h0ZM79.1,27.2s0,.1-.1.1,0,0-.1.1,0,0-.2.1c0,0,0,0-.2.1s-.1,0-.2,0c0,0-.1,0-.2,0,0,0-.1,0-.2,0,0,0-.1,0-.2,0s-.1,0-.2,0h-.2c0,0-.2,0-.3,0,0,0-.2,0-.3,0,0,0-.2,0-.2,0s-.2,0-.2-.1c0,0-.1,0-.2-.1,0,0-.1-.1-.2-.2,0,0,0-.1-.1-.2,0,0,0-.1-.1-.2s0-.2,0-.3c0,0,0-.2,0-.3s0-.3,0-.4c0-.1,0-.2.1-.3s.1-.2.2-.3c0,0,.2-.1.2-.2s.2-.1.3-.2c.1,0,.2,0,.3-.1.1,0,.2,0,.4,0s.2,0,.4,0c.1,0,.2,0,.4,0h1v-.2c0,0,0-.1,0-.2,0,0,0-.1,0-.2s0-.1,0-.2c0,0,0-.1,0-.2,0,0,0-.1-.1-.1,0,0,0,0-.1-.1s-.1,0-.2,0-.1,0-.2,0c0,0-.2,0-.3,0h-.2c0,0,0,0-.2,0,0,0,0,0-.2,0s0,0-.2,0c0,0,0,0-.1,0,0,0,0,0-.1,0,0,0,0,0-.1.1,0,0,0,0,0,.1s0,0,0,.1c0,0,0,0,0,.1l-.8-.4c0,0,0-.2.1-.2,0,0,0-.2.2-.2,0,0,.1-.1.2-.2,0,0,.1-.1.2-.2s.1-.1.2-.1c0,0,.2,0,.2-.1,0,0,.2,0,.2,0,0,0,.2,0,.3,0,0,0,.2,0,.3,0s.2,0,.3,0,.2,0,.3,0c.1,0,.2,0,.3,0,0,0,.2,0,.3.1,0,0,.2,0,.3.1,0,0,.2.1.2.2,0,0,.1.1.2.2s.1.2.2.2c0,0,0,.2.1.3,0,.1,0,.2,0,.3,0,.1,0,.2,0,.4v3.4h-1v-.6h0ZM78.4,25.4h-.4c0,0-.1,0-.2,0,0,0-.2,0-.2,0s-.1,0-.2,0c0,0-.1,0-.2,0,0,0-.1,0-.2.1s0,.1-.1.2,0,.1,0,.2c0,0,0,.1,0,.2h0c0,.2,0,.2,0,.3,0,0,0,0,0,.1,0,0,0,0,0,.1,0,0,0,0,0,0s0,0,0,0c0,0,0,0,.1,0,0,0,0,0,.1,0,0,0,0,0,.2,0h.4c0,0,.1,0,.2,0,0,0,.1,0,.2,0,0,0,.1,0,.2,0,0,0,.1,0,.2-.1,0,0,.1,0,.2-.1,0,0,0,0,.1-.1,0,0,0-.1,0-.2,0,0,0-.1,0-.2,0,0,0-.1,0-.2v-.6h-.7,0ZM81.6,22.6h1v.8c0,0,0-.1,0-.2,0,0,0-.1.1-.2,0,0,0-.1.1-.1,0,0,.1,0,.2-.1,0,0,.1,0,.2-.1s.1,0,.2,0c0,0,.1,0,.2,0,0,0,.1,0,.2,0s.1,0,.2,0h.2c.1,0,.2,0,.4,0,.1,0,.2,0,.3,0,0,0,.2,0,.3.1,0,0,.2.1.2.2,0,0,.1.1.2.2,0,0,.1.2.2.2,0,0,0,.2.1.3,0,.1,0,.2,0,.3,0,.1,0,.2,0,.3,0,.1,0,.2,0,.4v3.2h-1v-3.2c0,0,0-.2,0-.2,0,0,0-.1,0-.2s0-.1,0-.2c0,0,0-.1,0-.2s0-.1-.1-.1c0,0,0,0-.1-.1,0,0,0,0-.2,0,0,0-.1,0-.2,0,0,0-.1,0-.2,0,0,0-.2,0-.2,0-.2,0-.4,0-.6,0s-.3.1-.4.3c-.1.1-.2.2-.3.4,0,.2,0,.4,0,.5v3.1h-1v-5.2h0ZM89.7,20.7h1.4l3.3,5.5v-5.5h1v7.1h-1.2l-3.5-5.8v5.8h-1v-7.1ZM100,27.2s0,.1-.1.1,0,0-.1.1c0,0,0,0-.2.1,0,0,0,0-.2.1s-.1,0-.2,0c0,0-.1,0-.2,0,0,0-.1,0-.2,0,0,0-.1,0-.2,0s-.1,0-.2,0h-.2c0,0-.2,0-.3,0,0,0-.2,0-.3,0,0,0-.2,0-.2,0s-.2,0-.2-.1c0,0-.1,0-.2-.1,0,0-.1-.1-.2-.2,0,0,0-.1-.1-.2,0,0,0-.1-.1-.2s0-.2,0-.3c0,0,0-.2,0-.3s0-.3,0-.4c0-.1,0-.2.1-.3s.1-.2.2-.3c0,0,.2-.1.2-.2s.2-.1.3-.2c.1,0,.2,0,.3-.1.1,0,.2,0,.4,0s.2,0,.4,0c.1,0,.2,0,.4,0h1v-.2c0,0,0-.1,0-.2,0,0,0-.1,0-.2s0-.1,0-.2c0,0,0-.1,0-.2,0,0,0-.1-.1-.1,0,0,0,0-.1-.1s-.1,0-.2,0-.1,0-.2,0c0,0-.2,0-.3,0h-.2c0,0,0,0-.2,0,0,0,0,0-.2,0s0,0-.2,0c0,0,0,0-.1,0,0,0,0,0-.1,0,0,0,0,0-.1.1,0,0,0,0,0,.1s0,0,0,.1c0,0,0,0,0,.1l-.8-.4c0,0,0-.2.1-.2,0,0,0-.2.2-.2,0,0,.1-.1.2-.2,0,0,.1-.1.2-.2s.1-.1.2-.1c0,0,.2,0,.2-.1,0,0,.2,0,.2,0,0,0,.2,0,.3,0,0,0,.2,0,.3,0s.2,0,.3,0,.2,0,.3,0c.1,0,.2,0,.3,0,0,0,.2,0,.3.1,0,0,.2,0,.3.1,0,0,.2.1.2.2,0,0,.1.1.2.2s.1.2.2.2c0,0,0,.2.1.3,0,.1,0,.2,0,.3,0,.1,0,.2,0,.4v3.4h-1v-.6h0ZM99.3,25.4h-.4c0,0-.1,0-.2,0,0,0-.2,0-.2,0s-.1,0-.2,0c0,0-.1,0-.2,0,0,0-.1,0-.2.1s0,.1-.1.2,0,.1,0,.2c0,0,0,.1,0,.2h0c0,.2,0,.2,0,.3,0,0,0,0,0,.1,0,0,0,0,0,.1,0,0,0,0,0,0s0,0,0,0c0,0,0,0,.1,0,0,0,0,0,.1,0,0,0,0,0,.2,0h.4c0,0,.1,0,.2,0,0,0,.1,0,.2,0,0,0,.1,0,.2,0,0,0,.1,0,.2-.1,0,0,.1,0,.2-.1,0,0,0,0,.1-.1,0,0,0-.1,0-.2,0,0,0-.1,0-.2,0,0,0-.1,0-.2v-.6h-.7,0ZM105,27.8s0,0,0,0c0,0,0,0,0,0,0,0,0,0,0,0,0,0,0,0,0,0s0,0,0,0h-.4c0,0-.2,0-.3,0,0,0-.2,0-.2,0s-.2,0-.2,0c0,0-.1,0-.2-.1,0,0-.1,0-.2-.1,0,0,0-.1-.1-.2s0-.1-.1-.2,0-.1,0-.2c0,0,0-.2,0-.2s0-.2,0-.3v-3h-.7v-.8h.7v-1l1-.5v1.5h1.2v.8h-1.2v2.9h0c0,.2,0,.2,0,.2,0,0,0,0,0,.1,0,0,0,0,0,0,0,0,0,0,0,0,0,0,0,0,0,0,0,0,0,0,0,0,0,0,0,0,0,0,0,0,0,0,.1,0h.5s0,0,0,0,0,0,0,0,0,0,0,0c0,0,0,0,0,0v.8h0ZM106.2,22.6h1v5.2h-1v-5.2ZM106,21.1c0,0,0-.2,0-.2,0,0,0-.1.1-.2,0,0,.1-.1.2-.1,0,0,.2,0,.2,0h0s0,0,0,0c0,0,0,0,0,0,0,0,0,0,0,0,0,0,0,0,0,0,0,0,0,0,0,0,0,0,0,0,0,0,0,0,0,0,0,0,0,0,0,0,0,.1s0,0,0,.1c0,0,0,.2,0,.2,0,0,0,.1-.1.2,0,0-.1.1-.2.1,0,0-.2,0-.2,0s-.2,0-.2,0c0,0-.2,0-.2-.1,0,0-.1-.1-.1-.2,0,0,0-.2,0-.2h0ZM111,27.9c-.2,0-.3,0-.5,0s-.3,0-.4-.1c-.1,0-.3-.1-.4-.2-.1,0-.2-.1-.3-.2,0,0-.2-.2-.3-.3,0-.1-.2-.2-.2-.3,0-.1-.1-.2-.2-.4,0-.1-.1-.3-.2-.4s0-.3,0-.4,0-.3,0-.5,0-.3,0-.4c0-.1,0-.3,0-.4,0-.1,0-.3.2-.4,0-.1.1-.2.2-.4s.2-.2.3-.3.2-.2.3-.3c.1,0,.2-.1.3-.2.1,0,.2-.1.4-.2.1,0,.3,0,.4-.1.2,0,.3,0,.5,0s.3,0,.5,0,.3,0,.4.1c.1,0,.3.1.4.2s.2.1.3.2c.1,0,.2.2.3.3,0,.1.2.2.2.3,0,.1.1.2.2.4,0,.1.1.2.2.4,0,.1,0,.3,0,.4s0,.3,0,.5,0,.3,0,.5,0,.3,0,.4c0,.1,0,.3-.2.4,0,.1-.1.2-.2.4,0,.1-.2.2-.3.3s-.2.2-.3.3-.2.1-.3.2c-.1,0-.2.1-.4.2-.1,0-.3,0-.4.1-.2,0-.3,0-.4,0h0ZM111.1,27.1c.1,0,.2,0,.3,0s.2,0,.3,0,.2,0,.2-.1c0,0,.1-.1.2-.2,0,0,.1-.1.2-.2,0,0,0-.1.1-.2,0,0,0-.2,0-.2,0,0,0-.2,0-.3s0-.2,0-.3,0-.2,0-.3,0-.2,0-.3c0-.1,0-.2,0-.3,0,0,0-.2,0-.3,0,0,0-.2-.1-.2s0-.1-.1-.2-.1-.1-.2-.2c0,0-.1-.1-.2-.2,0,0-.2,0-.2-.1,0,0-.2,0-.3,0,0,0-.2,0-.3,0s-.2,0-.3,0c0,0-.2,0-.3,0,0,0-.2,0-.2.1,0,0-.1.1-.2.2s-.1.1-.2.2c0,0,0,.1-.1.2s0,.2,0,.2c0,0,0,.2,0,.3,0,0,0,.2,0,.3,0,.1,0,.2,0,.3s0,.2,0,.3,0,.2,0,.3c0,0,0,.2,0,.3s0,.2.1.2c0,0,0,.1.1.2s.1.1.2.2c0,0,.1.1.2.1,0,0,.2,0,.2.1,0,0,.2,0,.3,0,0,0,.2,0,.3,0h0ZM114.9,22.6h1v.8c0,0,0-.1,0-.2,0,0,0-.1.1-.2,0,0,0-.1.1-.1,0,0,.1,0,.2-.1,0,0,.1,0,.2-.1s.1,0,.2,0c0,0,.1,0,.2,0,0,0,.1,0,.2,0s.1,0,.2,0h.2c.1,0,.2,0,.4,0,.1,0,.2,0,.3,0,0,0,.2,0,.3.1,0,0,.2.1.2.2,0,0,.1.1.2.2,0,0,.1.2.2.2,0,0,0,.2.1.3,0,.1,0,.2,0,.3,0,.1,0,.2,0,.3,0,.1,0,.2,0,.4v3.2h-1v-3.2c0,0,0-.2,0-.2,0,0,0-.1,0-.2s0-.1,0-.2c0,0,0-.1,0-.2s0-.1-.1-.1c0,0,0,0-.1-.1,0,0,0,0-.2,0,0,0-.1,0-.2,0,0,0-.1,0-.2,0,0,0-.2,0-.2,0-.2,0-.4,0-.6,0s-.3.1-.4.3c-.1.1-.2.2-.3.4,0,.2,0,.4,0,.5v3.1h-1v-5.2h0ZM124,27.2s0,.1-.1.1,0,0-.1.1c0,0,0,0-.2.1,0,0,0,0-.2.1s-.1,0-.2,0c0,0-.1,0-.2,0,0,0-.1,0-.2,0,0,0-.1,0-.2,0s-.1,0-.2,0h-.2c0,0-.2,0-.3,0,0,0-.2,0-.3,0,0,0-.2,0-.2,0s-.2,0-.2-.1c0,0-.1,0-.2-.1s-.1-.1-.2-.2c0,0,0-.1-.1-.2,0,0,0-.1-.1-.2s0-.2,0-.3c0,0,0-.2,0-.3s0-.3,0-.4c0-.1,0-.2.1-.3s.1-.2.2-.3c0,0,.2-.1.2-.2s.2-.1.3-.2c.1,0,.2,0,.3-.1.1,0,.2,0,.4,0s.2,0,.4,0c.1,0,.2,0,.4,0h1v-.2c0,0,0-.1,0-.2,0,0,0-.1,0-.2s0-.1,0-.2c0,0,0-.1,0-.2,0,0,0-.1-.1-.1,0,0,0,0-.1-.1s-.1,0-.2,0c0,0-.1,0-.2,0,0,0-.2,0-.3,0h-.2c0,0-.1,0-.2,0,0,0,0,0-.2,0s0,0-.2,0c0,0,0,0-.1,0,0,0,0,0-.1,0,0,0,0,0-.1.1,0,0,0,0,0,.1s0,0,0,.1c0,0,0,0,0,.1l-.8-.4c0,0,0-.2.1-.2,0,0,0-.2.2-.2,0,0,.1-.1.2-.2,0,0,.1-.1.2-.2s.1-.1.2-.1c0,0,.2,0,.2-.1,0,0,.2,0,.2,0,0,0,.2,0,.3,0,0,0,.2,0,.3,0s.2,0,.3,0,.2,0,.3,0c.1,0,.2,0,.3,0,0,0,.2,0,.3.1,0,0,.2,0,.3.1,0,0,.2.1.2.2,0,0,.1.1.2.2s.1.2.2.2,0,.2.1.3c0,.1,0,.2,0,.3,0,.1,0,.2,0,.4v3.4h-1v-.6h0ZM123.3,25.4h-.4c0,0-.2,0-.2,0,0,0-.2,0-.2,0s-.1,0-.2,0c0,0-.1,0-.2,0,0,0-.1,0-.2.1s0,.1-.1.2,0,.1,0,.2c0,0,0,.1,0,.2s0,.1,0,.1c0,0,0,0,0,.1,0,0,0,0,0,.1,0,0,0,0,0,.1,0,0,0,0,0,0s0,0,0,0c0,0,0,0,.1,0,0,0,0,0,.1,0,0,0,0,0,.2,0h.4c0,0,.1,0,.2,0,0,0,.1,0,.2,0,0,0,.1,0,.2,0,0,0,.1,0,.2-.1,0,0,.1,0,.2-.1,0,0,0,0,.1-.1,0,0,0-.1,0-.2,0,0,0-.1,0-.2,0,0,0-.1,0-.2v-.6h-.7,0ZM126.5,20.6l1-.5v7.7h-1v-7.2ZM131.2,20.7h2.4c.1,0,.3,0,.4,0,.1,0,.3,0,.4,0s.2,0,.4,0,.2,0,.3.1.2.1.3.2c.1,0,.2.1.3.2s.1.2.2.3c0,.1.1.2.2.3,0,.1,0,.2.1.4,0,.1,0,.3,0,.4s0,.2,0,.3c0,.1,0,.2,0,.3s0,.2-.1.2c0,0,0,.2-.1.2,0,0-.1.1-.2.2,0,0-.1.1-.2.2s-.1.1-.2.2c0,0-.2,0-.2.1,0,0-.2,0-.3.1,0,0-.2,0-.3,0l2.1,3.1h-1.2l-2-3h-1.1v3h-1.1v-7.1h0ZM133.6,24h.2c0,0,.2,0,.2,0,0,0,.1,0,.2,0,0,0,.1,0,.2,0s.1,0,.2-.1.1,0,.1-.1c0,0,0-.1.1-.2s0-.1,0-.2c0,0,0-.1,0-.2,0,0,0-.2,0-.3s0-.2,0-.3,0-.2,0-.2c0,0,0-.1,0-.2,0,0,0-.1-.1-.2,0,0,0,0-.1-.1,0,0-.1,0-.2,0,0,0-.1,0-.2,0,0,0-.1,0-.2,0,0,0-.1,0-.2,0h-1.6v2.5h1.4ZM141.8,26.7c0,0-.1.2-.1.2,0,0-.1.1-.2.2s-.1.1-.2.2c0,0-.1.1-.2.2,0,0-.1,0-.2.1,0,0-.1,0-.2.1,0,0-.2,0-.2,0,0,0-.2,0-.3,0,0,0-.2,0-.3,0s-.2,0-.3,0c-.2,0-.3,0-.5,0s-.3,0-.4-.1c-.1,0-.3-.1-.4-.2-.1,0-.2-.1-.3-.2-.1,0-.2-.2-.3-.3s-.2-.2-.2-.3c0-.1-.1-.2-.2-.4s-.1-.2-.1-.4,0-.3,0-.4c0-.1,0-.3,0-.5s0-.3,0-.5c0-.1,0-.3,0-.4,0-.1,0-.3.1-.4,0-.1.1-.2.2-.4s.1-.2.2-.3c0-.1.2-.2.3-.3.1,0,.2-.2.3-.2.1,0,.2-.1.4-.2.1,0,.3,0,.4-.1s.3,0,.4,0,.4,0,.5,0c.2,0,.3,0,.4.1.1,0,.3.1.4.2.1,0,.2.1.3.2.1,0,.2.2.2.3,0,.1.1.2.2.3s.1.2.1.4c0,.1,0,.3.1.4,0,.1,0,.3,0,.5,0,.2,0,.3,0,.5h-3.9c0,.1,0,.2,0,.3s0,.2,0,.3c0,0,0,.2,0,.2,0,0,0,.1.1.2s0,.1.1.2c0,0,.1.1.2.2,0,0,.1,0,.2.1,0,0,.1,0,.2.1s.2,0,.2,0c0,0,.2,0,.3,0h.2c0,0,.1,0,.2,0s.1,0,.2,0c0,0,.1,0,.2,0,0,0,.1,0,.1,0,0,0,0,0,.1,0,0,0,0,0,.1-.1,0,0,0,0,.1-.1s0,0,.1-.1,0-.1,0-.1l.9.4h0ZM140.9,24.7c0,0,0-.2,0-.2,0,0,0-.1,0-.2s0-.1,0-.2c0,0,0-.1-.1-.2,0,0,0-.1-.1-.2s0,0-.1-.1-.1,0-.2-.1-.1,0-.2,0c0,0-.1,0-.2,0,0,0-.1,0-.2,0s-.2,0-.2,0c0,0-.2,0-.2,0,0,0-.1,0-.2,0s-.1,0-.2.1c0,0-.1,0-.2.1s-.1.1-.1.2,0,.1-.1.2c0,0,0,.1,0,.2,0,0,0,.1,0,.2s0,.1,0,.2h2.8ZM143.5,26.3c0,0,0,.1,0,.2,0,0,0,.1,0,.1,0,0,0,0,.1.1,0,0,0,0,.1.1,0,0,0,0,.1.1,0,0,0,0,.1,0s.1,0,.1,0c0,0,.1,0,.2,0,0,0,.1,0,.2,0h.3c0,0,.1,0,.1,0,0,0,.1,0,.1,0,0,0,.1,0,.1,0,0,0,0,0,.1,0,0,0,0,0,.1,0,0,0,0,0,0,0,0,0,0,0,0-.1s0,0,0-.1c0,0,0-.1,0-.2s0-.1,0-.2c0,0,0-.1,0-.1,0,0,0,0,0-.1,0,0,0,0-.1-.1s0,0-.1,0c0,0-.1,0-.1,0,0,0-.1,0-.2,0,0,0-.1,0-.2,0,0,0-.1,0-.2,0,0,0-.1,0-.2,0,0,0-.2,0-.2,0,0,0-.2,0-.2,0,0,0-.2,0-.2,0,0,0-.1,0-.2,0,0,0-.1,0-.2-.1,0,0-.1,0-.2-.1,0,0-.1-.1-.1-.2s0-.1-.1-.2c0,0,0-.2,0-.3s0-.2,0-.3,0-.2,0-.3c0,0,0-.2,0-.2,0,0,0-.2.1-.2s.1-.1.2-.2c0,0,.1-.1.2-.2,0,0,.1-.1.2-.1,0,0,.2,0,.2-.1s.2,0,.3,0,.2,0,.3,0c0,0,.2,0,.3,0s.2,0,.2,0c0,0,.2,0,.2,0s.2,0,.2,0c0,0,.1,0,.2,0,0,0,.1,0,.2.1s.1,0,.2.1c0,0,.1.1.2.1,0,0,.1.1.2.2,0,0,.1.1.1.2,0,0,0,.1.1.2l-.8.3s0,0,0-.1c0,0,0,0,0-.1s0,0-.1-.1c0,0,0,0-.1,0,0,0,0,0-.1,0,0,0,0,0-.1,0,0,0,0,0-.1,0,0,0,0,0-.1,0s0,0-.1,0h-.3c0,0,0,0-.1,0,0,0,0,0-.1,0,0,0,0,0-.1,0s0,0-.1,0c0,0,0,0-.1,0,0,0,0,0,0,0,0,0,0,0,0,.1,0,0,0,0,0,.1,0,0,0,0,0,.1s0,.1,0,.1,0,0,0,.1c0,0,0,0,0,.1,0,0,0,0,.1,0,0,0,0,0,.1,0s0,0,.1,0c0,0,.1,0,.2,0,0,0,.1,0,.2,0,0,0,.1,0,.2,0s.1,0,.2,0c0,0,.2,0,.2,0,0,0,.2,0,.2,0,0,0,.2,0,.2,0,0,0,.2,0,.2,0,0,0,.1,0,.2.1,0,0,.1,0,.2.1,0,0,.1.1.2.2,0,0,0,.1.1.2,0,0,0,.2,0,.3s0,.2,0,.3,0,.2,0,.3,0,.2,0,.3c0,0,0,.2-.1.2s-.1.1-.2.2c0,0-.1.1-.2.2,0,0-.1.1-.2.1,0,0-.2,0-.3.1s-.2,0-.3,0c-.1,0-.2,0-.3,0-.1,0-.2,0-.3,0s-.2,0-.3,0c0,0-.2,0-.3,0,0,0-.2,0-.3,0,0,0-.2,0-.2,0,0,0-.1,0-.2-.1,0,0-.1,0-.2-.1,0,0-.1-.1-.2-.2,0,0-.1-.1-.2-.2,0,0-.1-.1-.1-.2s0-.2-.1-.3l.8-.4h0ZM152.4,26.7c0,0-.1.2-.1.2,0,0-.1.1-.2.2s-.1.1-.2.2c0,0-.1.1-.2.2,0,0-.1,0-.2.1,0,0-.1,0-.2.1,0,0-.2,0-.2,0,0,0-.2,0-.3,0,0,0-.2,0-.3,0s-.2,0-.3,0c-.2,0-.3,0-.5,0-.1,0-.3,0-.4-.1-.1,0-.3-.1-.4-.2-.1,0-.2-.1-.3-.2-.1,0-.2-.2-.3-.3s-.2-.2-.2-.3c0-.1-.1-.2-.2-.4,0-.1-.1-.2-.1-.4s0-.3,0-.4c0-.1,0-.3,0-.5s0-.3,0-.5c0-.1,0-.3,0-.4,0-.1,0-.3.1-.4s.1-.2.2-.4.1-.2.2-.3c0-.1.2-.2.3-.3.1,0,.2-.2.3-.2.1,0,.2-.1.4-.2.1,0,.3,0,.4-.1s.3,0,.4,0,.4,0,.5,0c.2,0,.3,0,.4.1.1,0,.3.1.4.2.1,0,.2.1.3.2s.2.2.2.3.1.2.2.3.1.2.1.4c0,.1,0,.3.1.4,0,.1,0,.3,0,.5,0,.2,0,.3,0,.5h-3.9c0,.1,0,.2,0,.3s0,.2,0,.3c0,0,0,.2,0,.2,0,0,0,.1.1.2s0,.1.1.2c0,0,.1.1.2.2,0,0,.1,0,.2.1,0,0,.1,0,.2.1s.2,0,.2,0c0,0,.2,0,.3,0h.2c0,0,.1,0,.2,0s.1,0,.2,0c0,0,.1,0,.2,0,0,0,.1,0,.1,0,0,0,.1,0,.1,0,0,0,0,0,.1-.1,0,0,0,0,.1-.1s0,0,.1-.1,0-.1,0-.1l.9.4h0ZM151.5,24.7c0,0,0-.2,0-.2,0,0,0-.1,0-.2s0-.1,0-.2c0,0,0-.1-.1-.2,0,0,0-.1-.1-.2s0,0-.1-.1-.1,0-.2-.1-.1,0-.2,0c0,0-.1,0-.2,0,0,0-.1,0-.2,0s-.2,0-.2,0c0,0-.2,0-.2,0,0,0-.1,0-.2,0,0,0-.1,0-.2.1s-.1,0-.2.1,0,.1-.1.2c0,0,0,.1-.1.2,0,0,0,.1,0,.2,0,0,0,.1,0,.2s0,.1,0,.2h2.8ZM156.7,27.2s0,.1-.1.1,0,0-.1.1c0,0-.1,0-.1.1,0,0-.1,0-.1.1,0,0-.1,0-.2,0,0,0-.1,0-.2,0,0,0-.1,0-.2,0,0,0-.1,0-.2,0s-.1,0-.2,0h-.2c0,0-.2,0-.3,0,0,0-.2,0-.3,0,0,0-.2,0-.2,0s-.1,0-.2-.1c0,0-.1,0-.2-.1,0,0-.1-.1-.2-.2,0,0-.1-.1-.1-.2,0,0,0-.1-.1-.2s0-.2,0-.3c0,0,0-.2,0-.3s0-.3,0-.4c0-.1,0-.2.1-.3,0-.1.1-.2.2-.3s.2-.1.2-.2.2-.1.3-.2c.1,0,.2,0,.3-.1.1,0,.2,0,.4,0s.2,0,.4,0c.1,0,.2,0,.4,0h1v-.2c0,0,0-.1,0-.2,0,0,0-.1,0-.2s0-.1,0-.2c0,0,0-.1,0-.2,0,0,0-.1-.1-.1,0,0,0,0-.1-.1s-.1,0-.2,0c0,0-.1,0-.2,0,0,0-.2,0-.3,0h-.2c0,0-.1,0-.2,0,0,0-.1,0-.1,0,0,0-.1,0-.1,0,0,0,0,0-.1,0,0,0,0,0-.1,0,0,0,0,0-.1.1,0,0,0,0-.1.1s0,0,0,.1c0,0,0,0,0,.1l-.9-.4c0,0,0-.2.1-.2s.1-.2.1-.2c0,0,.1-.1.2-.2,0,0,.1-.1.2-.2,0,0,.1-.1.2-.1,0,0,.2,0,.2-.1s.2,0,.2,0c0,0,.2,0,.3,0,0,0,.2,0,.3,0s.2,0,.3,0,.2,0,.4,0,.2,0,.3,0c.1,0,.2,0,.3.1s.2,0,.3.1c0,0,.2.1.2.2,0,0,.1.1.2.2s.1.2.2.2c0,0,0,.2.1.3s0,.2,0,.3c0,.1,0,.2,0,.4v3.4h-1v-.6h0ZM156,25.4h-.4c0,0-.1,0-.2,0,0,0-.1,0-.2,0,0,0-.1,0-.2,0,0,0-.1,0-.2,0,0,0-.1,0-.2.1s0,.1-.1.2,0,.1,0,.2c0,0,0,.1,0,.2h0c0,.2,0,.2,0,.3,0,0,0,0,0,.1s0,0,0,.1c0,0,0,0,0,0s0,0,.1,0c0,0,0,0,.1,0,0,0,0,0,.1,0,0,0,.1,0,.1,0h.4c0,0,.1,0,.2,0,0,0,.1,0,.2,0,0,0,.1,0,.2,0s.1,0,.2-.1.1,0,.1-.1c0,0,0,0,.1-.1,0,0,0-.1,0-.2,0,0,0-.1,0-.2,0,0,0-.1,0-.2v-.6h-.7,0ZM159.2,22.6h1v1c0,0,0-.1.1-.2,0,0,0-.1.1-.2,0,0,0-.1.1-.2s.1-.1.1-.1c0,0,.1,0,.2-.1,0,0,.1,0,.2,0,0,0,.1,0,.2,0s.1,0,.2,0c0,0,.1,0,.2,0h.2v1c-.1,0-.2,0-.3,0-.1,0-.2,0-.3,0s-.2,0-.2,0c0,0-.1,0-.2.1s-.1,0-.2.1-.1.1-.2.2,0,.1-.1.2c0,0,0,.1,0,.2,0,0,0,.2,0,.3,0,.1,0,.2,0,.3v2.8h-1v-5.2h0ZM167.4,26.3c0,.1,0,.2-.1.3,0,0-.1.2-.2.3,0,0-.1.2-.2.2,0,0-.1.1-.2.2s-.1.1-.2.2c0,0-.2.1-.3.1,0,0-.2,0-.3.1s-.2,0-.3,0c-.1,0-.2,0-.3,0-.1,0-.2,0-.3,0-.2,0-.3,0-.5,0s-.3,0-.4-.1c-.1,0-.3-.1-.4-.2-.1,0-.2-.1-.3-.2s-.2-.2-.3-.3c0-.1-.2-.2-.2-.3,0-.1-.1-.2-.2-.4,0-.1-.1-.3-.1-.4s0-.3,0-.4,0-.3,0-.5,0-.3,0-.4c0-.1,0-.3,0-.4s0-.3.1-.4c0-.1.1-.2.2-.4s.2-.2.2-.3.2-.2.3-.3c.1,0,.2-.1.4-.2.1,0,.2-.1.4-.2.1,0,.3,0,.4-.1s.3,0,.5,0,.2,0,.3,0c.1,0,.2,0,.3,0s.2,0,.3,0c0,0,.2,0,.3.1s.2,0,.2.1c0,0,.1.1.2.2s.1.1.2.2.1.1.2.2c0,0,.1.2.2.2s.1.2.1.3l-.9.4c0,0,0-.1,0-.2,0,0,0-.1-.1-.2,0,0,0-.1-.1-.1s0,0-.1-.1c0,0,0,0-.1-.1,0,0-.1,0-.2,0,0,0-.1,0-.2,0,0,0-.1,0-.2,0,0,0-.1,0-.2,0s-.1,0-.2,0c-.1,0-.2,0-.3,0,0,0-.2,0-.3,0,0,0-.2,0-.2.1,0,0-.1.1-.2.2,0,0-.1.1-.2.2,0,0,0,.1-.1.2,0,0,0,.2-.1.2s0,.2,0,.3,0,.2,0,.3,0,.2,0,.3,0,.2,0,.3c0,0,0,.2,0,.3,0,0,0,.2,0,.3,0,0,0,.2.1.2,0,0,0,.1.1.2,0,0,.1.1.2.2,0,0,.1.1.2.1,0,0,.1,0,.2.1,0,0,.2,0,.3,0,.1,0,.2,0,.3,0s.1,0,.2,0c0,0,.1,0,.2,0,0,0,.1,0,.2,0,0,0,.1,0,.2,0s.1,0,.2-.1.1,0,.1-.1c0,0,0,0,.1-.1,0,0,0-.1.1-.2,0,0,0-.1,0-.2,0,0,0-.1,0-.2l.8.4h0ZM168.5,20.1h1v3.3c0,0,0-.1.1-.2,0,0,0-.1.1-.2,0,0,0-.1.1-.1,0,0,.1,0,.2-.1,0,0,.1,0,.2-.1s.1,0,.2,0c0,0,.1,0,.2,0,0,0,.1,0,.2,0s.1,0,.2,0h.2c.1,0,.2,0,.4,0,.1,0,.2,0,.3,0,.1,0,.2,0,.3.1,0,0,.2.1.2.2,0,0,.1.1.2.2,0,0,.1.2.2.2,0,0,.1.2.1.3,0,.1,0,.2,0,.3,0,.1,0,.2,0,.3,0,.1,0,.2,0,.4v3.2h-1v-3.2c0,0,0-.2,0-.2,0,0,0-.1,0-.2,0,0,0-.1,0-.2,0,0,0-.1,0-.2,0,0,0-.1-.1-.1,0,0,0,0-.1-.1,0,0-.1,0-.2,0,0,0-.1,0-.2,0,0,0-.1,0-.2,0,0,0-.1,0-.2,0-.1,0-.3,0-.4,0s-.2,0-.3.1c-.1,0-.2.1-.3.2s-.1.2-.2.3c0,.1,0,.2-.1.3s0,.2,0,.4v3.1h-1v-7.7h0ZM176.7,20.7h4.5v.9h-3.4v2.3h2.7v.9h-2.7v3.1h-1.1s0-7.1,0-7.1ZM184,27.9c-.2,0-.3,0-.5,0-.1,0-.3,0-.4-.1-.1,0-.3-.1-.4-.2-.1,0-.2-.1-.3-.2-.1,0-.2-.2-.3-.3,0-.1-.2-.2-.2-.3,0-.1-.1-.2-.2-.4,0-.1-.1-.3-.1-.4s0-.3,0-.4c0-.1,0-.3,0-.5s0-.3,0-.4c0-.1,0-.3.1-.4,0-.1,0-.3.1-.4,0-.1.1-.2.2-.4s.2-.2.3-.3c.1-.1.2-.2.3-.3.1,0,.2-.1.4-.2.1,0,.2-.1.4-.2.1,0,.3,0,.4-.1.1,0,.3,0,.5,0s.3,0,.5,0c.1,0,.3,0,.4.1.1,0,.3.1.4.2.1,0,.2.1.3.2.1,0,.2.2.3.3.1.1.2.2.2.3,0,.1.1.2.2.4,0,.1.1.2.1.4,0,.1,0,.3,0,.4,0,.1,0,.3,0,.5s0,.3,0,.5,0,.3,0,.4,0,.3-.2.4c0,.1-.1.2-.2.4,0,.1-.2.2-.3.3,0,.1-.2.2-.3.3s-.2.1-.4.2c-.1,0-.2.1-.4.2-.1,0-.3,0-.4.1-.1,0-.3,0-.4,0h0ZM184,27.1c.1,0,.2,0,.3,0s.2,0,.3,0,.2,0,.2-.1c0,0,.1-.1.2-.2,0,0,.1-.1.2-.2s.1-.1.1-.2c0,0,0-.2.1-.2,0,0,0-.2,0-.3s0-.2,0-.3,0-.2,0-.3,0-.2,0-.3c0-.1,0-.2,0-.3s0-.2,0-.3c0,0,0-.2-.1-.2s0-.1-.1-.2-.1-.1-.2-.2c0,0-.1-.1-.2-.2s-.2,0-.2-.1c0,0-.2,0-.3,0-.1,0-.2,0-.3,0s-.2,0-.3,0c-.1,0-.2,0-.3,0,0,0-.2,0-.2.1,0,0-.1.1-.2.2s-.1.1-.2.2c0,0,0,.1-.1.2,0,0,0,.2-.1.2,0,0,0,.2,0,.3,0,0,0,.2,0,.3,0,.1,0,.2,0,.3s0,.2,0,.3c0,.1,0,.2,0,.3,0,0,0,.2,0,.3s0,.2.1.2c0,0,0,.1.1.2s.1.1.2.2c0,0,.1.1.2.1,0,0,.1,0,.2.1,0,0,.2,0,.3,0,.1,0,.2,0,.3,0h0ZM191.4,27c0,0,0,.1-.1.2,0,0,0,.1-.1.2s0,.1-.1.1c0,0-.1,0-.2.1,0,0-.1,0-.2.1s-.1,0-.2,0-.1,0-.2,0c0,0-.1,0-.2,0,0,0-.1,0-.2,0h-.2c-.1,0-.2,0-.4,0s-.2,0-.3,0c-.1,0-.2,0-.3-.1,0,0-.2-.1-.2-.1,0,0-.1-.1-.2-.2,0,0-.1-.1-.2-.2s0-.2-.1-.3c0,0,0-.2,0-.3,0-.1,0-.2,0-.3s0-.2,0-.4v-3.3h1v3.5c0,0,0,.1,0,.2s0,.1,0,.2c0,0,0,.1,0,.2s0,0,.1.1c0,0,0,0,.1.1s.1,0,.1,0c0,0,.1,0,.2,0,0,0,.1,0,.2,0h.2c0,0,.2,0,.2,0,0,0,.1,0,.2,0,0,0,.1,0,.2,0,0,0,.1,0,.2-.1s.1,0,.1-.1c0,0,0,0,.1-.1,0,0,0-.1.1-.2,0,0,0-.1,0-.2,0,0,0-.1,0-.2,0,0,0-.1,0-.2v-3.1h1v5.2h-1v-.8h0ZM193.9,22.6h1v.8c0,0,0-.1.1-.2,0,0,0-.1.1-.2s0-.1.1-.1c0,0,.1,0,.2-.1,0,0,.1,0,.2-.1s.1,0,.2,0c0,0,.1,0,.2,0,0,0,.1,0,.2,0s.1,0,.2,0h.2c.1,0,.2,0,.4,0,.1,0,.2,0,.3,0,.1,0,.2,0,.3.1,0,0,.2.1.2.2,0,0,.1.1.2.2,0,0,.1.2.2.2s0,.2.1.3c0,.1,0,.2,0,.3,0,.1,0,.2,0,.3,0,.1,0,.2,0,.4v3.2h-1v-3.2c0,0,0-.2,0-.2,0,0,0-.1,0-.2s0-.1,0-.2c0,0,0-.1,0-.2s0-.1-.1-.1c0,0,0,0-.1-.1s-.1,0-.1,0c0,0-.1,0-.2,0,0,0-.1,0-.2,0,0,0-.1,0-.2,0-.2,0-.4,0-.6,0-.2,0-.3.1-.4.3-.1.1-.2.2-.3.4,0,.2,0,.4,0,.5v3.1h-1v-5.2h0ZM203.9,26.9c0,0,0,.1-.1.2,0,0,0,.1-.1.2s-.1.1-.2.1c0,0-.1,0-.2.1,0,0-.1,0-.2.1,0,0-.1,0-.2,0,0,0-.1,0-.2,0s-.1,0-.2,0c0,0-.1,0-.2,0,0,0-.1,0-.2,0-.2,0-.3,0-.4,0-.1,0-.3,0-.4-.1-.1,0-.2-.1-.4-.2s-.2-.1-.3-.2-.2-.2-.2-.3c0-.1-.1-.2-.2-.3,0-.1-.1-.2-.2-.4,0-.1,0-.2-.1-.4,0-.1,0-.3,0-.4,0-.1,0-.3,0-.4s0-.3,0-.4c0-.1,0-.3,0-.4,0-.1,0-.3.1-.4,0-.1.1-.2.2-.4,0-.1.1-.2.2-.3s.2-.2.3-.3c.1,0,.2-.2.3-.2s.2-.1.4-.2c.1,0,.3,0,.4-.1s.3,0,.4,0h.2c0,0,.1,0,.2,0,0,0,.1,0,.2,0s.1,0,.2,0c0,0,.1,0,.2,0s.1,0,.2.1.1,0,.2.1c0,0,.1,0,.1.1,0,0,.1.1.1.2,0,0,0,.1.1.2v-3.3h1v7.7h-1v-.9h0ZM202.3,27.1c.1,0,.2,0,.3,0s.2,0,.3,0c0,0,.2,0,.2-.1,0,0,.1-.1.2-.2,0,0,.1-.1.2-.2,0,0,.1-.1.1-.2,0,0,0-.2.1-.2s0-.2,0-.3c0,0,0-.2,0-.3,0-.1,0-.2,0-.3s0-.2,0-.3c0-.1,0-.2,0-.3,0,0,0-.2,0-.3,0,0,0-.2-.1-.2,0,0,0-.1-.1-.2,0,0-.1-.1-.2-.2s-.1-.1-.2-.1c0,0-.2,0-.2-.1s-.2,0-.3,0c-.1,0-.2,0-.3,0s-.2,0-.3,0c-.1,0-.2,0-.3,0,0,0-.2,0-.2.1,0,0-.1.1-.2.2,0,0-.1.1-.2.2,0,0,0,.1-.1.2,0,0,0,.2-.1.2s0,.2,0,.3,0,.2,0,.3v.3c0,0,0,.2,0,.3s0,.2,0,.3c0,0,0,.2,0,.3,0,0,0,.2.1.2,0,0,0,.1.1.2,0,0,.1.1.2.2,0,0,.1.1.2.1,0,0,.1,0,.2.1,0,0,.2,0,.3,0,0,0,.2,0,.3,0h0ZM209.4,27.2s0,.1-.1.1,0,0-.1.1c0,0,0,0-.1.1,0,0-.1,0-.1.1,0,0-.1,0-.2,0,0,0-.1,0-.2,0,0,0-.1,0-.2,0,0,0-.1,0-.2,0s-.1,0-.2,0h-.2c-.1,0-.2,0-.3,0,0,0-.2,0-.3,0,0,0-.2,0-.2,0s-.1,0-.2-.1c0,0-.1,0-.2-.1,0,0-.1-.1-.2-.2,0,0-.1-.1-.1-.2,0,0,0-.1-.1-.2s0-.2,0-.3c0,0,0-.2,0-.3s0-.3,0-.4c0-.1,0-.2.1-.3,0-.1.1-.2.2-.3s.2-.1.2-.2.2-.1.3-.2c.1,0,.2,0,.3-.1.1,0,.2,0,.4,0s.2,0,.4,0c.1,0,.2,0,.4,0h1v-.2c0,0,0-.1,0-.2,0,0,0-.1,0-.2s0-.1,0-.2c0,0,0-.1,0-.2,0,0,0-.1-.1-.1,0,0,0,0-.1-.1s-.1,0-.2,0c0,0-.1,0-.2,0,0,0-.2,0-.3,0h-.2c0,0-.1,0-.2,0,0,0-.1,0-.1,0,0,0-.1,0-.1,0,0,0,0,0-.1,0,0,0,0,0-.1,0,0,0,0,0-.1.1,0,0,0,0-.1.1s0,0,0,.1c0,0,0,0,0,.1l-.9-.4c0,0,0-.2.1-.2,0,0,.1-.2.1-.2,0,0,.1-.1.2-.2,0,0,.1-.1.2-.2,0,0,.1-.1.2-.1,0,0,.2,0,.2-.1,0,0,.2,0,.2,0,0,0,.2,0,.3,0,0,0,.2,0,.3,0s.2,0,.3,0,.2,0,.4,0c.1,0,.2,0,.3,0,.1,0,.2,0,.3.1s.2,0,.3.1c0,0,.2.1.2.2,0,0,.1.1.2.2s.1.2.2.2c0,0,0,.2.1.3s0,.2,0,.3c0,.1,0,.2,0,.4v3.4h-1v-.6h0ZM208.8,25.4h-.4c0,0-.1,0-.2,0,0,0-.1,0-.2,0s-.1,0-.2,0c0,0-.1,0-.2,0,0,0-.1,0-.2.1s0,.1-.1.2c0,0,0,.1,0,.2,0,0,0,.1,0,.2h0c0,.2,0,.2,0,.3,0,0,0,0,0,.1s0,0,0,.1c0,0,0,0,0,0,0,0,0,0,.1,0,0,0,0,0,.1,0,0,0,0,0,.1,0,0,0,.1,0,.1,0h.4c0,0,.1,0,.2,0,0,0,.1,0,.2,0,0,0,.1,0,.2,0,0,0,.1,0,.2-.1s.1,0,.1-.1c0,0,0,0,.1-.1,0,0,0-.1,0-.2,0,0,0-.1,0-.2,0,0,0-.1,0-.2v-.6h-.7,0ZM214.4,27.8s0,0,0,0c0,0,0,0,0,0,0,0,0,0,0,0,0,0,0,0,0,0s0,0,0,0h-.4c-.1,0-.2,0-.3,0,0,0-.2,0-.2,0s-.1,0-.2,0c0,0-.1,0-.2-.1,0,0-.1,0-.2-.1,0,0,0-.1-.1-.2s0-.1-.1-.2c0,0,0-.1,0-.2,0,0,0-.2,0-.2s0-.2,0-.3v-3h-.7v-.8h.7v-1l1-.5v1.5h1.2v.8h-1.2v2.9h0c0,.2,0,.2,0,.2,0,0,0,0,0,.1,0,0,0,0,0,0,0,0,0,0,0,0,0,0,0,0,0,0,0,0,0,0,0,0,0,0,0,0,.1,0,0,0,0,0,.1,0h.5s0,0,0,0,0,0,0,0,0,0,0,0c0,0,0,0,0,0v.8h0ZM215.6,22.6h1v5.2h-1v-5.2ZM215.5,21.1c0,0,0-.2,0-.2,0,0,0-.1.1-.2,0,0,.1-.1.2-.1,0,0,.2,0,.2,0h.1s0,0,.1,0c0,0,0,0,0,0,0,0,0,0,0,0,0,0,0,0,0,0,0,0,0,0,0,0,0,0,0,0,0,0,0,0,0,0,0,0,0,0,0,0,0,.1h0c0,.2,0,.3,0,.4,0,0,0,.1-.1.2,0,0-.1.1-.2.1,0,0-.2,0-.2,0s-.2,0-.2,0c0,0-.1,0-.2-.1,0,0-.1-.1-.1-.2,0,0,0-.2,0-.2h0ZM220.5,27.9c-.2,0-.3,0-.5,0-.1,0-.3,0-.4-.1-.1,0-.3-.1-.4-.2-.1,0-.2-.1-.3-.2-.1,0-.2-.2-.3-.3,0-.1-.2-.2-.2-.3,0-.1-.1-.2-.2-.4,0-.1-.1-.3-.1-.4s0-.3,0-.4c0-.1,0-.3,0-.5s0-.3,0-.4c0-.1,0-.3.1-.4,0-.1,0-.3.1-.4,0-.1.1-.2.2-.4s.2-.2.3-.3c.1-.1.2-.2.3-.3.1,0,.2-.1.4-.2.1,0,.2-.1.4-.2.1,0,.3,0,.4-.1.1,0,.3,0,.5,0s.3,0,.5,0c.1,0,.3,0,.4.1.1,0,.3.1.4.2.1,0,.2.1.3.2.1,0,.2.2.3.3s.2.2.2.3c0,.1.1.2.2.4,0,.1.1.2.1.4,0,.1,0,.3,0,.4,0,.1,0,.3,0,.5s0,.3,0,.5,0,.3,0,.4,0,.3-.2.4c0,.1-.1.2-.2.4,0,.1-.2.2-.3.3,0,.1-.2.2-.3.3s-.2.1-.4.2c-.1,0-.2.1-.4.2-.1,0-.3,0-.4.1-.1,0-.3,0-.4,0h0ZM220.5,27.1c.1,0,.2,0,.3,0s.2,0,.3,0,.2,0,.2-.1c0,0,.1-.1.2-.2,0,0,.1-.1.2-.2s.1-.1.1-.2,0-.2.1-.2c0,0,0-.2,0-.3s0-.2,0-.3,0-.2,0-.3,0-.2,0-.3c0-.1,0-.2,0-.3s0-.2,0-.3c0,0,0-.2-.1-.2s0-.1-.1-.2-.1-.1-.2-.2c0,0-.1-.1-.2-.2,0,0-.2,0-.2-.1,0,0-.2,0-.3,0-.1,0-.2,0-.3,0s-.2,0-.3,0c-.1,0-.2,0-.3,0,0,0-.2,0-.2.1,0,0-.1.1-.2.2s-.1.1-.2.2c0,0,0,.1-.1.2,0,0,0,.2-.1.2,0,0,0,.2,0,.3,0,0,0,.2,0,.3,0,.1,0,.2,0,.3s0,.2,0,.3c0,.1,0,.2,0,.3,0,0,0,.2,0,.3s0,.2.1.2c0,0,0,.1.1.2s.1.1.2.2c0,0,.1.1.2.1,0,0,.1,0,.2.1,0,0,.2,0,.3,0,.1,0,.2,0,.3,0h0ZM224.4,22.6h1v.8c0,0,0-.1.1-.2,0,0,0-.1.1-.2s0-.1.1-.1c0,0,.1,0,.2-.1,0,0,.1,0,.2-.1s.1,0,.2,0c0,0,.1,0,.2,0,0,0,.1,0,.2,0s.1,0,.2,0h.2c.1,0,.2,0,.4,0,.1,0,.2,0,.3,0,.1,0,.2,0,.3.1,0,0,.2.1.2.2,0,0,.1.1.2.2,0,0,.1.2.2.2s0,.2.1.3c0,.1,0,.2,0,.3,0,.1,0,.2,0,.3,0,.1,0,.2,0,.4v3.2h-1v-3.2c0,0,0-.2,0-.2,0,0,0-.1,0-.2s0-.1,0-.2c0,0,0-.1,0-.2s0-.1-.1-.1c0,0,0,0-.1-.1s-.1,0-.1,0c0,0-.1,0-.2,0,0,0-.1,0-.2,0,0,0-.1,0-.2,0-.2,0-.4,0-.6,0-.2,0-.3.1-.4.3-.1.1-.2.2-.3.4,0,.2,0,.4,0,.5v3.1h-1v-5.2h0Z"/>
  <path class="st1" d="M33,12.9c0,1.2-.9,1.9-2,1.9s-2.4-.8-3.3-3.4l.9-.4c.6,1.9,1.3,2.9,2.4,2.9s1.2-.4,1.2-1.1-.4-1-.8-1.3c-.3,0-.7.1-1.1.2l-.2-.9c1.5-.2,1.9-.5,1.9-1.2s-.4-.9-1-.9-1.1.2-1.6.5l-.3-.8c.5-.3,1.2-.5,1.9-.5,1.4,0,1.9.8,1.9,1.7s-.2,1.1-.8,1.5h0c.4.1.8.2,1.2.2s.8,0,1.2-.1v-2.2h-.9v-.9h3.1v.9h-1.2v6.6h-1v-3.5c-.3,0-.7.1-1,.1s-.4,0-.7,0c.1.2.2.5.2.8h0ZM36.5,8h6.8v.8h-1.2v6.6h-1v-3.6h-2.2v.6c0,.4-.2.7-.6.7-.6,0-1.4-.9-1.4-1.6s.2-.6.7-.6h3.4v-2.2h-4.6s0-.8,0-.9ZM41.2,18.7c-1.4,0-2.5-.7-3.5-1.9l.7-.6c1,1.2,1.8,1.7,2.8,1.7s1.3-.3,1.3-.9-.3-.8-.8-.8-.8.2-1.2.5l-.5-.7c.5-.5,1-.7,1.8-.7,1.1,0,1.7.7,1.7,1.7s-.8,1.7-2.1,1.7h0ZM46.6,15.6c-1.2-1.2-2.2-2.4-2.6-3.2-.2-.4-.3-.8-.3-1.1s.2-.6.7-.6.7.2,1,.6c.4-.3.6-.8.6-1.4s0-.8-.2-1.1h-2.5v-.8h8.3v.8h-1.2v6.6h-1v-3.1c-.4.1-.8.1-1.3.1-.6,0-1.4-.1-2.1-.5-.2.2-.5.3-.9.5.6.8,1.4,1.6,2.3,2.5l-.7.6h0ZM47.9,11.6c.5,0,.9,0,1.3-.2v-2.6h-2.6c.1.4.2.7.2,1.2s-.1,1-.4,1.4c.5.2.9.2,1.5.2ZM49,6.2c0-.4.3-.7.7-.7s.7.3.7.7-.3.7-.7.7-.7-.3-.7-.7ZM58.8,8.8h-1.2v6.6h-1v-1.7c-.4.3-1,.5-1.8.5-1.4,0-2.4-.7-2.4-1.8s.1-.8.5-1.1c-.6-.4-1.1-1-1.1-1.8s.7-1.6,1.8-1.6,1.6.6,1.6,1.3-.2.8-.5,1.1l-.7-.4c.2-.2.3-.4.3-.7,0-.4-.2-.6-.6-.6s-.8.4-.8.9.3,1,.9,1.3c.3,0,.6-.1.9-.1s.5,0,.7,0v.8c-.3,0-.4,0-.6,0-.8,0-1.3.3-1.3.9s.6.9,1.4.9,1.4-.3,1.8-.8v-3.7h-.7v-.8h3v.8h0ZM60.7,8.8v6.6h-1v-6.6h-1.1v-.8h3.3v.8s-1.2,0-1.2,0ZM61.7,8h6.8v.8h-1.2v6.6h-1v-3.6h-2.2v.6c0,.4-.2.7-.6.7-.6,0-1.4-.9-1.4-1.6s.2-.6.7-.6h3.4v-2.2h-4.6v-.9ZM70.7,8h6.8v.8h-1.2v6.6h-1v-3.6h-2.2v.6c0,.4-.2.7-.6.7-.6,0-1.4-.9-1.4-1.6s.2-.6.7-.6h3.4v-2.2h-4.6s0-.8,0-.9ZM75.3,8.1c-.7-2.1-.9-2.5-1.7-2.5s-.7,0-1,.2l-.3-.8c.3-.1.8-.2,1.2-.2,1.4,0,1.8.7,2.7,3.4h-.9,0ZM78.9,13.4c-.7,0-1.2-.4-1.2-.9s.3-.7.8-.7.7.2,1,.6c1-.3,1.6-1.1,1.6-2.3s-.4-1.4-1.1-1.4-.9.3-.9.7.5.8,1.3.9v.8c-1.4-.1-2.2-.6-2.2-1.7s.6-1.5,1.7-1.5,2.1.8,2.1,2.2-.8,2.4-2,2.9c.6.6,1.2,1.3,1.7,2l-.8.5c-.7-1-1.2-1.7-1.7-2.2-.1,0-.2,0-.4,0h0ZM84.5,8.8v6.6h-1v-6.6h-1.1v-.8h3.3v.8h-1.2ZM85.5,8h6.8v.8h-1.2v6.6h-1v-3.6h-2.2v.6c0,.4-.2.7-.6.7-.6,0-1.4-.9-1.4-1.6s.2-.6.7-.6h3.4v-2.2h-4.6s0-.8,0-.9ZM92.2,8.8v-.8h8.3v.8h-1.2v6.6h-1v-4.3h-.1c-.8,0-1.4.5-1.6,2l-1-.3c0-.5.2-.9.4-1.3-.3-.2-.6-.4-1-.4-.8,0-1.2.5-1.2,1.2s.6,1.6,2.1,2.5l-.6.7c-1.6-.9-2.5-1.9-2.5-3.3s.9-2,2.1-2,1.2.2,1.6.6c.4-.4,1-.6,1.7-.6h.1v-1.5h-6.1ZM104.7,8.8v6.6h-1v-6.6h-1.1v-.8h1c-.2-.4-.3-.9-.3-1.4,0-1.2.8-1.9,2.2-1.9s3,1.2,3.9,3.4h-1c-.7-1.7-1.7-2.5-2.8-2.5s-1.3.5-1.3,1.2.2.9.4,1.2h1.3v.9h-1.2,0ZM110.3,14.9l-.7.6c-1.3-1.1-2.2-2.1-2.8-2.9-.4-.6-.6-.9-.6-1.3s.2-.6.6-.6.7.2,1,.6c.7-.3.9-.8.9-1.4s0-.8-.2-1h-2.9v-.8h5.1v.8h-1.2c.1.3.2.7.2,1.1,0,1.3-.8,2-2.1,2.5.7.8,1.6,1.7,2.6,2.5h0ZM114.1,15.6c-1.2-1.2-2.2-2.4-2.6-3.2-.2-.4-.3-.8-.3-1.1s.2-.6.7-.6.7.2,1,.6c.4-.3.6-.8.6-1.4s0-.8-.2-1.1h-2.5v-.8h8.3v.8h-1.2v6.6h-1v-3.1c-.4.1-.8.1-1.3.1-.6,0-1.4-.1-2.1-.5-.2.2-.6.3-.9.5.6.8,1.4,1.6,2.3,2.5l-.7.6h0ZM115.4,11.6c.5,0,.9,0,1.3-.2v-2.6h-2.6c.1.4.2.7.2,1.2s-.1,1-.4,1.4c.5.2.9.2,1.5.2ZM126.6,8.8h-1.2v6.6h-1v-1.9c-.4.4-1.1.6-1.7.6-1.3,0-2.2-.8-2.2-1.9s.3-1,.6-1.3h-1.8s0-.8,0-.8h4.2v.9h-.5c-.9,0-1.6.4-1.6,1.2s.5,1.1,1.2,1.1,1.4-.4,1.8-.9v-3.6h-5.6v-.8h7.8v.8h0ZM124.2,8.1c-.4-.4-.7-1.1-.7-1.7,0-1.1.8-1.6,1.8-1.6s.9.1,1.2.3l-.2.7c-.3-.1-.5-.2-.9-.2-.6,0-1,.4-1,.9s.3,1.1.7,1.6h-1ZM134.2,8.8v2.3c.4-.3.8-.5,1.4-.5,1.1,0,1.8.7,1.8,1.9s-.3,1.6-1,2.4l-.8-.5c.5-.6.9-1.2.9-1.9s-.4-1.1-.9-1.1-1,.3-1.3.8v3.2h-1v-2.4c-.4.3-.9.5-1.5.5-1.5,0-2.1-.9-2.1-2.4v-2.3h-.9v-.8h9.4v.8h-3.9ZM130.6,8.8v2.3c0,1.2.4,1.6,1.1,1.6s1.1-.3,1.5-.7v-3.2h-2.6,0ZM140,8.8v6.6h-1v-6.6h-1.1v-.8h3.3v.8h-1.2,0ZM141.1,8h6.8v.8h-1.6c.3.3.5.7.5,1.2s-.2,1-.7,1.4c.7.6,1,1.3,1,2,0,1.3-.9,2-2.2,2s-2.6-.9-3.5-3.7l.9-.4c.7,2.3,1.4,3.2,2.5,3.2s1.3-.4,1.3-1.2-.3-1.1-.8-1.6c-.4.1-.8.2-1.3.2l-.2-.9c1.4-.1,2-.4,2-1.2s-.2-.9-.6-1.1h-4v-.8h0ZM144.5,6.2c0-.4.3-.7.7-.7s.7.3.7.7-.3.7-.7.7-.7-.3-.7-.7ZM151.4,12.8c-.5,0-1,.1-1.4.3-.7-.4-1.3-1-1.3-1.8s.6-1.4,1.9-1.4h1.4v-1h-4.5v-.8h6.7v.8h-1.2v1.9h-2.4c-.6,0-.9.2-.9.6s.2.6.5.8c.4-.1.8-.2,1.3-.2,1.3,0,2,.6,2,1.7s-.7,1.9-2.3,1.9-2.4-.6-3.3-1.4l.6-.8c.8.9,1.7,1.3,2.7,1.3s1.4-.3,1.4-.9-.3-.9-1.1-.9h0ZM152,8.1c-.7-2.1-.9-2.5-1.7-2.5s-.7,0-1,.2l-.3-.8c.3-.1.8-.2,1.2-.2,1.4,0,1.8.7,2.7,3.4h-.9,0ZM155.6,13.4c-.7,0-1.2-.4-1.2-.9s.3-.7.8-.7.7.2,1,.6c1-.3,1.6-1.1,1.6-2.3s-.4-1.4-1.1-1.4-.9.3-.9.7.5.8,1.3.9v.8c-1.4-.1-2.2-.6-2.2-1.7s.6-1.5,1.7-1.5,2.1.8,2.1,2.2-.8,2.4-2,2.9c.6.6,1.2,1.3,1.7,2l-.8.5c-.7-1-1.2-1.7-1.7-2.2-.1,0-.2,0-.4,0h0ZM161.1,8.8v6.6h-1v-6.6h-1.1v-.8h3.3v.8h-1.2,0ZM162.2,8h6.8v.8h-1.2v6.6h-1v-3.6h-2.2v.6c0,.4-.2.7-.6.7-.6,0-1.4-.9-1.4-1.6s.2-.6.7-.6h3.4v-2.2h-4.6v-.9Z"/>
</svg>