<?xml version="1.0" encoding="UTF-8"?>
<svg id="Layer_1" data-name="Layer 1" xmlns="http://www.w3.org/2000/svg" xmlns:xlink="http://www.w3.org/1999/xlink" viewBox="0 0 881.15 271.64">
  <defs>
    <style>
      .cls-1 {
        fill: url(#radial-gradient);
        opacity: .05;
      }

      .cls-1, .cls-2, .cls-3, .cls-4, .cls-5, .cls-6 {
        isolation: isolate;
      }

      .cls-7 {
        fill: url(#linear-gradient-3);
      }

      .cls-8 {
        fill: url(#linear-gradient);
      }

      .cls-9 {
        fill: #fff7e1;
      }

      .cls-10 {
        stroke: url(#linear-gradient-2);
        stroke-linecap: round;
        stroke-linejoin: round;
        stroke-width: 7.43px;
      }

      .cls-10, .cls-2, .cls-3, .cls-4, .cls-5, .cls-6 {
        fill: none;
      }

      .cls-11 {
        opacity: .8;
      }

      .cls-2 {
        stroke: url(#linear-gradient-7);
      }

      .cls-2, .cls-3, .cls-4, .cls-5, .cls-6 {
        opacity: .7;
        stroke-width: 4px;
      }

      .cls-3 {
        stroke: url(#linear-gradient-4);
      }

      .cls-4 {
        stroke: url(#linear-gradient-5);
      }

      .cls-5 {
        stroke: url(#linear-gradient-8);
      }

      .cls-6 {
        stroke: url(#linear-gradient-6);
      }
    </style>
    <linearGradient id="linear-gradient" x1="475.55" y1="-645.57" x2="425.1" y2="-814.99" gradientTransform="translate(0 891.16)" gradientUnits="userSpaceOnUse">
      <stop offset="0" stop-color="#1f5aff" stop-opacity="0"/>
      <stop offset="1" stop-color="#71a2ff"/>
    </linearGradient>
    <radialGradient id="radial-gradient" cx="316.09" cy="100.27" fx="316.09" fy="100.27" r=".86" gradientTransform="translate(-122971.58 -15843.2) scale(390.71 159.48)" gradientUnits="userSpaceOnUse">
      <stop offset="0" stop-color="#fff"/>
      <stop offset=".37" stop-color="#fff" stop-opacity=".99"/>
      <stop offset=".51" stop-color="#fff" stop-opacity=".97"/>
      <stop offset=".6" stop-color="#fff" stop-opacity=".92"/>
      <stop offset=".68" stop-color="#fff" stop-opacity=".85"/>
      <stop offset=".75" stop-color="#fff" stop-opacity=".77"/>
      <stop offset=".8" stop-color="#fff" stop-opacity=".66"/>
      <stop offset=".86" stop-color="#fff" stop-opacity=".53"/>
      <stop offset=".91" stop-color="#fff" stop-opacity=".39"/>
      <stop offset=".95" stop-color="#fff" stop-opacity=".22"/>
      <stop offset=".99" stop-color="#fff" stop-opacity=".04"/>
      <stop offset="1" stop-color="#fff" stop-opacity="0"/>
    </radialGradient>
    <linearGradient id="linear-gradient-2" x1="5.85" y1="-653.67" x2="895.66" y2="-808.42" gradientTransform="translate(0 891.16)" gradientUnits="userSpaceOnUse">
      <stop offset="0" stop-color="#0061b6" stop-opacity="0"/>
      <stop offset=".63" stop-color="#feffff" stop-opacity=".58"/>
      <stop offset="1" stop-color="#005bdb"/>
    </linearGradient>
    <linearGradient id="linear-gradient-3" x1="723.93" y1="-821.82" x2="902.44" y2="-821.82" gradientTransform="translate(0 891.16)" gradientUnits="userSpaceOnUse">
      <stop offset="0" stop-color="#2886ff"/>
      <stop offset=".24" stop-color="#d6d6d6" stop-opacity=".82"/>
      <stop offset=".54" stop-color="#f4f3f3" stop-opacity=".95"/>
      <stop offset="1" stop-color="#fff"/>
    </linearGradient>
    <linearGradient id="linear-gradient-4" x1="356.41" y1="-789" x2="356.41" y2="-745.4" gradientTransform="translate(0 891.16)" gradientUnits="userSpaceOnUse">
      <stop offset="0" stop-color="#ddcbcb"/>
      <stop offset=".36" stop-color="#ffc776"/>
      <stop offset="1" stop-color="#155195"/>
    </linearGradient>
    <linearGradient id="linear-gradient-5" x1="475.21" y1="-795.9" x2="475.21" y2="-746.59" gradientTransform="translate(0 891.16)" gradientUnits="userSpaceOnUse">
      <stop offset="0" stop-color="#ddcbcb"/>
      <stop offset=".36" stop-color="#ffc776"/>
      <stop offset="1" stop-color="#2164aa"/>
    </linearGradient>
    <linearGradient id="linear-gradient-6" x1="589.21" y1="-820.44" x2="589.21" y2="-761.57" gradientTransform="translate(0 891.16)" gradientUnits="userSpaceOnUse">
      <stop offset="0" stop-color="#ddcbcb"/>
      <stop offset=".36" stop-color="#ffc776"/>
      <stop offset="1" stop-color="#1868b8"/>
    </linearGradient>
    <linearGradient id="linear-gradient-7" x1="695.9" y1="-841.49" x2="695.9" y2="-784.69" gradientTransform="translate(0 891.16)" gradientUnits="userSpaceOnUse">
      <stop offset="0" stop-color="#ddcbcb"/>
      <stop offset=".36" stop-color="#ffc776"/>
      <stop offset="1" stop-color="#1d77cd"/>
    </linearGradient>
    <linearGradient id="linear-gradient-8" x1="205.21" y1="-759.08" x2="205.21" y2="-693.33" gradientTransform="translate(0 891.16)" gradientUnits="userSpaceOnUse">
      <stop offset="0" stop-color="#ddcbcb"/>
      <stop offset=".36" stop-color="#ffc776"/>
      <stop offset="1" stop-color="#12417d"/>
    </linearGradient>
  </defs>
  <path class="cls-8" d="M2.4,271.64c63.1-4.98,104.07-15.11,129.28-25.05,68.13-26.88,68.71-54.56,139.29-75.3,45.94-13.51,89.82-14.74,116.57-15.51,96.12-2.72,113.91,20.35,177.6,11.79,43.87-5.9,73.81-22.02,128.58-51.47,45.79-24.64,53.37-36.06,90.42-48.38,42.29-14.06,85.29-16.58,114.41-16.59v220.72l-896.15-.21"/>
  <path class="cls-1" d="M191.77,29.34h-53.27v1.4h53.27v38.75h-53.27v1.4h53.27v38.75h-53.27v1.4h53.27v38.75h-53.27v1.4h53.27v38.75h-53.27v1.4h53.27v38.75h-53.27v1.4h53.27v37.9h1.92v-37.9h53.16v37.9h1.92v-37.9h53.16v37.9h1.92v-37.9h53.17v37.9h1.92v-37.9h53.16v37.9h1.92v-37.9h53.16v37.9h1.92v-37.9h53.17v37.9h1.91v-37.9h53.17v37.9h1.92v-37.9h53.05v38.6h1.91v-38.6h53.17v38.6h1.92v-38.6h53.16v38.6h1.92v-38.6h53.16v38.6h1.92v-38.6h53.17v38.6h1.91v-38.6h53.17v38.6h1.92v-38.6h6.07v-1.4h-6.07v-38.75h6.07v-1.4h-6.07v-38.75h6.07v-1.4h-6.07v-38.75h6.07v-1.4h-6.07v-38.75h6.07v-1.4h-6.07V30.74h6.07v-1.4h-6.07M852.66,29.34h-53.17M687.4,109.65h-53.17v-38.75h53.17v38.75ZM689.31,70.9h53.17v38.75h-53.17v-38.75ZM632.31,109.65h-53.05v-38.75h53.05v38.75ZM577.33,109.65h-53.16v-38.75h53.16v38.75ZM522.25,109.65h-53.16v-38.75h53.16v38.75ZM467.17,109.65h-53.17v-38.75h53.17v38.75ZM412.07,109.65h-53.16v-38.75h53.16v38.75ZM356.99,109.65h-53.16v-38.75h53.16v38.75ZM356.99,111.05v38.75h-53.16v-38.75h53.16ZM358.91,111.05h53.16v38.75h-53.16v-38.75h0ZM413.99,111.05h53.17v38.75h-53.17v-38.75h0ZM469.09,111.05h53.16v38.75h-53.16v-38.75h0ZM524.17,111.05h53.16v38.75h-53.16v-38.75h0ZM579.25,111.05h53.05v38.75h-53.05v-38.75h0ZM634.23,111.05h53.17v38.75h-53.17v-38.75h0ZM689.31,111.05h53.17v38.75h-53.17v-38.75h0ZM744.4,111.05h53.16v38.75h-53.16v-38.75h0ZM744.4,109.65v-38.75h53.16v38.75h-53.16ZM744.4,69.49V30.74h53.16v38.75h-53.16ZM742.48,69.49h-53.17V30.74h53.17v38.75ZM687.4,69.49h-53.17V30.74h53.17v38.75ZM632.31,69.49h-53.05V30.74h53.05v38.75ZM577.33,69.49h-53.16V30.74h53.16v38.75ZM522.25,69.49h-53.16V30.74h53.16v38.75ZM467.17,69.49h-53.17V30.74h53.17v38.75ZM412.07,69.49h-53.16V30.74h53.16v38.75ZM356.99,69.49h-53.16V30.74h53.16v38.75ZM301.91,69.49h-53.16V30.74h53.16v38.75ZM301.91,70.9v38.75h-53.16v-38.75h53.16ZM301.91,111.05v38.75h-53.16v-38.75h53.16ZM301.91,151.2v38.75h-53.16v-38.75h53.16ZM303.83,151.2h53.16v38.75h-53.16v-38.75ZM358.91,151.2h53.16v38.75h-53.16v-38.75ZM413.99,151.2h53.17v38.75h-53.17v-38.75ZM469.09,151.2h53.16v38.75h-53.16v-38.75ZM524.17,151.2h53.16v38.75h-53.16v-38.75ZM579.25,151.2h53.05v38.75h-53.05v-38.75ZM634.23,151.2h53.17v38.75h-53.17v-38.75ZM689.31,151.2h53.17v38.75h-53.17v-38.75ZM744.4,151.2h53.16v38.75h-53.16v-38.75ZM799.49,151.2h53.17v38.75h-53.17v-38.75ZM799.49,149.8v-38.75h53.17v38.75h-53.17ZM799.49,109.65v-38.75h53.17v38.75h-53.17ZM799.49,69.49V30.74h53.17v38.75h-53.17ZM797.57,29.34h-53.16M742.48,29.34h-53.17M687.4,29.34h-53.17M632.31,29.34h-53.05M577.33,29.34h-53.16M522.25,29.34h-53.16M467.17,29.34h-53.17M412.07,29.34h-53.16M356.99,29.34h-53.16M301.91,29.34h-53.16M246.81,29.34h-53.16M193.65,30.74h53.16v38.75h-53.16V30.74ZM193.65,70.9h53.16v38.75h-53.16v-38.75ZM193.65,111.05h53.16v38.75h-53.16v-38.75h0ZM193.65,151.2h53.16v38.75h-53.16v-38.75ZM193.65,230.11v-38.75h53.16v38.75h-53.16ZM248.74,230.11v-38.75h53.16v38.75h-53.16ZM303.83,230.11v-38.75h53.16v38.75h-53.16ZM358.91,230.11v-38.75h53.16v38.75h-53.16ZM413.99,230.11v-38.75h53.17v38.75h-53.17ZM469.09,230.11v-38.75h53.16v38.75h-53.16ZM524.17,230.11v-38.75h53.16v38.75h-53.16ZM579.25,230.11v-38.75h53.05v38.75h-53.05ZM634.23,230.11v-38.75h53.17v38.75h-53.17ZM689.31,230.11v-38.75h53.17v38.75h-53.17ZM744.4,230.11v-38.75h53.16v38.75h-53.16ZM799.49,230.11v-38.75h53.17v38.75h-53.17ZM907.74,230.11h-53.17v-38.75h53.17v38.75ZM907.74,189.95h-53.17v-38.75h53.17v38.75ZM907.74,149.8h-53.17v-38.75h53.17v38.75ZM907.74,109.65h-53.17v-38.75h53.17v38.75ZM907.74,69.49h-53.17V30.74h53.17v38.75ZM907.74,29.34h-53.17"/>
  <path class="cls-10" d="M-.68,273.93c63.1-4.98,104.08-17.4,129.29-27.34,68.13-26.88,68.71-54.56,139.29-75.3,45.94-13.51,89.83-14.74,116.58-15.51,96.12-2.72,113.9,20.35,177.6,11.79,43.87-5.9,73.8-22.02,128.57-51.47,45.36-24.4,52.82-36.11,90.43-48.38,40.41-13.18,81.71-15.95,111.14-16.12"/>
  <g class="cls-11">
    <path class="cls-7" d="M894.23,56.31c-14.57-.52-29.31-.2-43.88,1.06-14.58,1.22-28.96,3.43-42.88,6.44-13.96,3-27.35,6.97-40.02,11.65-12.66,4.71-24.53,10.21-35.43,16.36,9.91-6.69,20.99-12.85,33.1-18.29,12.13-5.42,25.22-10.21,39.18-14.06,13.92-3.87,28.61-6.97,43.76-9.06,15.15-2.12,30.74-3.29,46.42-3.54,4.47-.08,8.2,1.98,8.33,4.59s-3.39,4.79-7.86,4.86h-.72Z"/>
  </g>
  <path class="cls-3" d="M356.41,102.16v43.6"/>
  <path class="cls-4" d="M475.21,95.26v49.31"/>
  <path class="cls-6" d="M589.21,70.72v58.87"/>
  <path class="cls-2" d="M695.9,49.67v56.8"/>
  <path class="cls-5" d="M205.21,132.08v65.75"/>
  <path class="cls-9" d="M149.85,102.09v8.64h-1.24v-6.23c0-.12.02-.23.03-.35l-2.78,5.13c-.11.21-.27.32-.5.32h-.2c-.23,0-.39-.11-.5-.32l-2.82-5.14c.01.12.02.23.02.35s.01.22.01.32v5.92h-1.24v-8.64h1.05c.12,0,.22.01.29.04.07.02.13.09.19.2l2.77,5.02c.06.12.12.24.17.36.06.12.11.24.15.37.05-.13.1-.25.15-.38.06-.13.11-.25.17-.37l2.73-5.01c.06-.11.12-.18.19-.2s.16-.04.29-.04h1.07ZM152.91,104.6v6.12h-1.29v-6.12h1.29ZM153.12,102.76c0,.12-.02.23-.07.33-.04.1-.11.2-.19.28s-.17.14-.28.19c-.1.04-.22.07-.34.07s-.23-.02-.33-.07c-.1-.05-.19-.11-.26-.19-.08-.08-.14-.17-.19-.28-.04-.1-.07-.21-.07-.33s.02-.23.07-.34c.05-.1.11-.19.19-.27.08-.08.16-.14.26-.19.1-.05.21-.07.33-.07s.23.02.34.07c.11.04.2.11.28.19s.14.17.19.27.07.22.07.34ZM158.18,105.71c-.03.06-.07.1-.11.12-.04.02-.09.04-.15.04-.07,0-.14-.02-.22-.06-.08-.04-.17-.09-.28-.14-.11-.05-.24-.1-.38-.14s-.31-.07-.51-.07c-.16,0-.31.02-.44.06s-.24.09-.33.16c-.09.07-.16.15-.2.25-.05.09-.07.19-.07.3,0,.14.04.26.13.36s.2.18.35.25c.14.07.31.13.49.19.18.06.37.12.56.18s.38.14.56.22.35.19.49.31c.14.12.26.27.35.44.09.17.13.38.13.63,0,.29-.05.55-.16.8-.1.24-.26.46-.46.64s-.45.32-.75.42-.64.15-1.02.15c-.21,0-.42-.02-.62-.06s-.38-.09-.56-.15c-.18-.07-.34-.15-.5-.24-.15-.09-.29-.19-.41-.3l.3-.49c.04-.06.08-.11.13-.14.06-.04.12-.05.2-.05s.17.03.25.08.18.11.29.17.25.12.4.18c.16.05.35.08.58.08.19,0,.36-.02.5-.07s.26-.11.35-.19c.09-.08.16-.17.2-.27.04-.1.07-.21.07-.33,0-.16-.04-.28-.13-.38s-.21-.19-.35-.26c-.14-.07-.31-.14-.5-.19-.18-.06-.37-.12-.56-.18s-.38-.14-.57-.22c-.18-.08-.35-.19-.5-.32-.14-.13-.26-.29-.35-.47-.09-.19-.13-.42-.13-.68,0-.24.05-.48.14-.7.1-.22.24-.41.43-.58s.43-.3.7-.4c.28-.1.6-.15.97-.15.41,0,.79.07,1.12.2.34.13.62.31.85.54l-.29.47h.01ZM163.42,105.71c-.03.06-.07.1-.11.12-.04.02-.09.04-.15.04-.07,0-.14-.02-.22-.06-.08-.04-.17-.09-.28-.14-.11-.05-.24-.1-.38-.14s-.31-.07-.51-.07c-.16,0-.31.02-.44.06s-.24.09-.33.16c-.09.07-.16.15-.2.25-.05.09-.07.19-.07.3,0,.14.04.26.13.36s.2.18.35.25c.14.07.31.13.49.19s.37.12.56.18.38.14.56.22.35.19.49.31c.14.12.26.27.35.44.09.17.13.38.13.63,0,.29-.05.55-.16.8-.1.24-.26.46-.46.64s-.45.32-.75.42-.64.15-1.02.15c-.21,0-.42-.02-.62-.06s-.38-.09-.56-.15c-.18-.07-.34-.15-.5-.24-.15-.09-.29-.19-.41-.3l.3-.49c.04-.06.08-.11.13-.14.06-.04.12-.05.2-.05s.17.03.25.08.18.11.29.17.25.12.4.18c.16.05.35.08.58.08.19,0,.36-.02.5-.07s.26-.11.35-.19c.09-.08.16-.17.2-.27.04-.1.07-.21.07-.33,0-.16-.04-.28-.13-.38s-.21-.19-.35-.26c-.14-.07-.31-.14-.5-.19-.18-.06-.37-.12-.56-.18s-.38-.14-.57-.22c-.18-.08-.35-.19-.5-.32-.14-.13-.26-.29-.35-.47-.09-.19-.13-.42-.13-.68,0-.24.05-.48.14-.7.1-.22.24-.41.43-.58s.43-.3.7-.4c.28-.1.6-.15.97-.15.41,0,.79.07,1.12.2.34.13.62.31.85.54l-.29.47h.01ZM166.35,104.6v6.12h-1.29v-6.12h1.29ZM166.56,102.76c0,.12-.02.23-.07.33-.04.1-.11.2-.19.28s-.17.14-.28.19c-.1.04-.22.07-.34.07s-.23-.02-.33-.07c-.1-.05-.19-.11-.26-.19-.08-.08-.14-.17-.19-.28-.04-.1-.07-.21-.07-.33s.02-.23.07-.34c.05-.1.11-.19.19-.27.08-.08.16-.14.26-.19.1-.05.21-.07.33-.07s.23.02.34.07c.11.04.2.11.28.19s.14.17.19.27.07.22.07.34ZM170.61,104.51c.45,0,.86.07,1.22.22.37.15.68.36.94.63s.46.6.6.99.21.82.21,1.31-.07.92-.21,1.31-.34.72-.6,1c-.26.27-.57.48-.94.63-.36.15-.77.22-1.22.22s-.87-.07-1.24-.22c-.36-.15-.68-.36-.94-.63-.26-.28-.46-.61-.6-1s-.21-.82-.21-1.31.07-.92.21-1.31.34-.72.6-.99c.26-.27.57-.48.94-.63.37-.15.78-.22,1.24-.22ZM170.61,109.81c.55,0,.96-.18,1.23-.55.27-.37.41-.9.41-1.59s-.14-1.22-.41-1.59c-.27-.38-.68-.56-1.23-.56s-.98.19-1.25.56c-.27.37-.41.9-.41,1.59s.14,1.22.41,1.59c.27.37.69.55,1.25.55ZM176.03,105.41c.13-.14.27-.26.41-.37.14-.11.3-.21.46-.29.16-.08.33-.14.51-.19s.38-.07.59-.07c.34,0,.63.06.88.17.26.11.47.27.64.47.18.2.31.45.4.74.09.28.13.6.13.94v3.89h-1.28v-3.89c0-.41-.1-.73-.29-.96-.19-.23-.48-.34-.86-.34-.29,0-.56.07-.8.2s-.47.31-.69.54v4.46h-1.29v-6.12h.78c.18,0,.29.08.34.25l.09.56h-.02ZM184.95,110.72v-5.09l-.6-.08c-.1-.02-.18-.06-.25-.11-.06-.05-.09-.13-.09-.22v-.53h.94v-.52c0-.35.05-.66.15-.94.1-.28.25-.51.44-.7.19-.19.42-.34.7-.44.27-.1.58-.16.92-.16.14,0,.27.01.4.03s.25.05.37.09l-.02.65c0,.11-.06.17-.16.19-.1.02-.22.03-.37.03-.18,0-.34.02-.49.07-.14.04-.27.11-.37.21s-.18.23-.23.4c-.05.16-.08.37-.08.61v.47h1.67v.93h-1.63v5.11h-1.3ZM191.26,104.51c.45,0,.86.07,1.22.22.37.15.68.36.94.63s.46.6.6.99c.14.39.21.82.21,1.31s-.07.92-.21,1.31-.34.72-.6,1c-.26.27-.57.48-.94.63-.36.15-.77.22-1.22.22s-.87-.07-1.24-.22c-.36-.15-.68-.36-.94-.63-.26-.28-.46-.61-.6-1s-.21-.82-.21-1.31.07-.92.21-1.31.34-.72.6-.99c.26-.27.57-.48.94-.63.37-.15.78-.22,1.24-.22ZM191.26,109.81c.55,0,.96-.18,1.23-.55.27-.37.41-.9.41-1.59s-.14-1.22-.41-1.59c-.27-.38-.68-.56-1.23-.56s-.98.19-1.25.56c-.27.37-.41.9-.41,1.59s.14,1.22.41,1.59c.27.37.69.55,1.25.55ZM196.69,105.74c.19-.39.42-.69.7-.91.27-.22.6-.34.98-.34.13,0,.26.02.37.05.12.03.22.07.31.13l-.09.97c-.02.07-.04.12-.08.14-.03.02-.08.04-.13.04-.06,0-.15,0-.26-.03-.11-.02-.23-.04-.35-.04-.18,0-.34.03-.48.08-.14.05-.26.13-.37.23-.11.1-.2.22-.29.37-.08.14-.16.31-.23.49v3.8h-1.29v-6.12h.75c.14,0,.23.03.28.08.05.05.09.13.11.26l.08.8h-.01ZM207.05,107.49l-1.19-3.16c-.1-.24-.19-.55-.29-.93-.04.19-.09.36-.14.52-.05.16-.1.29-.14.41l-1.19,3.15h2.96-.01ZM209.7,110.72h-1.09c-.12,0-.22-.03-.3-.09s-.13-.14-.17-.23l-.72-1.91h-3.72l-.72,1.91c-.03.08-.09.15-.17.22s-.18.1-.3.1h-1.09l3.43-8.64h1.42l3.43,8.64h0ZM214.25,106.11c-.18-.23-.38-.39-.59-.49-.22-.09-.45-.14-.7-.14-.5,0-.9.19-1.18.56-.28.37-.43.91-.43,1.64,0,.38.03.7.1.97.06.26.16.48.28.65s.27.29.44.37.37.11.58.11c.33,0,.61-.07.85-.21s.46-.35.67-.61v-2.85h-.02ZM215.54,101.84v8.88h-.78c-.17,0-.28-.08-.33-.25l-.11-.67c-.26.3-.55.54-.88.73-.32.18-.7.28-1.13.28-.34,0-.66-.07-.94-.2-.28-.14-.52-.34-.72-.61s-.36-.59-.47-.98c-.11-.39-.16-.84-.16-1.34,0-.46.06-.88.18-1.27s.3-.72.53-1.01c.23-.29.5-.51.83-.67.33-.16.69-.25,1.1-.25.36,0,.67.06.92.17s.48.27.68.47v-3.29h1.29-.01ZM222.5,104.6l-2.46,6.12h-1.16l-2.46-6.12h1.06c.1,0,.18.03.25.08s.11.11.13.17l1.36,3.56c.06.17.11.33.15.5.04.16.08.33.11.5.03-.17.07-.33.11-.49.05-.16.1-.33.16-.5l1.38-3.56c.02-.07.07-.13.13-.18s.14-.07.23-.07h1.01ZM226.52,108.05c-.46.02-.85.05-1.16.11-.32.06-.57.13-.77.22-.2.09-.34.19-.43.32-.08.12-.13.26-.13.41s.02.27.07.37c.05.1.11.18.19.25.08.06.18.11.29.14s.23.04.37.04c.34,0,.62-.06.86-.19.24-.13.48-.31.71-.55v-1.13h0ZM223.1,105.46c.69-.64,1.52-.97,2.47-.97.35,0,.66.06.94.17s.51.27.69.48c.19.21.33.46.43.74s.15.6.15.95v3.89h-.58c-.12,0-.22-.02-.28-.05-.06-.04-.12-.12-.16-.23l-.13-.5c-.16.14-.31.27-.46.38s-.31.2-.47.28-.33.13-.52.17c-.18.04-.39.06-.61.06-.25,0-.48-.03-.7-.1-.21-.07-.4-.17-.55-.31-.16-.14-.28-.31-.37-.52-.09-.2-.13-.44-.13-.72,0-.24.06-.47.19-.69s.34-.42.62-.6c.29-.18.67-.33,1.15-.44.48-.12,1.06-.18,1.76-.2v-.41c0-.44-.09-.77-.28-.98-.19-.22-.46-.32-.83-.32-.25,0-.46.03-.62.1-.17.06-.31.13-.44.2-.12.07-.23.14-.33.2-.1.06-.2.09-.31.09-.09,0-.16-.02-.23-.07-.06-.05-.11-.11-.15-.17l-.23-.42h-.02ZM230.49,105.41c.13-.14.27-.26.41-.37.14-.11.3-.21.46-.29s.33-.14.51-.19.38-.07.59-.07c.34,0,.63.06.88.17.26.11.47.27.64.47.18.2.31.45.4.74.09.28.13.6.13.94v3.89h-1.28v-3.89c0-.41-.1-.73-.29-.96-.19-.23-.48-.34-.86-.34-.29,0-.56.07-.8.2s-.47.31-.69.54v4.46h-1.29v-6.12h.78c.18,0,.29.08.34.25l.09.56h-.02ZM240.33,105.81c-.04.05-.08.09-.11.12-.04.03-.09.04-.16.04s-.14-.02-.22-.07c-.07-.05-.16-.1-.26-.16-.1-.06-.22-.11-.37-.16-.14-.05-.32-.07-.54-.07-.28,0-.53.05-.74.15-.21.1-.38.24-.53.43-.14.18-.25.41-.32.68-.07.26-.1.56-.1.89s.04.65.11.92c.08.27.18.49.32.68.14.18.32.32.52.42s.43.14.68.14.45-.03.61-.09.29-.13.39-.2c.1-.07.19-.14.26-.2.08-.06.16-.09.24-.09.1,0,.18.04.24.12l.37.47c-.15.18-.31.33-.49.46-.18.12-.37.23-.57.31-.2.08-.41.13-.62.16-.22.04-.43.05-.65.05-.38,0-.74-.07-1.07-.21s-.62-.35-.86-.62c-.24-.27-.44-.6-.58-.99s-.21-.84-.21-1.34c0-.45.06-.87.19-1.25.13-.39.31-.72.56-1s.55-.5.92-.65c.36-.16.78-.24,1.26-.24.44,0,.83.07,1.17.22.34.14.64.35.91.61l-.34.47h0ZM245.68,106.97c0-.22-.03-.42-.1-.6-.06-.19-.15-.35-.27-.49s-.27-.25-.45-.32c-.18-.08-.38-.12-.61-.12-.47,0-.84.13-1.1.4s-.44.64-.51,1.13h3.04ZM242.6,107.77c.02.35.07.65.16.91.09.25.21.46.37.63s.34.29.55.38c.22.08.46.12.72.12s.47-.03.65-.08c.18-.06.34-.12.48-.19.14-.07.25-.14.35-.19.1-.06.18-.09.26-.09.1,0,.18.04.24.12l.37.47c-.15.18-.32.33-.52.46-.19.12-.4.23-.61.31-.22.08-.44.13-.67.16-.23.04-.45.05-.67.05-.42,0-.82-.07-1.18-.21s-.67-.35-.94-.63c-.26-.28-.47-.62-.62-1.03-.15-.41-.22-.88-.22-1.41,0-.42.07-.82.2-1.19.14-.37.33-.69.58-.96s.56-.49.91-.64c.36-.16.77-.24,1.22-.24.38,0,.72.06,1.04.19.32.12.6.3.83.53s.41.53.54.87c.13.34.2.73.2,1.16,0,.2-.02.33-.07.4s-.12.1-.24.1h-3.93,0ZM248.04,110.72v-6.12h.78c.18,0,.29.08.34.25l.08.53c.11-.13.23-.24.35-.35s.25-.2.38-.28c.14-.08.29-.14.44-.19.16-.04.33-.07.52-.07.2,0,.38.03.54.08s.31.14.43.24c.13.1.24.23.33.38.09.15.17.31.23.5.09-.21.21-.39.35-.55.14-.15.3-.28.47-.37s.35-.17.55-.21c.2-.05.39-.07.59-.07.33,0,.62.05.88.16.26.1.48.26.65.46.18.2.32.44.41.73.09.29.14.62.14.98v3.89h-1.29v-3.89c0-.43-.09-.76-.28-.97-.18-.22-.46-.33-.82-.33-.16,0-.32.03-.46.08-.14.06-.27.14-.38.25s-.19.24-.26.41c-.06.16-.09.35-.09.56v3.89h-1.29v-3.89c0-.45-.09-.78-.27-.98-.18-.21-.44-.32-.79-.32-.24,0-.46.06-.67.19-.2.12-.39.29-.56.5v4.51h-1.3ZM262.02,106.97c0-.22-.03-.42-.1-.6-.06-.19-.15-.35-.27-.49s-.27-.25-.45-.32c-.18-.08-.38-.12-.61-.12-.47,0-.84.13-1.1.4s-.44.64-.51,1.13h3.04ZM258.94,107.77c.02.35.07.65.16.91.09.25.21.46.37.63s.34.29.55.38c.22.08.46.12.72.12s.47-.03.65-.08c.18-.06.34-.12.48-.19.14-.07.25-.14.35-.19.1-.06.18-.09.26-.09.1,0,.18.04.24.12l.37.47c-.15.18-.32.33-.52.46-.19.12-.4.23-.61.31-.22.08-.44.13-.67.16-.23.04-.45.05-.67.05-.42,0-.82-.07-1.18-.21s-.67-.35-.94-.63c-.26-.28-.47-.62-.62-1.03-.15-.41-.22-.88-.22-1.41,0-.42.07-.82.2-1.19.14-.37.33-.69.58-.96s.56-.49.91-.64c.36-.16.77-.24,1.22-.24.38,0,.72.06,1.04.19.32.12.6.3.83.53s.41.53.54.87c.13.34.2.73.2,1.16,0,.2-.02.33-.07.4s-.12.1-.24.1h-3.93,0ZM265.58,105.41c.13-.14.27-.26.41-.37.14-.11.3-.21.46-.29.16-.08.33-.14.51-.19s.38-.07.59-.07c.34,0,.63.06.88.17.26.11.47.27.64.47.18.2.31.45.4.74.09.28.13.6.13.94v3.89h-1.28v-3.89c0-.41-.1-.73-.29-.96-.19-.23-.48-.34-.86-.34-.29,0-.56.07-.8.2s-.47.31-.69.54v4.46h-1.29v-6.12h.78c.18,0,.29.08.34.25l.09.56h-.02ZM272.99,110.82c-.51,0-.9-.14-1.18-.43-.27-.29-.41-.69-.41-1.21v-3.56h-.67c-.07,0-.13-.02-.19-.07-.05-.05-.08-.12-.08-.21v-.52l.99-.14.28-1.77c.02-.07.05-.12.1-.16s.11-.07.19-.07h.66v2.01h1.7v.93h-1.7v3.47c0,.22.05.39.16.5.11.12.25.17.43.17.1,0,.19-.01.26-.04s.13-.06.19-.08c.05-.03.1-.06.13-.08.04-.03.08-.04.11-.04.07,0,.13.04.17.12l.38.63c-.2.18-.44.31-.71.41-.27.09-.55.14-.84.14h.03ZM279.74,104.6v6.12h-1.29v-6.12h1.29ZM279.95,102.76c0,.12-.02.23-.07.33-.04.1-.11.2-.19.28s-.17.14-.28.19c-.1.04-.22.07-.34.07s-.23-.02-.33-.07c-.1-.05-.19-.11-.26-.19-.08-.08-.14-.17-.19-.28-.04-.1-.07-.21-.07-.33s.02-.23.07-.34c.05-.1.11-.19.19-.27.08-.08.16-.14.26-.19.1-.05.21-.07.33-.07s.23.02.34.07c.11.04.2.11.28.19s.14.17.19.27.07.22.07.34ZM282.56,105.41c.13-.14.27-.26.41-.37.14-.11.3-.21.46-.29s.33-.14.51-.19.38-.07.59-.07c.34,0,.63.06.88.17.26.11.47.27.64.47.18.2.31.45.4.74.09.28.13.6.13.94v3.89h-1.28v-3.89c0-.41-.1-.73-.29-.96-.19-.23-.48-.34-.86-.34-.29,0-.56.07-.8.2s-.47.31-.69.54v4.46h-1.29v-6.12h.78c.18,0,.29.08.34.25l.09.56h-.02ZM147.81,116.09v8.64h-1.4v-3.85h-4.34v3.85h-1.41v-8.64h1.41v3.78h4.34v-3.78h1.4ZM150.88,118.6v6.12h-1.29v-6.12h1.29ZM151.1,116.76c0,.12-.02.23-.07.33-.04.1-.11.2-.19.28s-.17.14-.28.19c-.1.04-.22.07-.34.07s-.23-.02-.33-.07c-.1-.05-.19-.11-.26-.19-.08-.08-.14-.17-.19-.28-.04-.1-.07-.21-.07-.33s.02-.23.07-.34c.05-.1.11-.19.19-.27.08-.08.16-.14.26-.19.1-.05.21-.07.33-.07s.23.02.34.07c.11.04.2.11.28.19s.14.17.19.27.07.22.07.34ZM154.68,121.61c.4,0,.7-.1.9-.31.2-.2.3-.47.3-.8s-.1-.6-.3-.8c-.2-.2-.5-.29-.9-.29s-.7.1-.9.29c-.2.2-.3.46-.3.8,0,.16.03.31.08.44.05.14.13.25.23.35s.22.17.37.23c.15.05.33.08.52.08h0ZM156.48,125.03c0-.14-.04-.24-.12-.32s-.18-.15-.31-.19c-.13-.05-.29-.08-.46-.1-.18-.02-.36-.04-.56-.05s-.4-.02-.61-.03c-.2-.01-.4-.03-.59-.06-.19.1-.35.22-.47.36s-.18.3-.18.49c0,.12.03.23.09.34.06.1.16.19.29.27.13.08.3.14.5.18s.45.07.73.07c.57,0,.99-.09,1.28-.26.28-.18.43-.4.43-.68l-.02-.02ZM157.77,118.83v.48c0,.16-.1.26-.29.29l-.61.1c.1.23.16.49.16.77,0,.3-.06.57-.18.82-.12.24-.28.45-.49.62-.21.17-.46.3-.74.4-.29.09-.6.14-.94.14-.13,0-.25,0-.38-.02-.12-.02-.24-.04-.35-.06-.12.07-.2.14-.26.22s-.08.15-.08.23c0,.13.06.23.17.29.12.06.27.11.46.14s.41.05.65.05.49.02.74.04c.25.02.5.05.74.1.24.04.46.12.65.23.19.1.35.25.46.43.12.18.17.41.17.7,0,.26-.07.52-.2.77s-.32.48-.58.67c-.25.2-.55.35-.91.47s-.77.18-1.23.18-.85-.04-1.19-.13-.62-.21-.85-.36c-.22-.15-.39-.32-.5-.52s-.16-.4-.16-.61c0-.29.09-.53.27-.74.18-.2.43-.36.74-.48-.17-.08-.3-.19-.41-.33-.1-.14-.15-.32-.15-.55,0-.18.07-.37.2-.56.13-.2.33-.36.59-.5-.3-.17-.54-.39-.72-.67s-.26-.61-.26-.98c0-.3.06-.58.17-.82.12-.24.29-.45.5-.62.21-.17.46-.3.75-.4.29-.09.61-.14.95-.14.53,0,.99.11,1.38.33h1.71l.02.02ZM160.08,119.33c.25-.25.53-.45.83-.59.3-.15.65-.23,1.05-.23.34,0,.63.06.88.17.26.11.47.27.64.47.18.2.31.45.4.74.09.28.13.6.13.94v3.89h-1.28v-3.89c0-.41-.1-.73-.29-.96-.19-.23-.48-.34-.86-.34-.29,0-.56.07-.8.2s-.47.31-.69.54v4.46h-1.29v-8.88h1.29v3.49h-.01ZM165.45,120.57h3.04v1.09h-3.04v-1.09ZM171.33,118.6v6.12h-1.29v-6.12h1.29ZM171.54,116.76c0,.12-.02.23-.07.33-.04.1-.11.2-.19.28s-.17.14-.28.19c-.1.04-.22.07-.34.07s-.23-.02-.33-.07c-.1-.05-.19-.11-.26-.19-.08-.08-.14-.17-.19-.28-.04-.1-.07-.21-.07-.33s.02-.23.07-.34c.05-.1.11-.19.19-.27.08-.08.16-.14.26-.19.1-.05.21-.07.33-.07s.23.02.34.07c.11.04.2.11.28.19s.14.17.19.27.07.22.07.34ZM172.95,124.72v-6.12h.78c.18,0,.29.08.34.25l.08.53c.11-.13.23-.24.35-.35s.25-.2.38-.28c.14-.08.29-.14.44-.19.16-.04.33-.07.52-.07.2,0,.38.03.54.08s.31.14.43.24c.13.1.24.23.33.38.09.15.17.31.23.5.09-.21.21-.39.35-.55.14-.15.3-.28.47-.37s.35-.17.55-.21c.2-.05.39-.07.59-.07.33,0,.62.05.88.16.26.1.48.26.65.46.18.2.32.44.41.73.09.29.14.62.14.98v3.89h-1.29v-3.89c0-.43-.09-.76-.28-.97-.18-.22-.46-.33-.82-.33-.16,0-.32.03-.46.08-.14.06-.27.14-.38.25s-.19.24-.26.41c-.06.16-.09.35-.09.56v3.89h-1.29v-3.89c0-.45-.09-.78-.27-.98-.18-.21-.44-.32-.79-.32-.24,0-.46.06-.67.19-.2.12-.39.29-.56.5v4.51h-1.3ZM184.2,123.19c.18.23.38.4.59.49.22.09.45.14.71.14.5,0,.9-.18,1.18-.55.28-.37.43-.92.43-1.64,0-.38-.03-.7-.1-.96-.06-.27-.16-.49-.28-.65s-.27-.29-.44-.37-.37-.11-.58-.11c-.33,0-.61.07-.85.22-.24.14-.46.34-.66.61v2.84-.02ZM184.13,119.49c.26-.3.55-.54.87-.73.33-.18.71-.28,1.14-.28.34,0,.66.07.94.21s.52.34.72.6c.2.26.35.59.46.98.11.39.17.83.17,1.34,0,.45-.06.87-.19,1.27-.12.39-.29.73-.52,1.01-.23.28-.5.51-.83.67-.32.16-.69.24-1.1.24-.36,0-.67-.06-.92-.17-.25-.12-.47-.28-.68-.48v2.6h-1.29v-8.15h.78c.18,0,.29.08.34.25l.11.64h0ZM192.95,122.05c-.46.02-.85.05-1.16.11-.32.06-.57.13-.77.22-.2.09-.34.19-.43.32-.08.12-.13.26-.13.41s.02.27.07.37c.05.1.11.18.19.25.08.06.18.11.29.14s.23.04.37.04c.34,0,.62-.06.86-.19.24-.13.48-.31.71-.55v-1.13h0ZM189.53,119.46c.69-.64,1.52-.97,2.47-.97.35,0,.66.06.94.17s.51.27.69.48c.19.21.33.46.43.74s.15.6.15.95v3.89h-.58c-.12,0-.22-.02-.28-.05-.06-.04-.12-.12-.16-.23l-.13-.5c-.16.14-.31.27-.46.38s-.31.2-.47.28-.33.13-.52.17c-.18.04-.39.06-.61.06-.25,0-.48-.03-.7-.1-.21-.07-.4-.17-.55-.31-.16-.14-.28-.31-.37-.52-.09-.2-.13-.44-.13-.72,0-.24.06-.47.19-.69s.34-.42.62-.6c.29-.18.67-.33,1.15-.44.48-.12,1.06-.18,1.76-.2v-.41c0-.44-.09-.77-.28-.98-.19-.22-.46-.32-.83-.32-.25,0-.46.03-.62.1-.17.06-.31.13-.44.2-.12.07-.23.14-.33.2-.1.06-.2.09-.31.09-.09,0-.16-.02-.23-.07-.06-.05-.11-.11-.15-.17l-.23-.42h-.02ZM200.04,119.81c-.04.05-.08.09-.11.12-.04.03-.09.04-.16.04s-.14-.02-.22-.07c-.07-.05-.16-.1-.26-.16-.1-.06-.22-.11-.37-.16-.14-.05-.32-.07-.54-.07-.28,0-.53.05-.74.15-.21.1-.38.24-.53.43-.14.18-.25.41-.32.68-.07.26-.1.56-.1.89s.04.65.11.92c.08.27.18.49.32.68.14.18.32.32.52.42s.43.14.68.14.45-.03.61-.09.29-.13.39-.2c.1-.07.19-.14.26-.2.08-.06.16-.09.24-.09.1,0,.18.04.24.12l.37.47c-.15.18-.31.33-.49.46-.18.12-.37.23-.57.31-.2.08-.41.13-.62.16-.22.04-.43.05-.65.05-.38,0-.74-.07-1.07-.21s-.62-.35-.86-.62c-.24-.27-.44-.6-.58-.99s-.21-.84-.21-1.34c0-.45.06-.87.19-1.25.13-.39.31-.72.56-1s.55-.5.92-.65c.36-.16.78-.24,1.26-.24.44,0,.83.07,1.17.22.34.14.64.35.91.61l-.34.47h0ZM203.45,124.82c-.51,0-.9-.14-1.18-.43-.27-.29-.41-.69-.41-1.21v-3.56h-.67c-.07,0-.13-.02-.19-.07-.05-.05-.08-.12-.08-.21v-.52l.99-.14.28-1.77c.02-.07.05-.12.1-.16s.11-.07.19-.07h.66v2.01h1.7v.93h-1.7v3.47c0,.22.05.39.16.5.11.12.25.17.43.17.1,0,.19-.01.26-.04s.13-.06.19-.08c.05-.03.1-.06.13-.08.04-.03.08-.04.11-.04.07,0,.13.04.17.12l.38.63c-.2.18-.44.31-.71.41-.27.09-.55.14-.84.14h.03ZM213.27,121.49l-1.19-3.16c-.1-.24-.19-.55-.29-.93-.04.19-.09.36-.14.52-.05.16-.1.29-.14.41l-1.19,3.15h2.96-.01ZM215.93,124.72h-1.09c-.12,0-.22-.03-.3-.09s-.13-.14-.17-.23l-.72-1.91h-3.72l-.72,1.91c-.03.08-.09.15-.17.22-.08.07-.18.1-.3.1h-1.09l3.43-8.64h1.42l3.43,8.64h0ZM217.89,119.74c.19-.39.42-.69.7-.91.27-.22.6-.34.98-.34.13,0,.26.02.37.05.12.03.22.07.31.13l-.09.97c-.02.07-.04.12-.08.14-.03.02-.08.04-.13.04-.06,0-.15,0-.26-.03-.11-.02-.23-.04-.35-.04-.18,0-.34.03-.48.08-.14.05-.26.13-.37.23-.11.1-.2.22-.29.37-.08.14-.16.31-.23.49v3.8h-1.29v-6.12h.75c.14,0,.23.03.28.08.05.05.09.13.11.26l.08.8h-.01ZM224.9,120.97c0-.22-.03-.42-.1-.6-.06-.19-.15-.35-.27-.49s-.27-.25-.45-.32c-.18-.08-.38-.12-.61-.12-.47,0-.84.13-1.1.4s-.44.64-.51,1.13h3.04ZM221.83,121.77c.02.35.07.65.16.91.09.25.21.46.37.63s.34.29.55.38c.22.08.46.12.72.12s.47-.03.65-.08c.18-.06.34-.12.48-.19.14-.07.25-.14.35-.19.1-.06.18-.09.26-.09.1,0,.18.04.24.12l.37.47c-.15.18-.32.33-.52.46-.19.12-.4.23-.61.31-.22.08-.44.13-.67.16-.23.04-.45.05-.67.05-.42,0-.82-.07-1.18-.21s-.67-.35-.94-.63c-.26-.28-.47-.62-.62-1.03-.15-.41-.22-.88-.22-1.41,0-.42.07-.82.2-1.19.14-.37.33-.69.58-.96s.56-.49.91-.64c.36-.16.77-.24,1.22-.24.38,0,.72.06,1.04.19.32.12.6.3.83.53s.41.53.54.87c.13.34.2.73.2,1.16,0,.2-.02.33-.07.4s-.12.1-.24.1h-3.93,0ZM230.54,122.05c-.46.02-.85.05-1.16.11-.32.06-.57.13-.77.22-.2.09-.34.19-.43.32-.08.12-.13.26-.13.41s.02.27.07.37c.05.1.11.18.19.25.08.06.18.11.29.14s.23.04.37.04c.34,0,.62-.06.86-.19.24-.13.48-.31.71-.55v-1.13h0ZM227.12,119.46c.69-.64,1.52-.97,2.47-.97.35,0,.66.06.94.17s.51.27.69.48c.19.21.33.46.43.74s.15.6.15.95v3.89h-.58c-.12,0-.22-.02-.28-.05-.06-.04-.12-.12-.16-.23l-.13-.5c-.16.14-.31.27-.46.38s-.31.2-.47.28-.33.13-.52.17c-.18.04-.39.06-.61.06-.25,0-.48-.03-.7-.1-.21-.07-.4-.17-.55-.31-.16-.14-.28-.31-.37-.52-.09-.2-.13-.44-.13-.72,0-.24.06-.47.19-.69s.34-.42.62-.6c.29-.18.67-.33,1.15-.44.48-.12,1.06-.18,1.76-.2v-.41c0-.44-.09-.77-.28-.98-.19-.22-.46-.32-.83-.32-.25,0-.46.03-.62.1-.17.06-.31.13-.44.2-.12.07-.23.14-.33.2-.1.06-.2.09-.31.09-.09,0-.16-.02-.23-.07-.06-.05-.11-.11-.15-.17l-.23-.42h-.02ZM236.95,119.71c-.03.06-.07.1-.11.12-.04.02-.09.04-.15.04-.07,0-.14-.02-.22-.06-.08-.04-.17-.09-.28-.14-.11-.05-.24-.1-.38-.14s-.31-.07-.51-.07c-.16,0-.31.02-.44.06s-.24.09-.33.16c-.09.07-.16.15-.2.25-.05.09-.07.19-.07.3,0,.14.04.26.13.36s.2.18.35.25c.14.07.31.13.49.19.18.06.37.12.56.18s.38.14.56.22.35.19.49.31c.14.12.26.27.35.44.09.17.13.38.13.63,0,.29-.05.55-.16.8-.1.24-.26.46-.46.64s-.45.32-.75.42-.64.15-1.02.15c-.21,0-.42-.02-.62-.06s-.38-.09-.56-.15c-.18-.07-.34-.15-.5-.24-.15-.09-.29-.19-.41-.3l.3-.49c.04-.06.08-.11.13-.14.06-.04.12-.05.2-.05s.17.03.25.08.18.11.29.17.25.12.4.18c.16.05.35.08.58.08.19,0,.36-.02.5-.07s.26-.11.35-.19c.09-.08.16-.17.2-.27.04-.1.07-.21.07-.33,0-.16-.04-.28-.13-.38s-.21-.19-.35-.26c-.14-.07-.31-.14-.5-.19-.18-.06-.37-.12-.56-.18s-.38-.14-.57-.22c-.18-.08-.35-.19-.5-.32-.14-.13-.26-.29-.35-.47-.09-.19-.13-.42-.13-.68,0-.24.05-.48.14-.7.1-.22.24-.41.43-.58s.43-.3.7-.4c.28-.1.6-.15.97-.15.41,0,.79.07,1.12.2.34.13.62.31.85.54l-.29.47h.01ZM242.34,120.96c0,.84.1,1.66.31,2.47.21.8.51,1.55.91,2.26.04.07.06.14.07.19s0,.1-.01.14c-.02.04-.04.08-.07.11s-.06.05-.1.08l-.57.35c-.3-.46-.55-.92-.76-1.37-.21-.45-.38-.91-.51-1.37s-.23-.93-.29-1.4c-.06-.48-.09-.96-.09-1.46s.03-.97.09-1.45c.06-.48.16-.94.29-1.4s.3-.92.51-1.38.46-.91.76-1.37l.57.35s.07.05.1.08c.03.03.06.06.07.11.02.04.02.09.01.14s-.03.12-.07.19c-.4.71-.7,1.47-.91,2.27s-.31,1.62-.31,2.46ZM254.22,116.09v8.64h-1.24v-6.23c0-.12.02-.23.03-.35l-2.78,5.13c-.11.21-.27.32-.5.32h-.2c-.23,0-.39-.11-.5-.32l-2.82-5.14c.01.12.02.23.02.35s.01.22.01.32v5.92h-1.24v-8.64h1.05c.12,0,.22.01.29.04.07.02.13.09.19.2l2.77,5.02c.06.12.12.24.17.36.06.12.11.24.15.37.05-.13.1-.25.15-.38.06-.13.11-.25.17-.37l2.73-5.01c.06-.11.12-.18.19-.2s.16-.04.29-.04h1.07ZM260.83,121.49l-1.19-3.16c-.1-.24-.19-.55-.29-.93-.04.19-.09.36-.14.52-.05.16-.1.29-.14.41l-1.19,3.15h2.96-.01ZM263.49,124.72h-1.09c-.12,0-.22-.03-.3-.09s-.13-.14-.17-.23l-.72-1.91h-3.72l-.72,1.91c-.03.08-.09.15-.17.22s-.18.1-.3.1h-1.09l3.43-8.64h1.42l3.43,8.64h0ZM271.65,116.09v8.64h-1.4v-3.85h-4.34v3.85h-1.41v-8.64h1.41v3.78h4.34v-3.78h1.4ZM278.28,121.49l-1.19-3.16c-.1-.24-.19-.55-.29-.93-.04.19-.09.36-.14.52-.05.16-.1.29-.14.41l-1.19,3.15h2.96-.01ZM280.94,124.72h-1.09c-.12,0-.22-.03-.3-.09s-.13-.14-.17-.23l-.72-1.91h-3.72l-.72,1.91c-.03.08-.09.15-.17.22-.08.07-.18.1-.3.1h-1.09l3.43-8.64h1.42l3.43,8.64h0ZM282.57,120.96c0-.84-.1-1.66-.31-2.46s-.51-1.56-.9-2.27c-.04-.07-.06-.14-.07-.19s0-.1,0-.14c.02-.04.04-.08.07-.11s.07-.05.1-.08l.58-.35c.3.46.55.92.76,1.37.21.46.38.92.51,1.38s.23.93.29,1.4.09.95.09,1.45-.03.98-.09,1.46c-.06.47-.16.94-.29,1.4s-.3.92-.51,1.37c-.21.46-.46.91-.76,1.37l-.58-.35s-.07-.05-.1-.08c-.03-.03-.05-.06-.07-.11-.01-.04-.01-.09,0-.14s.03-.12.07-.19c.39-.71.69-1.46.9-2.26s.31-1.63.31-2.47Z"/>
  <path class="cls-9" d="M338.9,73.36c-.04.07-.09.13-.14.16-.05.03-.11.05-.18.05s-.16-.03-.26-.1c-.09-.06-.2-.13-.34-.21s-.3-.15-.49-.22-.41-.1-.67-.1c-.24,0-.45.03-.64.09-.18.06-.33.14-.45.25-.13.11-.22.24-.29.38-.06.14-.09.3-.09.47,0,.22.06.4.18.55.11.14.27.27.45.37.2.1.41.2.66.28.24.08.49.16.74.25.26.09.51.19.75.3.25.11.46.25.65.43.19.17.35.38.46.63.12.25.18.55.18.91,0,.38-.07.74-.2,1.08s-.33.63-.58.88-.55.44-.92.59c-.37.14-.78.22-1.25.22-.28,0-.55-.03-.81-.08s-.51-.13-.75-.22c-.24-.1-.46-.22-.67-.36-.2-.14-.39-.3-.55-.47l.4-.67c.04-.06.09-.1.14-.13.06-.03.12-.05.19-.05.09,0,.19.04.3.13.12.08.25.18.41.28s.35.19.57.28c.23.08.49.13.81.13.5,0,.9-.12,1.17-.37.28-.25.42-.59.42-1.03,0-.24-.06-.44-.17-.59-.12-.16-.27-.29-.46-.39s-.41-.19-.65-.26c-.25-.07-.49-.15-.75-.23-.25-.08-.5-.18-.74-.29s-.46-.26-.65-.43c-.19-.18-.34-.4-.46-.66s-.17-.59-.17-.98c0-.31.06-.61.18-.91.12-.29.3-.55.53-.77.24-.23.53-.41.87-.55.34-.14.74-.2,1.18-.2.49,0,.95.08,1.36.23.41.16.77.38,1.07.67l-.34.67h0ZM344.68,76.78c0-.22-.03-.42-.09-.6-.06-.19-.15-.35-.27-.49s-.27-.25-.45-.32c-.18-.08-.38-.12-.61-.12-.47,0-.84.13-1.11.4-.27.27-.44.64-.51,1.13h3.04,0ZM341.61,77.57c.01.35.07.65.16.91.09.25.21.46.36.63.16.17.34.29.56.38.21.08.45.12.72.12.25,0,.47-.03.65-.08.18-.06.34-.12.48-.19s.25-.14.35-.19c.09-.06.18-.09.26-.09.11,0,.19.04.24.12l.37.47c-.15.18-.33.33-.52.46-.19.12-.39.23-.61.31-.22.08-.44.13-.67.16-.22.04-.45.05-.66.05-.43,0-.82-.07-1.18-.21-.36-.14-.68-.35-.95-.63-.26-.28-.47-.62-.62-1.03-.15-.41-.22-.88-.22-1.41,0-.42.06-.82.2-1.19.13-.37.32-.69.57-.96s.56-.49.91-.64c.36-.16.77-.24,1.22-.24.38,0,.73.06,1.05.19.32.12.59.3.82.53.24.24.42.53.54.87.14.34.2.73.2,1.16,0,.2-.02.33-.06.4-.05.07-.13.1-.24.1h-3.93,0ZM347.04,80.53v-6.12h.78c.18,0,.29.08.34.25l.08.53c.12-.13.23-.24.35-.35s.25-.2.39-.28.28-.14.44-.19c.16-.04.33-.07.52-.07s.37.03.54.08c.16.06.3.14.43.24s.24.23.33.38c.09.15.17.31.23.5.09-.21.2-.39.34-.55.14-.15.3-.28.47-.37.17-.1.36-.17.55-.21.19-.05.39-.07.59-.07.33,0,.62.05.88.16s.48.26.65.46c.18.2.32.44.41.73s.14.62.14.98v3.89h-1.29v-3.89c0-.43-.1-.76-.28-.97-.19-.22-.46-.33-.83-.33-.16,0-.31.03-.46.08-.14.06-.27.14-.38.25-.1.11-.19.24-.25.41-.06.16-.09.35-.09.56v3.89h-1.29v-3.89c0-.45-.09-.78-.27-.98-.18-.21-.45-.32-.8-.32-.24,0-.46.06-.66.19-.21.12-.39.29-.57.5v4.51h-1.29,0ZM358.35,74.41v6.12h-1.29v-6.12h1.29ZM358.57,72.56c0,.12-.03.23-.08.33-.04.1-.1.2-.18.28-.08.08-.18.14-.28.19-.11.04-.22.07-.34.07s-.23-.02-.33-.07-.19-.11-.26-.19c-.08-.08-.14-.17-.19-.28-.04-.1-.07-.21-.07-.33s.03-.23.07-.34c.05-.1.11-.19.19-.27.07-.08.16-.14.26-.19s.21-.07.33-.07.23.02.34.07c.1.04.2.11.28.19.08.08.14.17.18.27.05.1.08.22.08.34ZM361.18,75.22c.13-.14.26-.26.4-.37.15-.11.3-.21.46-.29.16-.08.33-.14.51-.19.18-.04.38-.07.59-.07.33,0,.63.06.88.17.26.11.47.27.64.47.18.2.31.45.4.74.09.28.13.6.13.94v3.89h-1.28v-3.89c0-.41-.1-.73-.29-.96-.19-.23-.48-.34-.87-.34-.28,0-.55.07-.8.2-.24.13-.47.31-.69.54v4.46h-1.29v-6.12h.78c.18,0,.29.08.34.25l.09.56h0ZM369.97,77.85c-.46.02-.85.05-1.17.11-.31.06-.57.13-.77.22-.19.09-.33.19-.42.32s-.13.26-.13.41.02.27.07.37c.05.1.11.18.19.25.08.06.18.11.29.14s.23.04.36.04c.34,0,.63-.06.87-.19.24-.13.48-.31.71-.55v-1.13h0ZM366.55,75.26c.69-.64,1.51-.97,2.47-.97.35,0,.66.06.93.17.28.11.51.27.69.48.19.21.33.46.43.74.1.28.15.6.15.95v3.89h-.58c-.12,0-.21-.02-.28-.05-.06-.04-.12-.12-.16-.23l-.13-.5c-.15.14-.31.27-.46.38-.15.11-.31.2-.47.28-.16.08-.34.13-.52.17-.19.04-.39.06-.62.06s-.48-.03-.69-.1-.4-.17-.55-.31c-.16-.14-.28-.31-.38-.52-.08-.2-.13-.44-.13-.72,0-.24.06-.47.19-.69s.33-.42.62-.6.68-.33,1.15-.44c.47-.12,1.06-.18,1.76-.2v-.41c0-.44-.1-.77-.29-.98-.18-.22-.46-.32-.82-.32-.25,0-.46.03-.63.1-.17.06-.31.13-.44.2-.12.07-.23.14-.33.2-.09.06-.19.09-.3.09-.09,0-.17-.02-.23-.07-.06-.05-.11-.11-.15-.17l-.23-.42h0ZM373.95,75.54c.19-.39.42-.69.7-.91.27-.22.59-.34.97-.34.14,0,.26.02.38.05.11.03.22.07.31.13l-.09.97c-.02.07-.04.12-.08.14-.03.02-.08.04-.13.04-.06,0-.15,0-.26-.03-.11-.02-.23-.04-.35-.04-.18,0-.34.03-.48.08s-.26.13-.38.23c-.1.1-.2.22-.28.37-.09.14-.17.31-.24.49v3.8h-1.29v-6.12h.75c.14,0,.23.03.28.08.06.05.09.13.11.26l.08.8h0ZM377.49,80.59c-.06.16-.15.29-.29.37-.13.08-.26.13-.4.13h-.54l3.55-8.98c.05-.15.14-.26.26-.34.12-.08.25-.12.4-.12h.55l-3.53,8.95h0ZM322.67,87.36c-.04.07-.09.13-.14.16-.05.03-.11.05-.18.05s-.16-.03-.26-.1c-.09-.06-.2-.13-.34-.21s-.3-.15-.49-.22-.41-.1-.67-.1c-.24,0-.45.03-.64.09-.18.06-.33.14-.45.25-.13.11-.22.24-.29.38-.06.14-.09.3-.09.47,0,.22.06.4.18.55.11.14.27.27.45.37.2.1.41.2.66.28.24.08.49.16.74.25.26.09.51.19.75.3.25.11.46.25.65.43s.35.38.46.63c.12.25.18.55.18.91,0,.38-.07.74-.2,1.08s-.33.63-.58.88-.55.44-.92.59c-.37.14-.78.22-1.25.22-.28,0-.55-.03-.81-.08s-.51-.13-.75-.22c-.24-.1-.46-.22-.67-.36-.2-.14-.39-.3-.55-.47l.4-.67c.04-.06.09-.1.14-.13.06-.03.12-.05.19-.05.09,0,.19.04.3.13.12.08.25.18.41.28s.35.19.57.28c.23.08.49.13.81.13.5,0,.9-.12,1.17-.37.28-.25.42-.59.42-1.03,0-.24-.06-.44-.17-.59-.12-.16-.27-.29-.46-.39s-.41-.19-.65-.26c-.25-.07-.49-.15-.75-.23-.25-.08-.5-.18-.74-.29s-.46-.26-.65-.43c-.19-.18-.34-.4-.46-.66s-.17-.59-.17-.98c0-.31.06-.61.18-.91.12-.29.3-.55.53-.77.24-.23.53-.41.87-.55.34-.14.74-.2,1.18-.2.49,0,.95.08,1.36.23.41.16.77.38,1.07.67l-.34.67h0ZM329.59,88.41l-3.37,7.86c-.05.09-.1.16-.17.22-.06.05-.15.08-.28.08h-.95l1.13-2.45-2.5-5.71h1.12c.11,0,.19.03.25.08s.1.11.13.17l1.46,3.47c.03.1.07.2.09.3.04.1.07.2.09.3.04-.1.07-.21.1-.31.03-.1.07-.2.11-.3l1.4-3.47c.02-.07.07-.13.13-.18.07-.05.15-.07.23-.07h1.03,0ZM330.43,94.53v-6.12h.78c.17,0,.29.08.33.25l.09.53c.11-.13.23-.24.35-.35s.24-.2.38-.28.29-.14.44-.19c.16-.04.34-.07.52-.07.2,0,.38.03.54.08.16.06.31.14.43.24.13.1.24.23.33.38.09.15.17.31.23.5.09-.21.21-.39.35-.55.14-.15.29-.28.47-.37.17-.1.35-.17.54-.21.2-.05.4-.07.6-.07.32,0,.62.05.87.16.26.1.48.26.66.46s.31.44.4.73c.1.29.14.62.14.98v3.89h-1.29v-3.89c0-.43-.09-.76-.28-.97-.18-.22-.46-.33-.82-.33-.17,0-.32.03-.46.08-.15.06-.27.14-.38.25s-.2.24-.26.41c-.06.16-.09.35-.09.56v3.89h-1.29v-3.89c0-.45-.09-.78-.27-.98-.18-.21-.44-.32-.79-.32-.24,0-.46.06-.67.19-.2.12-.39.29-.56.5v4.51h-1.29ZM341.68,92.99c.18.23.37.4.59.49.21.09.45.14.71.14.5,0,.9-.18,1.18-.55s.42-.92.42-1.64c0-.38-.03-.7-.09-.96-.07-.27-.16-.49-.28-.65s-.27-.29-.44-.37c-.17-.08-.36-.11-.58-.11-.33,0-.61.07-.85.22-.24.14-.46.34-.66.61v2.84-.02ZM341.61,89.29c.26-.3.55-.54.87-.73.33-.18.71-.28,1.14-.28.35,0,.66.07.94.21.28.14.52.34.72.6s.35.59.46.98c.11.39.17.83.17,1.34,0,.45-.06.87-.19,1.27-.12.39-.29.73-.52,1.01s-.5.51-.83.67c-.32.16-.69.24-1.1.24-.36,0-.66-.06-.91-.17-.25-.12-.48-.28-.68-.48v2.6h-1.29v-8.15h.78c.17,0,.29.08.33.25l.11.64h0ZM349.81,88.31c.45,0,.86.07,1.22.22.37.15.68.36.94.63.26.27.46.6.6.99s.21.82.21,1.31-.07.92-.21,1.31-.34.72-.6,1c-.26.27-.57.48-.94.63-.36.15-.77.22-1.22.22s-.87-.07-1.24-.22c-.36-.15-.67-.36-.93-.63-.26-.28-.46-.61-.6-1s-.21-.82-.21-1.31.07-.92.21-1.31.34-.72.6-.99.57-.48.93-.63c.37-.15.78-.22,1.24-.22ZM349.81,93.61c.55,0,.96-.18,1.23-.55s.41-.9.41-1.59-.14-1.22-.41-1.59c-.27-.38-.68-.56-1.23-.56s-.98.19-1.25.56c-.27.37-.41.9-.41,1.59s.14,1.22.41,1.59c.27.37.69.55,1.25.55ZM357.67,89.52c-.03.06-.07.1-.11.12-.04.02-.09.04-.15.04-.07,0-.14-.02-.22-.06s-.17-.09-.28-.14-.24-.1-.39-.14c-.14-.04-.31-.07-.51-.07-.16,0-.3.02-.43.06s-.24.09-.33.16c-.09.07-.16.15-.21.25-.05.09-.07.19-.07.3,0,.14.04.26.13.36s.21.18.35.25.31.13.49.19c.19.06.37.12.57.18.19.06.38.14.56.22s.35.19.49.31c.15.12.26.27.35.44.09.17.13.38.13.63,0,.29-.05.55-.15.8-.11.24-.26.46-.46.64s-.45.32-.75.42-.64.15-1.02.15c-.21,0-.42-.02-.62-.06-.19-.04-.38-.09-.56-.15-.18-.07-.34-.15-.5-.24-.15-.09-.29-.19-.41-.3l.3-.49c.04-.06.08-.11.13-.14.06-.04.13-.05.21-.05s.16.03.24.08c.09.05.18.11.29.17s.25.12.4.18c.16.05.35.08.59.08.19,0,.35-.02.49-.07s.26-.11.35-.19.16-.17.21-.27c.04-.1.06-.21.06-.33,0-.16-.04-.28-.13-.38s-.21-.19-.35-.26c-.15-.07-.31-.14-.5-.19-.19-.06-.37-.12-.57-.18-.19-.06-.38-.14-.57-.22-.18-.08-.35-.19-.49-.32-.15-.13-.26-.29-.35-.47-.09-.19-.13-.42-.13-.68,0-.24.04-.48.14-.7.1-.22.24-.41.43-.58.19-.17.43-.3.7-.4.28-.1.61-.15.97-.15.41,0,.79.07,1.12.2.34.13.62.31.85.54l-.29.47h0ZM360.6,88.41v6.12h-1.29v-6.12h1.29ZM360.82,86.56c0,.12-.03.23-.08.33-.04.1-.1.2-.18.28-.08.08-.18.14-.28.19-.11.04-.22.07-.34.07s-.23-.02-.33-.07-.19-.11-.26-.19c-.08-.08-.14-.17-.19-.28-.04-.1-.07-.21-.07-.33s.03-.23.07-.34c.05-.1.11-.19.19-.27.07-.08.16-.14.26-.19s.21-.07.33-.07.23.02.34.07c.1.04.2.11.28.19.08.08.14.17.18.27.05.1.08.22.08.34ZM365.49,91.85c-.46.02-.85.05-1.16.11-.32.06-.58.13-.77.22-.2.09-.34.19-.43.32-.08.12-.12.26-.12.41s.02.27.06.37c.05.1.11.18.19.25.09.06.18.11.29.14s.24.04.37.04c.33,0,.62-.06.86-.19.25-.13.48-.31.71-.55v-1.13h0ZM362.07,89.26c.69-.64,1.52-.97,2.47-.97.35,0,.67.06.94.17.27.11.5.27.69.48.19.21.33.46.42.74.1.28.15.6.15.95v3.89h-.57c-.13,0-.22-.02-.28-.05-.07-.04-.12-.12-.17-.23l-.12-.5c-.16.14-.31.27-.46.38-.16.11-.31.2-.48.28-.16.08-.33.13-.52.17-.18.04-.39.06-.61.06-.25,0-.48-.03-.7-.1-.21-.07-.39-.17-.55-.31s-.28-.31-.37-.52c-.09-.2-.13-.44-.13-.72,0-.24.06-.47.18-.69.13-.22.34-.42.63-.6s.67-.33,1.14-.44c.48-.12,1.06-.18,1.76-.2v-.41c0-.44-.09-.77-.28-.98-.19-.22-.47-.32-.83-.32-.25,0-.46.03-.62.1-.17.06-.32.13-.44.2-.13.07-.24.14-.33.2-.1.06-.2.09-.31.09-.09,0-.16-.02-.23-.07-.06-.05-.11-.11-.15-.17l-.23-.42h0ZM372.06,90.76c0,.84.1,1.66.31,2.47.21.8.51,1.55.91,2.26.03.07.06.14.06.19.01.06.01.1-.01.14-.01.04-.04.08-.07.11-.03.03-.06.05-.1.08l-.57.35c-.3-.46-.55-.92-.76-1.37-.21-.45-.38-.91-.51-1.37s-.23-.93-.29-1.4c-.06-.48-.09-.96-.09-1.46s.03-.97.09-1.45c.06-.48.16-.94.29-1.4s.3-.92.51-1.38.46-.91.76-1.37l.57.35s.07.05.1.08.06.06.07.11c.02.04.02.09.01.14,0,.06-.03.12-.06.19-.4.71-.7,1.47-.91,2.27-.21.8-.31,1.62-.31,2.46ZM379.26,87.36c-.04.07-.09.13-.14.16-.05.03-.11.05-.18.05s-.16-.03-.26-.1c-.09-.06-.2-.13-.34-.21s-.3-.15-.49-.22-.41-.1-.67-.1c-.24,0-.45.03-.64.09-.18.06-.33.14-.45.25-.13.11-.22.24-.29.38-.06.14-.09.3-.09.47,0,.22.06.4.18.55.11.14.27.27.45.37.2.1.41.2.66.28.24.08.49.16.74.25.26.09.51.19.75.3.25.11.46.25.65.43.19.17.35.38.46.63.12.25.18.55.18.91,0,.38-.07.74-.2,1.08s-.33.63-.58.88-.55.44-.92.59c-.37.14-.78.22-1.25.22-.28,0-.55-.03-.81-.08s-.51-.13-.75-.22c-.24-.1-.46-.22-.67-.36-.2-.14-.39-.3-.55-.47l.4-.67c.04-.06.09-.1.14-.13.06-.03.12-.05.19-.05.09,0,.19.04.3.13.12.08.25.18.41.28s.35.19.57.28c.23.08.49.13.81.13.5,0,.9-.12,1.17-.37.28-.25.42-.59.42-1.03,0-.24-.06-.44-.17-.59-.12-.16-.27-.29-.46-.39s-.41-.19-.65-.26c-.25-.07-.49-.15-.75-.23-.25-.08-.5-.18-.74-.29s-.46-.26-.65-.43c-.19-.18-.34-.4-.46-.66s-.17-.59-.17-.98c0-.31.06-.61.18-.91.12-.29.3-.55.53-.77.24-.23.53-.41.87-.55s.74-.2,1.18-.2c.49,0,.95.08,1.36.23.41.16.77.38,1.07.67l-.34.67h0ZM385.81,87.36c-.04.07-.09.13-.14.16-.05.03-.11.05-.18.05s-.16-.03-.26-.1c-.09-.06-.2-.13-.34-.21s-.3-.15-.49-.22-.41-.1-.67-.1c-.24,0-.45.03-.64.09-.18.06-.33.14-.45.25-.13.11-.22.24-.29.38-.06.14-.09.3-.09.47,0,.22.06.4.18.55.11.14.27.27.45.37.2.1.41.2.66.28.24.08.49.16.74.25.26.09.51.19.75.3.25.11.46.25.65.43.19.17.35.38.46.63.12.25.18.55.18.91,0,.38-.07.74-.2,1.08s-.33.63-.58.88-.55.44-.92.59c-.37.14-.78.22-1.25.22-.28,0-.55-.03-.81-.08s-.51-.13-.75-.22c-.24-.1-.46-.22-.67-.36-.2-.14-.39-.3-.55-.47l.4-.67c.04-.06.09-.1.14-.13.06-.03.12-.05.19-.05.09,0,.19.04.3.13.12.08.25.18.41.28s.35.19.57.28c.23.08.49.13.81.13.5,0,.9-.12,1.17-.37.28-.25.42-.59.42-1.03,0-.24-.06-.44-.17-.59-.12-.16-.27-.29-.46-.39s-.41-.19-.65-.26c-.25-.07-.49-.15-.75-.23-.25-.08-.5-.18-.74-.29s-.46-.26-.65-.43c-.19-.18-.34-.4-.46-.66s-.17-.59-.17-.98c0-.31.06-.61.18-.91.12-.29.3-.55.53-.77.24-.23.53-.41.87-.55s.74-.2,1.18-.2c.49,0,.95.08,1.36.23.41.16.77.38,1.07.67l-.34.67h0ZM391.15,91.14v3.38h-1.4v-3.38l-3.16-5.26h1.23c.13,0,.23.03.3.09.07.06.13.14.18.23l1.77,3.1c.08.16.15.3.21.44.07.14.13.28.18.41.05-.14.1-.28.17-.41.06-.14.13-.29.21-.44l1.76-3.1c.04-.08.1-.15.17-.22.08-.07.18-.1.3-.1h1.23l-3.15,5.26h0ZM396.02,90.76c0-.84-.1-1.66-.31-2.46s-.51-1.56-.9-2.27c-.04-.07-.06-.14-.07-.19s0-.1.01-.14.04-.08.06-.11c.04-.03.07-.05.11-.08l.57-.35c.3.46.55.92.76,1.37.21.46.38.92.51,1.38s.23.93.29,1.4.09.95.09,1.45-.03.98-.09,1.46c-.06.47-.16.94-.29,1.4s-.3.92-.51,1.37c-.21.46-.46.91-.76,1.37l-.57-.35s-.07-.05-.11-.08c-.02-.03-.05-.06-.06-.11-.01-.04-.02-.09-.01-.14s.03-.12.07-.19c.39-.71.69-1.46.9-2.26.21-.8.31-1.63.31-2.47Z"/>
  <path class="cls-9" d="M431.75,67.99c.31,0,.58-.04.82-.12s.44-.19.59-.34c.16-.15.28-.33.36-.53.08-.21.12-.44.12-.7s-.04-.48-.12-.68c-.07-.2-.19-.37-.35-.51-.15-.14-.35-.25-.59-.32-.24-.08-.51-.11-.83-.11h-1.29v3.31h1.29ZM431.75,63.59c.56,0,1.05.07,1.46.2.42.13.76.32,1.03.56s.47.52.6.86c.13.33.2.7.2,1.1s-.07.79-.21,1.13-.35.63-.62.88c-.28.24-.62.44-1.04.58-.4.14-.88.2-1.42.2h-1.29v3.13h-1.4v-8.64h2.69ZM437.25,67.24c.2-.39.43-.69.7-.91.27-.22.6-.34.98-.34.13,0,.25.02.37.05.12.03.22.07.31.13l-.09.97c-.01.07-.04.12-.08.14-.03.02-.07.04-.13.04s-.14-.01-.26-.03c-.11-.02-.23-.04-.35-.04-.18,0-.34.03-.48.08s-.26.13-.37.23c-.11.1-.21.22-.29.37-.08.14-.16.31-.23.49v3.8h-1.29v-6.12h.75c.13,0,.23.03.28.08s.09.13.11.26l.07.8h0ZM441.81,66.11v6.12h-1.29v-6.12h1.29ZM442.03,64.26c0,.12-.03.23-.08.33-.04.1-.1.2-.18.28-.08.08-.18.14-.28.19-.11.04-.22.07-.34.07s-.23-.02-.33-.07-.19-.11-.26-.19c-.08-.08-.14-.17-.19-.28-.04-.1-.07-.21-.07-.33s.03-.23.07-.34c.05-.1.11-.19.19-.27.07-.08.16-.14.26-.19s.21-.07.33-.07.23.02.34.07c.1.04.2.11.28.19.08.08.14.17.18.27.05.1.08.22.08.34ZM443.43,72.23v-6.12h.78c.18,0,.29.08.34.25l.08.53c.11-.13.23-.24.35-.35s.25-.2.38-.28c.14-.08.29-.14.45-.19.16-.04.33-.07.51-.07.2,0,.38.03.54.08.17.06.31.14.43.24.13.1.24.23.33.38.1.15.17.31.23.5.09-.21.21-.39.35-.55.14-.15.3-.28.47-.37.17-.1.35-.17.54-.21.2-.05.4-.07.6-.07.33,0,.62.05.87.16.26.1.48.26.66.46s.31.44.41.73c.09.29.13.62.13.98v3.89h-1.29v-3.89c0-.43-.09-.76-.28-.97-.18-.22-.46-.33-.82-.33-.16,0-.32.03-.46.08-.15.06-.27.14-.38.25s-.19.24-.26.41c-.06.16-.09.35-.09.56v3.89h-1.29v-3.89c0-.45-.09-.78-.27-.98-.18-.21-.44-.32-.79-.32-.24,0-.46.06-.67.19-.2.12-.39.29-.56.5v4.51h-1.29,0ZM457.41,68.48c0-.22-.04-.42-.1-.6-.06-.19-.15-.35-.27-.49s-.27-.25-.45-.32c-.18-.08-.38-.12-.61-.12-.47,0-.84.13-1.11.4-.26.27-.43.64-.51,1.13h3.05,0ZM454.33,69.27c.01.35.07.65.16.91.09.25.21.46.37.63.15.17.34.29.55.38.21.08.45.12.72.12.25,0,.47-.03.65-.08.19-.06.35-.12.48-.19.14-.07.25-.14.35-.19.1-.06.18-.09.26-.09.11,0,.19.04.24.12l.37.47c-.15.18-.32.33-.52.46-.19.12-.39.23-.61.31-.21.08-.44.13-.66.16-.23.04-.45.05-.67.05-.42,0-.82-.07-1.18-.21-.36-.14-.68-.35-.94-.63-.27-.28-.48-.62-.63-1.03-.15-.41-.22-.88-.22-1.41,0-.42.07-.82.2-1.19s.33-.69.57-.96c.26-.27.56-.49.92-.64.36-.16.76-.24,1.21-.24.38,0,.73.06,1.05.19.32.12.59.3.83.53.23.24.41.53.54.87.13.34.19.73.19,1.16,0,.2-.02.33-.06.4-.05.07-.13.1-.24.1h-3.93,0ZM472.19,63.59v8.64h-1.24v-5.92c0-.1,0-.2.01-.31,0-.12.01-.23.03-.35l-2.78,5.13c-.11.21-.28.32-.5.32h-.2c-.23,0-.39-.11-.5-.32l-2.82-5.14c.02.12.02.23.03.35s.01.22.01.32v5.92h-1.24v-8.64h1.05c.13,0,.22,0,.29.04.07.02.13.09.19.2l2.77,5.02c.06.12.12.24.17.36s.1.24.15.37c.05-.13.1-.25.15-.38s.11-.25.17-.37l2.73-5.01c.06-.11.12-.18.19-.2s.16-.04.29-.04h1.05,0ZM475.24,66.11v6.12h-1.29v-6.12h1.29ZM475.46,64.26c0,.12-.02.23-.07.33-.05.1-.11.2-.19.28s-.17.14-.28.19c-.1.04-.22.07-.34.07-.11,0-.22-.02-.33-.07-.1-.05-.18-.11-.26-.19s-.14-.17-.19-.28c-.04-.1-.06-.21-.06-.33s.02-.23.06-.34c.05-.1.11-.19.19-.27s.16-.14.26-.19c.11-.05.22-.07.33-.07.12,0,.24.02.34.07.11.04.2.11.28.19.08.08.14.17.19.27.05.1.07.22.07.34ZM478.07,66.92c.13-.14.27-.26.41-.37s.29-.21.45-.29c.16-.08.33-.14.51-.19.18-.04.38-.07.59-.07.34,0,.63.06.88.17.26.11.47.27.65.47.17.2.3.45.39.74.09.28.13.6.13.94v3.89h-1.28v-3.89c0-.41-.1-.73-.29-.96-.19-.23-.47-.34-.86-.34-.29,0-.56.07-.81.2-.24.13-.47.31-.69.54v4.46h-1.29v-6.12h.78c.18,0,.29.08.34.25l.09.56h0ZM484.93,66.11v6.12h-1.29v-6.12h1.29ZM485.15,64.26c0,.12-.02.23-.07.33-.05.1-.11.2-.19.28s-.17.14-.28.19c-.1.04-.22.07-.34.07-.11,0-.22-.02-.33-.07-.1-.05-.18-.11-.26-.19s-.14-.17-.19-.28c-.04-.1-.06-.21-.06-.33s.02-.23.06-.34c.05-.1.11-.19.19-.27s.16-.14.26-.19c.11-.05.22-.07.33-.07.12,0,.24.02.34.07.11.04.2.11.28.19.08.08.14.17.19.27.05.1.07.22.07.34ZM490.21,67.22c-.03.06-.07.1-.11.12-.04.02-.09.04-.15.04-.07,0-.14-.02-.22-.06s-.17-.09-.28-.14-.24-.1-.39-.14c-.14-.04-.31-.07-.51-.07-.16,0-.3.02-.43.06s-.24.09-.33.16c-.09.07-.16.15-.21.25-.05.09-.07.19-.07.3,0,.14.04.26.13.36s.21.18.35.25.31.13.49.19c.19.06.37.12.57.18.19.06.38.14.56.22s.35.19.49.31c.15.12.26.27.35.44.09.17.13.38.13.63,0,.29-.05.55-.15.8-.11.24-.26.46-.46.64s-.45.32-.75.42-.64.15-1.02.15c-.21,0-.42-.02-.62-.06-.19-.04-.38-.09-.56-.15-.18-.07-.34-.15-.5-.24-.15-.09-.29-.19-.41-.3l.3-.49c.04-.06.08-.11.13-.14.06-.04.13-.05.21-.05s.16.03.24.08c.09.05.18.11.29.17s.25.12.4.18c.16.05.35.08.59.08.19,0,.35-.02.49-.07s.26-.11.35-.19.16-.17.21-.27c.04-.1.06-.21.06-.33,0-.16-.04-.28-.13-.38s-.21-.19-.35-.26c-.15-.07-.31-.14-.5-.19-.19-.06-.37-.12-.57-.18-.19-.06-.38-.14-.57-.22-.18-.08-.35-.19-.49-.32-.15-.13-.26-.29-.35-.47-.09-.19-.13-.42-.13-.68,0-.24.04-.48.14-.7.1-.22.24-.41.43-.58.19-.17.43-.3.7-.4.28-.1.61-.15.97-.15.41,0,.79.07,1.12.2.34.13.62.31.85.54l-.29.47h0ZM493.76,72.32c-.51,0-.9-.14-1.18-.43-.27-.29-.41-.69-.41-1.21v-3.56h-.67c-.07,0-.13-.02-.19-.07-.05-.05-.07-.12-.07-.21v-.52l.99-.14.28-1.77c.02-.07.05-.12.1-.16.05-.04.11-.07.19-.07h.66v2.01h1.7v.93h-1.7v3.47c0,.22.06.39.16.5.11.12.26.17.44.17.1,0,.18-.01.25-.04.08-.03.14-.06.19-.08.05-.03.1-.06.13-.08.04-.03.08-.04.12-.04.07,0,.13.04.17.12l.38.63c-.2.18-.43.31-.7.41-.28.09-.56.14-.84.14ZM500.14,68.48c0-.22-.03-.42-.09-.6-.06-.19-.15-.35-.27-.49s-.27-.25-.45-.32c-.18-.08-.38-.12-.61-.12-.47,0-.84.13-1.11.4-.27.27-.44.64-.51,1.13h3.04,0ZM497.07,69.27c.01.35.07.65.16.91.09.25.21.46.36.63.16.17.34.29.56.38.21.08.45.12.72.12.25,0,.47-.03.65-.08.18-.06.34-.12.48-.19s.25-.14.35-.19c.09-.06.18-.09.26-.09.11,0,.19.04.24.12l.37.47c-.15.18-.33.33-.52.46-.19.12-.39.23-.61.31-.22.08-.44.13-.67.16-.22.04-.45.05-.66.05-.43,0-.82-.07-1.18-.21-.36-.14-.68-.35-.95-.63-.26-.28-.47-.62-.62-1.03-.15-.41-.22-.88-.22-1.41,0-.42.06-.82.2-1.19.13-.37.32-.69.57-.96s.56-.49.91-.64c.36-.16.77-.24,1.22-.24.38,0,.73.06,1.05.19.32.12.59.3.82.53.24.24.42.53.54.87.14.34.2.73.2,1.16,0,.2-.02.33-.06.4-.05.07-.13.1-.24.1h-3.93,0ZM503.72,67.24c.19-.39.43-.69.7-.91.27-.22.6-.34.98-.34.13,0,.25.02.37.05.11.03.22.07.31.13l-.09.97c-.02.07-.04.12-.08.14-.03.02-.07.04-.13.04s-.15-.01-.26-.03-.23-.04-.35-.04c-.18,0-.34.03-.48.08s-.26.13-.37.23c-.11.1-.21.22-.29.37-.09.14-.16.31-.24.49v3.8h-1.29v-6.12h.75c.14,0,.23.03.29.08.05.05.08.13.1.26l.08.8h0ZM515.3,71.09v1.13h-5.4v-8.64h5.39v1.13h-3.98v2.6h3.18v1.1h-3.18v2.67h3.99ZM519.8,69.55c-.46.02-.85.05-1.16.11-.32.06-.57.13-.77.22-.2.09-.34.19-.43.32-.08.12-.12.26-.12.41s.02.27.06.37c.05.1.12.18.2.25.08.06.18.11.28.14.12.03.24.04.37.04.34,0,.62-.06.86-.19.25-.13.48-.31.71-.55v-1.13h0ZM516.38,66.96c.69-.64,1.52-.97,2.47-.97.36,0,.67.06.94.17.28.11.51.27.69.48.19.21.33.46.43.74.1.28.15.6.15.95v3.89h-.58c-.12,0-.22-.02-.28-.05-.07-.04-.12-.12-.16-.23l-.13-.5c-.16.14-.31.27-.46.38-.15.11-.31.2-.48.28-.16.08-.33.13-.52.17-.18.04-.39.06-.61.06-.25,0-.48-.03-.7-.1-.21-.07-.39-.17-.55-.31-.15-.14-.28-.31-.37-.52s-.13-.44-.13-.72c0-.24.06-.47.18-.69.13-.22.34-.42.63-.6s.67-.33,1.14-.44c.48-.12,1.07-.18,1.76-.2v-.41c0-.44-.09-.77-.28-.98-.19-.22-.46-.32-.83-.32-.25,0-.45.03-.62.1-.17.06-.32.13-.44.2s-.23.14-.33.2-.2.09-.31.09c-.08,0-.16-.02-.22-.07-.06-.05-.11-.11-.15-.17l-.24-.42h0ZM523.79,67.24c.19-.39.42-.69.69-.91.27-.22.6-.34.98-.34.13,0,.26.02.37.05.12.03.22.07.31.13l-.09.97c-.01.07-.04.12-.07.14-.04.02-.08.04-.14.04s-.14-.01-.25-.03c-.12-.02-.23-.04-.36-.04-.18,0-.34.03-.48.08-.13.05-.26.13-.37.23-.11.1-.2.22-.29.37-.08.14-.16.31-.23.49v3.8h-1.29v-6.12h.75c.13,0,.23.03.28.08s.09.13.11.26l.08.8h0ZM528.31,63.35v8.88h-1.29v-8.88s1.29,0,1.29,0ZM535.33,66.11l-3.37,7.86c-.04.09-.1.16-.16.22-.06.05-.15.08-.28.08h-.96l1.13-2.45-2.49-5.71h1.12c.11,0,.19.03.24.08.06.05.11.11.14.17l1.45,3.47c.04.1.07.2.1.3.03.1.06.2.09.3.03-.1.06-.21.1-.31.03-.1.06-.2.1-.3l1.4-3.47c.03-.07.08-.13.14-.18.07-.05.14-.07.22-.07h1.03ZM430.53,84.3c.07,0,.14.03.2.09l.55.61c-.35.42-.78.75-1.29.98s-1.13.34-1.84.34c-.63,0-1.2-.11-1.71-.32-.51-.22-.95-.52-1.31-.91-.36-.39-.63-.86-.83-1.4-.19-.54-.29-1.13-.29-1.78s.1-1.24.31-1.78c.21-.54.5-1.01.87-1.4s.82-.7,1.34-.91c.53-.22,1.1-.32,1.73-.32s1.17.1,1.65.31c.48.2.9.47,1.25.8l-.46.65s-.07.08-.12.11c-.04.03-.1.05-.18.05s-.17-.04-.27-.11c-.1-.08-.23-.16-.39-.25s-.36-.17-.6-.25c-.23-.08-.53-.11-.89-.11-.41,0-.79.07-1.13.22-.34.14-.64.35-.89.63s-.44.61-.58,1.01-.2.85-.2,1.35.07.96.21,1.36c.15.4.34.73.6,1.01.25.27.54.48.88.62s.71.22,1.1.22c.24,0,.46-.01.64-.04.2-.03.37-.07.53-.13s.31-.13.45-.22c.15-.09.29-.2.43-.32.08-.07.16-.11.24-.11ZM435.53,83.55c-.46.02-.85.05-1.17.11-.31.06-.57.13-.77.22-.19.09-.33.19-.42.32-.09.12-.13.26-.13.41s.02.27.07.37c.05.1.11.18.19.25.08.06.18.11.29.14s.23.04.36.04c.34,0,.63-.06.87-.19.24-.13.48-.31.71-.55v-1.13h0ZM432.11,80.96c.69-.64,1.51-.97,2.47-.97.35,0,.66.06.93.17.28.11.51.27.69.48.19.21.33.46.43.74.1.28.15.6.15.95v3.89h-.58c-.12,0-.21-.02-.28-.05-.06-.04-.12-.12-.16-.23l-.13-.5c-.15.14-.31.27-.46.38-.15.11-.31.2-.47.28-.16.08-.34.13-.52.17-.19.04-.39.06-.62.06s-.48-.03-.69-.1-.4-.17-.55-.31c-.16-.14-.28-.31-.38-.52-.08-.2-.13-.44-.13-.72,0-.24.06-.47.19-.69s.33-.42.62-.6.68-.33,1.15-.44c.47-.12,1.06-.18,1.76-.2v-.41c0-.44-.1-.77-.29-.98-.18-.22-.46-.32-.82-.32-.25,0-.46.03-.63.1-.17.06-.31.13-.44.2-.12.07-.23.14-.33.2-.09.06-.19.09-.3.09-.09,0-.17-.02-.23-.07-.06-.05-.11-.11-.15-.17l-.23-.42h0ZM439.51,81.24c.19-.39.42-.69.7-.91.27-.22.59-.34.97-.34.14,0,.26.02.38.05.11.03.22.07.31.13l-.09.97c-.02.07-.04.12-.08.14-.03.02-.08.04-.13.04-.06,0-.15-.01-.26-.03s-.23-.04-.35-.04c-.18,0-.34.03-.48.08s-.26.13-.38.23c-.1.1-.2.22-.28.37-.09.14-.17.31-.24.49v3.8h-1.29v-6.12h.75c.14,0,.23.03.28.08.06.05.09.13.11.26l.08.8h0ZM446.52,82.48c0-.22-.03-.42-.09-.6-.06-.19-.15-.35-.27-.49s-.27-.25-.45-.32c-.18-.08-.38-.12-.61-.12-.47,0-.84.13-1.11.4-.27.27-.44.64-.51,1.13h3.04,0ZM443.45,83.27c.01.35.07.65.16.91.09.25.21.46.36.63.16.17.34.29.56.38.21.08.45.12.72.12.25,0,.47-.03.65-.08.18-.06.34-.12.48-.19s.25-.14.35-.19c.09-.06.18-.09.26-.09.11,0,.19.04.24.12l.37.47c-.15.18-.33.33-.52.46-.19.12-.39.23-.61.31-.22.08-.44.13-.67.16-.22.04-.45.05-.66.05-.43,0-.82-.07-1.18-.21-.36-.14-.68-.35-.95-.63-.26-.28-.47-.62-.62-1.03-.15-.41-.22-.88-.22-1.41,0-.42.06-.82.2-1.19.13-.37.32-.69.57-.96s.56-.49.91-.64c.36-.16.77-.24,1.22-.24.38,0,.73.06,1.05.19.32.12.59.3.82.53.24.24.42.53.54.87.14.34.2.73.2,1.16,0,.2-.02.33-.06.4-.05.07-.13.1-.24.1h-3.93,0ZM452.9,82.48c0-.22-.03-.42-.1-.6-.06-.19-.15-.35-.27-.49s-.27-.25-.45-.32c-.17-.08-.38-.12-.61-.12-.47,0-.83.13-1.1.4-.27.27-.44.64-.51,1.13h3.04,0ZM449.82,83.27c.02.35.07.65.16.91.1.25.22.46.37.63.16.17.34.29.55.38.22.08.46.12.72.12s.47-.03.66-.08c.18-.06.34-.12.48-.19.13-.07.25-.14.34-.19.1-.06.19-.09.27-.09.1,0,.18.04.24.12l.36.47c-.15.18-.32.33-.51.46-.19.12-.4.23-.61.31-.22.08-.44.13-.67.16-.23.04-.45.05-.67.05-.42,0-.81-.07-1.18-.21-.36-.14-.67-.35-.94-.63-.26-.28-.47-.62-.62-1.03-.15-.41-.23-.88-.23-1.41,0-.42.07-.82.2-1.19.14-.37.33-.69.58-.96s.55-.49.91-.64c.36-.16.77-.24,1.22-.24.37,0,.72.06,1.04.19.32.12.6.3.83.53s.41.53.54.87c.13.34.2.73.2,1.16,0,.2-.02.33-.07.4-.04.07-.12.1-.24.1h-3.93,0ZM456.48,81.24c.19-.39.42-.69.69-.91.28-.22.6-.34.98-.34.13,0,.26.02.37.05.12.03.22.07.32.13l-.09.97c-.02.07-.05.12-.08.14-.03.02-.08.04-.13.04-.06,0-.15-.01-.26-.03s-.23-.04-.36-.04c-.18,0-.34.03-.48.08-.13.05-.26.13-.37.23-.11.1-.2.22-.29.37-.08.14-.16.31-.23.49v3.8h-1.29v-6.12h.75c.14,0,.23.03.28.08s.09.13.11.26l.08.8h0ZM465.17,81.73c.32,0,.6-.04.84-.11.24-.08.44-.19.6-.33s.28-.31.36-.5c.08-.2.12-.41.12-.65,0-.47-.16-.83-.47-1.08-.31-.25-.78-.37-1.42-.37h-1.14v3.04h1.11ZM469.24,86.23h-1.26c-.25,0-.43-.1-.54-.29l-2.01-2.91c-.07-.1-.15-.17-.23-.22-.08-.04-.2-.07-.36-.07h-.78v3.48h-1.4v-8.64h2.54c.57,0,1.06.06,1.47.17.41.12.75.28,1.01.5.27.21.46.47.58.77.13.3.2.63.2,1,0,.3-.05.58-.14.84s-.22.5-.39.71-.38.4-.63.55c-.24.16-.53.28-.84.37.17.1.32.25.44.44l2.34,3.29h0ZM473.65,82.48c0-.22-.03-.42-.09-.6-.06-.19-.15-.35-.27-.49s-.27-.25-.45-.32c-.18-.08-.38-.12-.61-.12-.47,0-.84.13-1.11.4-.27.27-.44.64-.51,1.13h3.04,0ZM470.58,83.27c.01.35.07.65.16.91.09.25.21.46.36.63.16.17.34.29.56.38.21.08.45.12.72.12.25,0,.47-.03.65-.08.18-.06.34-.12.48-.19s.25-.14.35-.19c.09-.06.18-.09.26-.09.11,0,.19.04.24.12l.37.47c-.15.18-.33.33-.52.46-.19.12-.39.23-.61.31-.22.08-.44.13-.67.16-.22.04-.45.05-.66.05-.43,0-.82-.07-1.18-.21-.36-.14-.68-.35-.95-.63-.26-.28-.47-.62-.62-1.03-.15-.41-.22-.88-.22-1.41,0-.42.06-.82.2-1.19.13-.37.32-.69.57-.96s.56-.49.91-.64c.36-.16.77-.24,1.22-.24.38,0,.73.06,1.05.19.32.12.59.3.82.53.24.24.42.53.54.87.14.34.2.73.2,1.16,0,.2-.02.33-.06.4-.05.07-.13.1-.24.1h-3.93,0ZM479.67,81.22c-.03.06-.07.1-.11.12-.04.02-.09.04-.15.04-.07,0-.14-.02-.22-.06s-.18-.09-.28-.14c-.11-.05-.24-.1-.39-.14-.14-.04-.31-.07-.51-.07-.16,0-.3.02-.44.06-.12.04-.23.09-.33.16-.08.07-.15.15-.2.25-.05.09-.07.19-.07.3,0,.14.04.26.13.36s.2.18.35.25c.14.07.31.13.49.19.18.06.37.12.56.18.2.06.38.14.57.22.18.08.35.19.49.31.14.12.26.27.35.44.09.17.13.38.13.63,0,.29-.05.55-.16.8-.1.24-.25.46-.45.64s-.45.32-.75.42-.64.15-1.02.15c-.21,0-.42-.02-.62-.06s-.38-.09-.56-.15c-.18-.07-.35-.15-.5-.24s-.29-.19-.41-.3l.3-.49c.04-.06.08-.11.13-.14.06-.04.13-.05.21-.05s.16.03.24.08c.09.05.18.11.29.17s.25.12.4.18c.16.05.35.08.58.08.2,0,.36-.02.5-.07s.26-.11.35-.19.16-.17.2-.27c.05-.1.07-.21.07-.33,0-.16-.04-.28-.13-.38s-.21-.19-.36-.26c-.14-.07-.31-.14-.49-.19-.19-.06-.38-.12-.57-.18s-.38-.14-.57-.22c-.18-.08-.35-.19-.5-.32-.14-.13-.26-.29-.34-.47-.09-.19-.14-.42-.14-.68,0-.24.05-.48.15-.7.1-.22.24-.41.43-.58.19-.17.43-.3.7-.4.28-.1.6-.15.97-.15.41,0,.78.07,1.12.2s.62.31.85.54l-.29.47h0ZM485.27,82.48c0-.22-.04-.42-.1-.6-.06-.19-.15-.35-.27-.49s-.27-.25-.45-.32c-.18-.08-.38-.12-.61-.12-.47,0-.84.13-1.11.4-.26.27-.43.64-.51,1.13h3.05,0ZM482.19,83.27c.01.35.07.65.16.91.09.25.21.46.37.63.15.17.34.29.55.38.21.08.45.12.72.12.25,0,.47-.03.65-.08.19-.06.35-.12.48-.19.14-.07.25-.14.35-.19.1-.06.18-.09.26-.09.11,0,.19.04.24.12l.37.47c-.15.18-.32.33-.52.46-.19.12-.39.23-.61.31-.21.08-.44.13-.66.16-.23.04-.45.05-.67.05-.42,0-.82-.07-1.18-.21-.36-.14-.68-.35-.94-.63-.27-.28-.48-.62-.63-1.03s-.22-.88-.22-1.41c0-.42.07-.82.2-1.19s.33-.69.57-.96c.26-.27.56-.49.92-.64.36-.16.76-.24,1.21-.24.38,0,.73.06,1.05.19.32.12.59.3.83.53.23.24.41.53.54.87.13.34.19.73.19,1.16,0,.2-.02.33-.06.4-.05.07-.13.1-.24.1h-3.93,0ZM490.9,83.55c-.46.02-.85.05-1.17.11-.31.06-.57.13-.76.22-.2.09-.34.19-.43.32-.08.12-.13.26-.13.41s.03.27.07.37c.05.1.11.18.19.25.09.06.18.11.29.14s.23.04.37.04c.33,0,.62-.06.86-.19.24-.13.48-.31.71-.55v-1.13h0ZM487.48,80.96c.69-.64,1.51-.97,2.47-.97.35,0,.66.06.94.17.27.11.5.27.69.48.18.21.33.46.42.74.1.28.15.6.15.95v3.89h-.57c-.13,0-.22-.02-.29-.05-.06-.04-.11-.12-.16-.23l-.12-.5c-.16.14-.31.27-.47.38-.15.11-.31.2-.47.28-.16.08-.33.13-.52.17-.19.04-.39.06-.61.06-.25,0-.48-.03-.7-.1-.21-.07-.4-.17-.55-.31-.16-.14-.28-.31-.37-.52s-.14-.44-.14-.72c0-.24.07-.47.19-.69.13-.22.34-.42.62-.6.3-.18.68-.33,1.15-.44.48-.12,1.06-.18,1.76-.2v-.41c0-.44-.1-.77-.28-.98-.19-.22-.47-.32-.83-.32-.25,0-.46.03-.63.1-.16.06-.31.13-.43.2-.13.07-.24.14-.33.2-.1.06-.2.09-.31.09-.09,0-.16-.02-.23-.07-.06-.05-.11-.11-.15-.17l-.23-.42h0ZM494.88,81.24c.19-.39.42-.69.7-.91.27-.22.59-.34.97-.34.14,0,.26.02.38.05.11.03.22.07.31.13l-.09.97c-.02.07-.04.12-.08.14-.03.02-.08.04-.13.04-.06,0-.15-.01-.26-.03s-.23-.04-.35-.04c-.18,0-.34.03-.48.08s-.26.13-.38.23c-.1.1-.2.22-.28.37-.09.14-.17.31-.24.49v3.8h-1.29v-6.12h.75c.14,0,.23.03.28.08.06.05.09.13.11.26l.08.8h0ZM502.21,81.31c-.04.05-.08.09-.12.12-.03.03-.08.04-.15.04s-.14-.02-.22-.07c-.07-.05-.16-.1-.26-.16-.1-.06-.22-.11-.37-.16-.14-.05-.32-.07-.54-.07-.28,0-.52.05-.74.15-.2.1-.38.24-.52.43-.14.18-.25.41-.32.68-.07.26-.1.56-.1.89s.03.65.11.92.18.49.32.68c.15.18.32.32.52.42.2.1.43.14.68.14s.45-.03.61-.09.29-.13.39-.2.19-.14.26-.2c.08-.06.16-.09.24-.09.11,0,.19.04.24.12l.37.47c-.15.18-.31.33-.49.46-.18.12-.37.23-.57.31-.2.08-.41.13-.63.16-.21.04-.43.05-.65.05-.38,0-.74-.07-1.07-.21s-.61-.35-.86-.62c-.25-.27-.44-.6-.58-.99s-.21-.84-.21-1.34c0-.45.06-.87.19-1.25.13-.39.31-.72.56-1,.24-.28.55-.5.91-.65.37-.16.79-.24,1.26-.24s.84.07,1.17.22c.34.14.65.35.91.61l-.34.47h0ZM504.94,80.83c.25-.25.53-.45.83-.59.3-.15.65-.23,1.05-.23.33,0,.63.06.88.17s.47.27.64.47c.18.2.31.45.4.74.08.28.13.6.13.94v3.89h-1.29v-3.89c0-.41-.09-.73-.28-.96-.19-.23-.48-.34-.87-.34-.29,0-.55.07-.8.2s-.48.31-.69.54v4.46h-1.29v-8.88h1.29v3.49h0ZM520.68,81.97v3.42c-.86.62-1.86.93-3,.93-.7,0-1.34-.11-1.91-.32-.56-.22-1.04-.52-1.44-.91-.4-.39-.71-.86-.93-1.4-.21-.54-.32-1.13-.32-1.78s.1-1.25.31-1.79c.21-.54.51-1.01.9-1.4.38-.39.85-.69,1.4-.91s1.16-.32,1.85-.32c.35,0,.67.03.96.08.3.05.58.13.84.22.25.1.49.21.71.35.21.14.41.29.59.46l-.4.64c-.07.1-.15.16-.25.19s-.21,0-.32-.07c-.12-.07-.24-.14-.37-.22s-.28-.15-.45-.21c-.17-.07-.36-.12-.58-.16s-.48-.07-.78-.07c-.46,0-.87.08-1.24.23-.36.15-.67.36-.93.64s-.46.61-.6,1.01-.21.84-.21,1.33c0,.52.07.98.22,1.39.15.4.36.75.63,1.03s.6.49.98.64c.39.15.82.22,1.3.22.36,0,.67-.04.95-.11.28-.08.55-.18.82-.32v-1.72h-1.21c-.09,0-.16-.02-.21-.07-.05-.05-.08-.12-.08-.2v-.8h2.77,0ZM523.22,81.24c.19-.39.42-.69.69-.91.27-.22.6-.34.98-.34.13,0,.26.02.37.05.12.03.22.07.31.13l-.09.97c-.01.07-.04.12-.07.14-.04.02-.08.04-.14.04s-.14-.01-.25-.03c-.12-.02-.23-.04-.36-.04-.18,0-.34.03-.48.08-.13.05-.26.13-.37.23-.11.1-.2.22-.29.37-.08.14-.16.31-.23.49v3.8h-1.29v-6.12h.75c.13,0,.23.03.28.08s.09.13.11.26l.08.8h0ZM529.6,83.55c-.46.02-.84.05-1.16.11-.32.06-.57.13-.77.22-.19.09-.34.19-.42.32-.09.12-.13.26-.13.41s.02.27.07.37c.04.1.11.18.19.25.08.06.18.11.29.14s.23.04.36.04c.34,0,.63-.06.87-.19.24-.13.48-.31.7-.55v-1.13h0ZM526.18,80.96c.7-.64,1.52-.97,2.48-.97.35,0,.66.06.93.17.28.11.51.27.69.48.19.21.33.46.43.74.1.28.15.6.15.95v3.89h-.58c-.12,0-.22-.02-.28-.05-.06-.04-.12-.12-.16-.23l-.13-.5c-.15.14-.31.27-.46.38-.15.11-.31.2-.47.28-.16.08-.34.13-.53.17-.18.04-.38.06-.61.06-.25,0-.48-.03-.69-.1-.22-.07-.4-.17-.56-.31-.15-.14-.28-.31-.37-.52-.09-.2-.13-.44-.13-.72,0-.24.06-.47.19-.69.12-.22.33-.42.62-.6s.67-.33,1.15-.44c.47-.12,1.06-.18,1.75-.2v-.41c0-.44-.09-.77-.28-.98-.19-.22-.46-.32-.83-.32-.24,0-.45.03-.62.1-.17.06-.31.13-.44.2-.12.07-.23.14-.33.2-.09.06-.2.09-.3.09-.09,0-.17-.02-.23-.07-.06-.05-.11-.11-.15-.17l-.24-.42h0ZM533.58,80.92c.13-.14.26-.26.4-.37.15-.11.3-.21.46-.29.16-.08.33-.14.51-.19.18-.04.38-.07.59-.07.33,0,.63.06.88.17.26.11.47.27.64.47.18.2.31.45.4.74.09.28.13.6.13.94v3.89h-1.28v-3.89c0-.41-.1-.73-.29-.96-.19-.23-.48-.34-.87-.34-.28,0-.55.07-.8.2-.24.13-.47.31-.69.54v4.46h-1.29v-6.12h.78c.18,0,.29.08.34.25l.09.56h0ZM540.98,86.32c-.51,0-.9-.14-1.18-.43-.27-.29-.41-.69-.41-1.21v-3.56h-.67c-.07,0-.13-.02-.19-.07-.05-.05-.07-.12-.07-.21v-.52l.99-.14.28-1.77c.02-.07.05-.12.1-.16.05-.04.11-.07.19-.07h.66v2.01h1.7v.93h-1.7v3.47c0,.22.06.39.16.5.11.12.26.17.44.17.1,0,.18-.01.25-.04.08-.03.14-.06.19-.08.05-.03.1-.06.13-.08.04-.03.08-.04.12-.04.07,0,.13.04.17.12l.38.63c-.2.18-.43.31-.7.41-.28.09-.56.14-.84.14Z"/>
  <path class="cls-9" d="M567.87,47.03c0,.48-.06.92-.18,1.31-.11.38-.29.71-.53.98-.23.27-.52.48-.87.62-.34.14-.74.22-1.2.22-.2,0-.41,0-.61-.04-.21-.02-.42-.06-.64-.12l.07-.84c.01-.08.04-.14.09-.19.05-.05.13-.07.22-.07.08,0,.17.02.28.05.12.03.27.04.45.04.24,0,.46-.04.65-.11.19-.07.35-.18.48-.34s.23-.35.29-.59c.07-.24.1-.54.1-.88v-5.64h1.4v5.6h0ZM569.33,49.32c0-.12.02-.22.06-.32s.1-.19.17-.27c.08-.08.17-.14.27-.18s.21-.07.33-.07c.11,0,.22.02.32.07.1.04.19.1.27.18.08.08.14.17.18.27.04.1.07.21.07.32s-.03.23-.07.33c-.04.1-.1.19-.18.26-.08.08-.17.13-.27.17-.1.04-.21.07-.32.07-.12,0-.23-.02-.33-.07-.1-.04-.19-.1-.27-.17-.07-.08-.13-.16-.17-.26s-.06-.21-.06-.33ZM581.59,48.14c.08,0,.14.03.2.09l.56.61c-.36.42-.79.75-1.3.98s-1.12.34-1.84.34c-.63,0-1.2-.11-1.71-.32-.51-.22-.94-.52-1.3-.91-.36-.39-.64-.86-.84-1.4-.19-.54-.29-1.13-.29-1.78s.11-1.24.31-1.78c.21-.54.5-1.01.87-1.4.38-.39.82-.7,1.34-.91.53-.22,1.1-.32,1.73-.32s1.18.1,1.65.31c.48.2.9.47,1.25.8l-.46.65s-.07.08-.12.11c-.04.03-.1.05-.18.05s-.17-.04-.27-.11c-.1-.08-.23-.16-.39-.25s-.36-.17-.6-.25c-.23-.08-.53-.11-.88-.11-.42,0-.79.07-1.14.22-.34.14-.64.35-.89.63-.24.28-.44.61-.58,1.01-.13.4-.2.85-.2,1.35s.07.96.21,1.36c.15.4.35.73.6,1.01.25.27.55.48.89.62s.7.22,1.09.22c.24,0,.46,0,.65-.04.19-.03.36-.07.52-.13s.31-.13.45-.22c.15-.09.29-.2.43-.32.08-.07.16-.11.24-.11ZM583.12,49.32c0-.12.02-.22.06-.32.05-.1.1-.19.18-.27.07-.08.16-.14.26-.18s.21-.07.33-.07.22.02.32.07c.11.04.2.1.27.18.08.08.14.17.18.27.05.1.07.21.07.32s-.02.23-.07.33c-.04.1-.1.19-.18.26-.07.08-.16.13-.27.17-.1.04-.2.07-.32.07s-.23-.02-.33-.07c-.1-.04-.19-.1-.26-.17-.08-.08-.13-.16-.18-.26-.04-.1-.06-.21-.06-.33ZM592.53,48.96c.31,0,.58-.04.8-.11.22-.08.39-.18.53-.31s.24-.28.3-.45c.06-.18.1-.36.1-.56,0-.41-.14-.73-.42-.96-.28-.24-.72-.35-1.32-.35h-1.73v2.74h1.74,0ZM590.79,42.53v2.7h1.4c.6,0,1.05-.12,1.35-.35.29-.23.44-.57.44-1,0-.48-.14-.82-.42-1.03s-.71-.32-1.3-.32h-1.47,0ZM592.26,41.43c.55,0,1.02.05,1.41.16.4.1.72.25.97.45s.44.44.55.72c.12.28.18.6.18.95,0,.2-.03.4-.09.59-.06.19-.16.37-.29.53s-.29.31-.49.44c-.19.13-.43.24-.69.33,1.22.26,1.83.91,1.83,1.95,0,.37-.07.71-.21,1.01-.13.3-.33.57-.6.79-.26.22-.58.39-.96.52-.39.12-.83.19-1.32.19h-3.17v-8.64h2.88,0ZM599.54,43.85c.45,0,.86.07,1.22.22.37.15.68.36.94.63s.46.6.6.99.21.82.21,1.31-.07.92-.21,1.31-.34.72-.6,1c-.26.27-.57.48-.94.63-.36.15-.77.22-1.22.22s-.87-.07-1.24-.22c-.36-.15-.68-.36-.94-.63-.26-.28-.46-.61-.6-1s-.21-.82-.21-1.31.07-.92.21-1.31.34-.72.6-.99.58-.48.94-.63c.37-.15.78-.22,1.24-.22ZM599.54,49.15c.55,0,.96-.18,1.23-.55s.4-.9.4-1.59-.13-1.22-.4-1.59c-.27-.38-.68-.56-1.23-.56s-.98.19-1.25.56c-.27.37-.41.9-.41,1.59s.14,1.22.41,1.59.69.55,1.25.55ZM607.4,45.06c-.03.06-.07.1-.11.12s-.09.04-.15.04c-.07,0-.14-.02-.22-.06s-.17-.09-.28-.14-.24-.1-.39-.14c-.14-.04-.31-.07-.51-.07-.16,0-.3.02-.43.06s-.24.09-.33.16-.16.15-.21.25c-.05.09-.07.19-.07.3,0,.14.04.26.13.36.09.1.21.18.35.25s.31.13.49.19c.19.06.37.12.57.18.19.06.38.14.56.22s.35.19.49.31c.15.12.26.27.35.44s.13.38.13.63c0,.29-.05.55-.15.8-.11.24-.26.46-.46.64s-.45.32-.75.42-.64.15-1.02.15c-.21,0-.42-.02-.62-.06-.19-.04-.38-.09-.56-.15-.18-.07-.34-.15-.5-.24-.15-.09-.29-.19-.41-.3l.3-.49c.04-.06.08-.11.13-.14.06-.04.13-.05.21-.05s.16.03.24.08c.09.05.18.11.29.17s.25.12.4.18c.16.05.35.08.59.08.19,0,.35-.02.49-.07s.26-.11.35-.19c.09-.08.16-.17.21-.27.04-.1.06-.21.06-.33,0-.16-.04-.28-.13-.38-.09-.1-.21-.19-.35-.26-.15-.07-.31-.14-.5-.19-.19-.06-.37-.12-.57-.18-.19-.06-.38-.14-.57-.22-.18-.08-.35-.19-.49-.32-.15-.13-.26-.29-.35-.47-.09-.19-.13-.42-.13-.68,0-.24.04-.48.14-.7s.24-.41.43-.58c.19-.17.43-.3.7-.4.28-.1.61-.15.97-.15.41,0,.79.07,1.12.2.34.13.62.31.85.54l-.29.47h0ZM613,46.32c0-.22-.03-.42-.1-.6-.06-.19-.15-.35-.27-.49-.12-.14-.27-.25-.45-.32-.17-.08-.38-.12-.61-.12-.47,0-.84.13-1.1.4-.27.27-.44.64-.51,1.13h3.04,0ZM609.92,47.11c.02.35.07.65.16.91.09.25.22.46.37.63s.34.29.55.38c.22.08.46.12.72.12s.47-.03.65-.08c.19-.06.35-.12.48-.19.14-.07.26-.14.35-.19.1-.06.19-.09.27-.09.1,0,.18.04.24.12l.36.47c-.15.18-.32.33-.51.46-.2.12-.4.23-.62.31-.21.08-.43.13-.66.16-.23.04-.45.05-.67.05-.42,0-.82-.07-1.18-.21-.36-.14-.67-.35-.94-.63s-.47-.62-.63-1.03c-.14-.41-.22-.88-.22-1.41,0-.42.07-.82.2-1.19.14-.37.33-.69.58-.96s.55-.49.91-.64c.36-.16.76-.24,1.22-.24.37,0,.72.06,1.04.19.32.12.6.3.83.53.23.24.41.53.54.87s.2.73.2,1.16c0,.2-.03.33-.07.4s-.12.1-.24.1h-3.93,0ZM568.12,59.81v3.42c-.86.62-1.86.93-3,.93-.7,0-1.33-.11-1.9-.32-.56-.22-1.05-.52-1.45-.91-.4-.39-.7-.86-.92-1.4s-.32-1.13-.32-1.78.1-1.25.31-1.79c.21-.54.5-1.01.89-1.4.39-.39.86-.69,1.41-.91.54-.22,1.16-.32,1.84-.32.35,0,.67.03.97.08.3.05.58.13.83.22.26.1.5.21.71.35.22.14.42.29.6.46l-.41.64c-.06.1-.14.16-.24.19-.1.02-.21,0-.33-.07-.11-.07-.24-.14-.37-.22s-.27-.15-.44-.21c-.17-.07-.36-.12-.58-.16s-.48-.07-.78-.07c-.46,0-.87.08-1.24.23-.36.15-.68.36-.94.64-.26.28-.46.61-.6,1.01-.14.4-.21.84-.21,1.33,0,.52.08.98.23,1.39.14.4.35.75.63,1.03.27.28.6.49.98.64.39.15.82.22,1.3.22.35,0,.67-.04.94-.11.28-.08.56-.18.83-.32v-1.72h-1.21c-.09,0-.16-.02-.22-.07-.05-.05-.07-.12-.07-.2v-.8h2.76,0ZM570.66,59.08c.19-.39.43-.69.7-.91.27-.22.6-.34.98-.34.13,0,.25.02.37.05.11.03.22.07.31.13l-.09.97c-.02.07-.04.12-.08.14-.03.02-.07.04-.13.04s-.15,0-.26-.03-.23-.04-.35-.04c-.18,0-.34.03-.48.08s-.26.13-.37.23-.21.22-.29.37c-.09.14-.16.31-.24.49v3.8h-1.29v-6.12h.75c.14,0,.23.03.29.08.05.05.08.13.1.26,0,0,.08.8.08.8ZM577.05,61.39c-.46.02-.85.05-1.16.11-.32.06-.58.13-.77.22-.2.09-.34.19-.43.32-.08.12-.12.26-.12.41s.02.27.06.37c.05.1.11.18.19.25.09.06.18.11.29.14s.24.04.37.04c.33,0,.62-.06.86-.19.25-.13.48-.31.71-.55v-1.13h0ZM573.63,58.8c.69-.64,1.52-.97,2.47-.97.35,0,.67.06.94.17.27.11.5.27.69.48s.33.46.42.74c.1.28.15.6.15.95v3.89h-.57c-.13,0-.22-.02-.28-.05-.07-.04-.12-.12-.17-.23l-.12-.5c-.16.14-.31.27-.46.38-.16.11-.31.2-.48.28-.16.08-.33.13-.52.17-.18.04-.39.06-.61.06-.25,0-.48-.03-.7-.1-.21-.07-.39-.17-.55-.31-.16-.14-.28-.31-.37-.52-.09-.2-.13-.44-.13-.72,0-.24.06-.47.18-.69.13-.22.34-.42.63-.6s.67-.33,1.14-.44c.48-.12,1.06-.18,1.76-.2v-.41c0-.44-.09-.77-.28-.98-.19-.22-.47-.32-.83-.32-.25,0-.46.03-.62.1-.17.06-.32.13-.44.2-.13.07-.24.14-.33.2-.1.06-.2.09-.31.09-.09,0-.16-.02-.23-.07-.06-.05-.11-.11-.15-.17l-.23-.42h0ZM581.02,58.76c.13-.14.27-.26.41-.37s.3-.21.46-.29c.16-.08.33-.14.51-.19.18-.04.37-.07.58-.07.34,0,.63.06.89.17.25.11.47.27.64.47s.31.45.39.74c.09.28.14.6.14.94v3.89h-1.29v-3.89c0-.41-.09-.73-.29-.96-.18-.23-.47-.34-.86-.34-.29,0-.56.07-.8.2-.25.13-.48.31-.69.54v4.46h-1.29v-6.12h.78c.17,0,.28.08.33.25l.09.56h0ZM588.42,64.16c-.51,0-.9-.14-1.17-.43-.28-.29-.41-.69-.41-1.21v-3.56h-.67c-.08,0-.14-.02-.19-.07-.05-.05-.08-.12-.08-.21v-.52l.99-.14.28-1.77c.02-.07.06-.12.11-.16.04-.04.11-.07.19-.07h.66v2.01h1.7v.93h-1.7v3.47c0,.22.05.39.16.5.11.12.25.17.43.17.1,0,.19,0,.26-.04.07-.03.13-.06.19-.08.05-.03.09-.06.13-.08.04-.03.08-.04.11-.04.07,0,.13.04.18.12l.38.63c-.2.18-.44.31-.71.41-.27.09-.55.14-.84.14h0ZM594.65,60.3c0,.84.1,1.66.31,2.47.21.8.51,1.55.91,2.26.03.07.05.14.06.19s.01.1-.01.14-.04.08-.07.11c-.03.03-.06.05-.1.08l-.57.35c-.3-.46-.55-.92-.76-1.37-.21-.45-.38-.91-.51-1.37s-.23-.93-.29-1.4c-.06-.48-.09-.96-.09-1.46s.03-.97.09-1.45c.06-.48.16-.94.29-1.4.13-.46.3-.92.51-1.38.21-.46.46-.91.76-1.37l.57.35s.07.05.1.08c.03.03.05.06.07.11.02.04.02.09.01.14s-.03.12-.06.19c-.4.71-.7,1.47-.91,2.27-.21.8-.31,1.62-.31,2.46ZM600.47,61.03c0,.48-.06.92-.18,1.31-.11.38-.29.71-.53.98-.23.27-.52.48-.87.62-.34.14-.74.22-1.2.22-.2,0-.41-.01-.61-.04-.21-.02-.42-.06-.64-.12l.07-.84c.01-.08.04-.14.09-.19s.13-.07.22-.07c.08,0,.17.02.28.05.12.03.27.04.45.04.24,0,.46-.04.65-.11.19-.07.35-.18.48-.34s.23-.35.29-.59c.07-.24.1-.54.1-.88v-5.64h1.4v5.6h0ZM605.58,62.96c.32,0,.58-.04.8-.11.22-.08.4-.18.53-.31.14-.13.24-.28.3-.45.07-.18.1-.36.1-.56,0-.41-.14-.73-.42-.96-.28-.24-.71-.35-1.31-.35h-1.74v2.74h1.74ZM603.84,56.53v2.7h1.41c.6,0,1.04-.12,1.34-.35.3-.23.44-.57.44-1,0-.48-.14-.82-.42-1.03-.27-.21-.71-.32-1.3-.32h-1.47,0ZM605.31,55.43c.55,0,1.03.05,1.42.16.39.1.71.25.96.45.26.2.44.44.56.72.12.28.18.6.18.95,0,.2-.04.4-.1.59-.06.19-.16.37-.29.53s-.29.31-.48.44c-.2.13-.43.24-.7.33,1.22.26,1.84.91,1.84,1.95,0,.37-.07.71-.21,1.01s-.34.57-.6.79-.59.39-.97.52c-.38.12-.82.19-1.31.19h-3.17v-8.64h2.87,0ZM617.35,59.81v3.42c-.86.62-1.86.93-3,.93-.7,0-1.33-.11-1.9-.32-.56-.22-1.05-.52-1.45-.91-.4-.39-.7-.86-.92-1.4s-.32-1.13-.32-1.78.1-1.25.31-1.79c.21-.54.5-1.01.89-1.4.39-.39.86-.69,1.41-.91.54-.22,1.16-.32,1.84-.32.35,0,.67.03.97.08.3.05.58.13.83.22.26.1.5.21.71.35.22.14.42.29.6.46l-.41.64c-.06.1-.14.16-.24.19-.1.02-.21,0-.33-.07-.11-.07-.24-.14-.37-.22s-.27-.15-.44-.21c-.17-.07-.36-.12-.58-.16s-.48-.07-.78-.07c-.46,0-.87.08-1.24.23-.36.15-.68.36-.94.64-.26.28-.46.61-.6,1.01s-.21.84-.21,1.33c0,.52.08.98.23,1.39.14.4.35.75.63,1.03.27.28.6.49.98.64.39.15.82.22,1.3.22.35,0,.67-.04.94-.11.28-.08.56-.18.83-.32v-1.72h-1.21c-.09,0-.16-.02-.22-.07-.05-.05-.07-.12-.07-.2v-.8h2.76,0ZM619.63,60.3c0-.84-.11-1.66-.32-2.46-.2-.8-.5-1.56-.9-2.27-.03-.07-.05-.14-.06-.19s-.01-.1,0-.14c.02-.04.04-.08.07-.11.03-.03.07-.05.1-.08l.58-.35c.29.46.55.92.75,1.37.21.46.38.92.51,1.38.14.46.23.93.29,1.4s.09.95.09,1.45-.03.98-.09,1.46c-.06.47-.15.94-.29,1.4-.13.46-.3.92-.51,1.37-.2.46-.46.91-.75,1.37l-.58-.35s-.07-.05-.1-.08-.05-.06-.07-.11c-.01-.04-.01-.09,0-.14s.03-.12.06-.19c.4-.71.7-1.46.9-2.26.21-.8.32-1.63.32-2.47Z"/>
  <path class="cls-9" d="M668.14,28.99h-1.41v-8.64h1.41v8.64ZM671.06,23.68c.13-.14.27-.26.41-.37s.29-.21.45-.29c.16-.08.33-.14.51-.19.18-.04.38-.07.59-.07.34,0,.63.06.88.17.26.11.47.27.64.47.18.2.31.45.4.74.09.28.13.6.13.94v3.89h-1.28v-3.89c0-.41-.1-.73-.29-.96-.19-.23-.48-.34-.86-.34-.29,0-.56.07-.81.2-.24.13-.47.31-.69.54v4.46h-1.29v-6.12h.78c.18,0,.29.08.34.25l.09.56h0ZM678.46,29.09c-.51,0-.9-.14-1.18-.43-.27-.29-.41-.69-.41-1.21v-3.56h-.67c-.07,0-.13-.02-.18-.07-.06-.05-.08-.12-.08-.21v-.52l.99-.14.28-1.77c.02-.07.05-.12.1-.16.05-.04.11-.07.19-.07h.66v2.01h1.7v.93h-1.7v3.47c0,.22.06.39.17.5.1.12.25.17.43.17.1,0,.18-.01.26-.04.07-.03.13-.06.18-.08.05-.03.1-.06.13-.08.04-.03.08-.04.12-.04.07,0,.13.04.17.12l.39.63c-.2.18-.44.31-.71.41-.27.09-.55.14-.84.14h0ZM684.85,25.24c0-.22-.04-.42-.1-.6-.06-.19-.15-.35-.27-.49s-.27-.25-.45-.32c-.18-.08-.38-.12-.61-.12-.47,0-.84.13-1.11.4-.26.27-.43.64-.51,1.13h3.05,0ZM681.77,26.04c.01.35.07.65.16.91.09.25.21.46.37.63.15.17.34.29.55.38.21.08.45.12.72.12.25,0,.47-.03.65-.08.19-.06.35-.12.48-.19.14-.07.25-.14.35-.19.1-.06.18-.09.26-.09.11,0,.19.04.24.12l.37.47c-.15.18-.32.33-.52.46-.19.12-.39.23-.61.31-.21.08-.44.13-.66.16-.23.04-.45.05-.67.05-.42,0-.82-.07-1.18-.21-.36-.14-.68-.35-.94-.63-.27-.28-.48-.62-.63-1.03s-.22-.88-.22-1.41c0-.42.07-.82.2-1.19s.33-.69.57-.96c.26-.27.56-.49.92-.64.36-.16.76-.24,1.21-.24.38,0,.73.06,1.05.19.32.12.59.3.83.53.23.24.41.53.54.87s.19.73.19,1.16c0,.2-.02.33-.06.4-.05.07-.13.1-.24.1h-3.93,0ZM688.43,24.01c.19-.39.42-.69.69-.91.27-.22.6-.34.98-.34.13,0,.26.02.37.05.12.03.22.07.31.13l-.09.97c-.01.07-.04.12-.07.14-.04.02-.08.04-.14.04s-.14-.01-.25-.03c-.12-.02-.23-.04-.36-.04-.18,0-.34.03-.48.08-.13.05-.26.13-.37.23s-.2.22-.29.37c-.08.14-.16.31-.23.49v3.8h-1.29v-6.12h.75c.13,0,.23.03.28.08s.09.13.11.26c0,0,.08.8.08.8ZM692.84,23.68c.14-.14.27-.26.41-.37.15-.11.3-.21.46-.29s.33-.14.51-.19c.18-.04.37-.07.59-.07.33,0,.63.06.88.17s.47.27.64.47c.18.2.31.45.4.74.08.28.13.6.13.94v3.89h-1.29v-3.89c0-.41-.09-.73-.28-.96-.19-.23-.48-.34-.87-.34-.29,0-.55.07-.8.2s-.48.31-.69.54v4.46h-1.29v-6.12h.78c.17,0,.29.08.33.25l.09.56h0ZM701.63,26.32c-.46.02-.84.05-1.16.11-.32.06-.57.13-.77.22-.19.09-.34.19-.42.32-.09.12-.13.26-.13.41s.02.27.07.37c.04.1.11.18.19.25.08.06.18.11.29.14.11.03.23.04.36.04.34,0,.63-.06.87-.19.24-.13.48-.31.7-.55v-1.13h0ZM698.21,23.73c.7-.64,1.52-.97,2.48-.97.35,0,.66.06.93.17.28.11.51.27.69.48.19.21.33.46.43.74.1.28.15.6.15.95v3.89h-.58c-.12,0-.22-.02-.28-.05-.06-.04-.12-.12-.16-.23l-.13-.5c-.15.14-.31.27-.46.38-.15.11-.31.2-.47.28-.16.08-.34.13-.53.17-.18.04-.38.06-.61.06-.25,0-.48-.03-.69-.1-.22-.07-.4-.17-.56-.31-.15-.14-.28-.31-.37-.52-.09-.2-.13-.44-.13-.72,0-.24.06-.47.19-.69.12-.22.33-.42.62-.6s.67-.33,1.15-.44c.47-.12,1.06-.18,1.75-.2v-.41c0-.44-.09-.77-.28-.98-.19-.22-.46-.32-.83-.32-.24,0-.45.03-.62.1-.17.06-.31.13-.44.2-.12.07-.23.14-.33.2-.09.06-.2.09-.3.09-.09,0-.17-.02-.23-.07-.06-.05-.11-.11-.15-.17l-.24-.42h0ZM710.26,28.99h-1.29v-5.11h-2.98v3.47c0,.22.05.39.16.5.11.12.25.17.43.17.1,0,.19-.01.26-.04.07-.03.13-.06.18-.08.06-.03.1-.06.14-.08.04-.03.07-.04.11-.04.07,0,.13.04.17.12l.39.63c-.2.18-.44.31-.71.41-.27.09-.55.14-.84.14-.51,0-.9-.14-1.18-.43-.27-.29-.4-.69-.4-1.21v-3.56h-.68c-.07,0-.13-.02-.18-.07s-.08-.12-.08-.21v-.52l.99-.14.28-1.77c.02-.07.06-.12.1-.16.05-.04.12-.07.2-.07h.66v2.01h4.27v6.04h0ZM710.52,21c0,.12-.02.23-.07.33-.04.1-.11.19-.19.27s-.17.14-.28.19c-.1.04-.21.07-.33.07-.11,0-.22-.02-.33-.07-.1-.05-.19-.11-.27-.19-.07-.08-.14-.17-.18-.27-.05-.1-.07-.21-.07-.33s.02-.23.07-.34c.04-.11.11-.2.18-.28.08-.08.17-.14.27-.19.11-.05.22-.07.33-.07.12,0,.23.02.33.07.11.04.2.11.28.19.08.08.15.17.19.28.05.1.07.22.07.34ZM714.53,22.78c.46,0,.86.07,1.23.22s.68.36.93.63c.26.27.46.6.6.99s.21.82.21,1.31-.07.92-.21,1.31-.34.72-.6,1c-.25.27-.56.48-.93.63s-.77.22-1.23.22-.86-.07-1.23-.22-.68-.36-.94-.63c-.26-.28-.46-.61-.6-1s-.21-.82-.21-1.31.07-.92.21-1.31.34-.72.6-.99.57-.48.94-.63.78-.22,1.23-.22ZM714.53,28.08c.56,0,.97-.18,1.23-.55.28-.37.41-.9.41-1.59s-.13-1.22-.41-1.59c-.26-.38-.67-.56-1.23-.56s-.97.19-1.24.56c-.28.37-.41.9-.41,1.59s.13,1.22.41,1.59c.27.37.68.55,1.24.55ZM719.95,23.68c.13-.14.27-.26.41-.37s.29-.21.45-.29c.16-.08.33-.14.51-.19.18-.04.38-.07.59-.07.34,0,.63.06.88.17.26.11.47.27.64.47.18.2.31.45.4.74.09.28.13.6.13.94v3.89h-1.28v-3.89c0-.41-.1-.73-.29-.96-.19-.23-.48-.34-.86-.34-.29,0-.56.07-.81.2-.24.13-.47.31-.69.54v4.46h-1.29v-6.12h.78c.18,0,.29.08.34.25l.09.56h0ZM728.74,26.32c-.46.02-.85.05-1.16.11-.32.06-.58.13-.77.22-.2.09-.34.19-.43.32-.08.12-.12.26-.12.41s.02.27.06.37c.05.1.11.18.19.25.09.06.18.11.29.14.11.03.24.04.37.04.33,0,.62-.06.86-.19.25-.13.48-.31.71-.55v-1.13h0ZM725.32,23.73c.69-.64,1.52-.97,2.47-.97.35,0,.67.06.94.17.27.11.5.27.69.48s.33.46.42.74c.1.28.15.6.15.95v3.89h-.57c-.13,0-.22-.02-.28-.05-.07-.04-.12-.12-.17-.23l-.12-.5c-.16.14-.31.27-.46.38-.16.11-.31.2-.48.28-.16.08-.33.13-.52.17-.18.04-.39.06-.61.06-.25,0-.48-.03-.7-.1-.21-.07-.39-.17-.55-.31s-.28-.31-.37-.52c-.09-.2-.13-.44-.13-.72,0-.24.06-.47.18-.69.13-.22.34-.42.63-.6s.67-.33,1.14-.44c.48-.12,1.06-.18,1.76-.2v-.41c0-.44-.09-.77-.28-.98-.19-.22-.47-.32-.83-.32-.25,0-.46.03-.62.1-.17.06-.32.13-.44.2-.13.07-.24.14-.33.2-.1.06-.2.09-.31.09-.09,0-.16-.02-.23-.07-.06-.05-.11-.11-.15-.17l-.23-.42h0ZM732.82,20.11v8.88h-1.29v-8.88h1.29ZM656.71,35.52h-2.7v7.47h-1.39v-7.47h-2.7v-1.17h6.79v1.17h0ZM657.62,38.01c.19-.39.43-.69.7-.91.27-.22.6-.34.98-.34.13,0,.25.02.37.05.11.03.22.07.31.13l-.09.97c-.02.07-.04.12-.08.14-.03.02-.07.04-.13.04s-.15,0-.26-.03-.23-.04-.35-.04c-.18,0-.34.03-.48.08s-.26.13-.37.23-.21.22-.29.37c-.09.14-.16.31-.24.49v3.8h-1.29v-6.12h.75c.14,0,.23.03.29.08.05.05.08.13.1.26,0,0,.08.8.08.8ZM664.01,40.32c-.46.02-.85.05-1.16.11-.32.06-.58.13-.77.22-.2.09-.34.19-.43.32-.08.12-.12.26-.12.41s.02.27.06.37c.05.1.11.18.19.25.09.06.18.11.29.14s.24.04.37.04c.33,0,.62-.06.86-.19.25-.13.48-.31.71-.55v-1.13h0ZM660.59,37.73c.69-.64,1.52-.97,2.47-.97.35,0,.67.06.94.17.27.11.5.27.69.48s.33.46.42.74c.1.28.15.6.15.95v3.89h-.57c-.13,0-.22-.02-.28-.05-.07-.04-.12-.12-.17-.23l-.12-.5c-.16.14-.31.27-.46.38-.16.11-.31.2-.48.28-.16.08-.33.13-.52.17-.18.04-.39.06-.61.06-.25,0-.48-.03-.7-.1-.21-.07-.39-.17-.55-.31-.16-.14-.28-.31-.37-.52-.09-.2-.13-.44-.13-.72,0-.24.06-.47.18-.69.13-.22.34-.42.63-.6s.67-.33,1.14-.44c.48-.12,1.06-.18,1.76-.2v-.41c0-.44-.09-.77-.28-.98-.19-.22-.47-.32-.83-.32-.25,0-.46.03-.62.1-.17.06-.32.13-.44.2-.13.07-.24.14-.33.2-.1.06-.2.09-.31.09-.09,0-.16-.02-.23-.07-.06-.05-.11-.11-.15-.17l-.23-.42h0ZM672.02,36.88l-2.46,6.12h-1.16l-2.46-6.12h1.06c.1,0,.18.03.25.08.07.05.11.11.13.17l1.36,3.56c.05.17.1.33.15.5.04.16.08.33.11.5.03-.17.07-.33.11-.49.05-.16.1-.33.16-.5l1.38-3.56c.02-.07.07-.13.13-.18.07-.05.14-.07.24-.07h1,0ZM676.74,39.24c0-.22-.03-.42-.09-.6-.06-.19-.15-.35-.27-.49-.12-.14-.27-.25-.45-.32-.18-.08-.38-.12-.61-.12-.47,0-.84.13-1.11.4s-.44.64-.51,1.13h3.04,0ZM673.67,40.04c.01.35.07.65.16.91.09.25.21.46.36.63.16.17.34.29.56.38.21.08.45.12.72.12.25,0,.47-.03.65-.08.18-.06.34-.12.48-.19s.25-.14.35-.19c.09-.06.18-.09.26-.09.11,0,.19.04.24.12l.37.47c-.15.18-.33.33-.52.46-.19.12-.39.23-.61.31s-.44.13-.67.16c-.22.04-.45.05-.66.05-.43,0-.82-.07-1.18-.21-.36-.14-.68-.35-.95-.63-.26-.28-.47-.62-.62-1.03s-.22-.88-.22-1.41c0-.42.06-.82.2-1.19.13-.37.32-.69.57-.96s.56-.49.91-.64c.36-.16.77-.24,1.22-.24.38,0,.73.06,1.05.19.32.12.59.3.82.53.24.24.42.53.54.87.14.34.2.73.2,1.16,0,.2-.02.33-.06.4-.05.07-.13.1-.24.1h-3.93,0ZM680.42,34.11v8.88h-1.29v-8.88h1.29ZM689.76,35.83c-.05.07-.09.13-.14.16s-.11.05-.18.05c-.08,0-.16-.03-.26-.1-.09-.06-.21-.13-.35-.21-.13-.08-.3-.15-.48-.22-.19-.07-.42-.1-.68-.1-.24,0-.45.03-.63.09s-.33.14-.46.25c-.12.11-.22.24-.28.38s-.09.3-.09.47c0,.22.06.4.17.55.12.14.27.27.46.37s.41.2.65.28c.25.08.5.16.75.25s.5.19.75.3c.24.11.46.25.65.43.19.17.34.38.46.63.11.25.17.55.17.91,0,.38-.06.74-.2,1.08-.13.34-.32.63-.57.88s-.56.44-.93.59c-.36.14-.78.22-1.24.22-.28,0-.55-.03-.81-.08-.26-.05-.51-.13-.75-.22-.24-.1-.46-.22-.67-.36-.21-.14-.39-.3-.56-.47l.41-.67c.04-.06.08-.1.14-.13.05-.03.12-.05.18-.05.1,0,.2.04.31.13.11.08.25.18.4.28.16.1.35.19.58.28.22.08.49.13.8.13.51,0,.9-.12,1.18-.37s.42-.59.42-1.03c0-.24-.06-.44-.18-.59-.11-.16-.27-.29-.46-.39s-.4-.19-.65-.26c-.24-.07-.49-.15-.74-.23-.25-.08-.5-.18-.74-.29-.25-.11-.47-.26-.66-.43-.19-.18-.34-.4-.45-.66-.12-.26-.18-.59-.18-.98,0-.31.06-.61.18-.91.13-.29.3-.55.54-.77.23-.23.52-.41.87-.55.34-.14.73-.2,1.17-.2.5,0,.95.08,1.36.23.42.16.78.38,1.08.67l-.34.67h0ZM695.85,38.07s-.08.09-.11.12c-.04.03-.09.04-.16.04s-.14-.02-.21-.07c-.08-.05-.16-.1-.27-.16-.1-.06-.22-.11-.36-.16-.15-.05-.33-.07-.54-.07-.28,0-.53.05-.74.15-.21.1-.39.24-.53.43-.14.18-.25.41-.32.68-.07.26-.1.56-.1.89s.04.65.11.92c.08.27.19.49.33.68.14.18.31.32.51.42.21.1.44.14.69.14s.45-.03.6-.09c.16-.06.29-.13.39-.2.11-.07.2-.14.27-.2.07-.06.15-.09.24-.09.1,0,.18.04.24.12l.36.47c-.14.18-.31.33-.49.46-.18.12-.37.23-.57.31s-.41.13-.62.16c-.22.04-.44.05-.66.05-.38,0-.73-.07-1.06-.21-.33-.14-.62-.35-.87-.62-.24-.27-.44-.6-.58-.99-.14-.39-.21-.84-.21-1.34,0-.45.06-.87.19-1.25.13-.39.32-.72.56-1,.25-.28.55-.5.92-.65.36-.16.78-.24,1.26-.24.44,0,.83.07,1.17.22.34.14.64.35.9.61l-.34.47h0ZM698.58,37.6c.25-.25.53-.45.83-.59.3-.15.65-.23,1.05-.23.34,0,.63.06.88.17.26.11.47.27.64.47.18.2.31.45.4.74.09.28.13.6.13.94v3.89h-1.28v-3.89c0-.41-.1-.73-.29-.96-.19-.23-.48-.34-.86-.34-.29,0-.56.07-.81.2-.24.13-.47.31-.69.54v4.46h-1.29v-8.88h1.29v3.49h0ZM708.03,39.24c0-.22-.03-.42-.09-.6-.06-.19-.15-.35-.27-.49-.12-.14-.27-.25-.45-.32-.18-.08-.38-.12-.62-.12-.46,0-.83.13-1.1.4s-.44.64-.51,1.13h3.04,0ZM704.95,40.04c.02.35.07.65.17.91.09.25.21.46.36.63.16.17.34.29.55.38.22.08.46.12.72.12s.47-.03.66-.08c.18-.06.34-.12.48-.19.13-.07.25-.14.35-.19.09-.06.18-.09.26-.09.1,0,.18.04.24.12l.37.47c-.16.18-.33.33-.52.46-.19.12-.4.23-.61.31-.22.08-.44.13-.67.16-.23.04-.45.05-.66.05-.43,0-.82-.07-1.19-.21-.36-.14-.67-.35-.94-.63-.26-.28-.47-.62-.62-1.03s-.22-.88-.22-1.41c0-.42.06-.82.19-1.19.14-.37.33-.69.58-.96s.56-.49.91-.64c.36-.16.77-.24,1.22-.24.38,0,.72.06,1.04.19.32.12.6.3.83.53.23.24.41.53.54.87s.2.73.2,1.16c0,.2-.02.33-.07.4-.04.07-.12.1-.24.1h-3.93ZM710.39,42.99v-6.12h.78c.18,0,.29.08.34.25l.08.53c.12-.13.23-.24.35-.35.12-.11.25-.2.39-.28.14-.08.28-.14.44-.19.16-.04.33-.07.52-.07s.37.03.54.08c.16.06.3.14.43.24s.24.23.33.38.17.31.23.5c.09-.21.2-.39.34-.55.14-.15.3-.28.47-.37.17-.1.36-.17.55-.21.19-.05.39-.07.59-.07.33,0,.62.05.88.16.26.1.48.26.65.46.18.2.32.44.41.73.09.29.14.62.14.98v3.89h-1.29v-3.89c0-.43-.1-.76-.28-.97-.19-.22-.46-.33-.83-.33-.16,0-.31.03-.46.08-.14.06-.27.14-.38.25-.1.11-.19.24-.25.41-.06.16-.09.35-.09.56v3.89h-1.29v-3.89c0-.45-.09-.78-.27-.98-.18-.21-.45-.32-.8-.32-.24,0-.46.06-.66.19-.21.12-.39.29-.57.5v4.51h-1.29,0ZM724.37,39.24c0-.22-.03-.42-.1-.6-.06-.19-.15-.35-.27-.49-.12-.14-.27-.25-.45-.32-.17-.08-.38-.12-.61-.12-.47,0-.84.13-1.1.4-.27.27-.44.64-.51,1.13h3.04,0ZM721.29,40.04c.02.35.07.65.16.91.09.25.22.46.37.63s.34.29.55.38c.22.08.46.12.72.12s.47-.03.65-.08c.19-.06.35-.12.48-.19.14-.07.26-.14.35-.19.1-.06.19-.09.27-.09.1,0,.18.04.24.12l.36.47c-.15.18-.32.33-.51.46-.2.12-.4.23-.62.31-.21.08-.43.13-.66.16-.23.04-.45.05-.67.05-.42,0-.82-.07-1.18-.21-.36-.14-.67-.35-.94-.63-.27-.28-.47-.62-.63-1.03-.14-.41-.22-.88-.22-1.41,0-.42.07-.82.2-1.19.14-.37.33-.69.58-.96s.55-.49.91-.64c.36-.16.76-.24,1.22-.24.37,0,.72.06,1.04.19.32.12.6.3.83.53.23.24.41.53.54.87s.2.73.2,1.16c0,.2-.03.33-.07.4-.04.07-.12.1-.24.1h-3.93,0ZM730.53,39.23c0,.84.11,1.66.32,2.47.2.8.51,1.55.9,2.26.04.07.06.14.07.19s0,.1-.01.14c-.02.04-.04.08-.08.11-.02.03-.06.05-.09.08l-.57.35c-.3-.46-.56-.92-.76-1.37-.21-.45-.38-.91-.51-1.37-.14-.46-.23-.93-.29-1.4-.06-.48-.09-.96-.09-1.46s.03-.97.09-1.45c.06-.48.15-.94.29-1.4.13-.46.3-.92.51-1.38.2-.46.46-.91.76-1.37l.57.35s.07.05.09.08c.04.03.06.06.08.11.01.04.02.09.01.14s-.03.12-.07.19c-.39.71-.7,1.47-.9,2.27-.21.8-.32,1.62-.32,2.46ZM734.63,42.99h-1.41v-8.64h1.41v8.64ZM742.62,35.52h-2.7v7.47h-1.39v-7.47h-2.7v-1.17h6.79v1.17h0ZM748.32,35.83c-.05.07-.09.13-.14.16s-.11.05-.18.05c-.08,0-.16-.03-.26-.1-.09-.06-.21-.13-.35-.21-.13-.08-.3-.15-.48-.22-.19-.07-.42-.1-.68-.1-.24,0-.45.03-.63.09s-.33.14-.46.25c-.12.11-.22.24-.28.38s-.09.3-.09.47c0,.22.06.4.17.55.12.14.27.27.46.37s.41.2.65.28c.25.08.5.16.75.25s.5.19.75.3c.24.11.46.25.65.43.19.17.34.38.46.63.11.25.17.55.17.91,0,.38-.06.74-.2,1.08-.13.34-.32.63-.57.88s-.56.44-.93.59c-.36.14-.78.22-1.24.22-.28,0-.55-.03-.81-.08-.26-.05-.51-.13-.75-.22-.24-.1-.46-.22-.67-.36-.21-.14-.39-.3-.56-.47l.41-.67c.04-.06.08-.1.14-.13.05-.03.12-.05.18-.05.1,0,.2.04.31.13.11.08.25.18.4.28.16.1.35.19.58.28.22.08.49.13.8.13.51,0,.9-.12,1.18-.37s.42-.59.42-1.03c0-.24-.06-.44-.18-.59-.11-.16-.27-.29-.46-.39s-.4-.19-.65-.26c-.24-.07-.49-.15-.74-.23-.25-.08-.5-.18-.74-.29-.25-.11-.47-.26-.66-.43-.19-.18-.34-.4-.45-.66-.12-.26-.18-.59-.18-.98,0-.31.06-.61.18-.91.13-.29.3-.55.54-.77.23-.23.52-.41.87-.55.34-.14.73-.2,1.17-.2.5,0,.95.08,1.36.23.42.16.78.38,1.08.67l-.34.67h0ZM750.97,39.23c0-.84-.11-1.66-.32-2.46-.2-.8-.5-1.56-.9-2.27-.03-.07-.05-.14-.06-.19s-.01-.1,0-.14c.02-.04.04-.08.07-.11.03-.03.07-.05.1-.08l.58-.35c.29.46.55.92.75,1.37.21.46.38.92.51,1.38.14.46.23.93.29,1.4s.09.95.09,1.45-.03.98-.09,1.46c-.06.47-.15.94-.29,1.4-.13.46-.3.92-.51,1.37-.2.46-.46.91-.75,1.37l-.58-.35s-.07-.05-.1-.08c-.03-.03-.05-.06-.07-.11-.01-.04-.01-.09,0-.14s.03-.12.06-.19c.4-.71.7-1.46.9-2.26.21-.8.32-1.63.32-2.47Z"/>
</svg>