<?xml version="1.0" encoding="UTF-8"?>
<svg id="Layer_1" data-name="Layer 1" xmlns="http://www.w3.org/2000/svg" xmlns:xlink="http://www.w3.org/1999/xlink" viewBox="0 0 903 272">
  <defs>
    <style>
      .cls-1 {
        fill: url(#radial-gradient);
        isolation: isolate;
        opacity: .1;
      }

      .cls-2 {
        fill: url(#linear-gradient-3);
      }

      .cls-3 {
        fill: url(#linear-gradient);
      }

      .cls-4 {
        fill: none;
        stroke: url(#linear-gradient-2);
        stroke-linecap: round;
        stroke-linejoin: round;
        stroke-width: 7.43px;
      }

      .cls-5 {
        opacity: .8;
      }
    </style>
    <linearGradient id="linear-gradient" x1="473.15" y1="-25.01" x2="403.22" y2="209.82" gradientTransform="translate(0 274) scale(1 -1)" gradientUnits="userSpaceOnUse">
      <stop offset="0" stop-color="#1f5aff" stop-opacity="0"/>
      <stop offset="1" stop-color="#71a2ff"/>
    </linearGradient>
    <radialGradient id="radial-gradient" cx="145.63" cy="531.38" fx="145.63" fy="531.38" r="1" gradientTransform="translate(-56346.85 84977.15) scale(390.71 -159.48)" gradientUnits="userSpaceOnUse">
      <stop offset="0" stop-color="#fff"/>
      <stop offset=".37" stop-color="#fff" stop-opacity=".99"/>
      <stop offset=".51" stop-color="#fff" stop-opacity=".97"/>
      <stop offset=".6" stop-color="#fff" stop-opacity=".92"/>
      <stop offset=".68" stop-color="#fff" stop-opacity=".85"/>
      <stop offset=".75" stop-color="#fff" stop-opacity=".77"/>
      <stop offset=".8" stop-color="#fff" stop-opacity=".66"/>
      <stop offset=".86" stop-color="#fff" stop-opacity=".53"/>
      <stop offset=".91" stop-color="#fff" stop-opacity=".39"/>
      <stop offset=".95" stop-color="#fff" stop-opacity=".22"/>
      <stop offset=".99" stop-color="#fff" stop-opacity=".04"/>
      <stop offset="1" stop-color="#fff" stop-opacity="0"/>
    </radialGradient>
    <linearGradient id="linear-gradient-2" x1="6.13" y1="36.09" x2="895.94" y2="190.84" gradientTransform="translate(0 274) scale(1 -1)" gradientUnits="userSpaceOnUse">
      <stop offset="0" stop-color="#0061b6" stop-opacity="0"/>
      <stop offset=".63" stop-color="#feffff" stop-opacity=".58"/>
      <stop offset="1" stop-color="#005bdb"/>
    </linearGradient>
    <linearGradient id="linear-gradient-3" x1="724.21" y1="204.24" x2="902.72" y2="204.24" gradientTransform="translate(0 274) scale(1 -1)" gradientUnits="userSpaceOnUse">
      <stop offset="0" stop-color="#2886ff"/>
      <stop offset=".24" stop-color="#d6d6d6" stop-opacity=".82"/>
      <stop offset=".54" stop-color="#f4f3f3" stop-opacity=".95"/>
      <stop offset="1" stop-color="#fff"/>
    </linearGradient>
  </defs>
  <path class="cls-3" d="M2.68,274.35c63.1-4.98,104.07-17.4,129.28-27.34,68.13-26.88,68.71-54.56,139.29-75.3,45.94-13.51,89.83-14.74,116.57-15.51,96.12-2.72,113.91,20.35,177.6,11.79,43.87-5.9,73.8-22.01,128.57-51.47,45.8-24.64,53.38-36.06,90.43-48.37,42.29-14.06,85.28-16.58,114.41-16.59v331.72H-1.14"/>
  <path class="cls-1" d="M959.45,114.51v-1.4h-46.08v-38.75h-1.92v38.75h-53.16v-38.75h-1.92v38.75h-53.16v-38.75h-1.92v38.75h-53.16v-38.75h-1.92v38.75h-53.16v-38.75h-1.92v38.75h-53.16v-38.75h-1.92v38.75h-53.05v-39.45h-1.92v39.45h-53.17v-39.45h-1.92v39.45h-53.17v-39.45h-1.92v39.45h-53.17v-39.45h-1.92v39.45h-53.17v-39.45h-1.92v39.45h-53.16v-39.45h-1.92v39.45h-53.16v-39.45h-1.92v39.45h-53.16v-39.45h-1.92v39.45h-53.27v1.4h53.27v38.75h-53.27v1.4h53.27v38.75h-53.27v1.4h53.27v38.75h-53.27v1.4h53.27v38.75h-53.27v1.4h53.27v38.75h-53.27v1.4h53.27v38.75h-53.27v1.4h53.27v37.9h1.92v-37.9h53.16v37.9h1.92v-37.9h53.16v37.9h1.92v-37.9h53.16v37.9h1.92v-37.9h53.17v37.9h1.92v-37.9h53.17v37.9h1.92v-37.9h53.17v37.9h1.92v-37.9h53.17v37.9h1.92v-37.9h53.05v38.6h1.92v-38.6h53.16v38.6h1.92v-38.6h53.16v38.6h1.92v-38.6h53.16v38.6h1.92v-38.6h53.16v38.6h1.92v-38.6h53.16v38.6h1.92v-38.6h46.08v-1.4h-46.08v-38.75h46.08v-1.4h-46.08v-38.75h46.08v-1.4h-46.08v-38.75h46.08v-1.4h-46.08v-38.75h46.08v-1.4h-46.08v-38.75h46.08v-1.4h-46.08v-38.75h46.08ZM856.38,114.51v38.75h-53.16v-38.75h53.16ZM691.11,233.57h-53.16v-38.75h53.16v38.75ZM693.03,194.82h53.16v38.75h-53.16v-38.75ZM636.03,233.57h-53.05v-38.75h53.05v38.75ZM581.05,233.57h-53.17v-38.75h53.17v38.75ZM525.97,233.57h-53.17v-38.75h53.17v38.75ZM470.89,233.57h-53.17v-38.75h53.17v38.75ZM415.79,233.57h-53.17v-38.75h53.17v38.75ZM360.71,233.57h-53.16v-38.75h53.16v38.75ZM360.71,234.97v38.75h-53.16v-38.75h53.16ZM362.63,234.97h53.17v38.75h-53.17v-38.75ZM417.71,234.97h53.17v38.75h-53.17v-38.75ZM472.81,234.97h53.17v38.75h-53.17v-38.75ZM527.89,234.97h53.17v38.75h-53.17v-38.75ZM582.97,234.97h53.05v38.75h-53.05v-38.75ZM637.95,234.97h53.16v38.75h-53.16v-38.75ZM693.03,234.97h53.16v38.75h-53.16v-38.75ZM748.12,234.97h53.16v38.75h-53.16v-38.75ZM748.12,233.57v-38.75h53.16v38.75h-53.16ZM748.12,193.41v-38.75h53.16v38.75h-53.16ZM746.2,193.41h-53.16v-38.75h53.16v38.75ZM691.11,193.41h-53.16v-38.75h53.16v38.75ZM636.03,193.41h-53.05v-38.75h53.05v38.75ZM581.05,193.41h-53.17v-38.75h53.17v38.75ZM525.97,193.41h-53.17v-38.75h53.17v38.75ZM470.89,193.41h-53.17v-38.75h53.17v38.75ZM415.79,193.41h-53.17v-38.75h53.17v38.75ZM360.71,193.41h-53.16v-38.75h53.16v38.75ZM305.63,193.41h-53.16v-38.75h53.16v38.75ZM305.63,194.82v38.75h-53.16v-38.75h53.16ZM305.63,234.97v38.75h-53.16v-38.75h53.16ZM305.63,275.12v38.75h-53.16v-38.75h53.16ZM307.55,275.12h53.16v38.75h-53.16v-38.75ZM362.63,275.12h53.17v38.75h-53.17v-38.75ZM417.71,275.12h53.17v38.75h-53.17v-38.75ZM472.81,275.12h53.17v38.75h-53.17v-38.75ZM527.89,275.12h53.17v38.75h-53.17v-38.75ZM582.97,275.12h53.05v38.75h-53.05v-38.75ZM637.95,275.12h53.16v38.75h-53.16v-38.75ZM693.03,275.12h53.16v38.75h-53.16v-38.75ZM748.12,275.12h53.16v38.75h-53.16v-38.75ZM803.21,275.12h53.16v38.75h-53.16v-38.75ZM803.21,273.72v-38.75h53.16v38.75h-53.16ZM803.21,233.57v-38.75h53.16v38.75h-53.16ZM803.21,193.41v-38.75h53.16v38.75h-53.16ZM801.29,114.51v38.75h-53.16v-38.75h53.16ZM746.2,114.51v38.75h-53.16v-38.75h53.16ZM691.11,114.51v38.75h-53.16v-38.75h53.16ZM636.03,114.51v38.75h-53.05v-38.75h53.05ZM581.05,114.51v38.75h-53.17v-38.75h53.17ZM525.97,114.51v38.75h-53.17v-38.75h53.17ZM470.89,114.51v38.75h-53.17v-38.75h53.17ZM415.79,114.51v38.75h-53.17v-38.75h53.17ZM360.71,114.51v38.75h-53.16v-38.75h53.16ZM305.63,114.51v38.75h-53.16v-38.75h53.16ZM197.37,114.51h53.16v38.75h-53.16v-38.75ZM197.37,154.66h53.16v38.75h-53.16v-38.75ZM197.37,194.82h53.16v38.75h-53.16v-38.75ZM197.37,234.97h53.16v38.75h-53.16v-38.75ZM197.37,275.12h53.16v38.75h-53.16v-38.75ZM197.37,354.03v-38.75h53.16v38.75h-53.16ZM252.46,354.03v-38.75h53.16v38.75h-53.16ZM307.55,354.03v-38.75h53.16v38.75h-53.16ZM362.63,354.03v-38.75h53.17v38.75h-53.17ZM417.71,354.03v-38.75h53.17v38.75h-53.17ZM472.81,354.03v-38.75h53.17v38.75h-53.17ZM527.89,354.03v-38.75h53.17v38.75h-53.17ZM582.97,354.03v-38.75h53.05v38.75h-53.05ZM637.95,354.03v-38.75h53.16v38.75h-53.16ZM693.03,354.03v-38.75h53.16v38.75h-53.16ZM748.12,354.03v-38.75h53.16v38.75h-53.16ZM803.21,354.03v-38.75h53.16v38.75h-53.16ZM911.46,354.03h-53.16v-38.75h53.16v38.75ZM911.46,313.87h-53.16v-38.75h53.16v38.75ZM911.46,273.72h-53.16v-38.75h53.16v38.75ZM911.46,233.57h-53.16v-38.75h53.16v38.75ZM911.46,193.41h-53.16v-38.75h53.16v38.75ZM911.46,153.26h-53.16v-38.75h53.16v38.75Z"/>
  <path class="cls-4" d="M-.39,274.35c63.1-4.98,104.07-17.4,129.28-27.34,68.13-26.88,68.71-54.56,139.29-75.3,45.94-13.51,89.83-14.74,116.57-15.51,96.12-2.72,113.91,20.35,177.6,11.79,43.87-5.9,73.8-22.01,128.57-51.47,45.36-24.4,52.81-36.11,90.43-48.37,40.41-13.18,81.71-15.95,111.14-16.12"/>
  <g class="cls-5">
    <path class="cls-2" d="M894.51,56.73c-14.57-.52-29.3-.2-43.87,1.06-14.59,1.22-28.96,3.43-42.88,6.44-13.96,3-27.34,6.97-40.02,11.65-12.66,4.71-24.53,10.21-35.43,16.36,9.91-6.69,20.99-12.84,33.1-18.29,12.13-5.42,25.23-10.21,39.18-14.06,13.92-3.87,28.61-6.97,43.76-9.06,15.15-2.12,30.74-3.29,46.43-3.54,4.46-.08,8.2,1.98,8.33,4.59.13,2.61-3.4,4.79-7.86,4.86h-.73Z"/>
  </g>
</svg>