<?xml version="1.0" encoding="UTF-8"?>
<svg id="Layer_1" data-name="Layer 1" xmlns="http://www.w3.org/2000/svg" xmlns:xlink="http://www.w3.org/1999/xlink" viewBox="0 0 903 272">
  <defs>
    <style>
      .cls-1 {
        fill: url(#radial-gradient);
        isolation: isolate;
        opacity: .05;
      }

      .cls-2 {
        fill: url(#linear-gradient-3);
      }

      .cls-3 {
        fill: url(#linear-gradient);
      }

      .cls-4 {
        fill: none;
        stroke: url(#linear-gradient-2);
        stroke-linecap: round;
        stroke-linejoin: round;
        stroke-width: 7.4px;
      }

      .cls-5 {
        opacity: .8;
      }
    </style>
    <linearGradient id="linear-gradient" x1="473.17" y1="-542.98" x2="403.27" y2="-308.18" gradientTransform="translate(0 -244) scale(1 -1)" gradientUnits="userSpaceOnUse">
      <stop offset="0" stop-color="#1f5aff" stop-opacity="0"/>
      <stop offset="1" stop-color="#71a2ff"/>
    </linearGradient>
    <linearGradient id="linear-gradient-2" x1="6.11" y1="-481.93" x2="895.91" y2="-327.23" gradientTransform="translate(0 -244) scale(1 -1)" gradientUnits="userSpaceOnUse">
      <stop offset="0" stop-color="#0061b6" stop-opacity="0"/>
      <stop offset=".6" stop-color="#feffff" stop-opacity=".6"/>
      <stop offset="1" stop-color="#005bdb"/>
    </linearGradient>
    <linearGradient id="linear-gradient-3" x1="724.2" y1="-313.8" x2="902.7" y2="-313.8" gradientTransform="translate(0 -244) scale(1 -1)" gradientUnits="userSpaceOnUse">
      <stop offset="0" stop-color="#2886ff"/>
      <stop offset=".2" stop-color="#d6d6d6" stop-opacity=".8"/>
      <stop offset=".5" stop-color="#f4f3f3" stop-opacity=".9"/>
      <stop offset="1" stop-color="#fff"/>
    </linearGradient>
    <radialGradient id="radial-gradient" cx="436.93" cy="528.18" fx="436.93" fy="528.18" r="1" gradientTransform="translate(-170140.7 84469.8) scale(390.7 -159.5)" gradientUnits="userSpaceOnUse">
      <stop offset="0" stop-color="#fff"/>
      <stop offset=".4" stop-color="#fff"/>
      <stop offset=".5" stop-color="#fff"/>
      <stop offset=".6" stop-color="#fff" stop-opacity=".9"/>
      <stop offset=".7" stop-color="#fff" stop-opacity=".9"/>
      <stop offset=".8" stop-color="#fff" stop-opacity=".8"/>
      <stop offset=".8" stop-color="#fff" stop-opacity=".7"/>
      <stop offset=".9" stop-color="#fff" stop-opacity=".5"/>
      <stop offset=".9" stop-color="#fff" stop-opacity=".4"/>
      <stop offset=".9" stop-color="#fff" stop-opacity=".2"/>
      <stop offset="1" stop-color="#fff" stop-opacity="0"/>
      <stop offset="1" stop-color="#fff" stop-opacity="0"/>
    </radialGradient>
  </defs>
  <path class="cls-3" d="M2.7,274.4c63.1-5,104.1-17.4,129.3-27.3,68.1-26.9,68.7-54.6,139.3-75.3,45.9-13.5,89.8-14.7,116.6-15.5,96.1-2.7,113.9,20.4,177.6,11.8,43.9-5.9,73.8-22,128.6-51.5,45.8-24.6,53.4-36.1,90.4-48.4,42.3-14.1,85.3-16.6,114.4-16.6v331.7H-1.1"/>
  <path class="cls-4" d="M-.4,274.4c63.1-5,104.1-17.4,129.3-27.3,68.1-26.9,68.7-54.6,139.3-75.3,45.9-13.5,89.8-14.7,116.6-15.5,96.1-2.7,113.9,20.4,177.6,11.8,43.9-5.9,73.8-22,128.6-51.5,45.4-24.4,52.8-36.1,90.4-48.4,40.4-13.2,81.7-16,111.1-16.1"/>
  <g class="cls-5">
    <path class="cls-2" d="M894.5,56.7c-14.6-.5-29.3-.2-43.9,1.1-14.6,1.2-29,3.4-42.9,6.4-14,3-27.3,7-40,11.7s-24.5,10.2-35.4,16.4c9.9-6.7,21-12.8,33.1-18.3,12.1-5.4,25.2-10.2,39.2-14.1,13.9-3.9,28.6-7,43.8-9.1s30.7-3.3,46.4-3.5c4.5,0,8.2,2,8.3,4.6s-3.4,4.8-7.9,4.9h-.7v-.1Z"/>
  </g>
  <path class="cls-1" d="M959.5,114.5v-1.4h-46.1v-38.8h-1.9v38.8h-53.2v-38.8h-1.9v38.8h-53.2v-38.8h-1.9v38.8h-53.2v-38.8h-1.9v38.8h-53.2v-38.8h-1.9v38.8h-53.2v-38.8h-1.9v38.8h-53v-39.4h-1.9v39.4h-53.2v-39.4h-1.9v39.4h-53.2v-39.4h-1.9v39.4h-53.2v-39.4h-1.9v39.4h-53.2v-39.4h-1.9v39.4h-53.2v-39.4h-1.9v39.4h-53.2v-39.4h-1.9v39.4h-53.2v-39.4h-1.9v39.4h-53.3v1.4h53.3v38.8h-53.3v1.4h53.3v38.8h-53.3v1.4h53.3v38.8h-53.3v1.4h53.3v38.8h-53.3v1.4h53.3v38.8h-53.3v1.4h53.3v38.8h-53.3v1.4h53.3v37.9h1.9v-37.9h53.2v37.9h1.9v-37.9h53.2v37.9h1.9v-37.9h53.2v37.9h1.9v-37.9h53.2v37.9h1.9v-37.9h53.2v37.9h1.9v-37.9h53.2v37.9h1.9v-37.9h53.2v37.9h1.9v-37.9h53v38.6h1.9v-38.6h53.2v38.6h1.9v-38.6h53.2v38.6h1.9v-38.6h53.2v38.6h1.9v-38.6h53.2v38.6h1.9v-38.6h53.2v38.6h1.9v-38.6h46.1v-1.4h-46.1v-38.8h46.1v-1.4h-46.1v-38.8h46.1v-1.4h-46.1v-38.8h46.1v-1.4h-46.1v-38.8h46.1v-1.4h-46.1v-38.8h46.1v-1.4h-46.1v-38.8h46.1ZM856.4,114.5v38.8h-53.2v-38.8h53.2ZM691.1,233.6h-53.2v-38.8h53.2v38.8ZM693,194.8h53.2v38.8h-53.2v-38.8ZM636,233.6h-53v-38.8h53v38.8ZM581,233.6h-53.2v-38.8h53.2v38.8ZM526,233.6h-53.2v-38.8h53.2v38.8ZM470.9,233.6h-53.2v-38.8h53.2v38.8ZM415.8,233.6h-53.2v-38.8h53.2v38.8h0ZM360.7,233.6h-53.2v-38.8h53.2v38.8ZM360.7,235v38.8h-53.2v-38.8h53.2ZM362.6,235h53.2v38.8h-53.2v-38.8h0ZM417.7,235h53.2v38.8h-53.2v-38.8h0ZM472.8,235h53.2v38.8h-53.2v-38.8h0ZM527.9,235h53.2v38.8h-53.2v-38.8h0ZM583,235h53v38.8h-53v-38.8h0ZM638,235h53.2v38.8h-53.2v-38.8h0ZM693,235h53.2v38.8h-53.2v-38.8h0ZM748.1,235h53.2v38.8h-53.2v-38.8h0ZM748.1,233.6v-38.8h53.2v38.8h-53.2ZM748.1,193.4v-38.8h53.2v38.8h-53.2ZM746.2,193.4h-53.2v-38.8h53.2v38.8ZM691.1,193.4h-53.2v-38.8h53.2v38.8ZM636,193.4h-53v-38.8h53v38.8ZM581,193.4h-53.2v-38.8h53.2v38.8ZM526,193.4h-53.2v-38.8h53.2v38.8ZM470.9,193.4h-53.2v-38.8h53.2v38.8ZM415.8,193.4h-53.2v-38.8h53.2v38.8h0ZM360.7,193.4h-53.2v-38.8h53.2v38.8ZM305.6,193.4h-53.2v-38.8h53.2v38.8ZM305.6,194.8v38.8h-53.2v-38.8h53.2ZM305.6,235v38.8h-53.2v-38.8h53.2ZM305.6,275.1v38.8h-53.2v-38.8h53.2ZM307.5,275.1h53.2v38.8h-53.2v-38.8ZM362.6,275.1h53.2v38.8h-53.2v-38.8ZM417.7,275.1h53.2v38.8h-53.2v-38.8h0ZM472.8,275.1h53.2v38.8h-53.2v-38.8ZM527.9,275.1h53.2v38.8h-53.2v-38.8ZM583,275.1h53v38.8h-53v-38.8ZM638,275.1h53.2v38.8h-53.2v-38.8ZM693,275.1h53.2v38.8h-53.2v-38.8ZM748.1,275.1h53.2v38.8h-53.2v-38.8ZM803.2,275.1h53.2v38.8h-53.2v-38.8ZM803.2,273.7v-38.8h53.2v38.8h-53.2ZM803.2,233.6v-38.8h53.2v38.8h-53.2ZM803.2,193.4v-38.8h53.2v38.8h-53.2ZM801.3,114.5v38.8h-53.2v-38.8h53.2ZM746.2,114.5v38.8h-53.2v-38.8h53.2ZM691.1,114.5v38.8h-53.2v-38.8h53.2ZM636,114.5v38.8h-53v-38.8h53ZM581,114.5v38.8h-53.2v-38.8h53.2ZM526,114.5v38.8h-53.2v-38.8h53.2ZM470.9,114.5v38.8h-53.2v-38.8h53.2ZM415.8,114.5v38.8h-53.2v-38.8h53.2ZM360.7,114.5v38.8h-53.2v-38.8h53.2ZM305.6,114.5v38.8h-53.2v-38.8h53.2ZM197.4,114.5h53.2v38.8h-53.2v-38.8ZM197.4,154.7h53.2v38.8h-53.2v-38.8ZM197.4,194.8h53.2v38.8h-53.2v-38.8ZM197.4,235h53.2v38.8h-53.2v-38.8h0ZM197.4,275.1h53.2v38.8h-53.2v-38.8ZM197.4,354v-38.8h53.2v38.8h-53.2ZM252.5,354v-38.8h53.2v38.8h-53.2ZM307.5,354v-38.8h53.2v38.8h-53.2ZM362.6,354v-38.8h53.2v38.8h-53.2ZM417.7,354v-38.8h53.2v38.8h-53.2ZM472.8,354v-38.8h53.2v38.8h-53.2ZM527.9,354v-38.8h53.2v38.8h-53.2ZM583,354v-38.8h53v38.8h-53ZM638,354v-38.8h53.2v38.8h-53.2ZM693,354v-38.8h53.2v38.8h-53.2ZM748.1,354v-38.8h53.2v38.8h-53.2ZM803.2,354v-38.8h53.2v38.8h-53.2ZM911.5,354h-53.2v-38.8h53.2v38.8ZM911.5,313.9h-53.2v-38.8h53.2v38.8ZM911.5,273.7h-53.2v-38.8h53.2v38.8ZM911.5,233.6h-53.2v-38.8h53.2v38.8ZM911.5,193.4h-53.2v-38.8h53.2v38.8ZM911.5,153.3h-53.2v-38.8h53.2v38.8Z"/>
</svg>